<svg xmlns="http://www.w3.org/2000/svg" xmlns:xlink="http://www.w3.org/1999/xlink" width="200" zoomAndPan="magnify" viewBox="0 0 150 149.999998" height="200" preserveAspectRatio="xMidYMid meet" version="1.0"><defs><g/></defs><rect x="-15" width="180" fill="#ffffff" y="-15" height="179.999997" fill-opacity="1"/><rect x="-15" width="180" fill="#ffffff" y="-15" height="179.999997" fill-opacity="1"/><path stroke-linecap="butt" transform="matrix(0.75, 0, 0, 0.75, -0.0673658, 111.69168)" fill="none" stroke-linejoin="miter" d="M 0.00127946 0.499635 L 180.089832 0.499635 " stroke="#0a152f" stroke-width="1" stroke-opacity="1" stroke-miterlimit="4"/><g fill="#0a152f" fill-opacity="1"><g transform="translate(14.966316, 58.795884)"><g><path d="M 15.359375 -21.15625 L 15.359375 -18.90625 L 9.59375 -18.90625 L 9.59375 0 L 6.828125 0 L 6.828125 -18.90625 L 1.03125 -18.90625 L 1.03125 -21.15625 Z M 15.359375 -21.15625 "/></g></g></g><g fill="#0a152f" fill-opacity="1"><g transform="translate(31.382794, 58.795884)"><g><path d="M 1.3125 -8.375 C 1.3125 -10.070312 1.65625 -11.5625 2.34375 -12.84375 C 3.03125 -14.132812 3.972656 -15.132812 5.171875 -15.84375 C 6.378906 -16.550781 7.71875 -16.90625 9.1875 -16.90625 C 10.644531 -16.90625 11.910156 -16.585938 12.984375 -15.953125 C 14.054688 -15.328125 14.859375 -14.539062 15.390625 -13.59375 L 15.390625 -16.625 L 18.171875 -16.625 L 18.171875 0 L 15.390625 0 L 15.390625 -3.09375 C 14.835938 -2.125 14.019531 -1.320312 12.9375 -0.6875 C 11.851562 -0.0507812 10.59375 0.265625 9.15625 0.265625 C 7.6875 0.265625 6.351562 -0.09375 5.15625 -0.8125 C 3.96875 -1.539062 3.03125 -2.5625 2.34375 -3.875 C 1.65625 -5.195312 1.3125 -6.695312 1.3125 -8.375 Z M 15.390625 -8.34375 C 15.390625 -9.59375 15.132812 -10.679688 14.625 -11.609375 C 14.113281 -12.546875 13.425781 -13.257812 12.5625 -13.75 C 11.707031 -14.25 10.765625 -14.5 9.734375 -14.5 C 8.703125 -14.5 7.757812 -14.253906 6.90625 -13.765625 C 6.0625 -13.285156 5.382812 -12.578125 4.875 -11.640625 C 4.375 -10.710938 4.125 -9.625 4.125 -8.375 C 4.125 -7.101562 4.375 -5.992188 4.875 -5.046875 C 5.382812 -4.109375 6.0625 -3.390625 6.90625 -2.890625 C 7.757812 -2.398438 8.703125 -2.15625 9.734375 -2.15625 C 10.765625 -2.15625 11.707031 -2.398438 12.5625 -2.890625 C 13.425781 -3.390625 14.113281 -4.109375 14.625 -5.046875 C 15.132812 -5.992188 15.390625 -7.09375 15.390625 -8.34375 Z M 15.390625 -8.34375 "/></g></g></g><g fill="#0a152f" fill-opacity="1"><g transform="translate(51.895809, 58.795884)"><g><path d="M 11.015625 0 L 7.0625 -6.1875 L 3.28125 0 L 0.390625 0 L 5.765625 -8.25 L 0.390625 -16.625 L 3.515625 -16.625 L 7.46875 -10.46875 L 11.234375 -16.625 L 14.109375 -16.625 L 8.765625 -8.40625 L 14.140625 0 Z M 11.015625 0 "/></g></g></g><g fill="#0a152f" fill-opacity="1"><g transform="translate(66.430914, 58.795884)"><g><path d="M 1.3125 -8.375 C 1.3125 -10.070312 1.65625 -11.5625 2.34375 -12.84375 C 3.03125 -14.132812 3.972656 -15.132812 5.171875 -15.84375 C 6.378906 -16.550781 7.71875 -16.90625 9.1875 -16.90625 C 10.644531 -16.90625 11.910156 -16.585938 12.984375 -15.953125 C 14.054688 -15.328125 14.859375 -14.539062 15.390625 -13.59375 L 15.390625 -16.625 L 18.171875 -16.625 L 18.171875 0 L 15.390625 0 L 15.390625 -3.09375 C 14.835938 -2.125 14.019531 -1.320312 12.9375 -0.6875 C 11.851562 -0.0507812 10.59375 0.265625 9.15625 0.265625 C 7.6875 0.265625 6.351562 -0.09375 5.15625 -0.8125 C 3.96875 -1.539062 3.03125 -2.5625 2.34375 -3.875 C 1.65625 -5.195312 1.3125 -6.695312 1.3125 -8.375 Z M 15.390625 -8.34375 C 15.390625 -9.59375 15.132812 -10.679688 14.625 -11.609375 C 14.113281 -12.546875 13.425781 -13.257812 12.5625 -13.75 C 11.707031 -14.25 10.765625 -14.5 9.734375 -14.5 C 8.703125 -14.5 7.757812 -14.253906 6.90625 -13.765625 C 6.0625 -13.285156 5.382812 -12.578125 4.875 -11.640625 C 4.375 -10.710938 4.125 -9.625 4.125 -8.375 C 4.125 -7.101562 4.375 -5.992188 4.875 -5.046875 C 5.382812 -4.109375 6.0625 -3.390625 6.90625 -2.890625 C 7.757812 -2.398438 8.703125 -2.15625 9.734375 -2.15625 C 10.765625 -2.15625 11.707031 -2.398438 12.5625 -2.890625 C 13.425781 -3.390625 14.113281 -4.109375 14.625 -5.046875 C 15.132812 -5.992188 15.390625 -7.09375 15.390625 -8.34375 Z M 15.390625 -8.34375 "/></g></g></g><g fill="#0a152f" fill-opacity="1"><g transform="translate(14.966316, 94.798332)"><g><path d="M 9.046875 0.21875 C 7.648438 0.21875 6.398438 -0.03125 5.296875 -0.53125 C 4.191406 -1.03125 3.328125 -1.71875 2.703125 -2.59375 C 2.078125 -3.476562 1.753906 -4.492188 1.734375 -5.640625 L 4.671875 -5.640625 C 4.773438 -4.648438 5.1875 -3.816406 5.90625 -3.140625 C 6.625 -2.460938 7.671875 -2.125 9.046875 -2.125 C 10.359375 -2.125 11.394531 -2.453125 12.15625 -3.109375 C 12.914062 -3.765625 13.296875 -4.609375 13.296875 -5.640625 C 13.296875 -6.453125 13.070312 -7.109375 12.625 -7.609375 C 12.175781 -8.117188 11.617188 -8.503906 10.953125 -8.765625 C 10.285156 -9.023438 9.382812 -9.3125 8.25 -9.625 C 6.851562 -9.988281 5.734375 -10.347656 4.890625 -10.703125 C 4.054688 -11.066406 3.335938 -11.640625 2.734375 -12.421875 C 2.140625 -13.203125 1.84375 -14.25 1.84375 -15.5625 C 1.84375 -16.71875 2.132812 -17.738281 2.71875 -18.625 C 3.3125 -19.519531 4.140625 -20.207031 5.203125 -20.6875 C 6.265625 -21.175781 7.484375 -21.421875 8.859375 -21.421875 C 10.835938 -21.421875 12.457031 -20.925781 13.71875 -19.9375 C 14.988281 -18.945312 15.707031 -17.628906 15.875 -15.984375 L 12.828125 -15.984375 C 12.734375 -16.796875 12.3125 -17.507812 11.5625 -18.125 C 10.8125 -18.75 9.820312 -19.0625 8.59375 -19.0625 C 7.4375 -19.0625 6.492188 -18.757812 5.765625 -18.15625 C 5.035156 -17.5625 4.671875 -16.726562 4.671875 -15.65625 C 4.671875 -14.882812 4.890625 -14.253906 5.328125 -13.765625 C 5.765625 -13.285156 6.300781 -12.921875 6.9375 -12.671875 C 7.570312 -12.421875 8.46875 -12.128906 9.625 -11.796875 C 11.019531 -11.421875 12.140625 -11.046875 12.984375 -10.671875 C 13.835938 -10.296875 14.566406 -9.71875 15.171875 -8.9375 C 15.773438 -8.15625 16.078125 -7.097656 16.078125 -5.765625 C 16.078125 -4.734375 15.800781 -3.757812 15.25 -2.84375 C 14.707031 -1.9375 13.898438 -1.195312 12.828125 -0.625 C 11.765625 -0.0625 10.503906 0.21875 9.046875 0.21875 Z M 9.046875 0.21875 "/></g></g></g><g fill="#0a152f" fill-opacity="1"><g transform="translate(32.778652, 94.798332)"><g><path d="M 17.515625 -8.953125 C 17.515625 -8.421875 17.484375 -7.863281 17.421875 -7.28125 L 4.125 -7.28125 C 4.226562 -5.644531 4.789062 -4.363281 5.8125 -3.4375 C 6.832031 -2.519531 8.070312 -2.0625 9.53125 -2.0625 C 10.71875 -2.0625 11.710938 -2.335938 12.515625 -2.890625 C 13.316406 -3.453125 13.878906 -4.195312 14.203125 -5.125 L 17.171875 -5.125 C 16.722656 -3.53125 15.832031 -2.234375 14.5 -1.234375 C 13.164062 -0.234375 11.507812 0.265625 9.53125 0.265625 C 7.945312 0.265625 6.53125 -0.0820312 5.28125 -0.78125 C 4.039062 -1.488281 3.066406 -2.492188 2.359375 -3.796875 C 1.660156 -5.109375 1.3125 -6.625 1.3125 -8.34375 C 1.3125 -10.0625 1.65625 -11.566406 2.34375 -12.859375 C 3.03125 -14.160156 3.992188 -15.160156 5.234375 -15.859375 C 6.472656 -16.554688 7.90625 -16.90625 9.53125 -16.90625 C 11.101562 -16.90625 12.492188 -16.5625 13.703125 -15.875 C 14.921875 -15.1875 15.859375 -14.238281 16.515625 -13.03125 C 17.179688 -11.832031 17.515625 -10.472656 17.515625 -8.953125 Z M 14.65625 -9.53125 C 14.65625 -10.582031 14.421875 -11.484375 13.953125 -12.234375 C 13.492188 -12.992188 12.863281 -13.570312 12.0625 -13.96875 C 11.257812 -14.363281 10.375 -14.5625 9.40625 -14.5625 C 8.007812 -14.5625 6.820312 -14.113281 5.84375 -13.21875 C 4.863281 -12.332031 4.300781 -11.101562 4.15625 -9.53125 Z M 14.65625 -9.53125 "/></g></g></g><g fill="#0a152f" fill-opacity="1"><g transform="translate(51.592364, 94.798332)"><g><path d="M 5.09375 -22.453125 L 5.09375 0 L 2.34375 0 L 2.34375 -22.453125 Z M 5.09375 -22.453125 "/></g></g></g><g fill="#0a152f" fill-opacity="1"><g transform="translate(59.057159, 94.798332)"><g><path d="M 3.765625 -19.328125 C 3.234375 -19.328125 2.785156 -19.507812 2.421875 -19.875 C 2.054688 -20.238281 1.875 -20.679688 1.875 -21.203125 C 1.875 -21.734375 2.054688 -22.179688 2.421875 -22.546875 C 2.785156 -22.910156 3.234375 -23.09375 3.765625 -23.09375 C 4.265625 -23.09375 4.691406 -22.910156 5.046875 -22.546875 C 5.398438 -22.179688 5.578125 -21.734375 5.578125 -21.203125 C 5.578125 -20.679688 5.398438 -20.238281 5.046875 -19.875 C 4.691406 -19.507812 4.265625 -19.328125 3.765625 -19.328125 Z M 5.09375 -16.625 L 5.09375 0 L 2.34375 0 L 2.34375 -16.625 Z M 5.09375 -16.625 "/></g></g></g><g fill="#0a152f" fill-opacity="1"><g transform="translate(66.521955, 94.798332)"><g><path d="M 1.3125 -8.34375 C 1.3125 -10.0625 1.65625 -11.5625 2.34375 -12.84375 C 3.03125 -14.132812 3.984375 -15.132812 5.203125 -15.84375 C 6.429688 -16.550781 7.832031 -16.90625 9.40625 -16.90625 C 11.445312 -16.90625 13.128906 -16.40625 14.453125 -15.40625 C 15.785156 -14.414062 16.660156 -13.039062 17.078125 -11.28125 L 14.109375 -11.28125 C 13.828125 -12.300781 13.273438 -13.101562 12.453125 -13.6875 C 11.640625 -14.269531 10.625 -14.5625 9.40625 -14.5625 C 7.832031 -14.5625 6.554688 -14.019531 5.578125 -12.9375 C 4.609375 -11.851562 4.125 -10.320312 4.125 -8.34375 C 4.125 -6.34375 4.609375 -4.796875 5.578125 -3.703125 C 6.554688 -2.609375 7.832031 -2.0625 9.40625 -2.0625 C 10.625 -2.0625 11.632812 -2.34375 12.4375 -2.90625 C 13.25 -3.476562 13.804688 -4.289062 14.109375 -5.34375 L 17.078125 -5.34375 C 16.640625 -3.644531 15.75 -2.285156 14.40625 -1.265625 C 13.070312 -0.242188 11.40625 0.265625 9.40625 0.265625 C 7.832031 0.265625 6.429688 -0.0820312 5.203125 -0.78125 C 3.984375 -1.488281 3.03125 -2.488281 2.34375 -3.78125 C 1.65625 -5.082031 1.3125 -6.601562 1.3125 -8.34375 Z M 1.3125 -8.34375 "/></g></g></g><g fill="#0a152f" fill-opacity="1"><g transform="translate(81.788188, 118.56886)"><g><path d="M 1.671875 -2.484375 L 1.671875 -2.21875 L 0.59375 -2.21875 L 0.59375 -1.375 L 1.46875 -1.375 L 1.46875 -1.125 L 0.59375 -1.125 L 0.59375 0 L 0.28125 0 L 0.28125 -2.484375 Z M 1.671875 -2.484375 "/></g></g></g><g fill="#0a152f" fill-opacity="1"><g transform="translate(83.585843, 118.56886)"><g><path d="M 1.125 0.03125 C 0.9375 0.03125 0.769531 -0.0078125 0.625 -0.09375 C 0.476562 -0.175781 0.363281 -0.289062 0.28125 -0.4375 C 0.195312 -0.59375 0.15625 -0.773438 0.15625 -0.984375 C 0.15625 -1.179688 0.195312 -1.351562 0.28125 -1.5 C 0.363281 -1.65625 0.476562 -1.773438 0.625 -1.859375 C 0.78125 -1.941406 0.953125 -1.984375 1.140625 -1.984375 C 1.328125 -1.984375 1.492188 -1.941406 1.640625 -1.859375 C 1.785156 -1.773438 1.898438 -1.65625 1.984375 -1.5 C 2.078125 -1.351562 2.125 -1.179688 2.125 -0.984375 C 2.125 -0.773438 2.078125 -0.59375 1.984375 -0.4375 C 1.898438 -0.289062 1.78125 -0.175781 1.625 -0.09375 C 1.476562 -0.0078125 1.3125 0.03125 1.125 0.03125 Z M 1.125 -0.25 C 1.238281 -0.25 1.347656 -0.273438 1.453125 -0.328125 C 1.554688 -0.390625 1.640625 -0.472656 1.703125 -0.578125 C 1.765625 -0.691406 1.796875 -0.828125 1.796875 -0.984375 C 1.796875 -1.140625 1.765625 -1.269531 1.703125 -1.375 C 1.640625 -1.488281 1.554688 -1.570312 1.453125 -1.625 C 1.359375 -1.675781 1.253906 -1.703125 1.140625 -1.703125 C 1.015625 -1.703125 0.898438 -1.675781 0.796875 -1.625 C 0.703125 -1.570312 0.625 -1.488281 0.5625 -1.375 C 0.507812 -1.269531 0.484375 -1.140625 0.484375 -0.984375 C 0.484375 -0.816406 0.507812 -0.675781 0.5625 -0.5625 C 0.625 -0.457031 0.703125 -0.378906 0.796875 -0.328125 C 0.898438 -0.273438 1.007812 -0.25 1.125 -0.25 Z M 1.125 -0.25 "/></g></g></g><g fill="#0a152f" fill-opacity="1"><g transform="translate(85.868577, 118.56886)"><g><path d="M 1.21875 -1.984375 C 1.457031 -1.984375 1.648438 -1.910156 1.796875 -1.765625 C 1.953125 -1.628906 2.03125 -1.425781 2.03125 -1.15625 L 2.03125 0 L 1.703125 0 L 1.703125 -1.109375 C 1.703125 -1.296875 1.648438 -1.441406 1.546875 -1.546875 C 1.453125 -1.648438 1.320312 -1.703125 1.15625 -1.703125 C 0.988281 -1.703125 0.851562 -1.648438 0.75 -1.546875 C 0.644531 -1.441406 0.59375 -1.285156 0.59375 -1.078125 L 0.59375 0 L 0.28125 0 L 0.28125 -1.953125 L 0.59375 -1.953125 L 0.59375 -1.671875 C 0.65625 -1.773438 0.742188 -1.851562 0.859375 -1.90625 C 0.972656 -1.957031 1.09375 -1.984375 1.21875 -1.984375 Z M 1.21875 -1.984375 "/></g></g></g><g fill="#0a152f" fill-opacity="1"><g transform="translate(88.151311, 118.56886)"><g><path d="M 0.671875 -1.6875 L 0.671875 -0.53125 C 0.671875 -0.4375 0.691406 -0.367188 0.734375 -0.328125 C 0.773438 -0.296875 0.84375 -0.28125 0.9375 -0.28125 L 1.171875 -0.28125 L 1.171875 0 L 0.890625 0 C 0.703125 0 0.5625 -0.0390625 0.46875 -0.125 C 0.382812 -0.207031 0.34375 -0.34375 0.34375 -0.53125 L 0.34375 -1.6875 L 0.09375 -1.6875 L 0.09375 -1.953125 L 0.34375 -1.953125 L 0.34375 -2.4375 L 0.671875 -2.4375 L 0.671875 -1.953125 L 1.171875 -1.953125 L 1.171875 -1.6875 Z M 0.671875 -1.6875 "/></g></g></g><g fill="#0a152f" fill-opacity="1"><g transform="translate(89.449614, 118.56886)"><g><path d="M 2.0625 -1.046875 C 2.0625 -0.984375 2.054688 -0.921875 2.046875 -0.859375 L 0.484375 -0.859375 C 0.492188 -0.660156 0.554688 -0.507812 0.671875 -0.40625 C 0.796875 -0.300781 0.945312 -0.25 1.125 -0.25 C 1.257812 -0.25 1.375 -0.28125 1.46875 -0.34375 C 1.5625 -0.40625 1.628906 -0.492188 1.671875 -0.609375 L 2.015625 -0.609375 C 1.960938 -0.421875 1.859375 -0.265625 1.703125 -0.140625 C 1.546875 -0.0234375 1.351562 0.03125 1.125 0.03125 C 0.9375 0.03125 0.769531 -0.0078125 0.625 -0.09375 C 0.476562 -0.175781 0.363281 -0.289062 0.28125 -0.4375 C 0.195312 -0.59375 0.15625 -0.773438 0.15625 -0.984375 C 0.15625 -1.179688 0.191406 -1.351562 0.265625 -1.5 C 0.347656 -1.65625 0.460938 -1.773438 0.609375 -1.859375 C 0.753906 -1.941406 0.925781 -1.984375 1.125 -1.984375 C 1.300781 -1.984375 1.460938 -1.941406 1.609375 -1.859375 C 1.753906 -1.773438 1.863281 -1.660156 1.9375 -1.515625 C 2.019531 -1.378906 2.0625 -1.222656 2.0625 -1.046875 Z M 1.71875 -1.125 C 1.71875 -1.238281 1.691406 -1.34375 1.640625 -1.4375 C 1.585938 -1.53125 1.515625 -1.597656 1.421875 -1.640625 C 1.328125 -1.679688 1.222656 -1.703125 1.109375 -1.703125 C 0.941406 -1.703125 0.800781 -1.648438 0.6875 -1.546875 C 0.570312 -1.441406 0.503906 -1.300781 0.484375 -1.125 Z M 1.71875 -1.125 "/></g></g></g><g fill="#0a152f" fill-opacity="1"><g transform="translate(91.661011, 118.56886)"><g><path d="M 0.375 0.015625 C 0.3125 0.015625 0.257812 -0.00390625 0.21875 -0.046875 C 0.175781 -0.0859375 0.15625 -0.140625 0.15625 -0.203125 C 0.15625 -0.265625 0.175781 -0.316406 0.21875 -0.359375 C 0.257812 -0.398438 0.3125 -0.421875 0.375 -0.421875 C 0.4375 -0.421875 0.488281 -0.398438 0.53125 -0.359375 C 0.570312 -0.316406 0.59375 -0.265625 0.59375 -0.203125 C 0.59375 -0.140625 0.570312 -0.0859375 0.53125 -0.046875 C 0.488281 -0.00390625 0.4375 0.015625 0.375 0.015625 Z M 0.375 -1.515625 C 0.3125 -1.515625 0.257812 -1.535156 0.21875 -1.578125 C 0.175781 -1.617188 0.15625 -1.671875 0.15625 -1.734375 C 0.15625 -1.796875 0.175781 -1.847656 0.21875 -1.890625 C 0.257812 -1.929688 0.3125 -1.953125 0.375 -1.953125 C 0.4375 -1.953125 0.488281 -1.929688 0.53125 -1.890625 C 0.570312 -1.847656 0.59375 -1.796875 0.59375 -1.734375 C 0.59375 -1.671875 0.570312 -1.617188 0.53125 -1.578125 C 0.488281 -1.535156 0.4375 -1.515625 0.375 -1.515625 Z M 0.375 -1.515625 "/></g></g></g><g fill="#0a152f" fill-opacity="1"><g transform="translate(92.420733, 118.56886)"><g/></g></g><g fill="#0a152f" fill-opacity="1"><g transform="translate(93.373062, 118.56886)"><g><path d="M 1.515625 -1.28125 C 1.609375 -1.257812 1.691406 -1.21875 1.765625 -1.15625 C 1.835938 -1.101562 1.894531 -1.03125 1.9375 -0.9375 C 1.988281 -0.851562 2.015625 -0.765625 2.015625 -0.671875 C 2.015625 -0.546875 1.976562 -0.429688 1.90625 -0.328125 C 1.84375 -0.222656 1.75 -0.140625 1.625 -0.078125 C 1.507812 -0.0234375 1.367188 0 1.203125 0 L 0.28125 0 L 0.28125 -2.484375 L 1.171875 -2.484375 C 1.335938 -2.484375 1.476562 -2.453125 1.59375 -2.390625 C 1.71875 -2.335938 1.804688 -2.265625 1.859375 -2.171875 C 1.921875 -2.078125 1.953125 -1.972656 1.953125 -1.859375 C 1.953125 -1.703125 1.910156 -1.578125 1.828125 -1.484375 C 1.753906 -1.390625 1.648438 -1.320312 1.515625 -1.28125 Z M 0.59375 -1.40625 L 1.140625 -1.40625 C 1.296875 -1.40625 1.414062 -1.441406 1.5 -1.515625 C 1.582031 -1.585938 1.625 -1.6875 1.625 -1.8125 C 1.625 -1.9375 1.582031 -2.035156 1.5 -2.109375 C 1.414062 -2.179688 1.296875 -2.21875 1.140625 -2.21875 L 0.59375 -2.21875 Z M 1.171875 -0.265625 C 1.335938 -0.265625 1.460938 -0.300781 1.546875 -0.375 C 1.640625 -0.457031 1.6875 -0.566406 1.6875 -0.703125 C 1.6875 -0.835938 1.640625 -0.941406 1.546875 -1.015625 C 1.453125 -1.097656 1.320312 -1.140625 1.15625 -1.140625 L 0.59375 -1.140625 L 0.59375 -0.265625 Z M 1.171875 -0.265625 "/></g></g></g><g fill="#0a152f" fill-opacity="1"><g transform="translate(95.559492, 118.56886)"><g><path d="M 0.15625 -0.984375 C 0.15625 -1.179688 0.191406 -1.351562 0.265625 -1.5 C 0.347656 -1.65625 0.457031 -1.773438 0.59375 -1.859375 C 0.738281 -1.941406 0.898438 -1.984375 1.078125 -1.984375 C 1.242188 -1.984375 1.390625 -1.945312 1.515625 -1.875 C 1.648438 -1.800781 1.75 -1.707031 1.8125 -1.59375 L 1.8125 -1.953125 L 2.140625 -1.953125 L 2.140625 0 L 1.8125 0 L 1.8125 -0.359375 C 1.738281 -0.242188 1.640625 -0.148438 1.515625 -0.078125 C 1.390625 -0.00390625 1.242188 0.03125 1.078125 0.03125 C 0.898438 0.03125 0.738281 -0.0078125 0.59375 -0.09375 C 0.457031 -0.175781 0.347656 -0.296875 0.265625 -0.453125 C 0.191406 -0.609375 0.15625 -0.785156 0.15625 -0.984375 Z M 1.8125 -0.984375 C 1.8125 -1.128906 1.78125 -1.253906 1.71875 -1.359375 C 1.65625 -1.472656 1.570312 -1.554688 1.46875 -1.609375 C 1.375 -1.671875 1.265625 -1.703125 1.140625 -1.703125 C 1.023438 -1.703125 0.914062 -1.671875 0.8125 -1.609375 C 0.707031 -1.554688 0.625 -1.472656 0.5625 -1.359375 C 0.507812 -1.253906 0.484375 -1.128906 0.484375 -0.984375 C 0.484375 -0.835938 0.507812 -0.707031 0.5625 -0.59375 C 0.625 -0.476562 0.707031 -0.390625 0.8125 -0.328125 C 0.914062 -0.273438 1.023438 -0.25 1.140625 -0.25 C 1.265625 -0.25 1.375 -0.273438 1.46875 -0.328125 C 1.570312 -0.390625 1.65625 -0.476562 1.71875 -0.59375 C 1.78125 -0.707031 1.8125 -0.835938 1.8125 -0.984375 Z M 1.8125 -0.984375 "/></g></g></g><g fill="#0a152f" fill-opacity="1"><g transform="translate(97.970631, 118.56886)"><g><path d="M 1.21875 -1.984375 C 1.457031 -1.984375 1.648438 -1.910156 1.796875 -1.765625 C 1.953125 -1.628906 2.03125 -1.425781 2.03125 -1.15625 L 2.03125 0 L 1.703125 0 L 1.703125 -1.109375 C 1.703125 -1.296875 1.648438 -1.441406 1.546875 -1.546875 C 1.453125 -1.648438 1.320312 -1.703125 1.15625 -1.703125 C 0.988281 -1.703125 0.851562 -1.648438 0.75 -1.546875 C 0.644531 -1.441406 0.59375 -1.285156 0.59375 -1.078125 L 0.59375 0 L 0.28125 0 L 0.28125 -1.953125 L 0.59375 -1.953125 L 0.59375 -1.671875 C 0.65625 -1.773438 0.742188 -1.851562 0.859375 -1.90625 C 0.972656 -1.957031 1.09375 -1.984375 1.21875 -1.984375 Z M 1.21875 -1.984375 "/></g></g></g><g fill="#0a152f" fill-opacity="1"><g transform="translate(100.253364, 118.56886)"><g><path d="M 0.15625 -0.984375 C 0.15625 -1.179688 0.191406 -1.351562 0.265625 -1.5 C 0.347656 -1.65625 0.460938 -1.773438 0.609375 -1.859375 C 0.753906 -1.941406 0.921875 -1.984375 1.109375 -1.984375 C 1.347656 -1.984375 1.546875 -1.925781 1.703125 -1.8125 C 1.859375 -1.695312 1.957031 -1.535156 2 -1.328125 L 1.65625 -1.328125 C 1.625 -1.441406 1.554688 -1.53125 1.453125 -1.59375 C 1.359375 -1.664062 1.242188 -1.703125 1.109375 -1.703125 C 0.921875 -1.703125 0.769531 -1.640625 0.65625 -1.515625 C 0.539062 -1.390625 0.484375 -1.210938 0.484375 -0.984375 C 0.484375 -0.742188 0.539062 -0.5625 0.65625 -0.4375 C 0.769531 -0.3125 0.921875 -0.25 1.109375 -0.25 C 1.242188 -0.25 1.359375 -0.28125 1.453125 -0.34375 C 1.554688 -0.40625 1.625 -0.5 1.65625 -0.625 L 2 -0.625 C 1.945312 -0.425781 1.84375 -0.265625 1.6875 -0.140625 C 1.53125 -0.0234375 1.335938 0.03125 1.109375 0.03125 C 0.921875 0.03125 0.753906 -0.0078125 0.609375 -0.09375 C 0.460938 -0.175781 0.347656 -0.289062 0.265625 -0.4375 C 0.191406 -0.59375 0.15625 -0.773438 0.15625 -0.984375 Z M 0.15625 -0.984375 "/></g></g></g><g fill="#0a152f" fill-opacity="1"><g transform="translate(102.418397, 118.56886)"><g><path d="M 1.125 0.03125 C 0.9375 0.03125 0.769531 -0.0078125 0.625 -0.09375 C 0.476562 -0.175781 0.363281 -0.289062 0.28125 -0.4375 C 0.195312 -0.59375 0.15625 -0.773438 0.15625 -0.984375 C 0.15625 -1.179688 0.195312 -1.351562 0.28125 -1.5 C 0.363281 -1.65625 0.476562 -1.773438 0.625 -1.859375 C 0.78125 -1.941406 0.953125 -1.984375 1.140625 -1.984375 C 1.328125 -1.984375 1.492188 -1.941406 1.640625 -1.859375 C 1.785156 -1.773438 1.898438 -1.65625 1.984375 -1.5 C 2.078125 -1.351562 2.125 -1.179688 2.125 -0.984375 C 2.125 -0.773438 2.078125 -0.59375 1.984375 -0.4375 C 1.898438 -0.289062 1.78125 -0.175781 1.625 -0.09375 C 1.476562 -0.0078125 1.3125 0.03125 1.125 0.03125 Z M 1.125 -0.25 C 1.238281 -0.25 1.347656 -0.273438 1.453125 -0.328125 C 1.554688 -0.390625 1.640625 -0.472656 1.703125 -0.578125 C 1.765625 -0.691406 1.796875 -0.828125 1.796875 -0.984375 C 1.796875 -1.140625 1.765625 -1.269531 1.703125 -1.375 C 1.640625 -1.488281 1.554688 -1.570312 1.453125 -1.625 C 1.359375 -1.675781 1.253906 -1.703125 1.140625 -1.703125 C 1.015625 -1.703125 0.898438 -1.675781 0.796875 -1.625 C 0.703125 -1.570312 0.625 -1.488281 0.5625 -1.375 C 0.507812 -1.269531 0.484375 -1.140625 0.484375 -0.984375 C 0.484375 -0.816406 0.507812 -0.675781 0.5625 -0.5625 C 0.625 -0.457031 0.703125 -0.378906 0.796875 -0.328125 C 0.898438 -0.273438 1.007812 -0.25 1.125 -0.25 Z M 1.125 -0.25 "/></g></g></g><g fill="#0a152f" fill-opacity="1"><g transform="translate(104.70113, 118.56886)"><g/></g></g><g fill="#0a152f" fill-opacity="1"><g transform="translate(105.653459, 118.56886)"><g><path d="M 0.15625 -1.25 C 0.15625 -1.488281 0.207031 -1.703125 0.3125 -1.890625 C 0.425781 -2.085938 0.578125 -2.238281 0.765625 -2.34375 C 0.953125 -2.457031 1.160156 -2.515625 1.390625 -2.515625 C 1.660156 -2.515625 1.894531 -2.445312 2.09375 -2.3125 C 2.300781 -2.1875 2.453125 -2.003906 2.546875 -1.765625 L 2.15625 -1.765625 C 2.082031 -1.910156 1.976562 -2.023438 1.84375 -2.109375 C 1.71875 -2.191406 1.566406 -2.234375 1.390625 -2.234375 C 1.222656 -2.234375 1.066406 -2.191406 0.921875 -2.109375 C 0.785156 -2.023438 0.675781 -1.910156 0.59375 -1.765625 C 0.519531 -1.617188 0.484375 -1.445312 0.484375 -1.25 C 0.484375 -1.050781 0.519531 -0.875 0.59375 -0.71875 C 0.675781 -0.570312 0.785156 -0.457031 0.921875 -0.375 C 1.066406 -0.300781 1.222656 -0.265625 1.390625 -0.265625 C 1.566406 -0.265625 1.71875 -0.300781 1.84375 -0.375 C 1.976562 -0.457031 2.082031 -0.570312 2.15625 -0.71875 L 2.546875 -0.71875 C 2.453125 -0.476562 2.300781 -0.296875 2.09375 -0.171875 C 1.894531 -0.046875 1.660156 0.015625 1.390625 0.015625 C 1.160156 0.015625 0.953125 -0.0351562 0.765625 -0.140625 C 0.578125 -0.242188 0.425781 -0.390625 0.3125 -0.578125 C 0.207031 -0.773438 0.15625 -1 0.15625 -1.25 Z M 0.15625 -1.25 "/></g></g></g><g fill="#0a152f" fill-opacity="1"><g transform="translate(108.407008, 118.56886)"><g><path d="M 2.0625 -1.046875 C 2.0625 -0.984375 2.054688 -0.921875 2.046875 -0.859375 L 0.484375 -0.859375 C 0.492188 -0.660156 0.554688 -0.507812 0.671875 -0.40625 C 0.796875 -0.300781 0.945312 -0.25 1.125 -0.25 C 1.257812 -0.25 1.375 -0.28125 1.46875 -0.34375 C 1.5625 -0.40625 1.628906 -0.492188 1.671875 -0.609375 L 2.015625 -0.609375 C 1.960938 -0.421875 1.859375 -0.265625 1.703125 -0.140625 C 1.546875 -0.0234375 1.351562 0.03125 1.125 0.03125 C 0.9375 0.03125 0.769531 -0.0078125 0.625 -0.09375 C 0.476562 -0.175781 0.363281 -0.289062 0.28125 -0.4375 C 0.195312 -0.59375 0.15625 -0.773438 0.15625 -0.984375 C 0.15625 -1.179688 0.191406 -1.351562 0.265625 -1.5 C 0.347656 -1.65625 0.460938 -1.773438 0.609375 -1.859375 C 0.753906 -1.941406 0.925781 -1.984375 1.125 -1.984375 C 1.300781 -1.984375 1.460938 -1.941406 1.609375 -1.859375 C 1.753906 -1.773438 1.863281 -1.660156 1.9375 -1.515625 C 2.019531 -1.378906 2.0625 -1.222656 2.0625 -1.046875 Z M 1.71875 -1.125 C 1.71875 -1.238281 1.691406 -1.34375 1.640625 -1.4375 C 1.585938 -1.53125 1.515625 -1.597656 1.421875 -1.640625 C 1.328125 -1.679688 1.222656 -1.703125 1.109375 -1.703125 C 0.941406 -1.703125 0.800781 -1.648438 0.6875 -1.546875 C 0.570312 -1.441406 0.503906 -1.300781 0.484375 -1.125 Z M 1.71875 -1.125 "/></g></g></g><g fill="#0a152f" fill-opacity="1"><g transform="translate(110.618405, 118.56886)"><g><path d="M 1.21875 -1.984375 C 1.457031 -1.984375 1.648438 -1.910156 1.796875 -1.765625 C 1.953125 -1.628906 2.03125 -1.425781 2.03125 -1.15625 L 2.03125 0 L 1.703125 0 L 1.703125 -1.109375 C 1.703125 -1.296875 1.648438 -1.441406 1.546875 -1.546875 C 1.453125 -1.648438 1.320312 -1.703125 1.15625 -1.703125 C 0.988281 -1.703125 0.851562 -1.648438 0.75 -1.546875 C 0.644531 -1.441406 0.59375 -1.285156 0.59375 -1.078125 L 0.59375 0 L 0.28125 0 L 0.28125 -1.953125 L 0.59375 -1.953125 L 0.59375 -1.671875 C 0.65625 -1.773438 0.742188 -1.851562 0.859375 -1.90625 C 0.972656 -1.957031 1.09375 -1.984375 1.21875 -1.984375 Z M 1.21875 -1.984375 "/></g></g></g><g fill="#0a152f" fill-opacity="1"><g transform="translate(112.901139, 118.56886)"><g><path d="M 0.671875 -1.6875 L 0.671875 -0.53125 C 0.671875 -0.4375 0.691406 -0.367188 0.734375 -0.328125 C 0.773438 -0.296875 0.84375 -0.28125 0.9375 -0.28125 L 1.171875 -0.28125 L 1.171875 0 L 0.890625 0 C 0.703125 0 0.5625 -0.0390625 0.46875 -0.125 C 0.382812 -0.207031 0.34375 -0.34375 0.34375 -0.53125 L 0.34375 -1.6875 L 0.09375 -1.6875 L 0.09375 -1.953125 L 0.34375 -1.953125 L 0.34375 -2.4375 L 0.671875 -2.4375 L 0.671875 -1.953125 L 1.171875 -1.953125 L 1.171875 -1.6875 Z M 0.671875 -1.6875 "/></g></g></g><g fill="#0a152f" fill-opacity="1"><g transform="translate(114.199443, 118.56886)"><g><path d="M 0.59375 -1.640625 C 0.65625 -1.742188 0.738281 -1.828125 0.84375 -1.890625 C 0.945312 -1.953125 1.078125 -1.984375 1.234375 -1.984375 L 1.234375 -1.65625 L 1.140625 -1.65625 C 0.773438 -1.65625 0.59375 -1.457031 0.59375 -1.0625 L 0.59375 0 L 0.28125 0 L 0.28125 -1.953125 L 0.59375 -1.953125 Z M 0.59375 -1.640625 "/></g></g></g><g fill="#0a152f" fill-opacity="1"><g transform="translate(115.529848, 118.56886)"><g><path d="M 0.15625 -0.984375 C 0.15625 -1.179688 0.191406 -1.351562 0.265625 -1.5 C 0.347656 -1.65625 0.457031 -1.773438 0.59375 -1.859375 C 0.738281 -1.941406 0.898438 -1.984375 1.078125 -1.984375 C 1.242188 -1.984375 1.390625 -1.945312 1.515625 -1.875 C 1.648438 -1.800781 1.75 -1.707031 1.8125 -1.59375 L 1.8125 -1.953125 L 2.140625 -1.953125 L 2.140625 0 L 1.8125 0 L 1.8125 -0.359375 C 1.738281 -0.242188 1.640625 -0.148438 1.515625 -0.078125 C 1.390625 -0.00390625 1.242188 0.03125 1.078125 0.03125 C 0.898438 0.03125 0.738281 -0.0078125 0.59375 -0.09375 C 0.457031 -0.175781 0.347656 -0.296875 0.265625 -0.453125 C 0.191406 -0.609375 0.15625 -0.785156 0.15625 -0.984375 Z M 1.8125 -0.984375 C 1.8125 -1.128906 1.78125 -1.253906 1.71875 -1.359375 C 1.65625 -1.472656 1.570312 -1.554688 1.46875 -1.609375 C 1.375 -1.671875 1.265625 -1.703125 1.140625 -1.703125 C 1.023438 -1.703125 0.914062 -1.671875 0.8125 -1.609375 C 0.707031 -1.554688 0.625 -1.472656 0.5625 -1.359375 C 0.507812 -1.253906 0.484375 -1.128906 0.484375 -0.984375 C 0.484375 -0.835938 0.507812 -0.707031 0.5625 -0.59375 C 0.625 -0.476562 0.707031 -0.390625 0.8125 -0.328125 C 0.914062 -0.273438 1.023438 -0.25 1.140625 -0.25 C 1.265625 -0.25 1.375 -0.273438 1.46875 -0.328125 C 1.570312 -0.390625 1.65625 -0.476562 1.71875 -0.59375 C 1.78125 -0.707031 1.8125 -0.835938 1.8125 -0.984375 Z M 1.8125 -0.984375 "/></g></g></g><g fill="#0a152f" fill-opacity="1"><g transform="translate(117.940986, 118.56886)"><g><path d="M 0.59375 -2.640625 L 0.59375 0 L 0.28125 0 L 0.28125 -2.640625 Z M 0.59375 -2.640625 "/></g></g></g><g fill="#0a152f" fill-opacity="1"><g transform="translate(118.818414, 118.56886)"><g/></g></g><g fill="#0a152f" fill-opacity="1"><g transform="translate(119.770743, 118.56886)"><g><path d="M 0.15625 -0.984375 C 0.15625 -1.179688 0.191406 -1.351562 0.265625 -1.5 C 0.347656 -1.65625 0.457031 -1.773438 0.59375 -1.859375 C 0.738281 -1.941406 0.898438 -1.984375 1.078125 -1.984375 C 1.234375 -1.984375 1.375 -1.945312 1.5 -1.875 C 1.632812 -1.8125 1.738281 -1.722656 1.8125 -1.609375 L 1.8125 -2.640625 L 2.140625 -2.640625 L 2.140625 0 L 1.8125 0 L 1.8125 -0.359375 C 1.738281 -0.242188 1.640625 -0.148438 1.515625 -0.078125 C 1.390625 -0.00390625 1.242188 0.03125 1.078125 0.03125 C 0.898438 0.03125 0.738281 -0.0078125 0.59375 -0.09375 C 0.457031 -0.175781 0.347656 -0.296875 0.265625 -0.453125 C 0.191406 -0.609375 0.15625 -0.785156 0.15625 -0.984375 Z M 1.8125 -0.984375 C 1.8125 -1.128906 1.78125 -1.253906 1.71875 -1.359375 C 1.65625 -1.472656 1.570312 -1.554688 1.46875 -1.609375 C 1.375 -1.671875 1.265625 -1.703125 1.140625 -1.703125 C 1.023438 -1.703125 0.914062 -1.671875 0.8125 -1.609375 C 0.707031 -1.554688 0.625 -1.472656 0.5625 -1.359375 C 0.507812 -1.253906 0.484375 -1.128906 0.484375 -0.984375 C 0.484375 -0.835938 0.507812 -0.707031 0.5625 -0.59375 C 0.625 -0.476562 0.707031 -0.390625 0.8125 -0.328125 C 0.914062 -0.273438 1.023438 -0.25 1.140625 -0.25 C 1.265625 -0.25 1.375 -0.273438 1.46875 -0.328125 C 1.570312 -0.390625 1.65625 -0.476562 1.71875 -0.59375 C 1.78125 -0.707031 1.8125 -0.835938 1.8125 -0.984375 Z M 1.8125 -0.984375 "/></g></g></g><g fill="#0a152f" fill-opacity="1"><g transform="translate(122.181881, 118.56886)"><g><path d="M 1.125 0.03125 C 0.9375 0.03125 0.769531 -0.0078125 0.625 -0.09375 C 0.476562 -0.175781 0.363281 -0.289062 0.28125 -0.4375 C 0.195312 -0.59375 0.15625 -0.773438 0.15625 -0.984375 C 0.15625 -1.179688 0.195312 -1.351562 0.28125 -1.5 C 0.363281 -1.65625 0.476562 -1.773438 0.625 -1.859375 C 0.78125 -1.941406 0.953125 -1.984375 1.140625 -1.984375 C 1.328125 -1.984375 1.492188 -1.941406 1.640625 -1.859375 C 1.785156 -1.773438 1.898438 -1.65625 1.984375 -1.5 C 2.078125 -1.351562 2.125 -1.179688 2.125 -0.984375 C 2.125 -0.773438 2.078125 -0.59375 1.984375 -0.4375 C 1.898438 -0.289062 1.78125 -0.175781 1.625 -0.09375 C 1.476562 -0.0078125 1.3125 0.03125 1.125 0.03125 Z M 1.125 -0.25 C 1.238281 -0.25 1.347656 -0.273438 1.453125 -0.328125 C 1.554688 -0.390625 1.640625 -0.472656 1.703125 -0.578125 C 1.765625 -0.691406 1.796875 -0.828125 1.796875 -0.984375 C 1.796875 -1.140625 1.765625 -1.269531 1.703125 -1.375 C 1.640625 -1.488281 1.554688 -1.570312 1.453125 -1.625 C 1.359375 -1.675781 1.253906 -1.703125 1.140625 -1.703125 C 1.015625 -1.703125 0.898438 -1.675781 0.796875 -1.625 C 0.703125 -1.570312 0.625 -1.488281 0.5625 -1.375 C 0.507812 -1.269531 0.484375 -1.140625 0.484375 -0.984375 C 0.484375 -0.816406 0.507812 -0.675781 0.5625 -0.5625 C 0.625 -0.457031 0.703125 -0.378906 0.796875 -0.328125 C 0.898438 -0.273438 1.007812 -0.25 1.125 -0.25 Z M 1.125 -0.25 "/></g></g></g><g fill="#0a152f" fill-opacity="1"><g transform="translate(124.464615, 118.56886)"><g/></g></g><g fill="#0a152f" fill-opacity="1"><g transform="translate(125.416944, 118.56886)"><g><path d="M 1.515625 -1.28125 C 1.609375 -1.257812 1.691406 -1.21875 1.765625 -1.15625 C 1.835938 -1.101562 1.894531 -1.03125 1.9375 -0.9375 C 1.988281 -0.851562 2.015625 -0.765625 2.015625 -0.671875 C 2.015625 -0.546875 1.976562 -0.429688 1.90625 -0.328125 C 1.84375 -0.222656 1.75 -0.140625 1.625 -0.078125 C 1.507812 -0.0234375 1.367188 0 1.203125 0 L 0.28125 0 L 0.28125 -2.484375 L 1.171875 -2.484375 C 1.335938 -2.484375 1.476562 -2.453125 1.59375 -2.390625 C 1.71875 -2.335938 1.804688 -2.265625 1.859375 -2.171875 C 1.921875 -2.078125 1.953125 -1.972656 1.953125 -1.859375 C 1.953125 -1.703125 1.910156 -1.578125 1.828125 -1.484375 C 1.753906 -1.390625 1.648438 -1.320312 1.515625 -1.28125 Z M 0.59375 -1.40625 L 1.140625 -1.40625 C 1.296875 -1.40625 1.414062 -1.441406 1.5 -1.515625 C 1.582031 -1.585938 1.625 -1.6875 1.625 -1.8125 C 1.625 -1.9375 1.582031 -2.035156 1.5 -2.109375 C 1.414062 -2.179688 1.296875 -2.21875 1.140625 -2.21875 L 0.59375 -2.21875 Z M 1.171875 -0.265625 C 1.335938 -0.265625 1.460938 -0.300781 1.546875 -0.375 C 1.640625 -0.457031 1.6875 -0.566406 1.6875 -0.703125 C 1.6875 -0.835938 1.640625 -0.941406 1.546875 -1.015625 C 1.453125 -1.097656 1.320312 -1.140625 1.15625 -1.140625 L 0.59375 -1.140625 L 0.59375 -0.265625 Z M 1.171875 -0.265625 "/></g></g></g><g fill="#0a152f" fill-opacity="1"><g transform="translate(127.603374, 118.56886)"><g><path d="M 0.59375 -1.640625 C 0.65625 -1.742188 0.738281 -1.828125 0.84375 -1.890625 C 0.945312 -1.953125 1.078125 -1.984375 1.234375 -1.984375 L 1.234375 -1.65625 L 1.140625 -1.65625 C 0.773438 -1.65625 0.59375 -1.457031 0.59375 -1.0625 L 0.59375 0 L 0.28125 0 L 0.28125 -1.953125 L 0.59375 -1.953125 Z M 0.59375 -1.640625 "/></g></g></g><g fill="#0a152f" fill-opacity="1"><g transform="translate(128.933779, 118.56886)"><g><path d="M 0.15625 -0.984375 C 0.15625 -1.179688 0.191406 -1.351562 0.265625 -1.5 C 0.347656 -1.65625 0.457031 -1.773438 0.59375 -1.859375 C 0.738281 -1.941406 0.898438 -1.984375 1.078125 -1.984375 C 1.242188 -1.984375 1.390625 -1.945312 1.515625 -1.875 C 1.648438 -1.800781 1.75 -1.707031 1.8125 -1.59375 L 1.8125 -1.953125 L 2.140625 -1.953125 L 2.140625 0 L 1.8125 0 L 1.8125 -0.359375 C 1.738281 -0.242188 1.640625 -0.148438 1.515625 -0.078125 C 1.390625 -0.00390625 1.242188 0.03125 1.078125 0.03125 C 0.898438 0.03125 0.738281 -0.0078125 0.59375 -0.09375 C 0.457031 -0.175781 0.347656 -0.296875 0.265625 -0.453125 C 0.191406 -0.609375 0.15625 -0.785156 0.15625 -0.984375 Z M 1.8125 -0.984375 C 1.8125 -1.128906 1.78125 -1.253906 1.71875 -1.359375 C 1.65625 -1.472656 1.570312 -1.554688 1.46875 -1.609375 C 1.375 -1.671875 1.265625 -1.703125 1.140625 -1.703125 C 1.023438 -1.703125 0.914062 -1.671875 0.8125 -1.609375 C 0.707031 -1.554688 0.625 -1.472656 0.5625 -1.359375 C 0.507812 -1.253906 0.484375 -1.128906 0.484375 -0.984375 C 0.484375 -0.835938 0.507812 -0.707031 0.5625 -0.59375 C 0.625 -0.476562 0.707031 -0.390625 0.8125 -0.328125 C 0.914062 -0.273438 1.023438 -0.25 1.140625 -0.25 C 1.265625 -0.25 1.375 -0.273438 1.46875 -0.328125 C 1.570312 -0.390625 1.65625 -0.476562 1.71875 -0.59375 C 1.78125 -0.707031 1.8125 -0.835938 1.8125 -0.984375 Z M 1.8125 -0.984375 "/></g></g></g><g fill="#0a152f" fill-opacity="1"><g transform="translate(131.344918, 118.56886)"><g><path d="M 0.96875 0.03125 C 0.8125 0.03125 0.675781 0.00390625 0.5625 -0.046875 C 0.445312 -0.0976562 0.351562 -0.164062 0.28125 -0.25 C 0.207031 -0.34375 0.171875 -0.453125 0.171875 -0.578125 L 0.5 -0.578125 C 0.507812 -0.472656 0.554688 -0.390625 0.640625 -0.328125 C 0.722656 -0.273438 0.832031 -0.25 0.96875 -0.25 C 1.082031 -0.25 1.175781 -0.273438 1.25 -0.328125 C 1.320312 -0.378906 1.359375 -0.445312 1.359375 -0.53125 C 1.359375 -0.613281 1.320312 -0.675781 1.25 -0.71875 C 1.175781 -0.757812 1.054688 -0.800781 0.890625 -0.84375 C 0.742188 -0.882812 0.625 -0.921875 0.53125 -0.953125 C 0.445312 -0.992188 0.367188 -1.050781 0.296875 -1.125 C 0.234375 -1.207031 0.203125 -1.3125 0.203125 -1.4375 C 0.203125 -1.539062 0.234375 -1.632812 0.296875 -1.71875 C 0.359375 -1.800781 0.441406 -1.863281 0.546875 -1.90625 C 0.660156 -1.957031 0.785156 -1.984375 0.921875 -1.984375 C 1.140625 -1.984375 1.3125 -1.925781 1.4375 -1.8125 C 1.570312 -1.707031 1.644531 -1.5625 1.65625 -1.375 L 1.328125 -1.375 C 1.328125 -1.476562 1.285156 -1.554688 1.203125 -1.609375 C 1.128906 -1.671875 1.03125 -1.703125 0.90625 -1.703125 C 0.789062 -1.703125 0.695312 -1.675781 0.625 -1.625 C 0.5625 -1.582031 0.53125 -1.519531 0.53125 -1.4375 C 0.53125 -1.375 0.550781 -1.320312 0.59375 -1.28125 C 0.632812 -1.238281 0.6875 -1.203125 0.75 -1.171875 C 0.8125 -1.148438 0.898438 -1.125 1.015625 -1.09375 C 1.148438 -1.0625 1.257812 -1.023438 1.34375 -0.984375 C 1.4375 -0.953125 1.515625 -0.894531 1.578125 -0.8125 C 1.640625 -0.738281 1.671875 -0.644531 1.671875 -0.53125 C 1.671875 -0.425781 1.640625 -0.328125 1.578125 -0.234375 C 1.523438 -0.148438 1.441406 -0.0820312 1.328125 -0.03125 C 1.222656 0.0078125 1.101562 0.03125 0.96875 0.03125 Z M 0.96875 0.03125 "/></g></g></g><g fill="#0a152f" fill-opacity="1"><g transform="translate(133.206771, 118.56886)"><g><path d="M 0.4375 -2.265625 C 0.375 -2.265625 0.320312 -2.285156 0.28125 -2.328125 C 0.238281 -2.367188 0.21875 -2.421875 0.21875 -2.484375 C 0.21875 -2.546875 0.238281 -2.597656 0.28125 -2.640625 C 0.320312 -2.691406 0.375 -2.71875 0.4375 -2.71875 C 0.5 -2.71875 0.550781 -2.691406 0.59375 -2.640625 C 0.632812 -2.597656 0.65625 -2.546875 0.65625 -2.484375 C 0.65625 -2.421875 0.632812 -2.367188 0.59375 -2.328125 C 0.550781 -2.285156 0.5 -2.265625 0.4375 -2.265625 Z M 0.59375 -1.953125 L 0.59375 0 L 0.28125 0 L 0.28125 -1.953125 Z M 0.59375 -1.953125 "/></g></g></g><g fill="#0a152f" fill-opacity="1"><g transform="translate(134.084198, 118.56886)"><g><path d="M 0.59375 -2.640625 L 0.59375 0 L 0.28125 0 L 0.28125 -2.640625 Z M 0.59375 -2.640625 "/></g></g></g></svg>