<svg xmlns="http://www.w3.org/2000/svg" xmlns:xlink="http://www.w3.org/1999/xlink" width="200" zoomAndPan="magnify" viewBox="0 0 150 149.999998" height="200" preserveAspectRatio="xMidYMid meet" version="1.0"><defs><g/></defs><rect x="-15" width="180" fill="#ffffff" y="-15" height="179.999997" fill-opacity="1"/><rect x="-15" width="180" fill="#0a152f" y="-15" height="179.999997" fill-opacity="1"/><path stroke-linecap="butt" transform="matrix(0.75, 0, 0, 0.75, 0.00000125, 94.630074)" fill="none" stroke-linejoin="miter" d="M -0.00000166667 0.498443 L 180.088551 0.498443 " stroke="#ffffff" stroke-width="1" stroke-opacity="1" stroke-miterlimit="4"/><g fill="#ffffff" fill-opacity="1"><g transform="translate(15.067368, 60.803847)"><g><path d="M 7.5 -2.375 L 2.84375 -2.375 L 1.984375 0 L 0.5 0 L 4.375 -10.640625 L 5.984375 -10.640625 L 9.828125 0 L 8.359375 0 Z M 7.109375 -3.515625 L 5.171875 -8.921875 L 3.234375 -3.515625 Z M 7.109375 -3.515625 "/></g></g></g><g fill="#ffffff" fill-opacity="1"><g transform="translate(25.406463, 60.803847)"><g><path d="M 2.578125 -7.046875 C 2.828125 -7.523438 3.175781 -7.894531 3.625 -8.15625 C 4.082031 -8.425781 4.640625 -8.5625 5.296875 -8.5625 L 5.296875 -7.125 L 4.921875 -7.125 C 3.359375 -7.125 2.578125 -6.273438 2.578125 -4.578125 L 2.578125 0 L 1.1875 0 L 1.1875 -8.40625 L 2.578125 -8.40625 Z M 2.578125 -7.046875 "/></g></g></g><g fill="#ffffff" fill-opacity="1"><g transform="translate(31.128245, 60.803847)"><g><path d="M 2.578125 -7.046875 C 2.828125 -7.523438 3.175781 -7.894531 3.625 -8.15625 C 4.082031 -8.425781 4.640625 -8.5625 5.296875 -8.5625 L 5.296875 -7.125 L 4.921875 -7.125 C 3.359375 -7.125 2.578125 -6.273438 2.578125 -4.578125 L 2.578125 0 L 1.1875 0 L 1.1875 -8.40625 L 2.578125 -8.40625 Z M 2.578125 -7.046875 "/></g></g></g><g fill="#ffffff" fill-opacity="1"><g transform="translate(36.850028, 60.803847)"><g><path d="M 8.859375 -4.53125 C 8.859375 -4.257812 8.84375 -3.976562 8.8125 -3.6875 L 2.09375 -3.6875 C 2.132812 -2.851562 2.414062 -2.203125 2.9375 -1.734375 C 3.457031 -1.273438 4.082031 -1.046875 4.8125 -1.046875 C 5.414062 -1.046875 5.921875 -1.1875 6.328125 -1.46875 C 6.734375 -1.75 7.019531 -2.125 7.1875 -2.59375 L 8.6875 -2.59375 C 8.457031 -1.78125 8.003906 -1.117188 7.328125 -0.609375 C 6.660156 -0.109375 5.820312 0.140625 4.8125 0.140625 C 4.019531 0.140625 3.304688 -0.0351562 2.671875 -0.390625 C 2.046875 -0.753906 1.550781 -1.265625 1.1875 -1.921875 C 0.832031 -2.585938 0.65625 -3.351562 0.65625 -4.21875 C 0.65625 -5.09375 0.828125 -5.851562 1.171875 -6.5 C 1.523438 -7.15625 2.015625 -7.660156 2.640625 -8.015625 C 3.273438 -8.367188 4 -8.546875 4.8125 -8.546875 C 5.613281 -8.546875 6.320312 -8.367188 6.9375 -8.015625 C 7.550781 -7.671875 8.023438 -7.191406 8.359375 -6.578125 C 8.691406 -5.972656 8.859375 -5.289062 8.859375 -4.53125 Z M 7.40625 -4.8125 C 7.40625 -5.34375 7.285156 -5.800781 7.046875 -6.1875 C 6.816406 -6.570312 6.5 -6.863281 6.09375 -7.0625 C 5.695312 -7.257812 5.25 -7.359375 4.75 -7.359375 C 4.050781 -7.359375 3.453125 -7.132812 2.953125 -6.6875 C 2.453125 -6.238281 2.171875 -5.613281 2.109375 -4.8125 Z M 7.40625 -4.8125 "/></g></g></g><g fill="#ffffff" fill-opacity="1"><g transform="translate(46.360777, 60.803847)"><g><path d="M 0.65625 -4.21875 C 0.65625 -5.09375 0.828125 -5.851562 1.171875 -6.5 C 1.523438 -7.144531 2.007812 -7.644531 2.625 -8 C 3.25 -8.363281 3.957031 -8.546875 4.75 -8.546875 C 5.789062 -8.546875 6.644531 -8.296875 7.3125 -7.796875 C 7.976562 -7.296875 8.421875 -6.597656 8.640625 -5.703125 L 7.140625 -5.703125 C 6.992188 -6.210938 6.710938 -6.613281 6.296875 -6.90625 C 5.878906 -7.207031 5.363281 -7.359375 4.75 -7.359375 C 3.957031 -7.359375 3.316406 -7.082031 2.828125 -6.53125 C 2.335938 -5.988281 2.09375 -5.21875 2.09375 -4.21875 C 2.09375 -3.207031 2.335938 -2.425781 2.828125 -1.875 C 3.316406 -1.320312 3.957031 -1.046875 4.75 -1.046875 C 5.363281 -1.046875 5.875 -1.1875 6.28125 -1.46875 C 6.695312 -1.757812 6.984375 -2.171875 7.140625 -2.703125 L 8.640625 -2.703125 C 8.410156 -1.835938 7.957031 -1.144531 7.28125 -0.625 C 6.613281 -0.113281 5.769531 0.140625 4.75 0.140625 C 3.957031 0.140625 3.25 -0.0351562 2.625 -0.390625 C 2.007812 -0.753906 1.523438 -1.265625 1.171875 -1.921875 C 0.828125 -2.578125 0.65625 -3.34375 0.65625 -4.21875 Z M 0.65625 -4.21875 "/></g></g></g><g fill="#ffffff" fill-opacity="1"><g transform="translate(55.672102, 60.803847)"><g><path d="M 0.65625 -4.234375 C 0.65625 -5.097656 0.828125 -5.851562 1.171875 -6.5 C 1.523438 -7.144531 2.003906 -7.644531 2.609375 -8 C 3.222656 -8.363281 3.90625 -8.546875 4.65625 -8.546875 C 5.382812 -8.546875 6.019531 -8.382812 6.5625 -8.0625 C 7.101562 -7.75 7.507812 -7.351562 7.78125 -6.875 L 7.78125 -8.40625 L 9.1875 -8.40625 L 9.1875 0 L 7.78125 0 L 7.78125 -1.5625 C 7.5 -1.070312 7.082031 -0.664062 6.53125 -0.34375 C 5.988281 -0.0195312 5.359375 0.140625 4.640625 0.140625 C 3.890625 0.140625 3.210938 -0.0390625 2.609375 -0.40625 C 2.003906 -0.78125 1.523438 -1.300781 1.171875 -1.96875 C 0.828125 -2.632812 0.65625 -3.390625 0.65625 -4.234375 Z M 7.78125 -4.21875 C 7.78125 -4.851562 7.648438 -5.40625 7.390625 -5.875 C 7.140625 -6.34375 6.796875 -6.703125 6.359375 -6.953125 C 5.921875 -7.203125 5.441406 -7.328125 4.921875 -7.328125 C 4.398438 -7.328125 3.925781 -7.203125 3.5 -6.953125 C 3.070312 -6.710938 2.726562 -6.359375 2.46875 -5.890625 C 2.21875 -5.421875 2.09375 -4.867188 2.09375 -4.234375 C 2.09375 -3.585938 2.21875 -3.023438 2.46875 -2.546875 C 2.726562 -2.078125 3.070312 -1.71875 3.5 -1.46875 C 3.925781 -1.21875 4.398438 -1.09375 4.921875 -1.09375 C 5.441406 -1.09375 5.921875 -1.21875 6.359375 -1.46875 C 6.796875 -1.71875 7.140625 -2.078125 7.390625 -2.546875 C 7.648438 -3.023438 7.78125 -3.582031 7.78125 -4.21875 Z M 7.78125 -4.21875 "/></g></g></g><g fill="#ffffff" fill-opacity="1"><g transform="translate(66.041879, 60.803847)"><g><path d="M 0.65625 -4.234375 C 0.65625 -5.097656 0.828125 -5.851562 1.171875 -6.5 C 1.523438 -7.144531 2.003906 -7.644531 2.609375 -8 C 3.222656 -8.363281 3.910156 -8.546875 4.671875 -8.546875 C 5.316406 -8.546875 5.921875 -8.394531 6.484375 -8.09375 C 7.046875 -7.789062 7.476562 -7.394531 7.78125 -6.90625 L 7.78125 -11.359375 L 9.1875 -11.359375 L 9.1875 0 L 7.78125 0 L 7.78125 -1.578125 C 7.5 -1.078125 7.085938 -0.664062 6.546875 -0.34375 C 6.003906 -0.0195312 5.375 0.140625 4.65625 0.140625 C 3.90625 0.140625 3.222656 -0.0390625 2.609375 -0.40625 C 2.003906 -0.78125 1.523438 -1.300781 1.171875 -1.96875 C 0.828125 -2.632812 0.65625 -3.390625 0.65625 -4.234375 Z M 7.78125 -4.21875 C 7.78125 -4.851562 7.648438 -5.40625 7.390625 -5.875 C 7.140625 -6.34375 6.796875 -6.703125 6.359375 -6.953125 C 5.921875 -7.203125 5.441406 -7.328125 4.921875 -7.328125 C 4.398438 -7.328125 3.925781 -7.203125 3.5 -6.953125 C 3.070312 -6.710938 2.726562 -6.359375 2.46875 -5.890625 C 2.21875 -5.421875 2.09375 -4.867188 2.09375 -4.234375 C 2.09375 -3.585938 2.21875 -3.023438 2.46875 -2.546875 C 2.726562 -2.078125 3.070312 -1.71875 3.5 -1.46875 C 3.925781 -1.21875 4.398438 -1.09375 4.921875 -1.09375 C 5.441406 -1.09375 5.921875 -1.21875 6.359375 -1.46875 C 6.796875 -1.71875 7.140625 -2.078125 7.390625 -2.546875 C 7.648438 -3.023438 7.78125 -3.582031 7.78125 -4.21875 Z M 7.78125 -4.21875 "/></g></g></g><g fill="#ffffff" fill-opacity="1"><g transform="translate(76.411656, 60.803847)"><g><path d="M 0.65625 -4.234375 C 0.65625 -5.097656 0.828125 -5.851562 1.171875 -6.5 C 1.523438 -7.144531 2.003906 -7.644531 2.609375 -8 C 3.222656 -8.363281 3.90625 -8.546875 4.65625 -8.546875 C 5.382812 -8.546875 6.019531 -8.382812 6.5625 -8.0625 C 7.101562 -7.75 7.507812 -7.351562 7.78125 -6.875 L 7.78125 -8.40625 L 9.1875 -8.40625 L 9.1875 0 L 7.78125 0 L 7.78125 -1.5625 C 7.5 -1.070312 7.082031 -0.664062 6.53125 -0.34375 C 5.988281 -0.0195312 5.359375 0.140625 4.640625 0.140625 C 3.890625 0.140625 3.210938 -0.0390625 2.609375 -0.40625 C 2.003906 -0.78125 1.523438 -1.300781 1.171875 -1.96875 C 0.828125 -2.632812 0.65625 -3.390625 0.65625 -4.234375 Z M 7.78125 -4.21875 C 7.78125 -4.851562 7.648438 -5.40625 7.390625 -5.875 C 7.140625 -6.34375 6.796875 -6.703125 6.359375 -6.953125 C 5.921875 -7.203125 5.441406 -7.328125 4.921875 -7.328125 C 4.398438 -7.328125 3.925781 -7.203125 3.5 -6.953125 C 3.070312 -6.710938 2.726562 -6.359375 2.46875 -5.890625 C 2.21875 -5.421875 2.09375 -4.867188 2.09375 -4.234375 C 2.09375 -3.585938 2.21875 -3.023438 2.46875 -2.546875 C 2.726562 -2.078125 3.070312 -1.71875 3.5 -1.46875 C 3.925781 -1.21875 4.398438 -1.09375 4.921875 -1.09375 C 5.441406 -1.09375 5.921875 -1.21875 6.359375 -1.46875 C 6.796875 -1.71875 7.140625 -2.078125 7.390625 -2.546875 C 7.648438 -3.023438 7.78125 -3.582031 7.78125 -4.21875 Z M 7.78125 -4.21875 "/></g></g></g><g fill="#ffffff" fill-opacity="1"><g transform="translate(86.781433, 60.803847)"><g><path d="M 4.75 -1.046875 C 5.363281 -1.046875 5.875 -1.1875 6.28125 -1.46875 C 6.695312 -1.757812 6.984375 -2.171875 7.140625 -2.703125 L 8.640625 -2.703125 C 8.429688 -1.898438 8.023438 -1.242188 7.421875 -0.734375 C 6.828125 -0.234375 6.082031 0.0507812 5.1875 0.125 L 5.1875 0.890625 C 5.789062 0.878906 6.269531 1.003906 6.625 1.265625 C 6.988281 1.535156 7.171875 1.914062 7.171875 2.40625 C 7.171875 2.882812 6.992188 3.265625 6.640625 3.546875 C 6.296875 3.835938 5.847656 3.984375 5.296875 3.984375 L 3.53125 3.984375 L 3.53125 3.078125 L 5.015625 3.078125 C 5.359375 3.078125 5.609375 3.023438 5.765625 2.921875 C 5.921875 2.828125 6 2.65625 6 2.40625 C 6 2.175781 5.921875 2.007812 5.765625 1.90625 C 5.609375 1.800781 5.359375 1.75 5.015625 1.75 L 4.25 1.75 L 4.25 0.109375 C 3.539062 0.0351562 2.914062 -0.1875 2.375 -0.5625 C 1.832031 -0.9375 1.410156 -1.4375 1.109375 -2.0625 C 0.804688 -2.6875 0.65625 -3.40625 0.65625 -4.21875 C 0.65625 -5.09375 0.828125 -5.851562 1.171875 -6.5 C 1.523438 -7.144531 2.007812 -7.644531 2.625 -8 C 3.25 -8.363281 3.957031 -8.546875 4.75 -8.546875 C 5.789062 -8.546875 6.644531 -8.296875 7.3125 -7.796875 C 7.976562 -7.296875 8.421875 -6.597656 8.640625 -5.703125 L 7.140625 -5.703125 C 6.992188 -6.210938 6.710938 -6.613281 6.296875 -6.90625 C 5.878906 -7.207031 5.363281 -7.359375 4.75 -7.359375 C 3.957031 -7.359375 3.316406 -7.082031 2.828125 -6.53125 C 2.335938 -5.988281 2.09375 -5.21875 2.09375 -4.21875 C 2.09375 -3.207031 2.335938 -2.425781 2.828125 -1.875 C 3.316406 -1.320312 3.957031 -1.046875 4.75 -1.046875 Z M 4.75 -1.046875 "/></g></g></g><g fill="#ffffff" fill-opacity="1"><g transform="translate(96.092757, 60.803847)"><g><path d="M 0.65625 -4.234375 C 0.65625 -5.097656 0.828125 -5.851562 1.171875 -6.5 C 1.523438 -7.144531 2.003906 -7.644531 2.609375 -8 C 3.222656 -8.363281 3.90625 -8.546875 4.65625 -8.546875 C 5.382812 -8.546875 6.019531 -8.382812 6.5625 -8.0625 C 7.101562 -7.75 7.507812 -7.351562 7.78125 -6.875 L 7.78125 -8.40625 L 9.1875 -8.40625 L 9.1875 0 L 7.78125 0 L 7.78125 -1.5625 C 7.5 -1.070312 7.082031 -0.664062 6.53125 -0.34375 C 5.988281 -0.0195312 5.359375 0.140625 4.640625 0.140625 C 3.890625 0.140625 3.210938 -0.0390625 2.609375 -0.40625 C 2.003906 -0.78125 1.523438 -1.300781 1.171875 -1.96875 C 0.828125 -2.632812 0.65625 -3.390625 0.65625 -4.234375 Z M 7.78125 -4.21875 C 7.78125 -4.851562 7.648438 -5.40625 7.390625 -5.875 C 7.140625 -6.34375 6.796875 -6.703125 6.359375 -6.953125 C 5.921875 -7.203125 5.441406 -7.328125 4.921875 -7.328125 C 4.398438 -7.328125 3.925781 -7.203125 3.5 -6.953125 C 3.070312 -6.710938 2.726562 -6.359375 2.46875 -5.890625 C 2.21875 -5.421875 2.09375 -4.867188 2.09375 -4.234375 C 2.09375 -3.585938 2.21875 -3.023438 2.46875 -2.546875 C 2.726562 -2.078125 3.070312 -1.71875 3.5 -1.46875 C 3.925781 -1.21875 4.398438 -1.09375 4.921875 -1.09375 C 5.441406 -1.09375 5.921875 -1.21875 6.359375 -1.46875 C 6.796875 -1.71875 7.140625 -2.078125 7.390625 -2.546875 C 7.648438 -3.023438 7.78125 -3.582031 7.78125 -4.21875 Z M 2.953125 -9.3125 C 3.023438 -9.832031 3.195312 -10.226562 3.46875 -10.5 C 3.738281 -10.78125 4.078125 -10.921875 4.484375 -10.921875 C 4.679688 -10.921875 4.847656 -10.882812 4.984375 -10.8125 C 5.117188 -10.75 5.285156 -10.660156 5.484375 -10.546875 C 5.617188 -10.441406 5.742188 -10.359375 5.859375 -10.296875 C 5.972656 -10.242188 6.097656 -10.21875 6.234375 -10.21875 C 6.410156 -10.21875 6.554688 -10.273438 6.671875 -10.390625 C 6.796875 -10.503906 6.875 -10.664062 6.90625 -10.875 L 7.703125 -10.875 C 7.640625 -10.363281 7.46875 -9.96875 7.1875 -9.6875 C 6.914062 -9.414062 6.578125 -9.28125 6.171875 -9.28125 C 5.972656 -9.28125 5.800781 -9.3125 5.65625 -9.375 C 5.507812 -9.445312 5.34375 -9.550781 5.15625 -9.6875 C 4.988281 -9.78125 4.859375 -9.851562 4.765625 -9.90625 C 4.671875 -9.957031 4.554688 -9.984375 4.421875 -9.984375 C 4.242188 -9.984375 4.097656 -9.925781 3.984375 -9.8125 C 3.867188 -9.707031 3.796875 -9.539062 3.765625 -9.3125 Z M 2.953125 -9.3125 "/></g></g></g><g fill="#ffffff" fill-opacity="1"><g transform="translate(106.462534, 60.803847)"><g><path d="M 4.84375 0.140625 C 4.0625 0.140625 3.347656 -0.0351562 2.703125 -0.390625 C 2.066406 -0.753906 1.566406 -1.265625 1.203125 -1.921875 C 0.835938 -2.585938 0.65625 -3.351562 0.65625 -4.21875 C 0.65625 -5.082031 0.84375 -5.84375 1.21875 -6.5 C 1.59375 -7.15625 2.101562 -7.660156 2.75 -8.015625 C 3.394531 -8.367188 4.113281 -8.546875 4.90625 -8.546875 C 5.707031 -8.546875 6.429688 -8.367188 7.078125 -8.015625 C 7.722656 -7.660156 8.226562 -7.15625 8.59375 -6.5 C 8.96875 -5.851562 9.15625 -5.09375 9.15625 -4.21875 C 9.15625 -3.351562 8.960938 -2.585938 8.578125 -1.921875 C 8.203125 -1.265625 7.6875 -0.753906 7.03125 -0.390625 C 6.375 -0.0351562 5.644531 0.140625 4.84375 0.140625 Z M 4.84375 -1.09375 C 5.34375 -1.09375 5.8125 -1.207031 6.25 -1.4375 C 6.695312 -1.675781 7.054688 -2.03125 7.328125 -2.5 C 7.597656 -2.96875 7.734375 -3.539062 7.734375 -4.21875 C 7.734375 -4.894531 7.597656 -5.46875 7.328125 -5.9375 C 7.066406 -6.40625 6.71875 -6.753906 6.28125 -6.984375 C 5.851562 -7.210938 5.390625 -7.328125 4.890625 -7.328125 C 4.378906 -7.328125 3.910156 -7.210938 3.484375 -6.984375 C 3.066406 -6.753906 2.726562 -6.40625 2.46875 -5.9375 C 2.21875 -5.46875 2.09375 -4.894531 2.09375 -4.21875 C 2.09375 -3.53125 2.21875 -2.953125 2.46875 -2.484375 C 2.71875 -2.015625 3.050781 -1.664062 3.46875 -1.4375 C 3.882812 -1.207031 4.34375 -1.09375 4.84375 -1.09375 Z M 4.84375 -1.09375 "/></g></g></g><g fill="#ffffff" fill-opacity="1"><g transform="translate(15.067368, 78.803846)"><g><path d="M 7.234375 -10.6875 L 7.234375 -9.5625 L 2.578125 -9.5625 L 2.578125 -5.953125 L 6.359375 -5.953125 L 6.359375 -4.8125 L 2.578125 -4.8125 L 2.578125 0 L 1.1875 0 L 1.1875 -10.6875 Z M 7.234375 -10.6875 "/></g></g></g><g fill="#ffffff" fill-opacity="1"><g transform="translate(22.798687, 78.803846)"><g><path d="M 8.859375 -4.53125 C 8.859375 -4.257812 8.84375 -3.976562 8.8125 -3.6875 L 2.09375 -3.6875 C 2.132812 -2.851562 2.414062 -2.203125 2.9375 -1.734375 C 3.457031 -1.273438 4.082031 -1.046875 4.8125 -1.046875 C 5.414062 -1.046875 5.921875 -1.1875 6.328125 -1.46875 C 6.734375 -1.75 7.019531 -2.125 7.1875 -2.59375 L 8.6875 -2.59375 C 8.457031 -1.78125 8.003906 -1.117188 7.328125 -0.609375 C 6.660156 -0.109375 5.820312 0.140625 4.8125 0.140625 C 4.019531 0.140625 3.304688 -0.0351562 2.671875 -0.390625 C 2.046875 -0.753906 1.550781 -1.265625 1.1875 -1.921875 C 0.832031 -2.585938 0.65625 -3.351562 0.65625 -4.21875 C 0.65625 -5.09375 0.828125 -5.851562 1.171875 -6.5 C 1.523438 -7.15625 2.015625 -7.660156 2.640625 -8.015625 C 3.273438 -8.367188 4 -8.546875 4.8125 -8.546875 C 5.613281 -8.546875 6.320312 -8.367188 6.9375 -8.015625 C 7.550781 -7.671875 8.023438 -7.191406 8.359375 -6.578125 C 8.691406 -5.972656 8.859375 -5.289062 8.859375 -4.53125 Z M 7.40625 -4.8125 C 7.40625 -5.34375 7.285156 -5.800781 7.046875 -6.1875 C 6.816406 -6.570312 6.5 -6.863281 6.09375 -7.0625 C 5.695312 -7.257812 5.25 -7.359375 4.75 -7.359375 C 4.050781 -7.359375 3.453125 -7.132812 2.953125 -6.6875 C 2.453125 -6.238281 2.171875 -5.613281 2.109375 -4.8125 Z M 7.40625 -4.8125 "/></g></g></g><g fill="#ffffff" fill-opacity="1"><g transform="translate(32.309436, 78.803846)"><g><path d="M 0.65625 -4.234375 C 0.65625 -5.097656 0.828125 -5.851562 1.171875 -6.5 C 1.523438 -7.144531 2.003906 -7.644531 2.609375 -8 C 3.222656 -8.363281 3.910156 -8.546875 4.671875 -8.546875 C 5.316406 -8.546875 5.921875 -8.394531 6.484375 -8.09375 C 7.046875 -7.789062 7.476562 -7.394531 7.78125 -6.90625 L 7.78125 -11.359375 L 9.1875 -11.359375 L 9.1875 0 L 7.78125 0 L 7.78125 -1.578125 C 7.5 -1.078125 7.085938 -0.664062 6.546875 -0.34375 C 6.003906 -0.0195312 5.375 0.140625 4.65625 0.140625 C 3.90625 0.140625 3.222656 -0.0390625 2.609375 -0.40625 C 2.003906 -0.78125 1.523438 -1.300781 1.171875 -1.96875 C 0.828125 -2.632812 0.65625 -3.390625 0.65625 -4.234375 Z M 7.78125 -4.21875 C 7.78125 -4.851562 7.648438 -5.40625 7.390625 -5.875 C 7.140625 -6.34375 6.796875 -6.703125 6.359375 -6.953125 C 5.921875 -7.203125 5.441406 -7.328125 4.921875 -7.328125 C 4.398438 -7.328125 3.925781 -7.203125 3.5 -6.953125 C 3.070312 -6.710938 2.726562 -6.359375 2.46875 -5.890625 C 2.21875 -5.421875 2.09375 -4.867188 2.09375 -4.234375 C 2.09375 -3.585938 2.21875 -3.023438 2.46875 -2.546875 C 2.726562 -2.078125 3.070312 -1.71875 3.5 -1.46875 C 3.925781 -1.21875 4.398438 -1.09375 4.921875 -1.09375 C 5.441406 -1.09375 5.921875 -1.21875 6.359375 -1.46875 C 6.796875 -1.71875 7.140625 -2.078125 7.390625 -2.546875 C 7.648438 -3.023438 7.78125 -3.582031 7.78125 -4.21875 Z M 7.78125 -4.21875 "/></g></g></g><g fill="#ffffff" fill-opacity="1"><g transform="translate(42.679213, 78.803846)"><g><path d="M 8.859375 -4.53125 C 8.859375 -4.257812 8.84375 -3.976562 8.8125 -3.6875 L 2.09375 -3.6875 C 2.132812 -2.851562 2.414062 -2.203125 2.9375 -1.734375 C 3.457031 -1.273438 4.082031 -1.046875 4.8125 -1.046875 C 5.414062 -1.046875 5.921875 -1.1875 6.328125 -1.46875 C 6.734375 -1.75 7.019531 -2.125 7.1875 -2.59375 L 8.6875 -2.59375 C 8.457031 -1.78125 8.003906 -1.117188 7.328125 -0.609375 C 6.660156 -0.109375 5.820312 0.140625 4.8125 0.140625 C 4.019531 0.140625 3.304688 -0.0351562 2.671875 -0.390625 C 2.046875 -0.753906 1.550781 -1.265625 1.1875 -1.921875 C 0.832031 -2.585938 0.65625 -3.351562 0.65625 -4.21875 C 0.65625 -5.09375 0.828125 -5.851562 1.171875 -6.5 C 1.523438 -7.15625 2.015625 -7.660156 2.640625 -8.015625 C 3.273438 -8.367188 4 -8.546875 4.8125 -8.546875 C 5.613281 -8.546875 6.320312 -8.367188 6.9375 -8.015625 C 7.550781 -7.671875 8.023438 -7.191406 8.359375 -6.578125 C 8.691406 -5.972656 8.859375 -5.289062 8.859375 -4.53125 Z M 7.40625 -4.8125 C 7.40625 -5.34375 7.285156 -5.800781 7.046875 -6.1875 C 6.816406 -6.570312 6.5 -6.863281 6.09375 -7.0625 C 5.695312 -7.257812 5.25 -7.359375 4.75 -7.359375 C 4.050781 -7.359375 3.453125 -7.132812 2.953125 -6.6875 C 2.453125 -6.238281 2.171875 -5.613281 2.109375 -4.8125 Z M 7.40625 -4.8125 "/></g></g></g><g fill="#ffffff" fill-opacity="1"><g transform="translate(52.189962, 78.803846)"><g><path d="M 2.578125 -7.046875 C 2.828125 -7.523438 3.175781 -7.894531 3.625 -8.15625 C 4.082031 -8.425781 4.640625 -8.5625 5.296875 -8.5625 L 5.296875 -7.125 L 4.921875 -7.125 C 3.359375 -7.125 2.578125 -6.273438 2.578125 -4.578125 L 2.578125 0 L 1.1875 0 L 1.1875 -8.40625 L 2.578125 -8.40625 Z M 2.578125 -7.046875 "/></g></g></g><g fill="#ffffff" fill-opacity="1"><g transform="translate(57.911745, 78.803846)"><g><path d="M 0.65625 -4.234375 C 0.65625 -5.097656 0.828125 -5.851562 1.171875 -6.5 C 1.523438 -7.144531 2.003906 -7.644531 2.609375 -8 C 3.222656 -8.363281 3.90625 -8.546875 4.65625 -8.546875 C 5.382812 -8.546875 6.019531 -8.382812 6.5625 -8.0625 C 7.101562 -7.75 7.507812 -7.351562 7.78125 -6.875 L 7.78125 -8.40625 L 9.1875 -8.40625 L 9.1875 0 L 7.78125 0 L 7.78125 -1.5625 C 7.5 -1.070312 7.082031 -0.664062 6.53125 -0.34375 C 5.988281 -0.0195312 5.359375 0.140625 4.640625 0.140625 C 3.890625 0.140625 3.210938 -0.0390625 2.609375 -0.40625 C 2.003906 -0.78125 1.523438 -1.300781 1.171875 -1.96875 C 0.828125 -2.632812 0.65625 -3.390625 0.65625 -4.234375 Z M 7.78125 -4.21875 C 7.78125 -4.851562 7.648438 -5.40625 7.390625 -5.875 C 7.140625 -6.34375 6.796875 -6.703125 6.359375 -6.953125 C 5.921875 -7.203125 5.441406 -7.328125 4.921875 -7.328125 C 4.398438 -7.328125 3.925781 -7.203125 3.5 -6.953125 C 3.070312 -6.710938 2.726562 -6.359375 2.46875 -5.890625 C 2.21875 -5.421875 2.09375 -4.867188 2.09375 -4.234375 C 2.09375 -3.585938 2.21875 -3.023438 2.46875 -2.546875 C 2.726562 -2.078125 3.070312 -1.71875 3.5 -1.46875 C 3.925781 -1.21875 4.398438 -1.09375 4.921875 -1.09375 C 5.441406 -1.09375 5.921875 -1.21875 6.359375 -1.46875 C 6.796875 -1.71875 7.140625 -2.078125 7.390625 -2.546875 C 7.648438 -3.023438 7.78125 -3.582031 7.78125 -4.21875 Z M 7.78125 -4.21875 "/></g></g></g><g fill="#ffffff" fill-opacity="1"><g transform="translate(68.281522, 78.803846)"><g><path d="M 2.578125 -11.359375 L 2.578125 0 L 1.1875 0 L 1.1875 -11.359375 Z M 2.578125 -11.359375 "/></g></g></g><g fill="#ffffff" fill-opacity="1"><g transform="translate(107.482259, 101.507227)"><g><path d="M 1.578125 0 L 0.984375 -1.015625 L 0.59375 -1.015625 L 0.59375 0 L 0.28125 0 L 0.28125 -2.484375 L 1.078125 -2.484375 C 1.265625 -2.484375 1.421875 -2.453125 1.546875 -2.390625 C 1.679688 -2.328125 1.78125 -2.238281 1.84375 -2.125 C 1.90625 -2.019531 1.9375 -1.894531 1.9375 -1.75 C 1.9375 -1.582031 1.882812 -1.429688 1.78125 -1.296875 C 1.6875 -1.171875 1.539062 -1.085938 1.34375 -1.046875 L 1.96875 0 Z M 0.59375 -1.28125 L 1.078125 -1.28125 C 1.253906 -1.28125 1.382812 -1.320312 1.46875 -1.40625 C 1.5625 -1.488281 1.609375 -1.601562 1.609375 -1.75 C 1.609375 -1.894531 1.5625 -2.007812 1.46875 -2.09375 C 1.382812 -2.175781 1.253906 -2.21875 1.078125 -2.21875 L 0.59375 -2.21875 Z M 0.59375 -1.28125 "/></g></g></g><g fill="#ffffff" fill-opacity="1"><g transform="translate(109.650856, 101.507227)"><g><path d="M 2.0625 -1.046875 C 2.0625 -0.984375 2.054688 -0.921875 2.046875 -0.859375 L 0.484375 -0.859375 C 0.492188 -0.660156 0.554688 -0.507812 0.671875 -0.40625 C 0.796875 -0.300781 0.945312 -0.25 1.125 -0.25 C 1.257812 -0.25 1.375 -0.28125 1.46875 -0.34375 C 1.5625 -0.40625 1.628906 -0.492188 1.671875 -0.609375 L 2.015625 -0.609375 C 1.960938 -0.421875 1.859375 -0.265625 1.703125 -0.140625 C 1.546875 -0.0234375 1.351562 0.03125 1.125 0.03125 C 0.9375 0.03125 0.769531 -0.0078125 0.625 -0.09375 C 0.476562 -0.175781 0.363281 -0.289062 0.28125 -0.4375 C 0.195312 -0.59375 0.15625 -0.773438 0.15625 -0.984375 C 0.15625 -1.179688 0.191406 -1.351562 0.265625 -1.5 C 0.347656 -1.65625 0.460938 -1.773438 0.609375 -1.859375 C 0.753906 -1.941406 0.925781 -1.984375 1.125 -1.984375 C 1.300781 -1.984375 1.460938 -1.941406 1.609375 -1.859375 C 1.753906 -1.773438 1.863281 -1.660156 1.9375 -1.515625 C 2.019531 -1.378906 2.0625 -1.222656 2.0625 -1.046875 Z M 1.71875 -1.125 C 1.71875 -1.238281 1.691406 -1.34375 1.640625 -1.4375 C 1.585938 -1.53125 1.515625 -1.597656 1.421875 -1.640625 C 1.328125 -1.679688 1.222656 -1.703125 1.109375 -1.703125 C 0.941406 -1.703125 0.800781 -1.648438 0.6875 -1.546875 C 0.570312 -1.441406 0.503906 -1.300781 0.484375 -1.125 Z M 1.71875 -1.125 "/></g></g></g><g fill="#ffffff" fill-opacity="1"><g transform="translate(111.862253, 101.507227)"><g><path d="M 0.15625 -0.984375 C 0.15625 -1.179688 0.191406 -1.351562 0.265625 -1.5 C 0.347656 -1.65625 0.460938 -1.773438 0.609375 -1.859375 C 0.753906 -1.941406 0.921875 -1.984375 1.109375 -1.984375 C 1.347656 -1.984375 1.546875 -1.925781 1.703125 -1.8125 C 1.859375 -1.695312 1.957031 -1.535156 2 -1.328125 L 1.65625 -1.328125 C 1.625 -1.441406 1.554688 -1.53125 1.453125 -1.59375 C 1.359375 -1.664062 1.242188 -1.703125 1.109375 -1.703125 C 0.921875 -1.703125 0.769531 -1.640625 0.65625 -1.515625 C 0.539062 -1.390625 0.484375 -1.210938 0.484375 -0.984375 C 0.484375 -0.742188 0.539062 -0.5625 0.65625 -0.4375 C 0.769531 -0.3125 0.921875 -0.25 1.109375 -0.25 C 1.242188 -0.25 1.359375 -0.28125 1.453125 -0.34375 C 1.554688 -0.40625 1.625 -0.5 1.65625 -0.625 L 2 -0.625 C 1.945312 -0.425781 1.84375 -0.265625 1.6875 -0.140625 C 1.53125 -0.0234375 1.335938 0.03125 1.109375 0.03125 C 0.921875 0.03125 0.753906 -0.0078125 0.609375 -0.09375 C 0.460938 -0.175781 0.347656 -0.289062 0.265625 -0.4375 C 0.191406 -0.59375 0.15625 -0.773438 0.15625 -0.984375 Z M 0.15625 -0.984375 "/></g></g></g><g fill="#ffffff" fill-opacity="1"><g transform="translate(114.027285, 101.507227)"><g><path d="M 2.0625 -1.046875 C 2.0625 -0.984375 2.054688 -0.921875 2.046875 -0.859375 L 0.484375 -0.859375 C 0.492188 -0.660156 0.554688 -0.507812 0.671875 -0.40625 C 0.796875 -0.300781 0.945312 -0.25 1.125 -0.25 C 1.257812 -0.25 1.375 -0.28125 1.46875 -0.34375 C 1.5625 -0.40625 1.628906 -0.492188 1.671875 -0.609375 L 2.015625 -0.609375 C 1.960938 -0.421875 1.859375 -0.265625 1.703125 -0.140625 C 1.546875 -0.0234375 1.351562 0.03125 1.125 0.03125 C 0.9375 0.03125 0.769531 -0.0078125 0.625 -0.09375 C 0.476562 -0.175781 0.363281 -0.289062 0.28125 -0.4375 C 0.195312 -0.59375 0.15625 -0.773438 0.15625 -0.984375 C 0.15625 -1.179688 0.191406 -1.351562 0.265625 -1.5 C 0.347656 -1.65625 0.460938 -1.773438 0.609375 -1.859375 C 0.753906 -1.941406 0.925781 -1.984375 1.125 -1.984375 C 1.300781 -1.984375 1.460938 -1.941406 1.609375 -1.859375 C 1.753906 -1.773438 1.863281 -1.660156 1.9375 -1.515625 C 2.019531 -1.378906 2.0625 -1.222656 2.0625 -1.046875 Z M 1.71875 -1.125 C 1.71875 -1.238281 1.691406 -1.34375 1.640625 -1.4375 C 1.585938 -1.53125 1.515625 -1.597656 1.421875 -1.640625 C 1.328125 -1.679688 1.222656 -1.703125 1.109375 -1.703125 C 0.941406 -1.703125 0.800781 -1.648438 0.6875 -1.546875 C 0.570312 -1.441406 0.503906 -1.300781 0.484375 -1.125 Z M 1.71875 -1.125 "/></g></g></g><g fill="#ffffff" fill-opacity="1"><g transform="translate(116.238683, 101.507227)"><g><path d="M 0.4375 -2.265625 C 0.375 -2.265625 0.320312 -2.285156 0.28125 -2.328125 C 0.238281 -2.367188 0.21875 -2.421875 0.21875 -2.484375 C 0.21875 -2.546875 0.238281 -2.597656 0.28125 -2.640625 C 0.320312 -2.691406 0.375 -2.71875 0.4375 -2.71875 C 0.5 -2.71875 0.550781 -2.691406 0.59375 -2.640625 C 0.632812 -2.597656 0.65625 -2.546875 0.65625 -2.484375 C 0.65625 -2.421875 0.632812 -2.367188 0.59375 -2.328125 C 0.550781 -2.285156 0.5 -2.265625 0.4375 -2.265625 Z M 0.59375 -1.953125 L 0.59375 0 L 0.28125 0 L 0.28125 -1.953125 Z M 0.59375 -1.953125 "/></g></g></g><g fill="#ffffff" fill-opacity="1"><g transform="translate(117.11611, 101.507227)"><g><path d="M 0.671875 -1.6875 L 0.671875 -0.53125 C 0.671875 -0.4375 0.691406 -0.367188 0.734375 -0.328125 C 0.773438 -0.296875 0.84375 -0.28125 0.9375 -0.28125 L 1.171875 -0.28125 L 1.171875 0 L 0.890625 0 C 0.703125 0 0.5625 -0.0390625 0.46875 -0.125 C 0.382812 -0.207031 0.34375 -0.34375 0.34375 -0.53125 L 0.34375 -1.6875 L 0.09375 -1.6875 L 0.09375 -1.953125 L 0.34375 -1.953125 L 0.34375 -2.4375 L 0.671875 -2.4375 L 0.671875 -1.953125 L 1.171875 -1.953125 L 1.171875 -1.6875 Z M 0.671875 -1.6875 "/></g></g></g><g fill="#ffffff" fill-opacity="1"><g transform="translate(118.414414, 101.507227)"><g><path d="M 0.15625 -0.984375 C 0.15625 -1.179688 0.191406 -1.351562 0.265625 -1.5 C 0.347656 -1.65625 0.457031 -1.773438 0.59375 -1.859375 C 0.738281 -1.941406 0.898438 -1.984375 1.078125 -1.984375 C 1.242188 -1.984375 1.390625 -1.945312 1.515625 -1.875 C 1.648438 -1.800781 1.75 -1.707031 1.8125 -1.59375 L 1.8125 -1.953125 L 2.140625 -1.953125 L 2.140625 0 L 1.8125 0 L 1.8125 -0.359375 C 1.738281 -0.242188 1.640625 -0.148438 1.515625 -0.078125 C 1.390625 -0.00390625 1.242188 0.03125 1.078125 0.03125 C 0.898438 0.03125 0.738281 -0.0078125 0.59375 -0.09375 C 0.457031 -0.175781 0.347656 -0.296875 0.265625 -0.453125 C 0.191406 -0.609375 0.15625 -0.785156 0.15625 -0.984375 Z M 1.8125 -0.984375 C 1.8125 -1.128906 1.78125 -1.253906 1.71875 -1.359375 C 1.65625 -1.472656 1.570312 -1.554688 1.46875 -1.609375 C 1.375 -1.671875 1.265625 -1.703125 1.140625 -1.703125 C 1.023438 -1.703125 0.914062 -1.671875 0.8125 -1.609375 C 0.707031 -1.554688 0.625 -1.472656 0.5625 -1.359375 C 0.507812 -1.253906 0.484375 -1.128906 0.484375 -0.984375 C 0.484375 -0.835938 0.507812 -0.707031 0.5625 -0.59375 C 0.625 -0.476562 0.707031 -0.390625 0.8125 -0.328125 C 0.914062 -0.273438 1.023438 -0.25 1.140625 -0.25 C 1.265625 -0.25 1.375 -0.273438 1.46875 -0.328125 C 1.570312 -0.390625 1.65625 -0.476562 1.71875 -0.59375 C 1.78125 -0.707031 1.8125 -0.835938 1.8125 -0.984375 Z M 1.8125 -0.984375 "/></g></g></g><g fill="#ffffff" fill-opacity="1"><g transform="translate(120.825553, 101.507227)"><g/></g></g><g fill="#ffffff" fill-opacity="1"><g transform="translate(121.777881, 101.507227)"><g><path d="M 1.671875 -2.484375 L 1.671875 -2.21875 L 0.59375 -2.21875 L 0.59375 -1.375 L 1.46875 -1.375 L 1.46875 -1.125 L 0.59375 -1.125 L 0.59375 0 L 0.28125 0 L 0.28125 -2.484375 Z M 1.671875 -2.484375 "/></g></g></g><g fill="#ffffff" fill-opacity="1"><g transform="translate(123.575537, 101.507227)"><g><path d="M 2.0625 -1.046875 C 2.0625 -0.984375 2.054688 -0.921875 2.046875 -0.859375 L 0.484375 -0.859375 C 0.492188 -0.660156 0.554688 -0.507812 0.671875 -0.40625 C 0.796875 -0.300781 0.945312 -0.25 1.125 -0.25 C 1.257812 -0.25 1.375 -0.28125 1.46875 -0.34375 C 1.5625 -0.40625 1.628906 -0.492188 1.671875 -0.609375 L 2.015625 -0.609375 C 1.960938 -0.421875 1.859375 -0.265625 1.703125 -0.140625 C 1.546875 -0.0234375 1.351562 0.03125 1.125 0.03125 C 0.9375 0.03125 0.769531 -0.0078125 0.625 -0.09375 C 0.476562 -0.175781 0.363281 -0.289062 0.28125 -0.4375 C 0.195312 -0.59375 0.15625 -0.773438 0.15625 -0.984375 C 0.15625 -1.179688 0.191406 -1.351562 0.265625 -1.5 C 0.347656 -1.65625 0.460938 -1.773438 0.609375 -1.859375 C 0.753906 -1.941406 0.925781 -1.984375 1.125 -1.984375 C 1.300781 -1.984375 1.460938 -1.941406 1.609375 -1.859375 C 1.753906 -1.773438 1.863281 -1.660156 1.9375 -1.515625 C 2.019531 -1.378906 2.0625 -1.222656 2.0625 -1.046875 Z M 1.71875 -1.125 C 1.71875 -1.238281 1.691406 -1.34375 1.640625 -1.4375 C 1.585938 -1.53125 1.515625 -1.597656 1.421875 -1.640625 C 1.328125 -1.679688 1.222656 -1.703125 1.109375 -1.703125 C 0.941406 -1.703125 0.800781 -1.648438 0.6875 -1.546875 C 0.570312 -1.441406 0.503906 -1.300781 0.484375 -1.125 Z M 1.71875 -1.125 "/></g></g></g><g fill="#ffffff" fill-opacity="1"><g transform="translate(125.786934, 101.507227)"><g><path d="M 0.15625 -0.984375 C 0.15625 -1.179688 0.191406 -1.351562 0.265625 -1.5 C 0.347656 -1.65625 0.457031 -1.773438 0.59375 -1.859375 C 0.738281 -1.941406 0.898438 -1.984375 1.078125 -1.984375 C 1.234375 -1.984375 1.375 -1.945312 1.5 -1.875 C 1.632812 -1.8125 1.738281 -1.722656 1.8125 -1.609375 L 1.8125 -2.640625 L 2.140625 -2.640625 L 2.140625 0 L 1.8125 0 L 1.8125 -0.359375 C 1.738281 -0.242188 1.640625 -0.148438 1.515625 -0.078125 C 1.390625 -0.00390625 1.242188 0.03125 1.078125 0.03125 C 0.898438 0.03125 0.738281 -0.0078125 0.59375 -0.09375 C 0.457031 -0.175781 0.347656 -0.296875 0.265625 -0.453125 C 0.191406 -0.609375 0.15625 -0.785156 0.15625 -0.984375 Z M 1.8125 -0.984375 C 1.8125 -1.128906 1.78125 -1.253906 1.71875 -1.359375 C 1.65625 -1.472656 1.570312 -1.554688 1.46875 -1.609375 C 1.375 -1.671875 1.265625 -1.703125 1.140625 -1.703125 C 1.023438 -1.703125 0.914062 -1.671875 0.8125 -1.609375 C 0.707031 -1.554688 0.625 -1.472656 0.5625 -1.359375 C 0.507812 -1.253906 0.484375 -1.128906 0.484375 -0.984375 C 0.484375 -0.835938 0.507812 -0.707031 0.5625 -0.59375 C 0.625 -0.476562 0.707031 -0.390625 0.8125 -0.328125 C 0.914062 -0.273438 1.023438 -0.25 1.140625 -0.25 C 1.265625 -0.25 1.375 -0.273438 1.46875 -0.328125 C 1.570312 -0.390625 1.65625 -0.476562 1.71875 -0.59375 C 1.78125 -0.707031 1.8125 -0.835938 1.8125 -0.984375 Z M 1.8125 -0.984375 "/></g></g></g><g fill="#ffffff" fill-opacity="1"><g transform="translate(128.198072, 101.507227)"><g><path d="M 2.0625 -1.046875 C 2.0625 -0.984375 2.054688 -0.921875 2.046875 -0.859375 L 0.484375 -0.859375 C 0.492188 -0.660156 0.554688 -0.507812 0.671875 -0.40625 C 0.796875 -0.300781 0.945312 -0.25 1.125 -0.25 C 1.257812 -0.25 1.375 -0.28125 1.46875 -0.34375 C 1.5625 -0.40625 1.628906 -0.492188 1.671875 -0.609375 L 2.015625 -0.609375 C 1.960938 -0.421875 1.859375 -0.265625 1.703125 -0.140625 C 1.546875 -0.0234375 1.351562 0.03125 1.125 0.03125 C 0.9375 0.03125 0.769531 -0.0078125 0.625 -0.09375 C 0.476562 -0.175781 0.363281 -0.289062 0.28125 -0.4375 C 0.195312 -0.59375 0.15625 -0.773438 0.15625 -0.984375 C 0.15625 -1.179688 0.191406 -1.351562 0.265625 -1.5 C 0.347656 -1.65625 0.460938 -1.773438 0.609375 -1.859375 C 0.753906 -1.941406 0.925781 -1.984375 1.125 -1.984375 C 1.300781 -1.984375 1.460938 -1.941406 1.609375 -1.859375 C 1.753906 -1.773438 1.863281 -1.660156 1.9375 -1.515625 C 2.019531 -1.378906 2.0625 -1.222656 2.0625 -1.046875 Z M 1.71875 -1.125 C 1.71875 -1.238281 1.691406 -1.34375 1.640625 -1.4375 C 1.585938 -1.53125 1.515625 -1.597656 1.421875 -1.640625 C 1.328125 -1.679688 1.222656 -1.703125 1.109375 -1.703125 C 0.941406 -1.703125 0.800781 -1.648438 0.6875 -1.546875 C 0.570312 -1.441406 0.503906 -1.300781 0.484375 -1.125 Z M 1.71875 -1.125 "/></g></g></g><g fill="#ffffff" fill-opacity="1"><g transform="translate(130.40947, 101.507227)"><g><path d="M 0.59375 -1.640625 C 0.65625 -1.742188 0.738281 -1.828125 0.84375 -1.890625 C 0.945312 -1.953125 1.078125 -1.984375 1.234375 -1.984375 L 1.234375 -1.65625 L 1.140625 -1.65625 C 0.773438 -1.65625 0.59375 -1.457031 0.59375 -1.0625 L 0.59375 0 L 0.28125 0 L 0.28125 -1.953125 L 0.59375 -1.953125 Z M 0.59375 -1.640625 "/></g></g></g><g fill="#ffffff" fill-opacity="1"><g transform="translate(131.739875, 101.507227)"><g><path d="M 0.15625 -0.984375 C 0.15625 -1.179688 0.191406 -1.351562 0.265625 -1.5 C 0.347656 -1.65625 0.457031 -1.773438 0.59375 -1.859375 C 0.738281 -1.941406 0.898438 -1.984375 1.078125 -1.984375 C 1.242188 -1.984375 1.390625 -1.945312 1.515625 -1.875 C 1.648438 -1.800781 1.75 -1.707031 1.8125 -1.59375 L 1.8125 -1.953125 L 2.140625 -1.953125 L 2.140625 0 L 1.8125 0 L 1.8125 -0.359375 C 1.738281 -0.242188 1.640625 -0.148438 1.515625 -0.078125 C 1.390625 -0.00390625 1.242188 0.03125 1.078125 0.03125 C 0.898438 0.03125 0.738281 -0.0078125 0.59375 -0.09375 C 0.457031 -0.175781 0.347656 -0.296875 0.265625 -0.453125 C 0.191406 -0.609375 0.15625 -0.785156 0.15625 -0.984375 Z M 1.8125 -0.984375 C 1.8125 -1.128906 1.78125 -1.253906 1.71875 -1.359375 C 1.65625 -1.472656 1.570312 -1.554688 1.46875 -1.609375 C 1.375 -1.671875 1.265625 -1.703125 1.140625 -1.703125 C 1.023438 -1.703125 0.914062 -1.671875 0.8125 -1.609375 C 0.707031 -1.554688 0.625 -1.472656 0.5625 -1.359375 C 0.507812 -1.253906 0.484375 -1.128906 0.484375 -0.984375 C 0.484375 -0.835938 0.507812 -0.707031 0.5625 -0.59375 C 0.625 -0.476562 0.707031 -0.390625 0.8125 -0.328125 C 0.914062 -0.273438 1.023438 -0.25 1.140625 -0.25 C 1.265625 -0.25 1.375 -0.273438 1.46875 -0.328125 C 1.570312 -0.390625 1.65625 -0.476562 1.71875 -0.59375 C 1.78125 -0.707031 1.8125 -0.835938 1.8125 -0.984375 Z M 1.8125 -0.984375 "/></g></g></g><g fill="#ffffff" fill-opacity="1"><g transform="translate(134.151013, 101.507227)"><g><path d="M 0.59375 -2.640625 L 0.59375 0 L 0.28125 0 L 0.28125 -2.640625 Z M 0.59375 -2.640625 "/></g></g></g></svg>