<svg xmlns="http://www.w3.org/2000/svg" xmlns:xlink="http://www.w3.org/1999/xlink" width="200" zoomAndPan="magnify" viewBox="0 0 150 149.999998" height="200" preserveAspectRatio="xMidYMid meet" version="1.0"><defs><g/></defs><rect x="-15" width="180" fill="#ffffff" y="-15" height="179.999997" fill-opacity="1"/><rect x="-15" width="180" fill="#0f3c88" y="-15" height="179.999997" fill-opacity="1"/><path stroke-linecap="butt" transform="matrix(0.75, 0, 0, 0.75, 0.00000125, 94.63006)" fill="none" stroke-linejoin="miter" d="M -0.00000166667 0.498462 L 180.088551 0.498462 " stroke="#ffffff" stroke-width="1" stroke-opacity="1" stroke-miterlimit="4"/><g fill="#ffffff" fill-opacity="1"><g transform="translate(15, 67.475249)"><g><path d="M 0.6875 -5.578125 C 0.6875 -6.671875 0.929688 -7.648438 1.421875 -8.515625 C 1.910156 -9.390625 2.578125 -10.070312 3.421875 -10.5625 C 4.273438 -11.050781 5.21875 -11.296875 6.25 -11.296875 C 7.46875 -11.296875 8.53125 -11 9.4375 -10.40625 C 10.34375 -9.820312 11.003906 -8.992188 11.421875 -7.921875 L 9.6875 -7.921875 C 9.375 -8.585938 8.925781 -9.101562 8.34375 -9.46875 C 7.757812 -9.832031 7.0625 -10.015625 6.25 -10.015625 C 5.476562 -10.015625 4.78125 -9.832031 4.15625 -9.46875 C 3.539062 -9.101562 3.054688 -8.585938 2.703125 -7.921875 C 2.347656 -7.253906 2.171875 -6.472656 2.171875 -5.578125 C 2.171875 -4.691406 2.347656 -3.914062 2.703125 -3.25 C 3.054688 -2.582031 3.539062 -2.066406 4.15625 -1.703125 C 4.78125 -1.347656 5.476562 -1.171875 6.25 -1.171875 C 7.0625 -1.171875 7.757812 -1.347656 8.34375 -1.703125 C 8.925781 -2.054688 9.375 -2.570312 9.6875 -3.25 L 11.421875 -3.25 C 11.003906 -2.175781 10.34375 -1.347656 9.4375 -0.765625 C 8.53125 -0.191406 7.46875 0.09375 6.25 0.09375 C 5.21875 0.09375 4.273438 -0.144531 3.421875 -0.625 C 2.578125 -1.113281 1.910156 -1.789062 1.421875 -2.65625 C 0.929688 -3.519531 0.6875 -4.492188 0.6875 -5.578125 Z M 0.6875 -5.578125 "/></g></g></g><g fill="#ffffff" fill-opacity="1"><g transform="translate(27.349033, 67.475249)"><g><path d="M 5.0625 0.140625 C 4.238281 0.140625 3.492188 -0.0390625 2.828125 -0.40625 C 2.160156 -0.78125 1.632812 -1.3125 1.25 -2 C 0.875 -2.695312 0.6875 -3.5 0.6875 -4.40625 C 0.6875 -5.300781 0.878906 -6.09375 1.265625 -6.78125 C 1.660156 -7.46875 2.191406 -7.992188 2.859375 -8.359375 C 3.535156 -8.722656 4.289062 -8.90625 5.125 -8.90625 C 5.957031 -8.90625 6.707031 -8.722656 7.375 -8.359375 C 8.050781 -7.992188 8.582031 -7.46875 8.96875 -6.78125 C 9.351562 -6.101562 9.546875 -5.3125 9.546875 -4.40625 C 9.546875 -3.5 9.347656 -2.695312 8.953125 -2 C 8.554688 -1.3125 8.015625 -0.78125 7.328125 -0.40625 C 6.640625 -0.0390625 5.882812 0.140625 5.0625 0.140625 Z M 5.0625 -1.140625 C 5.582031 -1.140625 6.070312 -1.257812 6.53125 -1.5 C 6.988281 -1.75 7.359375 -2.117188 7.640625 -2.609375 C 7.921875 -3.097656 8.0625 -3.695312 8.0625 -4.40625 C 8.0625 -5.101562 7.921875 -5.695312 7.640625 -6.1875 C 7.367188 -6.675781 7.007812 -7.039062 6.5625 -7.28125 C 6.113281 -7.519531 5.628906 -7.640625 5.109375 -7.640625 C 4.566406 -7.640625 4.070312 -7.519531 3.625 -7.28125 C 3.1875 -7.039062 2.832031 -6.675781 2.5625 -6.1875 C 2.300781 -5.695312 2.171875 -5.101562 2.171875 -4.40625 C 2.171875 -3.6875 2.300781 -3.082031 2.5625 -2.59375 C 2.820312 -2.101562 3.171875 -1.738281 3.609375 -1.5 C 4.046875 -1.257812 4.53125 -1.140625 5.0625 -1.140625 Z M 5.0625 -1.140625 "/></g></g></g><g fill="#ffffff" fill-opacity="1"><g transform="translate(37.586574, 67.475249)"><g><path d="M 11.78125 -8.921875 C 12.457031 -8.921875 13.0625 -8.78125 13.59375 -8.5 C 14.132812 -8.21875 14.554688 -7.796875 14.859375 -7.234375 C 15.171875 -6.671875 15.328125 -5.984375 15.328125 -5.171875 L 15.328125 0 L 13.890625 0 L 13.890625 -4.953125 C 13.890625 -5.828125 13.671875 -6.492188 13.234375 -6.953125 C 12.804688 -7.421875 12.222656 -7.65625 11.484375 -7.65625 C 10.734375 -7.65625 10.132812 -7.410156 9.6875 -6.921875 C 9.238281 -6.441406 9.015625 -5.742188 9.015625 -4.828125 L 9.015625 0 L 7.5625 0 L 7.5625 -4.953125 C 7.5625 -5.828125 7.34375 -6.492188 6.90625 -6.953125 C 6.476562 -7.421875 5.898438 -7.65625 5.171875 -7.65625 C 4.410156 -7.65625 3.804688 -7.410156 3.359375 -6.921875 C 2.910156 -6.441406 2.6875 -5.742188 2.6875 -4.828125 L 2.6875 0 L 1.234375 0 L 1.234375 -8.765625 L 2.6875 -8.765625 L 2.6875 -7.5 C 2.976562 -7.957031 3.363281 -8.304688 3.84375 -8.546875 C 4.332031 -8.796875 4.867188 -8.921875 5.453125 -8.921875 C 6.191406 -8.921875 6.84375 -8.753906 7.40625 -8.421875 C 7.96875 -8.097656 8.390625 -7.613281 8.671875 -6.96875 C 8.921875 -7.59375 9.328125 -8.070312 9.890625 -8.40625 C 10.453125 -8.75 11.082031 -8.921875 11.78125 -8.921875 Z M 11.78125 -8.921875 "/></g></g></g><g fill="#ffffff" fill-opacity="1"><g transform="translate(54.06262, 67.475249)"><g><path d="M 9.234375 -4.71875 C 9.234375 -4.4375 9.21875 -4.144531 9.1875 -3.84375 L 2.171875 -3.84375 C 2.222656 -2.976562 2.519531 -2.300781 3.0625 -1.8125 C 3.601562 -1.332031 4.257812 -1.09375 5.03125 -1.09375 C 5.65625 -1.09375 6.175781 -1.238281 6.59375 -1.53125 C 7.019531 -1.820312 7.316406 -2.210938 7.484375 -2.703125 L 9.0625 -2.703125 C 8.820312 -1.859375 8.347656 -1.171875 7.640625 -0.640625 C 6.941406 -0.117188 6.070312 0.140625 5.03125 0.140625 C 4.195312 0.140625 3.453125 -0.0390625 2.796875 -0.40625 C 2.140625 -0.78125 1.625 -1.3125 1.25 -2 C 0.875 -2.695312 0.6875 -3.5 0.6875 -4.40625 C 0.6875 -5.3125 0.867188 -6.101562 1.234375 -6.78125 C 1.597656 -7.46875 2.109375 -7.992188 2.765625 -8.359375 C 3.421875 -8.722656 4.175781 -8.90625 5.03125 -8.90625 C 5.851562 -8.90625 6.582031 -8.722656 7.21875 -8.359375 C 7.863281 -8.003906 8.359375 -7.507812 8.703125 -6.875 C 9.054688 -6.238281 9.234375 -5.519531 9.234375 -4.71875 Z M 7.734375 -5.03125 C 7.734375 -5.582031 7.609375 -6.054688 7.359375 -6.453125 C 7.109375 -6.859375 6.773438 -7.164062 6.359375 -7.375 C 5.941406 -7.582031 5.472656 -7.6875 4.953125 -7.6875 C 4.222656 -7.6875 3.597656 -7.445312 3.078125 -6.96875 C 2.554688 -6.5 2.257812 -5.851562 2.1875 -5.03125 Z M 7.734375 -5.03125 "/></g></g></g><g fill="#ffffff" fill-opacity="1"><g transform="translate(63.980241, 67.475249)"><g><path d="M 5.5 -8.921875 C 6.570312 -8.921875 7.4375 -8.597656 8.09375 -7.953125 C 8.757812 -7.304688 9.09375 -6.378906 9.09375 -5.171875 L 9.09375 0 L 7.640625 0 L 7.640625 -4.953125 C 7.640625 -5.828125 7.421875 -6.492188 6.984375 -6.953125 C 6.554688 -7.421875 5.960938 -7.65625 5.203125 -7.65625 C 4.429688 -7.65625 3.816406 -7.414062 3.359375 -6.9375 C 2.910156 -6.457031 2.6875 -5.757812 2.6875 -4.84375 L 2.6875 0 L 1.234375 0 L 1.234375 -8.765625 L 2.6875 -8.765625 L 2.6875 -7.515625 C 2.976562 -7.960938 3.367188 -8.304688 3.859375 -8.546875 C 4.359375 -8.796875 4.90625 -8.921875 5.5 -8.921875 Z M 5.5 -8.921875 "/></g></g></g><g fill="#ffffff" fill-opacity="1"><g transform="translate(74.217781, 67.475249)"><g><path d="M 3.015625 -7.5625 L 3.015625 -2.40625 C 3.015625 -1.976562 3.101562 -1.675781 3.28125 -1.5 C 3.457031 -1.320312 3.769531 -1.234375 4.21875 -1.234375 L 5.296875 -1.234375 L 5.296875 0 L 3.984375 0 C 3.171875 0 2.5625 -0.1875 2.15625 -0.5625 C 1.75 -0.9375 1.546875 -1.550781 1.546875 -2.40625 L 1.546875 -7.5625 L 0.421875 -7.5625 L 0.421875 -8.765625 L 1.546875 -8.765625 L 1.546875 -10.96875 L 3.015625 -10.96875 L 3.015625 -8.765625 L 5.296875 -8.765625 L 5.296875 -7.5625 Z M 3.015625 -7.5625 "/></g></g></g><g fill="#ffffff" fill-opacity="1"><g transform="translate(80.040386, 67.475249)"><g><path d="M 0.6875 -4.421875 C 0.6875 -5.316406 0.867188 -6.101562 1.234375 -6.78125 C 1.597656 -7.457031 2.097656 -7.976562 2.734375 -8.34375 C 3.367188 -8.71875 4.070312 -8.90625 4.84375 -8.90625 C 5.613281 -8.90625 6.28125 -8.738281 6.84375 -8.40625 C 7.414062 -8.082031 7.835938 -7.671875 8.109375 -7.171875 L 8.109375 -8.765625 L 9.578125 -8.765625 L 9.578125 0 L 8.109375 0 L 8.109375 -1.625 C 7.828125 -1.113281 7.398438 -0.691406 6.828125 -0.359375 C 6.253906 -0.0234375 5.585938 0.140625 4.828125 0.140625 C 4.046875 0.140625 3.34375 -0.0507812 2.71875 -0.4375 C 2.09375 -0.820312 1.597656 -1.359375 1.234375 -2.046875 C 0.867188 -2.742188 0.6875 -3.535156 0.6875 -4.421875 Z M 8.109375 -4.40625 C 8.109375 -5.0625 7.972656 -5.632812 7.703125 -6.125 C 7.441406 -6.613281 7.082031 -6.988281 6.625 -7.25 C 6.175781 -7.507812 5.679688 -7.640625 5.140625 -7.640625 C 4.585938 -7.640625 4.085938 -7.507812 3.640625 -7.25 C 3.191406 -7 2.832031 -6.628906 2.5625 -6.140625 C 2.300781 -5.648438 2.171875 -5.078125 2.171875 -4.421875 C 2.171875 -3.742188 2.300781 -3.15625 2.5625 -2.65625 C 2.832031 -2.164062 3.191406 -1.789062 3.640625 -1.53125 C 4.085938 -1.269531 4.585938 -1.140625 5.140625 -1.140625 C 5.679688 -1.140625 6.175781 -1.269531 6.625 -1.53125 C 7.082031 -1.789062 7.441406 -2.164062 7.703125 -2.65625 C 7.972656 -3.15625 8.109375 -3.738281 8.109375 -4.40625 Z M 6.984375 -11.25 L 3.5625 -9.421875 L 3.5625 -10.515625 L 6.984375 -12.515625 Z M 6.984375 -11.25 "/></g></g></g><g fill="#ffffff" fill-opacity="1"><g transform="translate(90.853794, 67.475249)"><g><path d="M 2.6875 -7.34375 C 2.945312 -7.84375 3.3125 -8.226562 3.78125 -8.5 C 4.257812 -8.78125 4.835938 -8.921875 5.515625 -8.921875 L 5.515625 -7.421875 L 5.140625 -7.421875 C 3.503906 -7.421875 2.6875 -6.535156 2.6875 -4.765625 L 2.6875 0 L 1.234375 0 L 1.234375 -8.765625 L 2.6875 -8.765625 Z M 2.6875 -7.34375 "/></g></g></g><g fill="#ffffff" fill-opacity="1"><g transform="translate(96.820365, 67.475249)"><g><path d="M 1.984375 -10.1875 C 1.703125 -10.1875 1.460938 -10.28125 1.265625 -10.46875 C 1.078125 -10.664062 0.984375 -10.90625 0.984375 -11.1875 C 0.984375 -11.457031 1.078125 -11.6875 1.265625 -11.875 C 1.460938 -12.070312 1.703125 -12.171875 1.984375 -12.171875 C 2.253906 -12.171875 2.476562 -12.070312 2.65625 -11.875 C 2.84375 -11.6875 2.9375 -11.457031 2.9375 -11.1875 C 2.9375 -10.90625 2.84375 -10.664062 2.65625 -10.46875 C 2.476562 -10.28125 2.253906 -10.1875 1.984375 -10.1875 Z M 2.6875 -8.765625 L 2.6875 0 L 1.234375 0 L 1.234375 -8.765625 Z M 2.6875 -8.765625 "/></g></g></g><g fill="#ffffff" fill-opacity="1"><g transform="translate(100.755416, 67.475249)"><g><path d="M 5.0625 0.140625 C 4.238281 0.140625 3.492188 -0.0390625 2.828125 -0.40625 C 2.160156 -0.78125 1.632812 -1.3125 1.25 -2 C 0.875 -2.695312 0.6875 -3.5 0.6875 -4.40625 C 0.6875 -5.300781 0.878906 -6.09375 1.265625 -6.78125 C 1.660156 -7.46875 2.191406 -7.992188 2.859375 -8.359375 C 3.535156 -8.722656 4.289062 -8.90625 5.125 -8.90625 C 5.957031 -8.90625 6.707031 -8.722656 7.375 -8.359375 C 8.050781 -7.992188 8.582031 -7.46875 8.96875 -6.78125 C 9.351562 -6.101562 9.546875 -5.3125 9.546875 -4.40625 C 9.546875 -3.5 9.347656 -2.695312 8.953125 -2 C 8.554688 -1.3125 8.015625 -0.78125 7.328125 -0.40625 C 6.640625 -0.0390625 5.882812 0.140625 5.0625 0.140625 Z M 5.0625 -1.140625 C 5.582031 -1.140625 6.070312 -1.257812 6.53125 -1.5 C 6.988281 -1.75 7.359375 -2.117188 7.640625 -2.609375 C 7.921875 -3.097656 8.0625 -3.695312 8.0625 -4.40625 C 8.0625 -5.101562 7.921875 -5.695312 7.640625 -6.1875 C 7.367188 -6.675781 7.007812 -7.039062 6.5625 -7.28125 C 6.113281 -7.519531 5.628906 -7.640625 5.109375 -7.640625 C 4.566406 -7.640625 4.070312 -7.519531 3.625 -7.28125 C 3.1875 -7.039062 2.832031 -6.675781 2.5625 -6.1875 C 2.300781 -5.695312 2.171875 -5.101562 2.171875 -4.40625 C 2.171875 -3.6875 2.300781 -3.082031 2.5625 -2.59375 C 2.820312 -2.101562 3.171875 -1.738281 3.609375 -1.5 C 4.046875 -1.257812 4.53125 -1.140625 5.0625 -1.140625 Z M 5.0625 -1.140625 "/></g></g></g><g fill="#ffffff" fill-opacity="1"><g transform="translate(110.992956, 67.475249)"><g><path d="M 4.34375 0.140625 C 3.664062 0.140625 3.0625 0.0234375 2.53125 -0.203125 C 2 -0.429688 1.578125 -0.75 1.265625 -1.15625 C 0.953125 -1.570312 0.78125 -2.046875 0.75 -2.578125 L 2.25 -2.578125 C 2.289062 -2.140625 2.492188 -1.78125 2.859375 -1.5 C 3.234375 -1.226562 3.71875 -1.09375 4.3125 -1.09375 C 4.875 -1.09375 5.3125 -1.210938 5.625 -1.453125 C 5.945312 -1.703125 6.109375 -2.015625 6.109375 -2.390625 C 6.109375 -2.765625 5.9375 -3.046875 5.59375 -3.234375 C 5.257812 -3.421875 4.734375 -3.609375 4.015625 -3.796875 C 3.367188 -3.960938 2.835938 -4.132812 2.421875 -4.3125 C 2.015625 -4.488281 1.660156 -4.75 1.359375 -5.09375 C 1.066406 -5.4375 0.921875 -5.894531 0.921875 -6.46875 C 0.921875 -6.914062 1.054688 -7.320312 1.328125 -7.6875 C 1.597656 -8.0625 1.976562 -8.359375 2.46875 -8.578125 C 2.957031 -8.796875 3.515625 -8.90625 4.140625 -8.90625 C 5.109375 -8.90625 5.890625 -8.660156 6.484375 -8.171875 C 7.085938 -7.679688 7.410156 -7.007812 7.453125 -6.15625 L 6 -6.15625 C 5.96875 -6.613281 5.78125 -6.984375 5.4375 -7.265625 C 5.101562 -7.546875 4.65625 -7.6875 4.09375 -7.6875 C 3.570312 -7.6875 3.15625 -7.570312 2.84375 -7.34375 C 2.539062 -7.125 2.390625 -6.832031 2.390625 -6.46875 C 2.390625 -6.175781 2.476562 -5.9375 2.65625 -5.75 C 2.84375 -5.5625 3.078125 -5.410156 3.359375 -5.296875 C 3.648438 -5.191406 4.046875 -5.066406 4.546875 -4.921875 C 5.171875 -4.753906 5.679688 -4.585938 6.078125 -4.421875 C 6.472656 -4.253906 6.8125 -4.003906 7.09375 -3.671875 C 7.375 -3.347656 7.519531 -2.921875 7.53125 -2.390625 C 7.53125 -1.898438 7.394531 -1.460938 7.125 -1.078125 C 6.863281 -0.703125 6.488281 -0.40625 6 -0.1875 C 5.519531 0.03125 4.96875 0.140625 4.34375 0.140625 Z M 4.34375 0.140625 "/></g></g></g><g fill="#ffffff" fill-opacity="1"><g transform="translate(15, 85.586056)"><g><path d="M 5.875 -1.859375 L 2.21875 -1.859375 L 1.546875 0 L 0.390625 0 L 3.421875 -8.3125 L 4.6875 -8.3125 L 7.6875 0 L 6.546875 0 Z M 5.5625 -2.75 L 4.046875 -6.96875 L 2.53125 -2.75 Z M 5.5625 -2.75 "/></g></g></g><g fill="#ffffff" fill-opacity="1"><g transform="translate(23.08802, 85.586056)"><g><path d="M 2.25 -5.671875 L 2.25 -1.796875 C 2.25 -1.472656 2.316406 -1.242188 2.453125 -1.109375 C 2.585938 -0.984375 2.828125 -0.921875 3.171875 -0.921875 L 3.96875 -0.921875 L 3.96875 0 L 2.984375 0 C 2.378906 0 1.921875 -0.140625 1.609375 -0.421875 C 1.304688 -0.703125 1.15625 -1.160156 1.15625 -1.796875 L 1.15625 -5.671875 L 0.3125 -5.671875 L 0.3125 -6.578125 L 1.15625 -6.578125 L 1.15625 -8.234375 L 2.25 -8.234375 L 2.25 -6.578125 L 3.96875 -6.578125 L 3.96875 -5.671875 Z M 2.25 -5.671875 "/></g></g></g><g fill="#ffffff" fill-opacity="1"><g transform="translate(27.456024, 85.586056)"><g><path d="M 0.515625 -3.3125 C 0.515625 -3.976562 0.648438 -4.566406 0.921875 -5.078125 C 1.191406 -5.585938 1.566406 -5.984375 2.046875 -6.265625 C 2.523438 -6.546875 3.054688 -6.6875 3.640625 -6.6875 C 4.210938 -6.6875 4.707031 -6.5625 5.125 -6.3125 C 5.550781 -6.0625 5.867188 -5.75 6.078125 -5.375 L 6.078125 -6.578125 L 7.1875 -6.578125 L 7.1875 0 L 6.078125 0 L 6.078125 -1.21875 C 5.867188 -0.832031 5.546875 -0.515625 5.109375 -0.265625 C 4.679688 -0.015625 4.1875 0.109375 3.625 0.109375 C 3.039062 0.109375 2.507812 -0.03125 2.03125 -0.3125 C 1.5625 -0.601562 1.191406 -1.007812 0.921875 -1.53125 C 0.648438 -2.050781 0.515625 -2.644531 0.515625 -3.3125 Z M 6.078125 -3.296875 C 6.078125 -3.796875 5.976562 -4.226562 5.78125 -4.59375 C 5.582031 -4.957031 5.3125 -5.238281 4.96875 -5.4375 C 4.632812 -5.632812 4.265625 -5.734375 3.859375 -5.734375 C 3.441406 -5.734375 3.066406 -5.632812 2.734375 -5.4375 C 2.398438 -5.25 2.128906 -4.972656 1.921875 -4.609375 C 1.722656 -4.242188 1.625 -3.8125 1.625 -3.3125 C 1.625 -2.8125 1.722656 -2.375 1.921875 -2 C 2.128906 -1.625 2.398438 -1.335938 2.734375 -1.140625 C 3.066406 -0.953125 3.441406 -0.859375 3.859375 -0.859375 C 4.265625 -0.859375 4.632812 -0.953125 4.96875 -1.140625 C 5.3125 -1.335938 5.582031 -1.625 5.78125 -2 C 5.976562 -2.375 6.078125 -2.804688 6.078125 -3.296875 Z M 6.078125 -3.296875 "/></g></g></g><g fill="#ffffff" fill-opacity="1"><g transform="translate(35.568042, 85.586056)"><g/></g></g><g fill="#ffffff" fill-opacity="1"><g transform="translate(38.772044, 85.586056)"><g><path d="M 0.515625 -3.3125 C 0.515625 -3.976562 0.648438 -4.566406 0.921875 -5.078125 C 1.191406 -5.585938 1.566406 -5.984375 2.046875 -6.265625 C 2.523438 -6.546875 3.054688 -6.6875 3.640625 -6.6875 C 4.160156 -6.6875 4.640625 -6.566406 5.078125 -6.328125 C 5.515625 -6.085938 5.847656 -5.78125 6.078125 -5.40625 L 6.078125 -8.875 L 7.1875 -8.875 L 7.1875 0 L 6.078125 0 L 6.078125 -1.234375 C 5.867188 -0.835938 5.550781 -0.515625 5.125 -0.265625 C 4.695312 -0.015625 4.203125 0.109375 3.640625 0.109375 C 3.054688 0.109375 2.523438 -0.03125 2.046875 -0.3125 C 1.566406 -0.601562 1.191406 -1.007812 0.921875 -1.53125 C 0.648438 -2.050781 0.515625 -2.644531 0.515625 -3.3125 Z M 6.078125 -3.296875 C 6.078125 -3.796875 5.976562 -4.226562 5.78125 -4.59375 C 5.582031 -4.957031 5.3125 -5.238281 4.96875 -5.4375 C 4.632812 -5.632812 4.265625 -5.734375 3.859375 -5.734375 C 3.441406 -5.734375 3.066406 -5.632812 2.734375 -5.4375 C 2.398438 -5.25 2.128906 -4.972656 1.921875 -4.609375 C 1.722656 -4.242188 1.625 -3.8125 1.625 -3.3125 C 1.625 -2.8125 1.722656 -2.375 1.921875 -2 C 2.128906 -1.625 2.398438 -1.335938 2.734375 -1.140625 C 3.066406 -0.953125 3.441406 -0.859375 3.859375 -0.859375 C 4.265625 -0.859375 4.632812 -0.953125 4.96875 -1.140625 C 5.3125 -1.335938 5.582031 -1.625 5.78125 -2 C 5.976562 -2.375 6.078125 -2.804688 6.078125 -3.296875 Z M 6.078125 -3.296875 "/></g></g></g><g fill="#ffffff" fill-opacity="1"><g transform="translate(46.884062, 85.586056)"><g><path d="M 3.796875 0.109375 C 3.179688 0.109375 2.625 -0.03125 2.125 -0.3125 C 1.625 -0.59375 1.226562 -0.988281 0.9375 -1.5 C 0.65625 -2.019531 0.515625 -2.617188 0.515625 -3.296875 C 0.515625 -3.972656 0.660156 -4.566406 0.953125 -5.078125 C 1.242188 -5.597656 1.640625 -5.992188 2.140625 -6.265625 C 2.648438 -6.546875 3.21875 -6.6875 3.84375 -6.6875 C 4.46875 -6.6875 5.03125 -6.546875 5.53125 -6.265625 C 6.03125 -5.992188 6.425781 -5.597656 6.71875 -5.078125 C 7.007812 -4.566406 7.15625 -3.972656 7.15625 -3.296875 C 7.15625 -2.617188 7.003906 -2.019531 6.703125 -1.5 C 6.410156 -0.988281 6.007812 -0.59375 5.5 -0.3125 C 4.988281 -0.03125 4.421875 0.109375 3.796875 0.109375 Z M 3.796875 -0.859375 C 4.179688 -0.859375 4.546875 -0.945312 4.890625 -1.125 C 5.234375 -1.3125 5.507812 -1.585938 5.71875 -1.953125 C 5.9375 -2.328125 6.046875 -2.773438 6.046875 -3.296875 C 6.046875 -3.828125 5.941406 -4.273438 5.734375 -4.640625 C 5.523438 -5.015625 5.253906 -5.289062 4.921875 -5.46875 C 4.585938 -5.644531 4.222656 -5.734375 3.828125 -5.734375 C 3.429688 -5.734375 3.066406 -5.644531 2.734375 -5.46875 C 2.398438 -5.289062 2.128906 -5.015625 1.921875 -4.640625 C 1.722656 -4.273438 1.625 -3.828125 1.625 -3.296875 C 1.625 -2.765625 1.722656 -2.3125 1.921875 -1.9375 C 2.117188 -1.570312 2.378906 -1.300781 2.703125 -1.125 C 3.035156 -0.945312 3.398438 -0.859375 3.796875 -0.859375 Z M 3.796875 -0.859375 "/></g></g></g><g fill="#ffffff" fill-opacity="1"><g transform="translate(54.564077, 85.586056)"><g/></g></g><g fill="#ffffff" fill-opacity="1"><g transform="translate(57.76808, 85.586056)"><g><path d="M 5.65625 -8.359375 L 5.65625 -7.46875 L 2.015625 -7.46875 L 2.015625 -4.65625 L 4.96875 -4.65625 L 4.96875 -3.765625 L 2.015625 -3.765625 L 2.015625 0 L 0.921875 0 L 0.921875 -8.359375 Z M 5.65625 -8.359375 "/></g></g></g><g fill="#ffffff" fill-opacity="1"><g transform="translate(63.816087, 85.586056)"><g><path d="M 4.71875 0.078125 C 3.9375 0.078125 3.222656 -0.101562 2.578125 -0.46875 C 1.941406 -0.832031 1.4375 -1.335938 1.0625 -1.984375 C 0.695312 -2.640625 0.515625 -3.375 0.515625 -4.1875 C 0.515625 -5 0.695312 -5.734375 1.0625 -6.390625 C 1.4375 -7.046875 1.941406 -7.550781 2.578125 -7.90625 C 3.222656 -8.269531 3.9375 -8.453125 4.71875 -8.453125 C 5.5 -8.453125 6.207031 -8.269531 6.84375 -7.90625 C 7.488281 -7.550781 7.992188 -7.046875 8.359375 -6.390625 C 8.734375 -5.742188 8.921875 -5.007812 8.921875 -4.1875 C 8.921875 -3.363281 8.734375 -2.628906 8.359375 -1.984375 C 7.992188 -1.335938 7.488281 -0.832031 6.84375 -0.46875 C 6.207031 -0.101562 5.5 0.078125 4.71875 0.078125 Z M 4.71875 -0.859375 C 5.300781 -0.859375 5.828125 -0.992188 6.296875 -1.265625 C 6.765625 -1.546875 7.128906 -1.9375 7.390625 -2.4375 C 7.660156 -2.9375 7.796875 -3.519531 7.796875 -4.1875 C 7.796875 -4.863281 7.660156 -5.453125 7.390625 -5.953125 C 7.128906 -6.453125 6.765625 -6.835938 6.296875 -7.109375 C 5.835938 -7.378906 5.3125 -7.515625 4.71875 -7.515625 C 4.125 -7.515625 3.59375 -7.378906 3.125 -7.109375 C 2.664062 -6.835938 2.300781 -6.453125 2.03125 -5.953125 C 1.757812 -5.453125 1.625 -4.863281 1.625 -4.1875 C 1.625 -3.519531 1.757812 -2.9375 2.03125 -2.4375 C 2.300781 -1.9375 2.671875 -1.546875 3.140625 -1.265625 C 3.609375 -0.992188 4.132812 -0.859375 4.71875 -0.859375 Z M 4.71875 -0.859375 "/></g></g></g><g fill="#ffffff" fill-opacity="1"><g transform="translate(73.248101, 85.586056)"><g><path d="M 9.40625 -8.296875 L 9.40625 0 L 8.3125 0 L 8.3125 -6.1875 L 5.5625 0 L 4.78125 0 L 2.015625 -6.203125 L 2.015625 0 L 0.921875 0 L 0.921875 -8.296875 L 2.09375 -8.296875 L 5.171875 -1.4375 L 8.25 -8.296875 Z M 9.40625 -8.296875 "/></g></g></g><g fill="#ffffff" fill-opacity="1"><g transform="translate(83.580124, 85.586056)"><g><path d="M 0.515625 -4.1875 C 0.515625 -5 0.695312 -5.734375 1.0625 -6.390625 C 1.4375 -7.046875 1.941406 -7.554688 2.578125 -7.921875 C 3.210938 -8.285156 3.914062 -8.46875 4.6875 -8.46875 C 5.601562 -8.46875 6.398438 -8.25 7.078125 -7.8125 C 7.753906 -7.375 8.25 -6.75 8.5625 -5.9375 L 7.265625 -5.9375 C 7.023438 -6.445312 6.6875 -6.835938 6.25 -7.109375 C 5.820312 -7.378906 5.300781 -7.515625 4.6875 -7.515625 C 4.101562 -7.515625 3.578125 -7.378906 3.109375 -7.109375 C 2.648438 -6.835938 2.285156 -6.453125 2.015625 -5.953125 C 1.753906 -5.453125 1.625 -4.863281 1.625 -4.1875 C 1.625 -3.519531 1.753906 -2.9375 2.015625 -2.4375 C 2.285156 -1.9375 2.648438 -1.550781 3.109375 -1.28125 C 3.578125 -1.007812 4.101562 -0.875 4.6875 -0.875 C 5.300781 -0.875 5.820312 -1.007812 6.25 -1.28125 C 6.6875 -1.550781 7.023438 -1.9375 7.265625 -2.4375 L 8.5625 -2.4375 C 8.25 -1.632812 7.753906 -1.015625 7.078125 -0.578125 C 6.398438 -0.140625 5.601562 0.078125 4.6875 0.078125 C 3.914062 0.078125 3.210938 -0.101562 2.578125 -0.46875 C 1.941406 -0.832031 1.4375 -1.335938 1.0625 -1.984375 C 0.695312 -2.640625 0.515625 -3.375 0.515625 -4.1875 Z M 0.515625 -4.1875 "/></g></g></g></svg>