<svg xmlns="http://www.w3.org/2000/svg" xmlns:xlink="http://www.w3.org/1999/xlink" width="200" zoomAndPan="magnify" viewBox="0 0 150 149.999998" height="200" preserveAspectRatio="xMidYMid meet" version="1.0"><defs><g/></defs><rect x="-15" width="180" fill="#ffffff" y="-15" height="179.999997" fill-opacity="1"/><rect x="-15" width="180" fill="#ffffff" y="-15" height="179.999997" fill-opacity="1"/><path stroke-linecap="butt" transform="matrix(0.75, 0, 0, 0.75, -0.0673658, 93.629169)" fill="none" stroke-linejoin="miter" d="M 0.00127946 0.49965 L 180.089832 0.49965 " stroke="#0a152f" stroke-width="1" stroke-opacity="1" stroke-miterlimit="4"/><g fill="#0a152f" fill-opacity="1"><g transform="translate(14.932633, 76.858381)"><g><path d="M 5.09375 -21.15625 L 5.09375 0 L 2.34375 0 L 2.34375 -21.15625 Z M 5.09375 -21.15625 "/></g></g></g><g fill="#0a152f" fill-opacity="1"><g transform="translate(22.397429, 76.858381)"><g><path d="M 18.359375 -15.015625 C 17.773438 -16.253906 16.925781 -17.210938 15.8125 -17.890625 C 14.695312 -18.566406 13.398438 -18.90625 11.921875 -18.90625 C 10.441406 -18.90625 9.109375 -18.566406 7.921875 -17.890625 C 6.742188 -17.210938 5.816406 -16.238281 5.140625 -14.96875 C 4.460938 -13.707031 4.125 -12.25 4.125 -10.59375 C 4.125 -8.9375 4.460938 -7.476562 5.140625 -6.21875 C 5.816406 -4.96875 6.742188 -4.003906 7.921875 -3.328125 C 9.109375 -2.648438 10.441406 -2.3125 11.921875 -2.3125 C 13.984375 -2.3125 15.679688 -2.925781 17.015625 -4.15625 C 18.359375 -5.394531 19.140625 -7.0625 19.359375 -9.15625 L 10.921875 -9.15625 L 10.921875 -11.40625 L 22.296875 -11.40625 L 22.296875 -9.28125 C 22.140625 -7.539062 21.59375 -5.945312 20.65625 -4.5 C 19.726562 -3.0625 18.503906 -1.921875 16.984375 -1.078125 C 15.472656 -0.234375 13.785156 0.1875 11.921875 0.1875 C 9.960938 0.1875 8.171875 -0.269531 6.546875 -1.1875 C 4.929688 -2.113281 3.65625 -3.394531 2.71875 -5.03125 C 1.78125 -6.675781 1.3125 -8.53125 1.3125 -10.59375 C 1.3125 -12.65625 1.78125 -14.507812 2.71875 -16.15625 C 3.65625 -17.800781 4.929688 -19.082031 6.546875 -20 C 8.171875 -20.925781 9.960938 -21.390625 11.921875 -21.390625 C 14.171875 -21.390625 16.160156 -20.832031 17.890625 -19.71875 C 19.617188 -18.601562 20.878906 -17.035156 21.671875 -15.015625 Z M 18.359375 -15.015625 "/></g></g></g><g fill="#0a152f" fill-opacity="1"><g transform="translate(46.005597, 76.858381)"><g><path d="M 16.484375 -14.953125 C 16.484375 -13.191406 15.878906 -11.726562 14.671875 -10.5625 C 13.460938 -9.40625 11.625 -8.828125 9.15625 -8.828125 L 5.09375 -8.828125 L 5.09375 0 L 2.34375 0 L 2.34375 -21.15625 L 9.15625 -21.15625 C 11.550781 -21.15625 13.367188 -20.578125 14.609375 -19.421875 C 15.859375 -18.265625 16.484375 -16.773438 16.484375 -14.953125 Z M 9.15625 -11.109375 C 10.695312 -11.109375 11.832031 -11.441406 12.5625 -12.109375 C 13.289062 -12.773438 13.65625 -13.722656 13.65625 -14.953125 C 13.65625 -17.566406 12.15625 -18.875 9.15625 -18.875 L 5.09375 -18.875 L 5.09375 -11.109375 Z M 9.15625 -11.109375 "/></g></g></g><g fill="#0a152f" fill-opacity="1"><g transform="translate(63.575175, 76.858381)"><g><path d="M 13.859375 -12.296875 L 13.859375 -9.953125 L 1.765625 -9.953125 L 1.765625 -12.296875 Z M 13.859375 -12.296875 "/></g></g></g><g fill="#0a152f" fill-opacity="1"><g transform="translate(80.295098, 76.858381)"><g><path d="M 23.796875 -21 L 23.796875 0 L 21.03125 0 L 21.03125 -15.65625 L 14.046875 0 L 12.109375 0 L 5.09375 -15.6875 L 5.09375 0 L 2.34375 0 L 2.34375 -21 L 5.3125 -21 L 13.078125 -3.640625 L 20.84375 -21 Z M 23.796875 -21 "/></g></g></g><g fill="#0a152f" fill-opacity="1"><g transform="translate(116.392133, 100.506365)"><g><path d="M 1.671875 -2.484375 L 1.671875 -2.21875 L 0.59375 -2.21875 L 0.59375 -1.375 L 1.46875 -1.375 L 1.46875 -1.125 L 0.59375 -1.125 L 0.59375 0 L 0.28125 0 L 0.28125 -2.484375 Z M 1.671875 -2.484375 "/></g></g></g><g fill="#0a152f" fill-opacity="1"><g transform="translate(118.189788, 100.506365)"><g><path d="M 1.125 0.03125 C 0.9375 0.03125 0.769531 -0.0078125 0.625 -0.09375 C 0.476562 -0.175781 0.363281 -0.289062 0.28125 -0.4375 C 0.195312 -0.59375 0.15625 -0.773438 0.15625 -0.984375 C 0.15625 -1.179688 0.195312 -1.351562 0.28125 -1.5 C 0.363281 -1.65625 0.476562 -1.773438 0.625 -1.859375 C 0.78125 -1.941406 0.953125 -1.984375 1.140625 -1.984375 C 1.328125 -1.984375 1.492188 -1.941406 1.640625 -1.859375 C 1.785156 -1.773438 1.898438 -1.65625 1.984375 -1.5 C 2.078125 -1.351562 2.125 -1.179688 2.125 -0.984375 C 2.125 -0.773438 2.078125 -0.59375 1.984375 -0.4375 C 1.898438 -0.289062 1.78125 -0.175781 1.625 -0.09375 C 1.476562 -0.0078125 1.3125 0.03125 1.125 0.03125 Z M 1.125 -0.25 C 1.238281 -0.25 1.347656 -0.273438 1.453125 -0.328125 C 1.554688 -0.390625 1.640625 -0.472656 1.703125 -0.578125 C 1.765625 -0.691406 1.796875 -0.828125 1.796875 -0.984375 C 1.796875 -1.140625 1.765625 -1.269531 1.703125 -1.375 C 1.640625 -1.488281 1.554688 -1.570312 1.453125 -1.625 C 1.359375 -1.675781 1.253906 -1.703125 1.140625 -1.703125 C 1.015625 -1.703125 0.898438 -1.675781 0.796875 -1.625 C 0.703125 -1.570312 0.625 -1.488281 0.5625 -1.375 C 0.507812 -1.269531 0.484375 -1.140625 0.484375 -0.984375 C 0.484375 -0.816406 0.507812 -0.675781 0.5625 -0.5625 C 0.625 -0.457031 0.703125 -0.378906 0.796875 -0.328125 C 0.898438 -0.273438 1.007812 -0.25 1.125 -0.25 Z M 1.125 -0.25 "/></g></g></g><g fill="#0a152f" fill-opacity="1"><g transform="translate(120.472522, 100.506365)"><g><path d="M 1.21875 -1.984375 C 1.457031 -1.984375 1.648438 -1.910156 1.796875 -1.765625 C 1.953125 -1.628906 2.03125 -1.425781 2.03125 -1.15625 L 2.03125 0 L 1.703125 0 L 1.703125 -1.109375 C 1.703125 -1.296875 1.648438 -1.441406 1.546875 -1.546875 C 1.453125 -1.648438 1.320312 -1.703125 1.15625 -1.703125 C 0.988281 -1.703125 0.851562 -1.648438 0.75 -1.546875 C 0.644531 -1.441406 0.59375 -1.285156 0.59375 -1.078125 L 0.59375 0 L 0.28125 0 L 0.28125 -1.953125 L 0.59375 -1.953125 L 0.59375 -1.671875 C 0.65625 -1.773438 0.742188 -1.851562 0.859375 -1.90625 C 0.972656 -1.957031 1.09375 -1.984375 1.21875 -1.984375 Z M 1.21875 -1.984375 "/></g></g></g><g fill="#0a152f" fill-opacity="1"><g transform="translate(122.755256, 100.506365)"><g><path d="M 0.671875 -1.6875 L 0.671875 -0.53125 C 0.671875 -0.4375 0.691406 -0.367188 0.734375 -0.328125 C 0.773438 -0.296875 0.84375 -0.28125 0.9375 -0.28125 L 1.171875 -0.28125 L 1.171875 0 L 0.890625 0 C 0.703125 0 0.5625 -0.0390625 0.46875 -0.125 C 0.382812 -0.207031 0.34375 -0.34375 0.34375 -0.53125 L 0.34375 -1.6875 L 0.09375 -1.6875 L 0.09375 -1.953125 L 0.34375 -1.953125 L 0.34375 -2.4375 L 0.671875 -2.4375 L 0.671875 -1.953125 L 1.171875 -1.953125 L 1.171875 -1.6875 Z M 0.671875 -1.6875 "/></g></g></g><g fill="#0a152f" fill-opacity="1"><g transform="translate(124.05356, 100.506365)"><g><path d="M 2.0625 -1.046875 C 2.0625 -0.984375 2.054688 -0.921875 2.046875 -0.859375 L 0.484375 -0.859375 C 0.492188 -0.660156 0.554688 -0.507812 0.671875 -0.40625 C 0.796875 -0.300781 0.945312 -0.25 1.125 -0.25 C 1.257812 -0.25 1.375 -0.28125 1.46875 -0.34375 C 1.5625 -0.40625 1.628906 -0.492188 1.671875 -0.609375 L 2.015625 -0.609375 C 1.960938 -0.421875 1.859375 -0.265625 1.703125 -0.140625 C 1.546875 -0.0234375 1.351562 0.03125 1.125 0.03125 C 0.9375 0.03125 0.769531 -0.0078125 0.625 -0.09375 C 0.476562 -0.175781 0.363281 -0.289062 0.28125 -0.4375 C 0.195312 -0.59375 0.15625 -0.773438 0.15625 -0.984375 C 0.15625 -1.179688 0.191406 -1.351562 0.265625 -1.5 C 0.347656 -1.65625 0.460938 -1.773438 0.609375 -1.859375 C 0.753906 -1.941406 0.925781 -1.984375 1.125 -1.984375 C 1.300781 -1.984375 1.460938 -1.941406 1.609375 -1.859375 C 1.753906 -1.773438 1.863281 -1.660156 1.9375 -1.515625 C 2.019531 -1.378906 2.0625 -1.222656 2.0625 -1.046875 Z M 1.71875 -1.125 C 1.71875 -1.238281 1.691406 -1.34375 1.640625 -1.4375 C 1.585938 -1.53125 1.515625 -1.597656 1.421875 -1.640625 C 1.328125 -1.679688 1.222656 -1.703125 1.109375 -1.703125 C 0.941406 -1.703125 0.800781 -1.648438 0.6875 -1.546875 C 0.570312 -1.441406 0.503906 -1.300781 0.484375 -1.125 Z M 1.71875 -1.125 "/></g></g></g><g fill="#0a152f" fill-opacity="1"><g transform="translate(126.264957, 100.506365)"><g><path d="M 0.375 0.015625 C 0.3125 0.015625 0.257812 -0.00390625 0.21875 -0.046875 C 0.175781 -0.0859375 0.15625 -0.140625 0.15625 -0.203125 C 0.15625 -0.265625 0.175781 -0.316406 0.21875 -0.359375 C 0.257812 -0.398438 0.3125 -0.421875 0.375 -0.421875 C 0.4375 -0.421875 0.488281 -0.398438 0.53125 -0.359375 C 0.570312 -0.316406 0.59375 -0.265625 0.59375 -0.203125 C 0.59375 -0.140625 0.570312 -0.0859375 0.53125 -0.046875 C 0.488281 -0.00390625 0.4375 0.015625 0.375 0.015625 Z M 0.375 -1.515625 C 0.3125 -1.515625 0.257812 -1.535156 0.21875 -1.578125 C 0.175781 -1.617188 0.15625 -1.671875 0.15625 -1.734375 C 0.15625 -1.796875 0.175781 -1.847656 0.21875 -1.890625 C 0.257812 -1.929688 0.3125 -1.953125 0.375 -1.953125 C 0.4375 -1.953125 0.488281 -1.929688 0.53125 -1.890625 C 0.570312 -1.847656 0.59375 -1.796875 0.59375 -1.734375 C 0.59375 -1.671875 0.570312 -1.617188 0.53125 -1.578125 C 0.488281 -1.535156 0.4375 -1.515625 0.375 -1.515625 Z M 0.375 -1.515625 "/></g></g></g><g fill="#0a152f" fill-opacity="1"><g transform="translate(127.024678, 100.506365)"><g/></g></g><g fill="#0a152f" fill-opacity="1"><g transform="translate(127.977007, 100.506365)"><g><path d="M 1.671875 -2.484375 L 1.671875 -2.21875 L 0.59375 -2.21875 L 0.59375 -1.375 L 1.46875 -1.375 L 1.46875 -1.125 L 0.59375 -1.125 L 0.59375 0 L 0.28125 0 L 0.28125 -2.484375 Z M 1.671875 -2.484375 "/></g></g></g><g fill="#0a152f" fill-opacity="1"><g transform="translate(129.774662, 100.506365)"><g><path d="M 2.15625 -1.765625 C 2.082031 -1.910156 1.976562 -2.019531 1.84375 -2.09375 C 1.71875 -2.175781 1.570312 -2.21875 1.40625 -2.21875 C 1.226562 -2.21875 1.066406 -2.175781 0.921875 -2.09375 C 0.785156 -2.019531 0.675781 -1.90625 0.59375 -1.75 C 0.519531 -1.601562 0.484375 -1.4375 0.484375 -1.25 C 0.484375 -1.050781 0.519531 -0.878906 0.59375 -0.734375 C 0.675781 -0.585938 0.785156 -0.472656 0.921875 -0.390625 C 1.066406 -0.304688 1.226562 -0.265625 1.40625 -0.265625 C 1.644531 -0.265625 1.84375 -0.335938 2 -0.484375 C 2.15625 -0.628906 2.242188 -0.828125 2.265625 -1.078125 L 1.28125 -1.078125 L 1.28125 -1.34375 L 2.625 -1.34375 L 2.625 -1.09375 C 2.601562 -0.882812 2.535156 -0.695312 2.421875 -0.53125 C 2.316406 -0.363281 2.175781 -0.226562 2 -0.125 C 1.820312 -0.03125 1.625 0.015625 1.40625 0.015625 C 1.164062 0.015625 0.953125 -0.0351562 0.765625 -0.140625 C 0.578125 -0.242188 0.425781 -0.390625 0.3125 -0.578125 C 0.207031 -0.773438 0.15625 -1 0.15625 -1.25 C 0.15625 -1.488281 0.207031 -1.703125 0.3125 -1.890625 C 0.425781 -2.085938 0.578125 -2.238281 0.765625 -2.34375 C 0.953125 -2.457031 1.164062 -2.515625 1.40625 -2.515625 C 1.664062 -2.515625 1.894531 -2.445312 2.09375 -2.3125 C 2.300781 -2.1875 2.453125 -2.003906 2.546875 -1.765625 Z M 2.15625 -1.765625 "/></g></g></g><g fill="#0a152f" fill-opacity="1"><g transform="translate(132.549609, 100.506365)"><g><path d="M 2.328125 -2.484375 L 1.390625 0 L 1.015625 0 L 0.078125 -2.484375 L 0.421875 -2.484375 L 1.203125 -0.34375 L 1.984375 -2.484375 Z M 2.328125 -2.484375 "/></g></g></g></svg>