<svg xmlns="http://www.w3.org/2000/svg" xmlns:xlink="http://www.w3.org/1999/xlink" width="200" zoomAndPan="magnify" viewBox="0 0 150 149.999998" height="200" preserveAspectRatio="xMidYMid meet" version="1.0"><defs><g/></defs><rect x="-15" width="180" fill="#ffffff" y="-15" height="179.999997" fill-opacity="1"/><rect x="-15" width="180" fill="#ffffff" y="-15" height="179.999997" fill-opacity="1"/><path stroke-linecap="butt" transform="matrix(0.75, 0, 0, 0.75, -0.0673658, 111.691666)" fill="none" stroke-linejoin="miter" d="M 0.00127946 0.499654 L 180.089832 0.499654 " stroke="#0a152f" stroke-width="1" stroke-opacity="1" stroke-miterlimit="4"/><g fill="#0a152f" fill-opacity="1"><g transform="translate(14.966316, 58.795878)"><g><path d="M 14.296875 -21.15625 L 14.296875 -18.90625 L 5.09375 -18.90625 L 5.09375 -11.765625 L 12.5625 -11.765625 L 12.5625 -9.53125 L 5.09375 -9.53125 L 5.09375 0 L 2.34375 0 L 2.34375 -21.15625 Z M 14.296875 -21.15625 "/></g></g></g><g fill="#0a152f" fill-opacity="1"><g transform="translate(30.260041, 58.795878)"><g><path d="M 17.515625 -8.953125 C 17.515625 -8.421875 17.484375 -7.863281 17.421875 -7.28125 L 4.125 -7.28125 C 4.226562 -5.644531 4.789062 -4.363281 5.8125 -3.4375 C 6.832031 -2.519531 8.070312 -2.0625 9.53125 -2.0625 C 10.71875 -2.0625 11.710938 -2.335938 12.515625 -2.890625 C 13.316406 -3.453125 13.878906 -4.195312 14.203125 -5.125 L 17.171875 -5.125 C 16.722656 -3.53125 15.832031 -2.234375 14.5 -1.234375 C 13.164062 -0.234375 11.507812 0.265625 9.53125 0.265625 C 7.945312 0.265625 6.53125 -0.0820312 5.28125 -0.78125 C 4.039062 -1.488281 3.066406 -2.492188 2.359375 -3.796875 C 1.660156 -5.109375 1.3125 -6.625 1.3125 -8.34375 C 1.3125 -10.0625 1.65625 -11.566406 2.34375 -12.859375 C 3.03125 -14.160156 3.992188 -15.160156 5.234375 -15.859375 C 6.472656 -16.554688 7.90625 -16.90625 9.53125 -16.90625 C 11.101562 -16.90625 12.492188 -16.5625 13.703125 -15.875 C 14.921875 -15.1875 15.859375 -14.238281 16.515625 -13.03125 C 17.179688 -11.832031 17.515625 -10.472656 17.515625 -8.953125 Z M 14.65625 -9.53125 C 14.65625 -10.582031 14.421875 -11.484375 13.953125 -12.234375 C 13.492188 -12.992188 12.863281 -13.570312 12.0625 -13.96875 C 11.257812 -14.363281 10.375 -14.5625 9.40625 -14.5625 C 8.007812 -14.5625 6.820312 -14.113281 5.84375 -13.21875 C 4.863281 -12.332031 4.300781 -11.101562 4.15625 -9.53125 Z M 14.65625 -9.53125 "/></g></g></g><g fill="#0a152f" fill-opacity="1"><g transform="translate(49.073753, 58.795878)"><g><path d="M 1.3125 -8.375 C 1.3125 -10.070312 1.65625 -11.5625 2.34375 -12.84375 C 3.03125 -14.132812 3.972656 -15.132812 5.171875 -15.84375 C 6.378906 -16.550781 7.726562 -16.90625 9.21875 -16.90625 C 10.519531 -16.90625 11.722656 -16.601562 12.828125 -16 C 13.941406 -15.40625 14.796875 -14.625 15.390625 -13.65625 L 15.390625 -22.453125 L 18.171875 -22.453125 L 18.171875 0 L 15.390625 0 L 15.390625 -3.125 C 14.835938 -2.132812 14.023438 -1.320312 12.953125 -0.6875 C 11.878906 -0.0507812 10.625 0.265625 9.1875 0.265625 C 7.71875 0.265625 6.378906 -0.09375 5.171875 -0.8125 C 3.972656 -1.539062 3.03125 -2.5625 2.34375 -3.875 C 1.65625 -5.195312 1.3125 -6.695312 1.3125 -8.375 Z M 15.390625 -8.34375 C 15.390625 -9.59375 15.132812 -10.679688 14.625 -11.609375 C 14.113281 -12.546875 13.425781 -13.257812 12.5625 -13.75 C 11.707031 -14.25 10.765625 -14.5 9.734375 -14.5 C 8.703125 -14.5 7.757812 -14.253906 6.90625 -13.765625 C 6.0625 -13.285156 5.382812 -12.578125 4.875 -11.640625 C 4.375 -10.710938 4.125 -9.625 4.125 -8.375 C 4.125 -7.101562 4.375 -5.992188 4.875 -5.046875 C 5.382812 -4.109375 6.0625 -3.390625 6.90625 -2.890625 C 7.757812 -2.398438 8.703125 -2.15625 9.734375 -2.15625 C 10.765625 -2.15625 11.707031 -2.398438 12.5625 -2.890625 C 13.425781 -3.390625 14.113281 -4.109375 14.625 -5.046875 C 15.132812 -5.992188 15.390625 -7.09375 15.390625 -8.34375 Z M 15.390625 -8.34375 "/></g></g></g><g fill="#0a152f" fill-opacity="1"><g transform="translate(14.966316, 94.798327)"><g><path d="M 14.296875 -21.15625 L 14.296875 -18.90625 L 5.09375 -18.90625 L 5.09375 -11.765625 L 12.5625 -11.765625 L 12.5625 -9.53125 L 5.09375 -9.53125 L 5.09375 0 L 2.34375 0 L 2.34375 -21.15625 Z M 14.296875 -21.15625 "/></g></g></g><g fill="#0a152f" fill-opacity="1"><g transform="translate(30.260041, 94.798327)"><g><path d="M 17.078125 -16.625 L 17.078125 0 L 14.328125 0 L 14.328125 -2.453125 C 13.796875 -1.609375 13.0625 -0.945312 12.125 -0.46875 C 11.1875 0.0078125 10.148438 0.25 9.015625 0.25 C 7.710938 0.25 6.546875 -0.015625 5.515625 -0.546875 C 4.484375 -1.085938 3.671875 -1.894531 3.078125 -2.96875 C 2.484375 -4.039062 2.1875 -5.347656 2.1875 -6.890625 L 2.1875 -16.625 L 4.921875 -16.625 L 4.921875 -7.25 C 4.921875 -5.613281 5.332031 -4.351562 6.15625 -3.46875 C 6.988281 -2.59375 8.125 -2.15625 9.5625 -2.15625 C 11.03125 -2.15625 12.191406 -2.609375 13.046875 -3.515625 C 13.898438 -4.429688 14.328125 -5.757812 14.328125 -7.5 L 14.328125 -16.625 Z M 17.078125 -16.625 "/></g></g></g><g fill="#0a152f" fill-opacity="1"><g transform="translate(49.680644, 94.798327)"><g><path d="M 10.4375 -16.9375 C 12.457031 -16.9375 14.09375 -16.320312 15.34375 -15.09375 C 16.601562 -13.875 17.234375 -12.109375 17.234375 -9.796875 L 17.234375 0 L 14.5 0 L 14.5 -9.40625 C 14.5 -11.0625 14.082031 -12.328125 13.25 -13.203125 C 12.425781 -14.085938 11.296875 -14.53125 9.859375 -14.53125 C 8.398438 -14.53125 7.238281 -14.070312 6.375 -13.15625 C 5.519531 -12.25 5.09375 -10.925781 5.09375 -9.1875 L 5.09375 0 L 2.34375 0 L 2.34375 -16.625 L 5.09375 -16.625 L 5.09375 -14.265625 C 5.644531 -15.109375 6.390625 -15.765625 7.328125 -16.234375 C 8.265625 -16.703125 9.300781 -16.9375 10.4375 -16.9375 Z M 10.4375 -16.9375 "/></g></g></g><g fill="#0a152f" fill-opacity="1"><g transform="translate(69.101247, 94.798327)"><g><path d="M 1.3125 -8.375 C 1.3125 -10.070312 1.65625 -11.5625 2.34375 -12.84375 C 3.03125 -14.132812 3.972656 -15.132812 5.171875 -15.84375 C 6.378906 -16.550781 7.726562 -16.90625 9.21875 -16.90625 C 10.519531 -16.90625 11.722656 -16.601562 12.828125 -16 C 13.941406 -15.40625 14.796875 -14.625 15.390625 -13.65625 L 15.390625 -22.453125 L 18.171875 -22.453125 L 18.171875 0 L 15.390625 0 L 15.390625 -3.125 C 14.835938 -2.132812 14.023438 -1.320312 12.953125 -0.6875 C 11.878906 -0.0507812 10.625 0.265625 9.1875 0.265625 C 7.71875 0.265625 6.378906 -0.09375 5.171875 -0.8125 C 3.972656 -1.539062 3.03125 -2.5625 2.34375 -3.875 C 1.65625 -5.195312 1.3125 -6.695312 1.3125 -8.375 Z M 15.390625 -8.34375 C 15.390625 -9.59375 15.132812 -10.679688 14.625 -11.609375 C 14.113281 -12.546875 13.425781 -13.257812 12.5625 -13.75 C 11.707031 -14.25 10.765625 -14.5 9.734375 -14.5 C 8.703125 -14.5 7.757812 -14.253906 6.90625 -13.765625 C 6.0625 -13.285156 5.382812 -12.578125 4.875 -11.640625 C 4.375 -10.710938 4.125 -9.625 4.125 -8.375 C 4.125 -7.101562 4.375 -5.992188 4.875 -5.046875 C 5.382812 -4.109375 6.0625 -3.390625 6.90625 -2.890625 C 7.757812 -2.398438 8.703125 -2.15625 9.734375 -2.15625 C 10.765625 -2.15625 11.707031 -2.398438 12.5625 -2.890625 C 13.425781 -3.390625 14.113281 -4.109375 14.625 -5.046875 C 15.132812 -5.992188 15.390625 -7.09375 15.390625 -8.34375 Z M 15.390625 -8.34375 "/></g></g></g><g fill="#0a152f" fill-opacity="1"><g transform="translate(89.614262, 94.798327)"><g><path d="M 8.21875 0.265625 C 6.945312 0.265625 5.804688 0.0507812 4.796875 -0.375 C 3.785156 -0.8125 2.984375 -1.421875 2.390625 -2.203125 C 1.804688 -2.984375 1.484375 -3.878906 1.421875 -4.890625 L 4.28125 -4.890625 C 4.363281 -4.054688 4.753906 -3.375 5.453125 -2.84375 C 6.148438 -2.320312 7.0625 -2.0625 8.1875 -2.0625 C 9.238281 -2.0625 10.066406 -2.289062 10.671875 -2.75 C 11.285156 -3.21875 11.59375 -3.804688 11.59375 -4.515625 C 11.59375 -5.242188 11.269531 -5.785156 10.625 -6.140625 C 9.976562 -6.492188 8.972656 -6.84375 7.609375 -7.1875 C 6.378906 -7.507812 5.375 -7.835938 4.59375 -8.171875 C 3.8125 -8.503906 3.144531 -9 2.59375 -9.65625 C 2.039062 -10.320312 1.765625 -11.191406 1.765625 -12.265625 C 1.765625 -13.109375 2.015625 -13.882812 2.515625 -14.59375 C 3.023438 -15.300781 3.742188 -15.863281 4.671875 -16.28125 C 5.597656 -16.695312 6.660156 -16.90625 7.859375 -16.90625 C 9.703125 -16.90625 11.1875 -16.4375 12.3125 -15.5 C 13.445312 -14.570312 14.054688 -13.300781 14.140625 -11.6875 L 11.375 -11.6875 C 11.3125 -12.550781 10.960938 -13.242188 10.328125 -13.765625 C 9.691406 -14.296875 8.835938 -14.5625 7.765625 -14.5625 C 6.773438 -14.5625 5.984375 -14.347656 5.390625 -13.921875 C 4.804688 -13.503906 4.515625 -12.953125 4.515625 -12.265625 C 4.515625 -11.710938 4.691406 -11.257812 5.046875 -10.90625 C 5.398438 -10.550781 5.84375 -10.265625 6.375 -10.046875 C 6.914062 -9.835938 7.664062 -9.601562 8.625 -9.34375 C 9.8125 -9.019531 10.78125 -8.703125 11.53125 -8.390625 C 12.28125 -8.078125 12.921875 -7.601562 13.453125 -6.96875 C 13.992188 -6.34375 14.273438 -5.523438 14.296875 -4.515625 C 14.296875 -3.609375 14.039062 -2.789062 13.53125 -2.0625 C 13.03125 -1.332031 12.316406 -0.757812 11.390625 -0.34375 C 10.472656 0.0625 9.414062 0.265625 8.21875 0.265625 Z M 8.21875 0.265625 "/></g></g></g><g fill="#0a152f" fill-opacity="1"><g transform="translate(95.177422, 118.568877)"><g><path d="M 1.671875 -2.484375 L 1.671875 -2.21875 L 0.59375 -2.21875 L 0.59375 -1.375 L 1.46875 -1.375 L 1.46875 -1.125 L 0.59375 -1.125 L 0.59375 0 L 0.28125 0 L 0.28125 -2.484375 Z M 1.671875 -2.484375 "/></g></g></g><g fill="#0a152f" fill-opacity="1"><g transform="translate(96.975077, 118.568877)"><g><path d="M 1.125 0.03125 C 0.9375 0.03125 0.769531 -0.0078125 0.625 -0.09375 C 0.476562 -0.175781 0.363281 -0.289062 0.28125 -0.4375 C 0.195312 -0.59375 0.15625 -0.773438 0.15625 -0.984375 C 0.15625 -1.179688 0.195312 -1.351562 0.28125 -1.5 C 0.363281 -1.65625 0.476562 -1.773438 0.625 -1.859375 C 0.78125 -1.941406 0.953125 -1.984375 1.140625 -1.984375 C 1.328125 -1.984375 1.492188 -1.941406 1.640625 -1.859375 C 1.785156 -1.773438 1.898438 -1.65625 1.984375 -1.5 C 2.078125 -1.351562 2.125 -1.179688 2.125 -0.984375 C 2.125 -0.773438 2.078125 -0.59375 1.984375 -0.4375 C 1.898438 -0.289062 1.78125 -0.175781 1.625 -0.09375 C 1.476562 -0.0078125 1.3125 0.03125 1.125 0.03125 Z M 1.125 -0.25 C 1.238281 -0.25 1.347656 -0.273438 1.453125 -0.328125 C 1.554688 -0.390625 1.640625 -0.472656 1.703125 -0.578125 C 1.765625 -0.691406 1.796875 -0.828125 1.796875 -0.984375 C 1.796875 -1.140625 1.765625 -1.269531 1.703125 -1.375 C 1.640625 -1.488281 1.554688 -1.570312 1.453125 -1.625 C 1.359375 -1.675781 1.253906 -1.703125 1.140625 -1.703125 C 1.015625 -1.703125 0.898438 -1.675781 0.796875 -1.625 C 0.703125 -1.570312 0.625 -1.488281 0.5625 -1.375 C 0.507812 -1.269531 0.484375 -1.140625 0.484375 -0.984375 C 0.484375 -0.816406 0.507812 -0.675781 0.5625 -0.5625 C 0.625 -0.457031 0.703125 -0.378906 0.796875 -0.328125 C 0.898438 -0.273438 1.007812 -0.25 1.125 -0.25 Z M 1.125 -0.25 "/></g></g></g><g fill="#0a152f" fill-opacity="1"><g transform="translate(99.257811, 118.568877)"><g><path d="M 1.21875 -1.984375 C 1.457031 -1.984375 1.648438 -1.910156 1.796875 -1.765625 C 1.953125 -1.628906 2.03125 -1.425781 2.03125 -1.15625 L 2.03125 0 L 1.703125 0 L 1.703125 -1.109375 C 1.703125 -1.296875 1.648438 -1.441406 1.546875 -1.546875 C 1.453125 -1.648438 1.320312 -1.703125 1.15625 -1.703125 C 0.988281 -1.703125 0.851562 -1.648438 0.75 -1.546875 C 0.644531 -1.441406 0.59375 -1.285156 0.59375 -1.078125 L 0.59375 0 L 0.28125 0 L 0.28125 -1.953125 L 0.59375 -1.953125 L 0.59375 -1.671875 C 0.65625 -1.773438 0.742188 -1.851562 0.859375 -1.90625 C 0.972656 -1.957031 1.09375 -1.984375 1.21875 -1.984375 Z M 1.21875 -1.984375 "/></g></g></g><g fill="#0a152f" fill-opacity="1"><g transform="translate(101.540544, 118.568877)"><g><path d="M 0.671875 -1.6875 L 0.671875 -0.53125 C 0.671875 -0.4375 0.691406 -0.367188 0.734375 -0.328125 C 0.773438 -0.296875 0.84375 -0.28125 0.9375 -0.28125 L 1.171875 -0.28125 L 1.171875 0 L 0.890625 0 C 0.703125 0 0.5625 -0.0390625 0.46875 -0.125 C 0.382812 -0.207031 0.34375 -0.34375 0.34375 -0.53125 L 0.34375 -1.6875 L 0.09375 -1.6875 L 0.09375 -1.953125 L 0.34375 -1.953125 L 0.34375 -2.4375 L 0.671875 -2.4375 L 0.671875 -1.953125 L 1.171875 -1.953125 L 1.171875 -1.6875 Z M 0.671875 -1.6875 "/></g></g></g><g fill="#0a152f" fill-opacity="1"><g transform="translate(102.838848, 118.568877)"><g><path d="M 2.0625 -1.046875 C 2.0625 -0.984375 2.054688 -0.921875 2.046875 -0.859375 L 0.484375 -0.859375 C 0.492188 -0.660156 0.554688 -0.507812 0.671875 -0.40625 C 0.796875 -0.300781 0.945312 -0.25 1.125 -0.25 C 1.257812 -0.25 1.375 -0.28125 1.46875 -0.34375 C 1.5625 -0.40625 1.628906 -0.492188 1.671875 -0.609375 L 2.015625 -0.609375 C 1.960938 -0.421875 1.859375 -0.265625 1.703125 -0.140625 C 1.546875 -0.0234375 1.351562 0.03125 1.125 0.03125 C 0.9375 0.03125 0.769531 -0.0078125 0.625 -0.09375 C 0.476562 -0.175781 0.363281 -0.289062 0.28125 -0.4375 C 0.195312 -0.59375 0.15625 -0.773438 0.15625 -0.984375 C 0.15625 -1.179688 0.191406 -1.351562 0.265625 -1.5 C 0.347656 -1.65625 0.460938 -1.773438 0.609375 -1.859375 C 0.753906 -1.941406 0.925781 -1.984375 1.125 -1.984375 C 1.300781 -1.984375 1.460938 -1.941406 1.609375 -1.859375 C 1.753906 -1.773438 1.863281 -1.660156 1.9375 -1.515625 C 2.019531 -1.378906 2.0625 -1.222656 2.0625 -1.046875 Z M 1.71875 -1.125 C 1.71875 -1.238281 1.691406 -1.34375 1.640625 -1.4375 C 1.585938 -1.53125 1.515625 -1.597656 1.421875 -1.640625 C 1.328125 -1.679688 1.222656 -1.703125 1.109375 -1.703125 C 0.941406 -1.703125 0.800781 -1.648438 0.6875 -1.546875 C 0.570312 -1.441406 0.503906 -1.300781 0.484375 -1.125 Z M 1.71875 -1.125 "/></g></g></g><g fill="#0a152f" fill-opacity="1"><g transform="translate(105.050245, 118.568877)"><g><path d="M 0.375 0.015625 C 0.3125 0.015625 0.257812 -0.00390625 0.21875 -0.046875 C 0.175781 -0.0859375 0.15625 -0.140625 0.15625 -0.203125 C 0.15625 -0.265625 0.175781 -0.316406 0.21875 -0.359375 C 0.257812 -0.398438 0.3125 -0.421875 0.375 -0.421875 C 0.4375 -0.421875 0.488281 -0.398438 0.53125 -0.359375 C 0.570312 -0.316406 0.59375 -0.265625 0.59375 -0.203125 C 0.59375 -0.140625 0.570312 -0.0859375 0.53125 -0.046875 C 0.488281 -0.00390625 0.4375 0.015625 0.375 0.015625 Z M 0.375 -1.515625 C 0.3125 -1.515625 0.257812 -1.535156 0.21875 -1.578125 C 0.175781 -1.617188 0.15625 -1.671875 0.15625 -1.734375 C 0.15625 -1.796875 0.175781 -1.847656 0.21875 -1.890625 C 0.257812 -1.929688 0.3125 -1.953125 0.375 -1.953125 C 0.4375 -1.953125 0.488281 -1.929688 0.53125 -1.890625 C 0.570312 -1.847656 0.59375 -1.796875 0.59375 -1.734375 C 0.59375 -1.671875 0.570312 -1.617188 0.53125 -1.578125 C 0.488281 -1.535156 0.4375 -1.515625 0.375 -1.515625 Z M 0.375 -1.515625 "/></g></g></g><g fill="#0a152f" fill-opacity="1"><g transform="translate(105.809967, 118.568877)"><g/></g></g><g fill="#0a152f" fill-opacity="1"><g transform="translate(106.762296, 118.568877)"><g><path d="M 1.671875 -2.484375 L 1.671875 -2.21875 L 0.59375 -2.21875 L 0.59375 -1.375 L 1.46875 -1.375 L 1.46875 -1.125 L 0.59375 -1.125 L 0.59375 0 L 0.28125 0 L 0.28125 -2.484375 Z M 1.671875 -2.484375 "/></g></g></g><g fill="#0a152f" fill-opacity="1"><g transform="translate(108.559951, 118.568877)"><g><path d="M 2.0625 -1.046875 C 2.0625 -0.984375 2.054688 -0.921875 2.046875 -0.859375 L 0.484375 -0.859375 C 0.492188 -0.660156 0.554688 -0.507812 0.671875 -0.40625 C 0.796875 -0.300781 0.945312 -0.25 1.125 -0.25 C 1.257812 -0.25 1.375 -0.28125 1.46875 -0.34375 C 1.5625 -0.40625 1.628906 -0.492188 1.671875 -0.609375 L 2.015625 -0.609375 C 1.960938 -0.421875 1.859375 -0.265625 1.703125 -0.140625 C 1.546875 -0.0234375 1.351562 0.03125 1.125 0.03125 C 0.9375 0.03125 0.769531 -0.0078125 0.625 -0.09375 C 0.476562 -0.175781 0.363281 -0.289062 0.28125 -0.4375 C 0.195312 -0.59375 0.15625 -0.773438 0.15625 -0.984375 C 0.15625 -1.179688 0.191406 -1.351562 0.265625 -1.5 C 0.347656 -1.65625 0.460938 -1.773438 0.609375 -1.859375 C 0.753906 -1.941406 0.925781 -1.984375 1.125 -1.984375 C 1.300781 -1.984375 1.460938 -1.941406 1.609375 -1.859375 C 1.753906 -1.773438 1.863281 -1.660156 1.9375 -1.515625 C 2.019531 -1.378906 2.0625 -1.222656 2.0625 -1.046875 Z M 1.71875 -1.125 C 1.71875 -1.238281 1.691406 -1.34375 1.640625 -1.4375 C 1.585938 -1.53125 1.515625 -1.597656 1.421875 -1.640625 C 1.328125 -1.679688 1.222656 -1.703125 1.109375 -1.703125 C 0.941406 -1.703125 0.800781 -1.648438 0.6875 -1.546875 C 0.570312 -1.441406 0.503906 -1.300781 0.484375 -1.125 Z M 1.71875 -1.125 "/></g></g></g><g fill="#0a152f" fill-opacity="1"><g transform="translate(110.771348, 118.568877)"><g><path d="M 0.15625 -0.984375 C 0.15625 -1.179688 0.191406 -1.351562 0.265625 -1.5 C 0.347656 -1.65625 0.457031 -1.773438 0.59375 -1.859375 C 0.738281 -1.941406 0.898438 -1.984375 1.078125 -1.984375 C 1.234375 -1.984375 1.375 -1.945312 1.5 -1.875 C 1.632812 -1.8125 1.738281 -1.722656 1.8125 -1.609375 L 1.8125 -2.640625 L 2.140625 -2.640625 L 2.140625 0 L 1.8125 0 L 1.8125 -0.359375 C 1.738281 -0.242188 1.640625 -0.148438 1.515625 -0.078125 C 1.390625 -0.00390625 1.242188 0.03125 1.078125 0.03125 C 0.898438 0.03125 0.738281 -0.0078125 0.59375 -0.09375 C 0.457031 -0.175781 0.347656 -0.296875 0.265625 -0.453125 C 0.191406 -0.609375 0.15625 -0.785156 0.15625 -0.984375 Z M 1.8125 -0.984375 C 1.8125 -1.128906 1.78125 -1.253906 1.71875 -1.359375 C 1.65625 -1.472656 1.570312 -1.554688 1.46875 -1.609375 C 1.375 -1.671875 1.265625 -1.703125 1.140625 -1.703125 C 1.023438 -1.703125 0.914062 -1.671875 0.8125 -1.609375 C 0.707031 -1.554688 0.625 -1.472656 0.5625 -1.359375 C 0.507812 -1.253906 0.484375 -1.128906 0.484375 -0.984375 C 0.484375 -0.835938 0.507812 -0.707031 0.5625 -0.59375 C 0.625 -0.476562 0.707031 -0.390625 0.8125 -0.328125 C 0.914062 -0.273438 1.023438 -0.25 1.140625 -0.25 C 1.265625 -0.25 1.375 -0.273438 1.46875 -0.328125 C 1.570312 -0.390625 1.65625 -0.476562 1.71875 -0.59375 C 1.78125 -0.707031 1.8125 -0.835938 1.8125 -0.984375 Z M 1.8125 -0.984375 "/></g></g></g><g fill="#0a152f" fill-opacity="1"><g transform="translate(113.182487, 118.568877)"><g><path d="M 2.0625 -1.046875 C 2.0625 -0.984375 2.054688 -0.921875 2.046875 -0.859375 L 0.484375 -0.859375 C 0.492188 -0.660156 0.554688 -0.507812 0.671875 -0.40625 C 0.796875 -0.300781 0.945312 -0.25 1.125 -0.25 C 1.257812 -0.25 1.375 -0.28125 1.46875 -0.34375 C 1.5625 -0.40625 1.628906 -0.492188 1.671875 -0.609375 L 2.015625 -0.609375 C 1.960938 -0.421875 1.859375 -0.265625 1.703125 -0.140625 C 1.546875 -0.0234375 1.351562 0.03125 1.125 0.03125 C 0.9375 0.03125 0.769531 -0.0078125 0.625 -0.09375 C 0.476562 -0.175781 0.363281 -0.289062 0.28125 -0.4375 C 0.195312 -0.59375 0.15625 -0.773438 0.15625 -0.984375 C 0.15625 -1.179688 0.191406 -1.351562 0.265625 -1.5 C 0.347656 -1.65625 0.460938 -1.773438 0.609375 -1.859375 C 0.753906 -1.941406 0.925781 -1.984375 1.125 -1.984375 C 1.300781 -1.984375 1.460938 -1.941406 1.609375 -1.859375 C 1.753906 -1.773438 1.863281 -1.660156 1.9375 -1.515625 C 2.019531 -1.378906 2.0625 -1.222656 2.0625 -1.046875 Z M 1.71875 -1.125 C 1.71875 -1.238281 1.691406 -1.34375 1.640625 -1.4375 C 1.585938 -1.53125 1.515625 -1.597656 1.421875 -1.640625 C 1.328125 -1.679688 1.222656 -1.703125 1.109375 -1.703125 C 0.941406 -1.703125 0.800781 -1.648438 0.6875 -1.546875 C 0.570312 -1.441406 0.503906 -1.300781 0.484375 -1.125 Z M 1.71875 -1.125 "/></g></g></g><g fill="#0a152f" fill-opacity="1"><g transform="translate(115.393884, 118.568877)"><g><path d="M 0.59375 -1.640625 C 0.65625 -1.742188 0.738281 -1.828125 0.84375 -1.890625 C 0.945312 -1.953125 1.078125 -1.984375 1.234375 -1.984375 L 1.234375 -1.65625 L 1.140625 -1.65625 C 0.773438 -1.65625 0.59375 -1.457031 0.59375 -1.0625 L 0.59375 0 L 0.28125 0 L 0.28125 -1.953125 L 0.59375 -1.953125 Z M 0.59375 -1.640625 "/></g></g></g><g fill="#0a152f" fill-opacity="1"><g transform="translate(116.724289, 118.568877)"><g><path d="M 0.15625 -0.984375 C 0.15625 -1.179688 0.191406 -1.351562 0.265625 -1.5 C 0.347656 -1.65625 0.457031 -1.773438 0.59375 -1.859375 C 0.738281 -1.941406 0.898438 -1.984375 1.078125 -1.984375 C 1.242188 -1.984375 1.390625 -1.945312 1.515625 -1.875 C 1.648438 -1.800781 1.75 -1.707031 1.8125 -1.59375 L 1.8125 -1.953125 L 2.140625 -1.953125 L 2.140625 0 L 1.8125 0 L 1.8125 -0.359375 C 1.738281 -0.242188 1.640625 -0.148438 1.515625 -0.078125 C 1.390625 -0.00390625 1.242188 0.03125 1.078125 0.03125 C 0.898438 0.03125 0.738281 -0.0078125 0.59375 -0.09375 C 0.457031 -0.175781 0.347656 -0.296875 0.265625 -0.453125 C 0.191406 -0.609375 0.15625 -0.785156 0.15625 -0.984375 Z M 1.8125 -0.984375 C 1.8125 -1.128906 1.78125 -1.253906 1.71875 -1.359375 C 1.65625 -1.472656 1.570312 -1.554688 1.46875 -1.609375 C 1.375 -1.671875 1.265625 -1.703125 1.140625 -1.703125 C 1.023438 -1.703125 0.914062 -1.671875 0.8125 -1.609375 C 0.707031 -1.554688 0.625 -1.472656 0.5625 -1.359375 C 0.507812 -1.253906 0.484375 -1.128906 0.484375 -0.984375 C 0.484375 -0.835938 0.507812 -0.707031 0.5625 -0.59375 C 0.625 -0.476562 0.707031 -0.390625 0.8125 -0.328125 C 0.914062 -0.273438 1.023438 -0.25 1.140625 -0.25 C 1.265625 -0.25 1.375 -0.273438 1.46875 -0.328125 C 1.570312 -0.390625 1.65625 -0.476562 1.71875 -0.59375 C 1.78125 -0.707031 1.8125 -0.835938 1.8125 -0.984375 Z M 1.8125 -0.984375 "/></g></g></g><g fill="#0a152f" fill-opacity="1"><g transform="translate(119.135427, 118.568877)"><g><path d="M 0.59375 -2.640625 L 0.59375 0 L 0.28125 0 L 0.28125 -2.640625 Z M 0.59375 -2.640625 "/></g></g></g><g fill="#0a152f" fill-opacity="1"><g transform="translate(120.012855, 118.568877)"><g/></g></g><g fill="#0a152f" fill-opacity="1"><g transform="translate(120.965184, 118.568877)"><g><path d="M 1.578125 0 L 0.984375 -1.015625 L 0.59375 -1.015625 L 0.59375 0 L 0.28125 0 L 0.28125 -2.484375 L 1.078125 -2.484375 C 1.265625 -2.484375 1.421875 -2.453125 1.546875 -2.390625 C 1.679688 -2.328125 1.78125 -2.238281 1.84375 -2.125 C 1.90625 -2.019531 1.9375 -1.894531 1.9375 -1.75 C 1.9375 -1.582031 1.882812 -1.429688 1.78125 -1.296875 C 1.6875 -1.171875 1.539062 -1.085938 1.34375 -1.046875 L 1.96875 0 Z M 0.59375 -1.28125 L 1.078125 -1.28125 C 1.253906 -1.28125 1.382812 -1.320312 1.46875 -1.40625 C 1.5625 -1.488281 1.609375 -1.601562 1.609375 -1.75 C 1.609375 -1.894531 1.5625 -2.007812 1.46875 -2.09375 C 1.382812 -2.175781 1.253906 -2.21875 1.078125 -2.21875 L 0.59375 -2.21875 Z M 0.59375 -1.28125 "/></g></g></g><g fill="#0a152f" fill-opacity="1"><g transform="translate(123.133781, 118.568877)"><g><path d="M 2.0625 -1.046875 C 2.0625 -0.984375 2.054688 -0.921875 2.046875 -0.859375 L 0.484375 -0.859375 C 0.492188 -0.660156 0.554688 -0.507812 0.671875 -0.40625 C 0.796875 -0.300781 0.945312 -0.25 1.125 -0.25 C 1.257812 -0.25 1.375 -0.28125 1.46875 -0.34375 C 1.5625 -0.40625 1.628906 -0.492188 1.671875 -0.609375 L 2.015625 -0.609375 C 1.960938 -0.421875 1.859375 -0.265625 1.703125 -0.140625 C 1.546875 -0.0234375 1.351562 0.03125 1.125 0.03125 C 0.9375 0.03125 0.769531 -0.0078125 0.625 -0.09375 C 0.476562 -0.175781 0.363281 -0.289062 0.28125 -0.4375 C 0.195312 -0.59375 0.15625 -0.773438 0.15625 -0.984375 C 0.15625 -1.179688 0.191406 -1.351562 0.265625 -1.5 C 0.347656 -1.65625 0.460938 -1.773438 0.609375 -1.859375 C 0.753906 -1.941406 0.925781 -1.984375 1.125 -1.984375 C 1.300781 -1.984375 1.460938 -1.941406 1.609375 -1.859375 C 1.753906 -1.773438 1.863281 -1.660156 1.9375 -1.515625 C 2.019531 -1.378906 2.0625 -1.222656 2.0625 -1.046875 Z M 1.71875 -1.125 C 1.71875 -1.238281 1.691406 -1.34375 1.640625 -1.4375 C 1.585938 -1.53125 1.515625 -1.597656 1.421875 -1.640625 C 1.328125 -1.679688 1.222656 -1.703125 1.109375 -1.703125 C 0.941406 -1.703125 0.800781 -1.648438 0.6875 -1.546875 C 0.570312 -1.441406 0.503906 -1.300781 0.484375 -1.125 Z M 1.71875 -1.125 "/></g></g></g><g fill="#0a152f" fill-opacity="1"><g transform="translate(125.345178, 118.568877)"><g><path d="M 0.96875 0.03125 C 0.8125 0.03125 0.675781 0.00390625 0.5625 -0.046875 C 0.445312 -0.0976562 0.351562 -0.164062 0.28125 -0.25 C 0.207031 -0.34375 0.171875 -0.453125 0.171875 -0.578125 L 0.5 -0.578125 C 0.507812 -0.472656 0.554688 -0.390625 0.640625 -0.328125 C 0.722656 -0.273438 0.832031 -0.25 0.96875 -0.25 C 1.082031 -0.25 1.175781 -0.273438 1.25 -0.328125 C 1.320312 -0.378906 1.359375 -0.445312 1.359375 -0.53125 C 1.359375 -0.613281 1.320312 -0.675781 1.25 -0.71875 C 1.175781 -0.757812 1.054688 -0.800781 0.890625 -0.84375 C 0.742188 -0.882812 0.625 -0.921875 0.53125 -0.953125 C 0.445312 -0.992188 0.367188 -1.050781 0.296875 -1.125 C 0.234375 -1.207031 0.203125 -1.3125 0.203125 -1.4375 C 0.203125 -1.539062 0.234375 -1.632812 0.296875 -1.71875 C 0.359375 -1.800781 0.441406 -1.863281 0.546875 -1.90625 C 0.660156 -1.957031 0.785156 -1.984375 0.921875 -1.984375 C 1.140625 -1.984375 1.3125 -1.925781 1.4375 -1.8125 C 1.570312 -1.707031 1.644531 -1.5625 1.65625 -1.375 L 1.328125 -1.375 C 1.328125 -1.476562 1.285156 -1.554688 1.203125 -1.609375 C 1.128906 -1.671875 1.03125 -1.703125 0.90625 -1.703125 C 0.789062 -1.703125 0.695312 -1.675781 0.625 -1.625 C 0.5625 -1.582031 0.53125 -1.519531 0.53125 -1.4375 C 0.53125 -1.375 0.550781 -1.320312 0.59375 -1.28125 C 0.632812 -1.238281 0.6875 -1.203125 0.75 -1.171875 C 0.8125 -1.148438 0.898438 -1.125 1.015625 -1.09375 C 1.148438 -1.0625 1.257812 -1.023438 1.34375 -0.984375 C 1.4375 -0.953125 1.515625 -0.894531 1.578125 -0.8125 C 1.640625 -0.738281 1.671875 -0.644531 1.671875 -0.53125 C 1.671875 -0.425781 1.640625 -0.328125 1.578125 -0.234375 C 1.523438 -0.148438 1.441406 -0.0820312 1.328125 -0.03125 C 1.222656 0.0078125 1.101562 0.03125 0.96875 0.03125 Z M 0.96875 0.03125 "/></g></g></g><g fill="#0a152f" fill-opacity="1"><g transform="translate(127.207031, 118.568877)"><g><path d="M 2.0625 -1.046875 C 2.0625 -0.984375 2.054688 -0.921875 2.046875 -0.859375 L 0.484375 -0.859375 C 0.492188 -0.660156 0.554688 -0.507812 0.671875 -0.40625 C 0.796875 -0.300781 0.945312 -0.25 1.125 -0.25 C 1.257812 -0.25 1.375 -0.28125 1.46875 -0.34375 C 1.5625 -0.40625 1.628906 -0.492188 1.671875 -0.609375 L 2.015625 -0.609375 C 1.960938 -0.421875 1.859375 -0.265625 1.703125 -0.140625 C 1.546875 -0.0234375 1.351562 0.03125 1.125 0.03125 C 0.9375 0.03125 0.769531 -0.0078125 0.625 -0.09375 C 0.476562 -0.175781 0.363281 -0.289062 0.28125 -0.4375 C 0.195312 -0.59375 0.15625 -0.773438 0.15625 -0.984375 C 0.15625 -1.179688 0.191406 -1.351562 0.265625 -1.5 C 0.347656 -1.65625 0.460938 -1.773438 0.609375 -1.859375 C 0.753906 -1.941406 0.925781 -1.984375 1.125 -1.984375 C 1.300781 -1.984375 1.460938 -1.941406 1.609375 -1.859375 C 1.753906 -1.773438 1.863281 -1.660156 1.9375 -1.515625 C 2.019531 -1.378906 2.0625 -1.222656 2.0625 -1.046875 Z M 1.71875 -1.125 C 1.71875 -1.238281 1.691406 -1.34375 1.640625 -1.4375 C 1.585938 -1.53125 1.515625 -1.597656 1.421875 -1.640625 C 1.328125 -1.679688 1.222656 -1.703125 1.109375 -1.703125 C 0.941406 -1.703125 0.800781 -1.648438 0.6875 -1.546875 C 0.570312 -1.441406 0.503906 -1.300781 0.484375 -1.125 Z M 1.71875 -1.125 "/></g></g></g><g fill="#0a152f" fill-opacity="1"><g transform="translate(129.418428, 118.568877)"><g><path d="M 0.59375 -1.640625 C 0.65625 -1.742188 0.738281 -1.828125 0.84375 -1.890625 C 0.945312 -1.953125 1.078125 -1.984375 1.234375 -1.984375 L 1.234375 -1.65625 L 1.140625 -1.65625 C 0.773438 -1.65625 0.59375 -1.457031 0.59375 -1.0625 L 0.59375 0 L 0.28125 0 L 0.28125 -1.953125 L 0.59375 -1.953125 Z M 0.59375 -1.640625 "/></g></g></g><g fill="#0a152f" fill-opacity="1"><g transform="translate(130.748833, 118.568877)"><g><path d="M 1 -0.296875 L 1.609375 -1.953125 L 1.953125 -1.953125 L 1.1875 0 L 0.8125 0 L 0.046875 -1.953125 L 0.390625 -1.953125 Z M 1 -0.296875 "/></g></g></g><g fill="#0a152f" fill-opacity="1"><g transform="translate(132.74979, 118.568877)"><g><path d="M 2.0625 -1.046875 C 2.0625 -0.984375 2.054688 -0.921875 2.046875 -0.859375 L 0.484375 -0.859375 C 0.492188 -0.660156 0.554688 -0.507812 0.671875 -0.40625 C 0.796875 -0.300781 0.945312 -0.25 1.125 -0.25 C 1.257812 -0.25 1.375 -0.28125 1.46875 -0.34375 C 1.5625 -0.40625 1.628906 -0.492188 1.671875 -0.609375 L 2.015625 -0.609375 C 1.960938 -0.421875 1.859375 -0.265625 1.703125 -0.140625 C 1.546875 -0.0234375 1.351562 0.03125 1.125 0.03125 C 0.9375 0.03125 0.769531 -0.0078125 0.625 -0.09375 C 0.476562 -0.175781 0.363281 -0.289062 0.28125 -0.4375 C 0.195312 -0.59375 0.15625 -0.773438 0.15625 -0.984375 C 0.15625 -1.179688 0.191406 -1.351562 0.265625 -1.5 C 0.347656 -1.65625 0.460938 -1.773438 0.609375 -1.859375 C 0.753906 -1.941406 0.925781 -1.984375 1.125 -1.984375 C 1.300781 -1.984375 1.460938 -1.941406 1.609375 -1.859375 C 1.753906 -1.773438 1.863281 -1.660156 1.9375 -1.515625 C 2.019531 -1.378906 2.0625 -1.222656 2.0625 -1.046875 Z M 1.71875 -1.125 C 1.71875 -1.238281 1.691406 -1.34375 1.640625 -1.4375 C 1.585938 -1.53125 1.515625 -1.597656 1.421875 -1.640625 C 1.328125 -1.679688 1.222656 -1.703125 1.109375 -1.703125 C 0.941406 -1.703125 0.800781 -1.648438 0.6875 -1.546875 C 0.570312 -1.441406 0.503906 -1.300781 0.484375 -1.125 Z M 1.71875 -1.125 "/></g></g></g></svg>