<svg xmlns="http://www.w3.org/2000/svg" xmlns:xlink="http://www.w3.org/1999/xlink" width="200" zoomAndPan="magnify" viewBox="0 0 150 149.999998" height="200" preserveAspectRatio="xMidYMid meet" version="1.0"><defs><g/></defs><rect x="-15" width="180" fill="#ffffff" y="-15" height="179.999997" fill-opacity="1"/><rect x="-15" width="180" fill="#ffffff" y="-15" height="179.999997" fill-opacity="1"/><path stroke-linecap="butt" transform="matrix(0.75, 0, 0, 0.75, -0.0673658, 96.051851)" fill="none" stroke-linejoin="miter" d="M 0.00127946 0.498574 L 180.089832 0.498574 " stroke="#0a152f" stroke-width="1" stroke-opacity="1" stroke-miterlimit="4"/><g fill="#0a152f" fill-opacity="1"><g transform="translate(15, 60.13201)"><g><path d="M 8.140625 -7.390625 C 8.140625 -6.523438 7.84375 -5.800781 7.25 -5.21875 C 6.65625 -4.644531 5.75 -4.359375 4.53125 -4.359375 L 2.515625 -4.359375 L 2.515625 0 L 1.15625 0 L 1.15625 -10.453125 L 4.53125 -10.453125 C 5.707031 -10.453125 6.601562 -10.164062 7.21875 -9.59375 C 7.832031 -9.03125 8.140625 -8.296875 8.140625 -7.390625 Z M 4.53125 -5.484375 C 5.289062 -5.484375 5.847656 -5.648438 6.203125 -5.984375 C 6.566406 -6.316406 6.75 -6.785156 6.75 -7.390625 C 6.75 -8.679688 6.007812 -9.328125 4.53125 -9.328125 L 2.515625 -9.328125 L 2.515625 -5.484375 Z M 4.53125 -5.484375 "/></g></g></g><g fill="#0a152f" fill-opacity="1"><g transform="translate(23.68499, 60.13201)"><g><path d="M 2.515625 -6.890625 C 2.753906 -7.359375 3.097656 -7.722656 3.546875 -7.984375 C 3.992188 -8.242188 4.535156 -8.375 5.171875 -8.375 L 5.171875 -6.953125 L 4.8125 -6.953125 C 3.28125 -6.953125 2.515625 -6.125 2.515625 -4.46875 L 2.515625 0 L 1.15625 0 L 1.15625 -8.21875 L 2.515625 -8.21875 Z M 2.515625 -6.890625 "/></g></g></g><g fill="#0a152f" fill-opacity="1"><g transform="translate(29.279983, 60.13201)"><g><path d="M 4.734375 0.140625 C 3.960938 0.140625 3.265625 -0.0351562 2.640625 -0.390625 C 2.015625 -0.742188 1.523438 -1.238281 1.171875 -1.875 C 0.816406 -2.519531 0.640625 -3.269531 0.640625 -4.125 C 0.640625 -4.96875 0.820312 -5.707031 1.1875 -6.34375 C 1.550781 -6.988281 2.046875 -7.484375 2.671875 -7.828125 C 3.304688 -8.179688 4.015625 -8.359375 4.796875 -8.359375 C 5.578125 -8.359375 6.28125 -8.179688 6.90625 -7.828125 C 7.539062 -7.484375 8.039062 -6.992188 8.40625 -6.359375 C 8.769531 -5.722656 8.953125 -4.976562 8.953125 -4.125 C 8.953125 -3.269531 8.765625 -2.519531 8.390625 -1.875 C 8.015625 -1.238281 7.503906 -0.742188 6.859375 -0.390625 C 6.222656 -0.0351562 5.515625 0.140625 4.734375 0.140625 Z M 4.734375 -1.0625 C 5.222656 -1.0625 5.679688 -1.175781 6.109375 -1.40625 C 6.546875 -1.632812 6.894531 -1.976562 7.15625 -2.4375 C 7.425781 -2.90625 7.5625 -3.46875 7.5625 -4.125 C 7.5625 -4.78125 7.429688 -5.335938 7.171875 -5.796875 C 6.910156 -6.265625 6.566406 -6.609375 6.140625 -6.828125 C 5.722656 -7.054688 5.269531 -7.171875 4.78125 -7.171875 C 4.28125 -7.171875 3.820312 -7.054688 3.40625 -6.828125 C 3 -6.609375 2.671875 -6.265625 2.421875 -5.796875 C 2.171875 -5.335938 2.046875 -4.78125 2.046875 -4.125 C 2.046875 -3.457031 2.164062 -2.890625 2.40625 -2.421875 C 2.65625 -1.960938 2.984375 -1.617188 3.390625 -1.390625 C 3.796875 -1.171875 4.242188 -1.0625 4.734375 -1.0625 Z M 4.734375 -1.0625 "/></g></g></g><g fill="#0a152f" fill-opacity="1"><g transform="translate(38.879973, 60.13201)"><g><path d="M 0.640625 -4.140625 C 0.640625 -4.984375 0.8125 -5.722656 1.15625 -6.359375 C 1.5 -6.992188 1.96875 -7.484375 2.5625 -7.828125 C 3.15625 -8.179688 3.820312 -8.359375 4.5625 -8.359375 C 5.195312 -8.359375 5.789062 -8.207031 6.34375 -7.90625 C 6.894531 -7.613281 7.316406 -7.226562 7.609375 -6.75 L 7.609375 -11.09375 L 8.984375 -11.09375 L 8.984375 0 L 7.609375 0 L 7.609375 -1.546875 C 7.335938 -1.054688 6.9375 -0.648438 6.40625 -0.328125 C 5.875 -0.015625 5.253906 0.140625 4.546875 0.140625 C 3.816406 0.140625 3.15625 -0.0351562 2.5625 -0.390625 C 1.96875 -0.753906 1.5 -1.257812 1.15625 -1.90625 C 0.8125 -2.5625 0.640625 -3.304688 0.640625 -4.140625 Z M 7.609375 -4.125 C 7.609375 -4.75 7.484375 -5.289062 7.234375 -5.75 C 6.984375 -6.207031 6.644531 -6.554688 6.21875 -6.796875 C 5.789062 -7.046875 5.320312 -7.171875 4.8125 -7.171875 C 4.300781 -7.171875 3.835938 -7.050781 3.421875 -6.8125 C 3.003906 -6.570312 2.671875 -6.21875 2.421875 -5.75 C 2.171875 -5.289062 2.046875 -4.753906 2.046875 -4.140625 C 2.046875 -3.503906 2.171875 -2.953125 2.421875 -2.484375 C 2.671875 -2.023438 3.003906 -1.671875 3.421875 -1.421875 C 3.835938 -1.179688 4.300781 -1.0625 4.8125 -1.0625 C 5.320312 -1.0625 5.789062 -1.179688 6.21875 -1.421875 C 6.644531 -1.671875 6.984375 -2.023438 7.234375 -2.484375 C 7.484375 -2.953125 7.609375 -3.5 7.609375 -4.125 Z M 7.609375 -4.125 "/></g></g></g><g fill="#0a152f" fill-opacity="1"><g transform="translate(49.019965, 60.13201)"><g><path d="M 8.4375 -8.21875 L 8.4375 0 L 7.078125 0 L 7.078125 -1.21875 C 6.816406 -0.789062 6.453125 -0.457031 5.984375 -0.21875 C 5.523438 0.0078125 5.015625 0.125 4.453125 0.125 C 3.816406 0.125 3.242188 -0.00390625 2.734375 -0.265625 C 2.222656 -0.535156 1.816406 -0.9375 1.515625 -1.46875 C 1.222656 -2 1.078125 -2.644531 1.078125 -3.40625 L 1.078125 -8.21875 L 2.4375 -8.21875 L 2.4375 -3.578125 C 2.4375 -2.773438 2.640625 -2.15625 3.046875 -1.71875 C 3.453125 -1.28125 4.007812 -1.0625 4.71875 -1.0625 C 5.445312 -1.0625 6.019531 -1.285156 6.4375 -1.734375 C 6.863281 -2.191406 7.078125 -2.847656 7.078125 -3.703125 L 7.078125 -8.21875 Z M 8.4375 -8.21875 "/></g></g></g><g fill="#0a152f" fill-opacity="1"><g transform="translate(58.619955, 60.13201)"><g><path d="M 2.8125 -7.09375 L 2.8125 -2.25 C 2.8125 -1.851562 2.894531 -1.570312 3.0625 -1.40625 C 3.238281 -1.238281 3.535156 -1.15625 3.953125 -1.15625 L 4.96875 -1.15625 L 4.96875 0 L 3.734375 0 C 2.972656 0 2.398438 -0.171875 2.015625 -0.515625 C 1.640625 -0.867188 1.453125 -1.445312 1.453125 -2.25 L 1.453125 -7.09375 L 0.390625 -7.09375 L 0.390625 -8.21875 L 1.453125 -8.21875 L 1.453125 -10.296875 L 2.8125 -10.296875 L 2.8125 -8.21875 L 4.96875 -8.21875 L 4.96875 -7.09375 Z M 2.8125 -7.09375 "/></g></g></g><g fill="#0a152f" fill-opacity="1"><g transform="translate(64.079954, 60.13201)"><g><path d="M 4.734375 0.140625 C 3.960938 0.140625 3.265625 -0.0351562 2.640625 -0.390625 C 2.015625 -0.742188 1.523438 -1.238281 1.171875 -1.875 C 0.816406 -2.519531 0.640625 -3.269531 0.640625 -4.125 C 0.640625 -4.96875 0.820312 -5.707031 1.1875 -6.34375 C 1.550781 -6.988281 2.046875 -7.484375 2.671875 -7.828125 C 3.304688 -8.179688 4.015625 -8.359375 4.796875 -8.359375 C 5.578125 -8.359375 6.28125 -8.179688 6.90625 -7.828125 C 7.539062 -7.484375 8.039062 -6.992188 8.40625 -6.359375 C 8.769531 -5.722656 8.953125 -4.976562 8.953125 -4.125 C 8.953125 -3.269531 8.765625 -2.519531 8.390625 -1.875 C 8.015625 -1.238281 7.503906 -0.742188 6.859375 -0.390625 C 6.222656 -0.0351562 5.515625 0.140625 4.734375 0.140625 Z M 4.734375 -1.0625 C 5.222656 -1.0625 5.679688 -1.175781 6.109375 -1.40625 C 6.546875 -1.632812 6.894531 -1.976562 7.15625 -2.4375 C 7.425781 -2.90625 7.5625 -3.46875 7.5625 -4.125 C 7.5625 -4.78125 7.429688 -5.335938 7.171875 -5.796875 C 6.910156 -6.265625 6.566406 -6.609375 6.140625 -6.828125 C 5.722656 -7.054688 5.269531 -7.171875 4.78125 -7.171875 C 4.28125 -7.171875 3.820312 -7.054688 3.40625 -6.828125 C 3 -6.609375 2.671875 -6.265625 2.421875 -5.796875 C 2.171875 -5.335938 2.046875 -4.78125 2.046875 -4.125 C 2.046875 -3.457031 2.164062 -2.890625 2.40625 -2.421875 C 2.65625 -1.960938 2.984375 -1.617188 3.390625 -1.390625 C 3.796875 -1.171875 4.242188 -1.0625 4.734375 -1.0625 Z M 4.734375 -1.0625 "/></g></g></g><g fill="#0a152f" fill-opacity="1"><g transform="translate(15, 78.132009)"><g><path d="M 2.515625 -10.453125 L 2.515625 0 L 1.15625 0 L 1.15625 -10.453125 Z M 2.515625 -10.453125 "/></g></g></g><g fill="#0a152f" fill-opacity="1"><g transform="translate(18.689999, 78.132009)"><g><path d="M 5.15625 -8.375 C 6.15625 -8.375 6.960938 -8.070312 7.578125 -7.46875 C 8.203125 -6.863281 8.515625 -5.988281 8.515625 -4.84375 L 8.515625 0 L 7.171875 0 L 7.171875 -4.65625 C 7.171875 -5.46875 6.960938 -6.09375 6.546875 -6.53125 C 6.140625 -6.96875 5.582031 -7.1875 4.875 -7.1875 C 4.15625 -7.1875 3.582031 -6.957031 3.15625 -6.5 C 2.726562 -6.050781 2.515625 -5.398438 2.515625 -4.546875 L 2.515625 0 L 1.15625 0 L 1.15625 -8.21875 L 2.515625 -8.21875 L 2.515625 -7.046875 C 2.785156 -7.472656 3.148438 -7.800781 3.609375 -8.03125 C 4.078125 -8.257812 4.59375 -8.375 5.15625 -8.375 Z M 5.15625 -8.375 "/></g></g></g><g fill="#0a152f" fill-opacity="1"><g transform="translate(28.289989, 78.132009)"><g><path d="M 2.8125 -7.09375 L 2.8125 -2.25 C 2.8125 -1.851562 2.894531 -1.570312 3.0625 -1.40625 C 3.238281 -1.238281 3.535156 -1.15625 3.953125 -1.15625 L 4.96875 -1.15625 L 4.96875 0 L 3.734375 0 C 2.972656 0 2.398438 -0.171875 2.015625 -0.515625 C 1.640625 -0.867188 1.453125 -1.445312 1.453125 -2.25 L 1.453125 -7.09375 L 0.390625 -7.09375 L 0.390625 -8.21875 L 1.453125 -8.21875 L 1.453125 -10.296875 L 2.8125 -10.296875 L 2.8125 -8.21875 L 4.96875 -8.21875 L 4.96875 -7.09375 Z M 2.8125 -7.09375 "/></g></g></g><g fill="#0a152f" fill-opacity="1"><g transform="translate(33.749988, 78.132009)"><g><path d="M 8.65625 -4.421875 C 8.65625 -4.160156 8.640625 -3.882812 8.609375 -3.59375 L 2.046875 -3.59375 C 2.085938 -2.789062 2.359375 -2.160156 2.859375 -1.703125 C 3.367188 -1.242188 3.984375 -1.015625 4.703125 -1.015625 C 5.296875 -1.015625 5.789062 -1.148438 6.1875 -1.421875 C 6.582031 -1.703125 6.859375 -2.070312 7.015625 -2.53125 L 8.484375 -2.53125 C 8.265625 -1.738281 7.828125 -1.09375 7.171875 -0.59375 C 6.515625 -0.101562 5.691406 0.140625 4.703125 0.140625 C 3.929688 0.140625 3.234375 -0.0351562 2.609375 -0.390625 C 1.992188 -0.742188 1.507812 -1.238281 1.15625 -1.875 C 0.8125 -2.519531 0.640625 -3.269531 0.640625 -4.125 C 0.640625 -4.976562 0.8125 -5.722656 1.15625 -6.359375 C 1.5 -6.992188 1.976562 -7.484375 2.59375 -7.828125 C 3.207031 -8.179688 3.910156 -8.359375 4.703125 -8.359375 C 5.484375 -8.359375 6.175781 -8.1875 6.78125 -7.84375 C 7.382812 -7.5 7.847656 -7.03125 8.171875 -6.4375 C 8.492188 -5.84375 8.65625 -5.171875 8.65625 -4.421875 Z M 7.25 -4.703125 C 7.25 -5.222656 7.132812 -5.671875 6.90625 -6.046875 C 6.675781 -6.421875 6.363281 -6.707031 5.96875 -6.90625 C 5.570312 -7.101562 5.132812 -7.203125 4.65625 -7.203125 C 3.957031 -7.203125 3.363281 -6.976562 2.875 -6.53125 C 2.394531 -6.09375 2.125 -5.484375 2.0625 -4.703125 Z M 7.25 -4.703125 "/></g></g></g><g fill="#0a152f" fill-opacity="1"><g transform="translate(43.049983, 78.132009)"><g><path d="M 2.515625 -6.890625 C 2.753906 -7.359375 3.097656 -7.722656 3.546875 -7.984375 C 3.992188 -8.242188 4.535156 -8.375 5.171875 -8.375 L 5.171875 -6.953125 L 4.8125 -6.953125 C 3.28125 -6.953125 2.515625 -6.125 2.515625 -4.46875 L 2.515625 0 L 1.15625 0 L 1.15625 -8.21875 L 2.515625 -8.21875 Z M 2.515625 -6.890625 "/></g></g></g><g fill="#0a152f" fill-opacity="1"><g transform="translate(48.644976, 78.132009)"><g><path d="M 5.15625 -8.375 C 6.15625 -8.375 6.960938 -8.070312 7.578125 -7.46875 C 8.203125 -6.863281 8.515625 -5.988281 8.515625 -4.84375 L 8.515625 0 L 7.171875 0 L 7.171875 -4.65625 C 7.171875 -5.46875 6.960938 -6.09375 6.546875 -6.53125 C 6.140625 -6.96875 5.582031 -7.1875 4.875 -7.1875 C 4.15625 -7.1875 3.582031 -6.957031 3.15625 -6.5 C 2.726562 -6.050781 2.515625 -5.398438 2.515625 -4.546875 L 2.515625 0 L 1.15625 0 L 1.15625 -8.21875 L 2.515625 -8.21875 L 2.515625 -7.046875 C 2.785156 -7.472656 3.148438 -7.800781 3.609375 -8.03125 C 4.078125 -8.257812 4.59375 -8.375 5.15625 -8.375 Z M 5.15625 -8.375 "/></g></g></g><g fill="#0a152f" fill-opacity="1"><g transform="translate(58.244966, 78.132009)"><g><path d="M 4.734375 0.140625 C 3.960938 0.140625 3.265625 -0.0351562 2.640625 -0.390625 C 2.015625 -0.742188 1.523438 -1.238281 1.171875 -1.875 C 0.816406 -2.519531 0.640625 -3.269531 0.640625 -4.125 C 0.640625 -4.96875 0.820312 -5.707031 1.1875 -6.34375 C 1.550781 -6.988281 2.046875 -7.484375 2.671875 -7.828125 C 3.304688 -8.179688 4.015625 -8.359375 4.796875 -8.359375 C 5.578125 -8.359375 6.28125 -8.179688 6.90625 -7.828125 C 7.539062 -7.484375 8.039062 -6.992188 8.40625 -6.359375 C 8.769531 -5.722656 8.953125 -4.976562 8.953125 -4.125 C 8.953125 -3.269531 8.765625 -2.519531 8.390625 -1.875 C 8.015625 -1.238281 7.503906 -0.742188 6.859375 -0.390625 C 6.222656 -0.0351562 5.515625 0.140625 4.734375 0.140625 Z M 4.734375 -1.0625 C 5.222656 -1.0625 5.679688 -1.175781 6.109375 -1.40625 C 6.546875 -1.632812 6.894531 -1.976562 7.15625 -2.4375 C 7.425781 -2.90625 7.5625 -3.46875 7.5625 -4.125 C 7.5625 -4.78125 7.429688 -5.335938 7.171875 -5.796875 C 6.910156 -6.265625 6.566406 -6.609375 6.140625 -6.828125 C 5.722656 -7.054688 5.269531 -7.171875 4.78125 -7.171875 C 4.28125 -7.171875 3.820312 -7.054688 3.40625 -6.828125 C 3 -6.609375 2.671875 -6.265625 2.421875 -5.796875 C 2.171875 -5.335938 2.046875 -4.78125 2.046875 -4.125 C 2.046875 -3.457031 2.164062 -2.890625 2.40625 -2.421875 C 2.65625 -1.960938 2.984375 -1.617188 3.390625 -1.390625 C 3.796875 -1.171875 4.242188 -1.0625 4.734375 -1.0625 Z M 4.734375 -1.0625 "/></g></g></g><g fill="#0a152f" fill-opacity="1"><g transform="translate(67.844957, 78.132009)"><g/></g></g><g fill="#0a152f" fill-opacity="1"><g transform="translate(71.849954, 78.132009)"><g><path d="M 6.390625 -5.390625 C 6.765625 -5.328125 7.109375 -5.171875 7.421875 -4.921875 C 7.742188 -4.671875 7.992188 -4.359375 8.171875 -3.984375 C 8.359375 -3.617188 8.453125 -3.226562 8.453125 -2.8125 C 8.453125 -2.28125 8.316406 -1.800781 8.046875 -1.375 C 7.785156 -0.945312 7.394531 -0.609375 6.875 -0.359375 C 6.363281 -0.117188 5.757812 0 5.0625 0 L 1.15625 0 L 1.15625 -10.453125 L 4.90625 -10.453125 C 5.613281 -10.453125 6.21875 -10.332031 6.71875 -10.09375 C 7.21875 -9.863281 7.59375 -9.546875 7.84375 -9.140625 C 8.09375 -8.742188 8.21875 -8.296875 8.21875 -7.796875 C 8.21875 -7.179688 8.050781 -6.671875 7.71875 -6.265625 C 7.382812 -5.859375 6.941406 -5.566406 6.390625 -5.390625 Z M 2.515625 -5.9375 L 4.8125 -5.9375 C 5.457031 -5.9375 5.953125 -6.085938 6.296875 -6.390625 C 6.648438 -6.691406 6.828125 -7.109375 6.828125 -7.640625 C 6.828125 -8.171875 6.648438 -8.582031 6.296875 -8.875 C 5.953125 -9.175781 5.445312 -9.328125 4.78125 -9.328125 L 2.515625 -9.328125 Z M 4.9375 -1.125 C 5.613281 -1.125 6.140625 -1.28125 6.515625 -1.59375 C 6.898438 -1.914062 7.09375 -2.363281 7.09375 -2.9375 C 7.09375 -3.519531 6.890625 -3.976562 6.484375 -4.3125 C 6.085938 -4.644531 5.554688 -4.8125 4.890625 -4.8125 L 2.515625 -4.8125 L 2.515625 -1.125 Z M 4.9375 -1.125 "/></g></g></g><g fill="#0a152f" fill-opacity="1"><g transform="translate(81.044949, 78.132009)"><g><path d="M 2.515625 -6.890625 C 2.753906 -7.359375 3.097656 -7.722656 3.546875 -7.984375 C 3.992188 -8.242188 4.535156 -8.375 5.171875 -8.375 L 5.171875 -6.953125 L 4.8125 -6.953125 C 3.28125 -6.953125 2.515625 -6.125 2.515625 -4.46875 L 2.515625 0 L 1.15625 0 L 1.15625 -8.21875 L 2.515625 -8.21875 Z M 2.515625 -6.890625 "/></g></g></g><g fill="#0a152f" fill-opacity="1"><g transform="translate(86.639942, 78.132009)"><g><path d="M 8.4375 -8.21875 L 8.4375 0 L 7.078125 0 L 7.078125 -1.21875 C 6.816406 -0.789062 6.453125 -0.457031 5.984375 -0.21875 C 5.523438 0.0078125 5.015625 0.125 4.453125 0.125 C 3.816406 0.125 3.242188 -0.00390625 2.734375 -0.265625 C 2.222656 -0.535156 1.816406 -0.9375 1.515625 -1.46875 C 1.222656 -2 1.078125 -2.644531 1.078125 -3.40625 L 1.078125 -8.21875 L 2.4375 -8.21875 L 2.4375 -3.578125 C 2.4375 -2.773438 2.640625 -2.15625 3.046875 -1.71875 C 3.453125 -1.28125 4.007812 -1.0625 4.71875 -1.0625 C 5.445312 -1.0625 6.019531 -1.285156 6.4375 -1.734375 C 6.863281 -2.191406 7.078125 -2.847656 7.078125 -3.703125 L 7.078125 -8.21875 Z M 8.4375 -8.21875 "/></g></g></g><g fill="#0a152f" fill-opacity="1"><g transform="translate(96.239933, 78.132009)"><g><path d="M 2.8125 -7.09375 L 2.8125 -2.25 C 2.8125 -1.851562 2.894531 -1.570312 3.0625 -1.40625 C 3.238281 -1.238281 3.535156 -1.15625 3.953125 -1.15625 L 4.96875 -1.15625 L 4.96875 0 L 3.734375 0 C 2.972656 0 2.398438 -0.171875 2.015625 -0.515625 C 1.640625 -0.867188 1.453125 -1.445312 1.453125 -2.25 L 1.453125 -7.09375 L 0.390625 -7.09375 L 0.390625 -8.21875 L 1.453125 -8.21875 L 1.453125 -10.296875 L 2.8125 -10.296875 L 2.8125 -8.21875 L 4.96875 -8.21875 L 4.96875 -7.09375 Z M 2.8125 -7.09375 "/></g></g></g><g fill="#0a152f" fill-opacity="1"><g transform="translate(101.699931, 78.132009)"><g><path d="M 4.734375 0.140625 C 3.960938 0.140625 3.265625 -0.0351562 2.640625 -0.390625 C 2.015625 -0.742188 1.523438 -1.238281 1.171875 -1.875 C 0.816406 -2.519531 0.640625 -3.269531 0.640625 -4.125 C 0.640625 -4.96875 0.820312 -5.707031 1.1875 -6.34375 C 1.550781 -6.988281 2.046875 -7.484375 2.671875 -7.828125 C 3.304688 -8.179688 4.015625 -8.359375 4.796875 -8.359375 C 5.578125 -8.359375 6.28125 -8.179688 6.90625 -7.828125 C 7.539062 -7.484375 8.039062 -6.992188 8.40625 -6.359375 C 8.769531 -5.722656 8.953125 -4.976562 8.953125 -4.125 C 8.953125 -3.269531 8.765625 -2.519531 8.390625 -1.875 C 8.015625 -1.238281 7.503906 -0.742188 6.859375 -0.390625 C 6.222656 -0.0351562 5.515625 0.140625 4.734375 0.140625 Z M 4.734375 -1.0625 C 5.222656 -1.0625 5.679688 -1.175781 6.109375 -1.40625 C 6.546875 -1.632812 6.894531 -1.976562 7.15625 -2.4375 C 7.425781 -2.90625 7.5625 -3.46875 7.5625 -4.125 C 7.5625 -4.78125 7.429688 -5.335938 7.171875 -5.796875 C 6.910156 -6.265625 6.566406 -6.609375 6.140625 -6.828125 C 5.722656 -7.054688 5.269531 -7.171875 4.78125 -7.171875 C 4.28125 -7.171875 3.820312 -7.054688 3.40625 -6.828125 C 3 -6.609375 2.671875 -6.265625 2.421875 -5.796875 C 2.171875 -5.335938 2.046875 -4.78125 2.046875 -4.125 C 2.046875 -3.457031 2.164062 -2.890625 2.40625 -2.421875 C 2.65625 -1.960938 2.984375 -1.617188 3.390625 -1.390625 C 3.796875 -1.171875 4.242188 -1.0625 4.734375 -1.0625 Z M 4.734375 -1.0625 "/></g></g></g><g fill="#0a152f" fill-opacity="1"><g transform="translate(115.709434, 102.929062)"><g><path d="M 1.671875 -2.484375 L 1.671875 -2.21875 L 0.59375 -2.21875 L 0.59375 -1.375 L 1.46875 -1.375 L 1.46875 -1.125 L 0.59375 -1.125 L 0.59375 0 L 0.28125 0 L 0.28125 -2.484375 Z M 1.671875 -2.484375 "/></g></g></g><g fill="#0a152f" fill-opacity="1"><g transform="translate(117.507089, 102.929062)"><g><path d="M 1.125 0.03125 C 0.9375 0.03125 0.769531 -0.0078125 0.625 -0.09375 C 0.476562 -0.175781 0.363281 -0.289062 0.28125 -0.4375 C 0.195312 -0.59375 0.15625 -0.773438 0.15625 -0.984375 C 0.15625 -1.179688 0.195312 -1.351562 0.28125 -1.5 C 0.363281 -1.65625 0.476562 -1.773438 0.625 -1.859375 C 0.78125 -1.941406 0.953125 -1.984375 1.140625 -1.984375 C 1.328125 -1.984375 1.492188 -1.941406 1.640625 -1.859375 C 1.785156 -1.773438 1.898438 -1.65625 1.984375 -1.5 C 2.078125 -1.351562 2.125 -1.179688 2.125 -0.984375 C 2.125 -0.773438 2.078125 -0.59375 1.984375 -0.4375 C 1.898438 -0.289062 1.78125 -0.175781 1.625 -0.09375 C 1.476562 -0.0078125 1.3125 0.03125 1.125 0.03125 Z M 1.125 -0.25 C 1.238281 -0.25 1.347656 -0.273438 1.453125 -0.328125 C 1.554688 -0.390625 1.640625 -0.472656 1.703125 -0.578125 C 1.765625 -0.691406 1.796875 -0.828125 1.796875 -0.984375 C 1.796875 -1.140625 1.765625 -1.269531 1.703125 -1.375 C 1.640625 -1.488281 1.554688 -1.570312 1.453125 -1.625 C 1.359375 -1.675781 1.253906 -1.703125 1.140625 -1.703125 C 1.015625 -1.703125 0.898438 -1.675781 0.796875 -1.625 C 0.703125 -1.570312 0.625 -1.488281 0.5625 -1.375 C 0.507812 -1.269531 0.484375 -1.140625 0.484375 -0.984375 C 0.484375 -0.816406 0.507812 -0.675781 0.5625 -0.5625 C 0.625 -0.457031 0.703125 -0.378906 0.796875 -0.328125 C 0.898438 -0.273438 1.007812 -0.25 1.125 -0.25 Z M 1.125 -0.25 "/></g></g></g><g fill="#0a152f" fill-opacity="1"><g transform="translate(119.789823, 102.929062)"><g><path d="M 1.21875 -1.984375 C 1.457031 -1.984375 1.648438 -1.910156 1.796875 -1.765625 C 1.953125 -1.628906 2.03125 -1.425781 2.03125 -1.15625 L 2.03125 0 L 1.703125 0 L 1.703125 -1.109375 C 1.703125 -1.296875 1.648438 -1.441406 1.546875 -1.546875 C 1.453125 -1.648438 1.320312 -1.703125 1.15625 -1.703125 C 0.988281 -1.703125 0.851562 -1.648438 0.75 -1.546875 C 0.644531 -1.441406 0.59375 -1.285156 0.59375 -1.078125 L 0.59375 0 L 0.28125 0 L 0.28125 -1.953125 L 0.59375 -1.953125 L 0.59375 -1.671875 C 0.65625 -1.773438 0.742188 -1.851562 0.859375 -1.90625 C 0.972656 -1.957031 1.09375 -1.984375 1.21875 -1.984375 Z M 1.21875 -1.984375 "/></g></g></g><g fill="#0a152f" fill-opacity="1"><g transform="translate(122.072557, 102.929062)"><g><path d="M 0.671875 -1.6875 L 0.671875 -0.53125 C 0.671875 -0.4375 0.691406 -0.367188 0.734375 -0.328125 C 0.773438 -0.296875 0.84375 -0.28125 0.9375 -0.28125 L 1.171875 -0.28125 L 1.171875 0 L 0.890625 0 C 0.703125 0 0.5625 -0.0390625 0.46875 -0.125 C 0.382812 -0.207031 0.34375 -0.34375 0.34375 -0.53125 L 0.34375 -1.6875 L 0.09375 -1.6875 L 0.09375 -1.953125 L 0.34375 -1.953125 L 0.34375 -2.4375 L 0.671875 -2.4375 L 0.671875 -1.953125 L 1.171875 -1.953125 L 1.171875 -1.6875 Z M 0.671875 -1.6875 "/></g></g></g><g fill="#0a152f" fill-opacity="1"><g transform="translate(123.37086, 102.929062)"><g><path d="M 2.0625 -1.046875 C 2.0625 -0.984375 2.054688 -0.921875 2.046875 -0.859375 L 0.484375 -0.859375 C 0.492188 -0.660156 0.554688 -0.507812 0.671875 -0.40625 C 0.796875 -0.300781 0.945312 -0.25 1.125 -0.25 C 1.257812 -0.25 1.375 -0.28125 1.46875 -0.34375 C 1.5625 -0.40625 1.628906 -0.492188 1.671875 -0.609375 L 2.015625 -0.609375 C 1.960938 -0.421875 1.859375 -0.265625 1.703125 -0.140625 C 1.546875 -0.0234375 1.351562 0.03125 1.125 0.03125 C 0.9375 0.03125 0.769531 -0.0078125 0.625 -0.09375 C 0.476562 -0.175781 0.363281 -0.289062 0.28125 -0.4375 C 0.195312 -0.59375 0.15625 -0.773438 0.15625 -0.984375 C 0.15625 -1.179688 0.191406 -1.351562 0.265625 -1.5 C 0.347656 -1.65625 0.460938 -1.773438 0.609375 -1.859375 C 0.753906 -1.941406 0.925781 -1.984375 1.125 -1.984375 C 1.300781 -1.984375 1.460938 -1.941406 1.609375 -1.859375 C 1.753906 -1.773438 1.863281 -1.660156 1.9375 -1.515625 C 2.019531 -1.378906 2.0625 -1.222656 2.0625 -1.046875 Z M 1.71875 -1.125 C 1.71875 -1.238281 1.691406 -1.34375 1.640625 -1.4375 C 1.585938 -1.53125 1.515625 -1.597656 1.421875 -1.640625 C 1.328125 -1.679688 1.222656 -1.703125 1.109375 -1.703125 C 0.941406 -1.703125 0.800781 -1.648438 0.6875 -1.546875 C 0.570312 -1.441406 0.503906 -1.300781 0.484375 -1.125 Z M 1.71875 -1.125 "/></g></g></g><g fill="#0a152f" fill-opacity="1"><g transform="translate(125.582258, 102.929062)"><g><path d="M 0.375 0.015625 C 0.3125 0.015625 0.257812 -0.00390625 0.21875 -0.046875 C 0.175781 -0.0859375 0.15625 -0.140625 0.15625 -0.203125 C 0.15625 -0.265625 0.175781 -0.316406 0.21875 -0.359375 C 0.257812 -0.398438 0.3125 -0.421875 0.375 -0.421875 C 0.4375 -0.421875 0.488281 -0.398438 0.53125 -0.359375 C 0.570312 -0.316406 0.59375 -0.265625 0.59375 -0.203125 C 0.59375 -0.140625 0.570312 -0.0859375 0.53125 -0.046875 C 0.488281 -0.00390625 0.4375 0.015625 0.375 0.015625 Z M 0.375 -1.515625 C 0.3125 -1.515625 0.257812 -1.535156 0.21875 -1.578125 C 0.175781 -1.617188 0.15625 -1.671875 0.15625 -1.734375 C 0.15625 -1.796875 0.175781 -1.847656 0.21875 -1.890625 C 0.257812 -1.929688 0.3125 -1.953125 0.375 -1.953125 C 0.4375 -1.953125 0.488281 -1.929688 0.53125 -1.890625 C 0.570312 -1.847656 0.59375 -1.796875 0.59375 -1.734375 C 0.59375 -1.671875 0.570312 -1.617188 0.53125 -1.578125 C 0.488281 -1.535156 0.4375 -1.515625 0.375 -1.515625 Z M 0.375 -1.515625 "/></g></g></g><g fill="#0a152f" fill-opacity="1"><g transform="translate(126.341979, 102.929062)"><g/></g></g><g fill="#0a152f" fill-opacity="1"><g transform="translate(127.294308, 102.929062)"><g><path d="M 0.59375 -2.484375 L 0.59375 0 L 0.28125 0 L 0.28125 -2.484375 Z M 0.59375 -2.484375 "/></g></g></g><g fill="#0a152f" fill-opacity="1"><g transform="translate(128.171736, 102.929062)"><g><path d="M 1.515625 -1.28125 C 1.609375 -1.257812 1.691406 -1.21875 1.765625 -1.15625 C 1.835938 -1.101562 1.894531 -1.03125 1.9375 -0.9375 C 1.988281 -0.851562 2.015625 -0.765625 2.015625 -0.671875 C 2.015625 -0.546875 1.976562 -0.429688 1.90625 -0.328125 C 1.84375 -0.222656 1.75 -0.140625 1.625 -0.078125 C 1.507812 -0.0234375 1.367188 0 1.203125 0 L 0.28125 0 L 0.28125 -2.484375 L 1.171875 -2.484375 C 1.335938 -2.484375 1.476562 -2.453125 1.59375 -2.390625 C 1.71875 -2.335938 1.804688 -2.265625 1.859375 -2.171875 C 1.921875 -2.078125 1.953125 -1.972656 1.953125 -1.859375 C 1.953125 -1.703125 1.910156 -1.578125 1.828125 -1.484375 C 1.753906 -1.390625 1.648438 -1.320312 1.515625 -1.28125 Z M 0.59375 -1.40625 L 1.140625 -1.40625 C 1.296875 -1.40625 1.414062 -1.441406 1.5 -1.515625 C 1.582031 -1.585938 1.625 -1.6875 1.625 -1.8125 C 1.625 -1.9375 1.582031 -2.035156 1.5 -2.109375 C 1.414062 -2.179688 1.296875 -2.21875 1.140625 -2.21875 L 0.59375 -2.21875 Z M 1.171875 -0.265625 C 1.335938 -0.265625 1.460938 -0.300781 1.546875 -0.375 C 1.640625 -0.457031 1.6875 -0.566406 1.6875 -0.703125 C 1.6875 -0.835938 1.640625 -0.941406 1.546875 -1.015625 C 1.453125 -1.097656 1.320312 -1.140625 1.15625 -1.140625 L 0.59375 -1.140625 L 0.59375 -0.265625 Z M 1.171875 -0.265625 "/></g></g></g><g fill="#0a152f" fill-opacity="1"><g transform="translate(130.358166, 102.929062)"><g><path d="M 2.15625 -1.765625 C 2.082031 -1.910156 1.976562 -2.019531 1.84375 -2.09375 C 1.71875 -2.175781 1.570312 -2.21875 1.40625 -2.21875 C 1.226562 -2.21875 1.066406 -2.175781 0.921875 -2.09375 C 0.785156 -2.019531 0.675781 -1.90625 0.59375 -1.75 C 0.519531 -1.601562 0.484375 -1.4375 0.484375 -1.25 C 0.484375 -1.050781 0.519531 -0.878906 0.59375 -0.734375 C 0.675781 -0.585938 0.785156 -0.472656 0.921875 -0.390625 C 1.066406 -0.304688 1.226562 -0.265625 1.40625 -0.265625 C 1.644531 -0.265625 1.84375 -0.335938 2 -0.484375 C 2.15625 -0.628906 2.242188 -0.828125 2.265625 -1.078125 L 1.28125 -1.078125 L 1.28125 -1.34375 L 2.625 -1.34375 L 2.625 -1.09375 C 2.601562 -0.882812 2.535156 -0.695312 2.421875 -0.53125 C 2.316406 -0.363281 2.175781 -0.226562 2 -0.125 C 1.820312 -0.03125 1.625 0.015625 1.40625 0.015625 C 1.164062 0.015625 0.953125 -0.0351562 0.765625 -0.140625 C 0.578125 -0.242188 0.425781 -0.390625 0.3125 -0.578125 C 0.207031 -0.773438 0.15625 -1 0.15625 -1.25 C 0.15625 -1.488281 0.207031 -1.703125 0.3125 -1.890625 C 0.425781 -2.085938 0.578125 -2.238281 0.765625 -2.34375 C 0.953125 -2.457031 1.164062 -2.515625 1.40625 -2.515625 C 1.664062 -2.515625 1.894531 -2.445312 2.09375 -2.3125 C 2.300781 -2.1875 2.453125 -2.003906 2.546875 -1.765625 Z M 2.15625 -1.765625 "/></g></g></g><g fill="#0a152f" fill-opacity="1"><g transform="translate(133.133112, 102.929062)"><g><path d="M 0.59375 -2.21875 L 0.59375 -1.390625 L 1.5 -1.390625 L 1.5 -1.125 L 0.59375 -1.125 L 0.59375 -0.265625 L 1.609375 -0.265625 L 1.609375 0 L 0.28125 0 L 0.28125 -2.484375 L 1.609375 -2.484375 L 1.609375 -2.21875 Z M 0.59375 -2.21875 "/></g></g></g></svg>