<svg xmlns="http://www.w3.org/2000/svg" xmlns:xlink="http://www.w3.org/1999/xlink" width="200" zoomAndPan="magnify" viewBox="0 0 150 149.999998" height="200" preserveAspectRatio="xMidYMid meet" version="1.0"><defs><g/></defs><rect x="-15" width="180" fill="#ffffff" y="-15" height="179.999997" fill-opacity="1"/><rect x="-15" width="180" fill="#ffffff" y="-15" height="179.999997" fill-opacity="1"/><path stroke-linecap="butt" transform="matrix(0.75, 0, 0, 0.75, 0.00000125, 94.630074)" fill="none" stroke-linejoin="miter" d="M -0.00000166667 0.498443 L 180.088551 0.498443 " stroke="#0a152f" stroke-width="1" stroke-opacity="1" stroke-miterlimit="4"/><g fill="#0a152f" fill-opacity="1"><g transform="translate(15.067368, 60.803847)"><g><path d="M 7.765625 -10.6875 L 7.765625 -9.5625 L 4.84375 -9.5625 L 4.84375 0 L 3.453125 0 L 3.453125 -9.5625 L 0.515625 -9.5625 L 0.515625 -10.6875 Z M 7.765625 -10.6875 "/></g></g></g><g fill="#0a152f" fill-opacity="1"><g transform="translate(23.366256, 60.803847)"><g><path d="M 0.65625 -4.234375 C 0.65625 -5.097656 0.828125 -5.851562 1.171875 -6.5 C 1.523438 -7.144531 2.003906 -7.644531 2.609375 -8 C 3.222656 -8.363281 3.90625 -8.546875 4.65625 -8.546875 C 5.382812 -8.546875 6.019531 -8.382812 6.5625 -8.0625 C 7.101562 -7.75 7.507812 -7.351562 7.78125 -6.875 L 7.78125 -8.40625 L 9.1875 -8.40625 L 9.1875 0 L 7.78125 0 L 7.78125 -1.5625 C 7.5 -1.070312 7.082031 -0.664062 6.53125 -0.34375 C 5.988281 -0.0195312 5.359375 0.140625 4.640625 0.140625 C 3.890625 0.140625 3.210938 -0.0390625 2.609375 -0.40625 C 2.003906 -0.78125 1.523438 -1.300781 1.171875 -1.96875 C 0.828125 -2.632812 0.65625 -3.390625 0.65625 -4.234375 Z M 7.78125 -4.21875 C 7.78125 -4.851562 7.648438 -5.40625 7.390625 -5.875 C 7.140625 -6.34375 6.796875 -6.703125 6.359375 -6.953125 C 5.921875 -7.203125 5.441406 -7.328125 4.921875 -7.328125 C 4.398438 -7.328125 3.925781 -7.203125 3.5 -6.953125 C 3.070312 -6.710938 2.726562 -6.359375 2.46875 -5.890625 C 2.21875 -5.421875 2.09375 -4.867188 2.09375 -4.234375 C 2.09375 -3.585938 2.21875 -3.023438 2.46875 -2.546875 C 2.726562 -2.078125 3.070312 -1.71875 3.5 -1.46875 C 3.925781 -1.21875 4.398438 -1.09375 4.921875 -1.09375 C 5.441406 -1.09375 5.921875 -1.21875 6.359375 -1.46875 C 6.796875 -1.71875 7.140625 -2.078125 7.390625 -2.546875 C 7.648438 -3.023438 7.78125 -3.582031 7.78125 -4.21875 Z M 7.78125 -4.21875 "/></g></g></g><g fill="#0a152f" fill-opacity="1"><g transform="translate(33.736033, 60.803847)"><g><path d="M 5.5625 0 L 3.578125 -3.125 L 1.65625 0 L 0.203125 0 L 2.921875 -4.171875 L 0.203125 -8.40625 L 1.78125 -8.40625 L 3.78125 -5.296875 L 5.671875 -8.40625 L 7.140625 -8.40625 L 4.4375 -4.25 L 7.15625 0 Z M 5.5625 0 "/></g></g></g><g fill="#0a152f" fill-opacity="1"><g transform="translate(41.083849, 60.803847)"><g><path d="M 0.65625 -4.234375 C 0.65625 -5.097656 0.828125 -5.851562 1.171875 -6.5 C 1.523438 -7.144531 2.003906 -7.644531 2.609375 -8 C 3.222656 -8.363281 3.90625 -8.546875 4.65625 -8.546875 C 5.382812 -8.546875 6.019531 -8.382812 6.5625 -8.0625 C 7.101562 -7.75 7.507812 -7.351562 7.78125 -6.875 L 7.78125 -8.40625 L 9.1875 -8.40625 L 9.1875 0 L 7.78125 0 L 7.78125 -1.5625 C 7.5 -1.070312 7.082031 -0.664062 6.53125 -0.34375 C 5.988281 -0.0195312 5.359375 0.140625 4.640625 0.140625 C 3.890625 0.140625 3.210938 -0.0390625 2.609375 -0.40625 C 2.003906 -0.78125 1.523438 -1.300781 1.171875 -1.96875 C 0.828125 -2.632812 0.65625 -3.390625 0.65625 -4.234375 Z M 7.78125 -4.21875 C 7.78125 -4.851562 7.648438 -5.40625 7.390625 -5.875 C 7.140625 -6.34375 6.796875 -6.703125 6.359375 -6.953125 C 5.921875 -7.203125 5.441406 -7.328125 4.921875 -7.328125 C 4.398438 -7.328125 3.925781 -7.203125 3.5 -6.953125 C 3.070312 -6.710938 2.726562 -6.359375 2.46875 -5.890625 C 2.21875 -5.421875 2.09375 -4.867188 2.09375 -4.234375 C 2.09375 -3.585938 2.21875 -3.023438 2.46875 -2.546875 C 2.726562 -2.078125 3.070312 -1.71875 3.5 -1.46875 C 3.925781 -1.21875 4.398438 -1.09375 4.921875 -1.09375 C 5.441406 -1.09375 5.921875 -1.21875 6.359375 -1.46875 C 6.796875 -1.71875 7.140625 -2.078125 7.390625 -2.546875 C 7.648438 -3.023438 7.78125 -3.582031 7.78125 -4.21875 Z M 7.78125 -4.21875 "/></g></g></g><g fill="#0a152f" fill-opacity="1"><g transform="translate(51.453626, 60.803847)"><g/></g></g><g fill="#0a152f" fill-opacity="1"><g transform="translate(55.549387, 60.803847)"><g><path d="M 0.65625 -4.234375 C 0.65625 -5.097656 0.828125 -5.851562 1.171875 -6.5 C 1.523438 -7.144531 2.003906 -7.644531 2.609375 -8 C 3.222656 -8.363281 3.910156 -8.546875 4.671875 -8.546875 C 5.316406 -8.546875 5.921875 -8.394531 6.484375 -8.09375 C 7.046875 -7.789062 7.476562 -7.394531 7.78125 -6.90625 L 7.78125 -11.359375 L 9.1875 -11.359375 L 9.1875 0 L 7.78125 0 L 7.78125 -1.578125 C 7.5 -1.078125 7.085938 -0.664062 6.546875 -0.34375 C 6.003906 -0.0195312 5.375 0.140625 4.65625 0.140625 C 3.90625 0.140625 3.222656 -0.0390625 2.609375 -0.40625 C 2.003906 -0.78125 1.523438 -1.300781 1.171875 -1.96875 C 0.828125 -2.632812 0.65625 -3.390625 0.65625 -4.234375 Z M 7.78125 -4.21875 C 7.78125 -4.851562 7.648438 -5.40625 7.390625 -5.875 C 7.140625 -6.34375 6.796875 -6.703125 6.359375 -6.953125 C 5.921875 -7.203125 5.441406 -7.328125 4.921875 -7.328125 C 4.398438 -7.328125 3.925781 -7.203125 3.5 -6.953125 C 3.070312 -6.710938 2.726562 -6.359375 2.46875 -5.890625 C 2.21875 -5.421875 2.09375 -4.867188 2.09375 -4.234375 C 2.09375 -3.585938 2.21875 -3.023438 2.46875 -2.546875 C 2.726562 -2.078125 3.070312 -1.71875 3.5 -1.46875 C 3.925781 -1.21875 4.398438 -1.09375 4.921875 -1.09375 C 5.441406 -1.09375 5.921875 -1.21875 6.359375 -1.46875 C 6.796875 -1.71875 7.140625 -2.078125 7.390625 -2.546875 C 7.648438 -3.023438 7.78125 -3.582031 7.78125 -4.21875 Z M 7.78125 -4.21875 "/></g></g></g><g fill="#0a152f" fill-opacity="1"><g transform="translate(65.919164, 60.803847)"><g><path d="M 8.859375 -4.53125 C 8.859375 -4.257812 8.84375 -3.976562 8.8125 -3.6875 L 2.09375 -3.6875 C 2.132812 -2.851562 2.414062 -2.203125 2.9375 -1.734375 C 3.457031 -1.273438 4.082031 -1.046875 4.8125 -1.046875 C 5.414062 -1.046875 5.921875 -1.1875 6.328125 -1.46875 C 6.734375 -1.75 7.019531 -2.125 7.1875 -2.59375 L 8.6875 -2.59375 C 8.457031 -1.78125 8.003906 -1.117188 7.328125 -0.609375 C 6.660156 -0.109375 5.820312 0.140625 4.8125 0.140625 C 4.019531 0.140625 3.304688 -0.0351562 2.671875 -0.390625 C 2.046875 -0.753906 1.550781 -1.265625 1.1875 -1.921875 C 0.832031 -2.585938 0.65625 -3.351562 0.65625 -4.21875 C 0.65625 -5.09375 0.828125 -5.851562 1.171875 -6.5 C 1.523438 -7.15625 2.015625 -7.660156 2.640625 -8.015625 C 3.273438 -8.367188 4 -8.546875 4.8125 -8.546875 C 5.613281 -8.546875 6.320312 -8.367188 6.9375 -8.015625 C 7.550781 -7.671875 8.023438 -7.191406 8.359375 -6.578125 C 8.691406 -5.972656 8.859375 -5.289062 8.859375 -4.53125 Z M 7.40625 -4.8125 C 7.40625 -5.34375 7.285156 -5.800781 7.046875 -6.1875 C 6.816406 -6.570312 6.5 -6.863281 6.09375 -7.0625 C 5.695312 -7.257812 5.25 -7.359375 4.75 -7.359375 C 4.050781 -7.359375 3.453125 -7.132812 2.953125 -6.6875 C 2.453125 -6.238281 2.171875 -5.613281 2.109375 -4.8125 Z M 7.40625 -4.8125 "/></g></g></g><g fill="#0a152f" fill-opacity="1"><g transform="translate(15.067368, 78.803846)"><g><path d="M 4.515625 -10.6875 C 5.679688 -10.6875 6.691406 -10.46875 7.546875 -10.03125 C 8.398438 -9.601562 9.050781 -8.984375 9.5 -8.171875 C 9.957031 -7.367188 10.1875 -6.421875 10.1875 -5.328125 C 10.1875 -4.234375 9.957031 -3.285156 9.5 -2.484375 C 9.050781 -1.679688 8.398438 -1.066406 7.546875 -0.640625 C 6.691406 -0.210938 5.679688 0 4.515625 0 L 1.1875 0 L 1.1875 -10.6875 Z M 4.515625 -1.15625 C 5.890625 -1.15625 6.941406 -1.519531 7.671875 -2.25 C 8.398438 -2.976562 8.765625 -4.003906 8.765625 -5.328125 C 8.765625 -6.648438 8.394531 -7.6875 7.65625 -8.4375 C 6.925781 -9.1875 5.878906 -9.5625 4.515625 -9.5625 L 2.578125 -9.5625 L 2.578125 -1.15625 Z M 4.515625 -1.15625 "/></g></g></g><g fill="#0a152f" fill-opacity="1"><g transform="translate(25.912681, 78.803846)"><g><path d="M 8.859375 -4.53125 C 8.859375 -4.257812 8.84375 -3.976562 8.8125 -3.6875 L 2.09375 -3.6875 C 2.132812 -2.851562 2.414062 -2.203125 2.9375 -1.734375 C 3.457031 -1.273438 4.082031 -1.046875 4.8125 -1.046875 C 5.414062 -1.046875 5.921875 -1.1875 6.328125 -1.46875 C 6.734375 -1.75 7.019531 -2.125 7.1875 -2.59375 L 8.6875 -2.59375 C 8.457031 -1.78125 8.003906 -1.117188 7.328125 -0.609375 C 6.660156 -0.109375 5.820312 0.140625 4.8125 0.140625 C 4.019531 0.140625 3.304688 -0.0351562 2.671875 -0.390625 C 2.046875 -0.753906 1.550781 -1.265625 1.1875 -1.921875 C 0.832031 -2.585938 0.65625 -3.351562 0.65625 -4.21875 C 0.65625 -5.09375 0.828125 -5.851562 1.171875 -6.5 C 1.523438 -7.15625 2.015625 -7.660156 2.640625 -8.015625 C 3.273438 -8.367188 4 -8.546875 4.8125 -8.546875 C 5.613281 -8.546875 6.320312 -8.367188 6.9375 -8.015625 C 7.550781 -7.671875 8.023438 -7.191406 8.359375 -6.578125 C 8.691406 -5.972656 8.859375 -5.289062 8.859375 -4.53125 Z M 7.40625 -4.8125 C 7.40625 -5.34375 7.285156 -5.800781 7.046875 -6.1875 C 6.816406 -6.570312 6.5 -6.863281 6.09375 -7.0625 C 5.695312 -7.257812 5.25 -7.359375 4.75 -7.359375 C 4.050781 -7.359375 3.453125 -7.132812 2.953125 -6.6875 C 2.453125 -6.238281 2.171875 -5.613281 2.109375 -4.8125 Z M 7.40625 -4.8125 "/></g></g></g><g fill="#0a152f" fill-opacity="1"><g transform="translate(35.42343, 78.803846)"><g><path d="M 4.15625 0.140625 C 3.507812 0.140625 2.929688 0.03125 2.421875 -0.1875 C 1.910156 -0.40625 1.503906 -0.710938 1.203125 -1.109375 C 0.910156 -1.503906 0.75 -1.957031 0.71875 -2.46875 L 2.15625 -2.46875 C 2.195312 -2.050781 2.394531 -1.707031 2.75 -1.4375 C 3.101562 -1.175781 3.566406 -1.046875 4.140625 -1.046875 C 4.671875 -1.046875 5.085938 -1.160156 5.390625 -1.390625 C 5.703125 -1.628906 5.859375 -1.925781 5.859375 -2.28125 C 5.859375 -2.65625 5.691406 -2.929688 5.359375 -3.109375 C 5.035156 -3.285156 4.53125 -3.460938 3.84375 -3.640625 C 3.226562 -3.796875 2.722656 -3.957031 2.328125 -4.125 C 1.929688 -4.300781 1.59375 -4.554688 1.3125 -4.890625 C 1.03125 -5.222656 0.890625 -5.660156 0.890625 -6.203125 C 0.890625 -6.628906 1.015625 -7.019531 1.265625 -7.375 C 1.523438 -7.738281 1.890625 -8.023438 2.359375 -8.234375 C 2.828125 -8.441406 3.363281 -8.546875 3.96875 -8.546875 C 4.90625 -8.546875 5.660156 -8.3125 6.234375 -7.84375 C 6.804688 -7.375 7.113281 -6.726562 7.15625 -5.90625 L 5.75 -5.90625 C 5.71875 -6.34375 5.539062 -6.691406 5.21875 -6.953125 C 4.894531 -7.222656 4.460938 -7.359375 3.921875 -7.359375 C 3.421875 -7.359375 3.019531 -7.25 2.71875 -7.03125 C 2.425781 -6.820312 2.28125 -6.546875 2.28125 -6.203125 C 2.28125 -5.921875 2.367188 -5.691406 2.546875 -5.515625 C 2.734375 -5.335938 2.960938 -5.191406 3.234375 -5.078125 C 3.503906 -4.972656 3.878906 -4.851562 4.359375 -4.71875 C 4.960938 -4.5625 5.453125 -4.398438 5.828125 -4.234375 C 6.203125 -4.078125 6.523438 -3.835938 6.796875 -3.515625 C 7.078125 -3.203125 7.222656 -2.789062 7.234375 -2.28125 C 7.234375 -1.820312 7.101562 -1.40625 6.84375 -1.03125 C 6.582031 -0.664062 6.21875 -0.378906 5.75 -0.171875 C 5.289062 0.0351562 4.757812 0.140625 4.15625 0.140625 Z M 4.15625 0.140625 "/></g></g></g><g fill="#0a152f" fill-opacity="1"><g transform="translate(43.430861, 78.803846)"><g><path d="M 8.859375 -4.53125 C 8.859375 -4.257812 8.84375 -3.976562 8.8125 -3.6875 L 2.09375 -3.6875 C 2.132812 -2.851562 2.414062 -2.203125 2.9375 -1.734375 C 3.457031 -1.273438 4.082031 -1.046875 4.8125 -1.046875 C 5.414062 -1.046875 5.921875 -1.1875 6.328125 -1.46875 C 6.734375 -1.75 7.019531 -2.125 7.1875 -2.59375 L 8.6875 -2.59375 C 8.457031 -1.78125 8.003906 -1.117188 7.328125 -0.609375 C 6.660156 -0.109375 5.820312 0.140625 4.8125 0.140625 C 4.019531 0.140625 3.304688 -0.0351562 2.671875 -0.390625 C 2.046875 -0.753906 1.550781 -1.265625 1.1875 -1.921875 C 0.832031 -2.585938 0.65625 -3.351562 0.65625 -4.21875 C 0.65625 -5.09375 0.828125 -5.851562 1.171875 -6.5 C 1.523438 -7.15625 2.015625 -7.660156 2.640625 -8.015625 C 3.273438 -8.367188 4 -8.546875 4.8125 -8.546875 C 5.613281 -8.546875 6.320312 -8.367188 6.9375 -8.015625 C 7.550781 -7.671875 8.023438 -7.191406 8.359375 -6.578125 C 8.691406 -5.972656 8.859375 -5.289062 8.859375 -4.53125 Z M 7.40625 -4.8125 C 7.40625 -5.34375 7.285156 -5.800781 7.046875 -6.1875 C 6.816406 -6.570312 6.5 -6.863281 6.09375 -7.0625 C 5.695312 -7.257812 5.25 -7.359375 4.75 -7.359375 C 4.050781 -7.359375 3.453125 -7.132812 2.953125 -6.6875 C 2.453125 -6.238281 2.171875 -5.613281 2.109375 -4.8125 Z M 7.40625 -4.8125 "/></g></g></g><g fill="#0a152f" fill-opacity="1"><g transform="translate(52.94161, 78.803846)"><g><path d="M 11.296875 -8.5625 C 11.953125 -8.5625 12.535156 -8.425781 13.046875 -8.15625 C 13.554688 -7.882812 13.957031 -7.476562 14.25 -6.9375 C 14.550781 -6.394531 14.703125 -5.734375 14.703125 -4.953125 L 14.703125 0 L 13.3125 0 L 13.3125 -4.75 C 13.3125 -5.59375 13.101562 -6.234375 12.6875 -6.671875 C 12.28125 -7.117188 11.722656 -7.34375 11.015625 -7.34375 C 10.285156 -7.34375 9.707031 -7.109375 9.28125 -6.640625 C 8.851562 -6.179688 8.640625 -5.515625 8.640625 -4.640625 L 8.640625 0 L 7.25 0 L 7.25 -4.75 C 7.25 -5.59375 7.039062 -6.234375 6.625 -6.671875 C 6.21875 -7.117188 5.660156 -7.34375 4.953125 -7.34375 C 4.222656 -7.34375 3.644531 -7.109375 3.21875 -6.640625 C 2.789062 -6.179688 2.578125 -5.515625 2.578125 -4.640625 L 2.578125 0 L 1.1875 0 L 1.1875 -8.40625 L 2.578125 -8.40625 L 2.578125 -7.203125 C 2.847656 -7.640625 3.21875 -7.972656 3.6875 -8.203125 C 4.15625 -8.441406 4.671875 -8.5625 5.234375 -8.5625 C 5.941406 -8.5625 6.566406 -8.398438 7.109375 -8.078125 C 7.648438 -7.765625 8.050781 -7.300781 8.3125 -6.6875 C 8.550781 -7.28125 8.941406 -7.738281 9.484375 -8.0625 C 10.023438 -8.394531 10.628906 -8.5625 11.296875 -8.5625 Z M 11.296875 -8.5625 "/></g></g></g><g fill="#0a152f" fill-opacity="1"><g transform="translate(68.741723, 78.803846)"><g><path d="M 2.578125 -6.859375 C 2.847656 -7.335938 3.257812 -7.738281 3.8125 -8.0625 C 4.363281 -8.382812 5 -8.546875 5.71875 -8.546875 C 6.46875 -8.546875 7.144531 -8.363281 7.75 -8 C 8.363281 -7.644531 8.84375 -7.144531 9.1875 -6.5 C 9.539062 -5.851562 9.71875 -5.097656 9.71875 -4.234375 C 9.71875 -3.390625 9.539062 -2.632812 9.1875 -1.96875 C 8.84375 -1.300781 8.363281 -0.78125 7.75 -0.40625 C 7.144531 -0.0390625 6.46875 0.140625 5.71875 0.140625 C 5.007812 0.140625 4.378906 -0.0195312 3.828125 -0.34375 C 3.273438 -0.664062 2.859375 -1.066406 2.578125 -1.546875 L 2.578125 3.984375 L 1.1875 3.984375 L 1.1875 -8.40625 L 2.578125 -8.40625 Z M 8.28125 -4.234375 C 8.28125 -4.867188 8.148438 -5.421875 7.890625 -5.890625 C 7.640625 -6.359375 7.296875 -6.710938 6.859375 -6.953125 C 6.429688 -7.203125 5.957031 -7.328125 5.4375 -7.328125 C 4.925781 -7.328125 4.453125 -7.203125 4.015625 -6.953125 C 3.578125 -6.703125 3.226562 -6.335938 2.96875 -5.859375 C 2.707031 -5.390625 2.578125 -4.84375 2.578125 -4.21875 C 2.578125 -3.582031 2.707031 -3.023438 2.96875 -2.546875 C 3.226562 -2.078125 3.578125 -1.71875 4.015625 -1.46875 C 4.453125 -1.21875 4.925781 -1.09375 5.4375 -1.09375 C 5.957031 -1.09375 6.429688 -1.21875 6.859375 -1.46875 C 7.296875 -1.71875 7.640625 -2.078125 7.890625 -2.546875 C 8.148438 -3.023438 8.28125 -3.585938 8.28125 -4.234375 Z M 8.28125 -4.234375 "/></g></g></g><g fill="#0a152f" fill-opacity="1"><g transform="translate(79.1115, 78.803846)"><g><path d="M 2.578125 -7.046875 C 2.828125 -7.523438 3.175781 -7.894531 3.625 -8.15625 C 4.082031 -8.425781 4.640625 -8.5625 5.296875 -8.5625 L 5.296875 -7.125 L 4.921875 -7.125 C 3.359375 -7.125 2.578125 -6.273438 2.578125 -4.578125 L 2.578125 0 L 1.1875 0 L 1.1875 -8.40625 L 2.578125 -8.40625 Z M 2.578125 -7.046875 "/></g></g></g><g fill="#0a152f" fill-opacity="1"><g transform="translate(84.833282, 78.803846)"><g><path d="M 8.859375 -4.53125 C 8.859375 -4.257812 8.84375 -3.976562 8.8125 -3.6875 L 2.09375 -3.6875 C 2.132812 -2.851562 2.414062 -2.203125 2.9375 -1.734375 C 3.457031 -1.273438 4.082031 -1.046875 4.8125 -1.046875 C 5.414062 -1.046875 5.921875 -1.1875 6.328125 -1.46875 C 6.734375 -1.75 7.019531 -2.125 7.1875 -2.59375 L 8.6875 -2.59375 C 8.457031 -1.78125 8.003906 -1.117188 7.328125 -0.609375 C 6.660156 -0.109375 5.820312 0.140625 4.8125 0.140625 C 4.019531 0.140625 3.304688 -0.0351562 2.671875 -0.390625 C 2.046875 -0.753906 1.550781 -1.265625 1.1875 -1.921875 C 0.832031 -2.585938 0.65625 -3.351562 0.65625 -4.21875 C 0.65625 -5.09375 0.828125 -5.851562 1.171875 -6.5 C 1.523438 -7.15625 2.015625 -7.660156 2.640625 -8.015625 C 3.273438 -8.367188 4 -8.546875 4.8125 -8.546875 C 5.613281 -8.546875 6.320312 -8.367188 6.9375 -8.015625 C 7.550781 -7.671875 8.023438 -7.191406 8.359375 -6.578125 C 8.691406 -5.972656 8.859375 -5.289062 8.859375 -4.53125 Z M 7.40625 -4.8125 C 7.40625 -5.34375 7.285156 -5.800781 7.046875 -6.1875 C 6.816406 -6.570312 6.5 -6.863281 6.09375 -7.0625 C 5.695312 -7.257812 5.25 -7.359375 4.75 -7.359375 C 4.050781 -7.359375 3.453125 -7.132812 2.953125 -6.6875 C 2.453125 -6.238281 2.171875 -5.613281 2.109375 -4.8125 Z M 7.40625 -4.8125 "/></g></g></g><g fill="#0a152f" fill-opacity="1"><g transform="translate(94.344031, 78.803846)"><g><path d="M 4.65625 -8.546875 C 5.375 -8.546875 6.003906 -8.382812 6.546875 -8.0625 C 7.097656 -7.75 7.507812 -7.351562 7.78125 -6.875 L 7.78125 -8.40625 L 9.1875 -8.40625 L 9.1875 0.1875 C 9.1875 0.945312 9.019531 1.625 8.6875 2.21875 C 8.363281 2.820312 7.898438 3.289062 7.296875 3.625 C 6.691406 3.96875 5.984375 4.140625 5.171875 4.140625 C 4.066406 4.140625 3.144531 3.878906 2.40625 3.359375 C 1.664062 2.835938 1.234375 2.128906 1.109375 1.234375 L 2.484375 1.234375 C 2.640625 1.742188 2.957031 2.15625 3.4375 2.46875 C 3.914062 2.78125 4.492188 2.9375 5.171875 2.9375 C 5.941406 2.9375 6.566406 2.691406 7.046875 2.203125 C 7.535156 1.722656 7.78125 1.050781 7.78125 0.1875 L 7.78125 -1.578125 C 7.5 -1.085938 7.085938 -0.675781 6.546875 -0.34375 C 6.003906 -0.0195312 5.375 0.140625 4.65625 0.140625 C 3.90625 0.140625 3.222656 -0.0390625 2.609375 -0.40625 C 2.003906 -0.78125 1.523438 -1.300781 1.171875 -1.96875 C 0.828125 -2.632812 0.65625 -3.390625 0.65625 -4.234375 C 0.65625 -5.097656 0.828125 -5.851562 1.171875 -6.5 C 1.523438 -7.144531 2.003906 -7.644531 2.609375 -8 C 3.222656 -8.363281 3.90625 -8.546875 4.65625 -8.546875 Z M 7.78125 -4.21875 C 7.78125 -4.851562 7.648438 -5.40625 7.390625 -5.875 C 7.140625 -6.34375 6.796875 -6.703125 6.359375 -6.953125 C 5.921875 -7.203125 5.441406 -7.328125 4.921875 -7.328125 C 4.398438 -7.328125 3.925781 -7.203125 3.5 -6.953125 C 3.070312 -6.710938 2.726562 -6.359375 2.46875 -5.890625 C 2.21875 -5.421875 2.09375 -4.867188 2.09375 -4.234375 C 2.09375 -3.585938 2.21875 -3.023438 2.46875 -2.546875 C 2.726562 -2.078125 3.070312 -1.71875 3.5 -1.46875 C 3.925781 -1.21875 4.398438 -1.09375 4.921875 -1.09375 C 5.441406 -1.09375 5.921875 -1.21875 6.359375 -1.46875 C 6.796875 -1.71875 7.140625 -2.078125 7.390625 -2.546875 C 7.648438 -3.023438 7.78125 -3.582031 7.78125 -4.21875 Z M 7.78125 -4.21875 "/></g></g></g><g fill="#0a152f" fill-opacity="1"><g transform="translate(104.713809, 78.803846)"><g><path d="M 4.84375 0.140625 C 4.0625 0.140625 3.347656 -0.0351562 2.703125 -0.390625 C 2.066406 -0.753906 1.566406 -1.265625 1.203125 -1.921875 C 0.835938 -2.585938 0.65625 -3.351562 0.65625 -4.21875 C 0.65625 -5.082031 0.84375 -5.84375 1.21875 -6.5 C 1.59375 -7.15625 2.101562 -7.660156 2.75 -8.015625 C 3.394531 -8.367188 4.113281 -8.546875 4.90625 -8.546875 C 5.707031 -8.546875 6.429688 -8.367188 7.078125 -8.015625 C 7.722656 -7.660156 8.226562 -7.15625 8.59375 -6.5 C 8.96875 -5.851562 9.15625 -5.09375 9.15625 -4.21875 C 9.15625 -3.351562 8.960938 -2.585938 8.578125 -1.921875 C 8.203125 -1.265625 7.6875 -0.753906 7.03125 -0.390625 C 6.375 -0.0351562 5.644531 0.140625 4.84375 0.140625 Z M 4.84375 -1.09375 C 5.34375 -1.09375 5.8125 -1.207031 6.25 -1.4375 C 6.695312 -1.675781 7.054688 -2.03125 7.328125 -2.5 C 7.597656 -2.96875 7.734375 -3.539062 7.734375 -4.21875 C 7.734375 -4.894531 7.597656 -5.46875 7.328125 -5.9375 C 7.066406 -6.40625 6.71875 -6.753906 6.28125 -6.984375 C 5.851562 -7.210938 5.390625 -7.328125 4.890625 -7.328125 C 4.378906 -7.328125 3.910156 -7.210938 3.484375 -6.984375 C 3.066406 -6.753906 2.726562 -6.40625 2.46875 -5.9375 C 2.21875 -5.46875 2.09375 -4.894531 2.09375 -4.21875 C 2.09375 -3.53125 2.21875 -2.953125 2.46875 -2.484375 C 2.71875 -2.015625 3.050781 -1.664062 3.46875 -1.4375 C 3.882812 -1.207031 4.34375 -1.09375 4.84375 -1.09375 Z M 4.84375 -1.09375 "/></g></g></g><g fill="#0a152f" fill-opacity="1"><g transform="translate(115.776802, 101.507227)"><g><path d="M 1.671875 -2.484375 L 1.671875 -2.21875 L 0.59375 -2.21875 L 0.59375 -1.375 L 1.46875 -1.375 L 1.46875 -1.125 L 0.59375 -1.125 L 0.59375 0 L 0.28125 0 L 0.28125 -2.484375 Z M 1.671875 -2.484375 "/></g></g></g><g fill="#0a152f" fill-opacity="1"><g transform="translate(117.574457, 101.507227)"><g><path d="M 1.125 0.03125 C 0.9375 0.03125 0.769531 -0.0078125 0.625 -0.09375 C 0.476562 -0.175781 0.363281 -0.289062 0.28125 -0.4375 C 0.195312 -0.59375 0.15625 -0.773438 0.15625 -0.984375 C 0.15625 -1.179688 0.195312 -1.351562 0.28125 -1.5 C 0.363281 -1.65625 0.476562 -1.773438 0.625 -1.859375 C 0.78125 -1.941406 0.953125 -1.984375 1.140625 -1.984375 C 1.328125 -1.984375 1.492188 -1.941406 1.640625 -1.859375 C 1.785156 -1.773438 1.898438 -1.65625 1.984375 -1.5 C 2.078125 -1.351562 2.125 -1.179688 2.125 -0.984375 C 2.125 -0.773438 2.078125 -0.59375 1.984375 -0.4375 C 1.898438 -0.289062 1.78125 -0.175781 1.625 -0.09375 C 1.476562 -0.0078125 1.3125 0.03125 1.125 0.03125 Z M 1.125 -0.25 C 1.238281 -0.25 1.347656 -0.273438 1.453125 -0.328125 C 1.554688 -0.390625 1.640625 -0.472656 1.703125 -0.578125 C 1.765625 -0.691406 1.796875 -0.828125 1.796875 -0.984375 C 1.796875 -1.140625 1.765625 -1.269531 1.703125 -1.375 C 1.640625 -1.488281 1.554688 -1.570312 1.453125 -1.625 C 1.359375 -1.675781 1.253906 -1.703125 1.140625 -1.703125 C 1.015625 -1.703125 0.898438 -1.675781 0.796875 -1.625 C 0.703125 -1.570312 0.625 -1.488281 0.5625 -1.375 C 0.507812 -1.269531 0.484375 -1.140625 0.484375 -0.984375 C 0.484375 -0.816406 0.507812 -0.675781 0.5625 -0.5625 C 0.625 -0.457031 0.703125 -0.378906 0.796875 -0.328125 C 0.898438 -0.273438 1.007812 -0.25 1.125 -0.25 Z M 1.125 -0.25 "/></g></g></g><g fill="#0a152f" fill-opacity="1"><g transform="translate(119.857191, 101.507227)"><g><path d="M 1.21875 -1.984375 C 1.457031 -1.984375 1.648438 -1.910156 1.796875 -1.765625 C 1.953125 -1.628906 2.03125 -1.425781 2.03125 -1.15625 L 2.03125 0 L 1.703125 0 L 1.703125 -1.109375 C 1.703125 -1.296875 1.648438 -1.441406 1.546875 -1.546875 C 1.453125 -1.648438 1.320312 -1.703125 1.15625 -1.703125 C 0.988281 -1.703125 0.851562 -1.648438 0.75 -1.546875 C 0.644531 -1.441406 0.59375 -1.285156 0.59375 -1.078125 L 0.59375 0 L 0.28125 0 L 0.28125 -1.953125 L 0.59375 -1.953125 L 0.59375 -1.671875 C 0.65625 -1.773438 0.742188 -1.851562 0.859375 -1.90625 C 0.972656 -1.957031 1.09375 -1.984375 1.21875 -1.984375 Z M 1.21875 -1.984375 "/></g></g></g><g fill="#0a152f" fill-opacity="1"><g transform="translate(122.139925, 101.507227)"><g><path d="M 0.671875 -1.6875 L 0.671875 -0.53125 C 0.671875 -0.4375 0.691406 -0.367188 0.734375 -0.328125 C 0.773438 -0.296875 0.84375 -0.28125 0.9375 -0.28125 L 1.171875 -0.28125 L 1.171875 0 L 0.890625 0 C 0.703125 0 0.5625 -0.0390625 0.46875 -0.125 C 0.382812 -0.207031 0.34375 -0.34375 0.34375 -0.53125 L 0.34375 -1.6875 L 0.09375 -1.6875 L 0.09375 -1.953125 L 0.34375 -1.953125 L 0.34375 -2.4375 L 0.671875 -2.4375 L 0.671875 -1.953125 L 1.171875 -1.953125 L 1.171875 -1.6875 Z M 0.671875 -1.6875 "/></g></g></g><g fill="#0a152f" fill-opacity="1"><g transform="translate(123.438229, 101.507227)"><g><path d="M 2.0625 -1.046875 C 2.0625 -0.984375 2.054688 -0.921875 2.046875 -0.859375 L 0.484375 -0.859375 C 0.492188 -0.660156 0.554688 -0.507812 0.671875 -0.40625 C 0.796875 -0.300781 0.945312 -0.25 1.125 -0.25 C 1.257812 -0.25 1.375 -0.28125 1.46875 -0.34375 C 1.5625 -0.40625 1.628906 -0.492188 1.671875 -0.609375 L 2.015625 -0.609375 C 1.960938 -0.421875 1.859375 -0.265625 1.703125 -0.140625 C 1.546875 -0.0234375 1.351562 0.03125 1.125 0.03125 C 0.9375 0.03125 0.769531 -0.0078125 0.625 -0.09375 C 0.476562 -0.175781 0.363281 -0.289062 0.28125 -0.4375 C 0.195312 -0.59375 0.15625 -0.773438 0.15625 -0.984375 C 0.15625 -1.179688 0.191406 -1.351562 0.265625 -1.5 C 0.347656 -1.65625 0.460938 -1.773438 0.609375 -1.859375 C 0.753906 -1.941406 0.925781 -1.984375 1.125 -1.984375 C 1.300781 -1.984375 1.460938 -1.941406 1.609375 -1.859375 C 1.753906 -1.773438 1.863281 -1.660156 1.9375 -1.515625 C 2.019531 -1.378906 2.0625 -1.222656 2.0625 -1.046875 Z M 1.71875 -1.125 C 1.71875 -1.238281 1.691406 -1.34375 1.640625 -1.4375 C 1.585938 -1.53125 1.515625 -1.597656 1.421875 -1.640625 C 1.328125 -1.679688 1.222656 -1.703125 1.109375 -1.703125 C 0.941406 -1.703125 0.800781 -1.648438 0.6875 -1.546875 C 0.570312 -1.441406 0.503906 -1.300781 0.484375 -1.125 Z M 1.71875 -1.125 "/></g></g></g><g fill="#0a152f" fill-opacity="1"><g transform="translate(125.649626, 101.507227)"><g><path d="M 0.375 0.015625 C 0.3125 0.015625 0.257812 -0.00390625 0.21875 -0.046875 C 0.175781 -0.0859375 0.15625 -0.140625 0.15625 -0.203125 C 0.15625 -0.265625 0.175781 -0.316406 0.21875 -0.359375 C 0.257812 -0.398438 0.3125 -0.421875 0.375 -0.421875 C 0.4375 -0.421875 0.488281 -0.398438 0.53125 -0.359375 C 0.570312 -0.316406 0.59375 -0.265625 0.59375 -0.203125 C 0.59375 -0.140625 0.570312 -0.0859375 0.53125 -0.046875 C 0.488281 -0.00390625 0.4375 0.015625 0.375 0.015625 Z M 0.375 -1.515625 C 0.3125 -1.515625 0.257812 -1.535156 0.21875 -1.578125 C 0.175781 -1.617188 0.15625 -1.671875 0.15625 -1.734375 C 0.15625 -1.796875 0.175781 -1.847656 0.21875 -1.890625 C 0.257812 -1.929688 0.3125 -1.953125 0.375 -1.953125 C 0.4375 -1.953125 0.488281 -1.929688 0.53125 -1.890625 C 0.570312 -1.847656 0.59375 -1.796875 0.59375 -1.734375 C 0.59375 -1.671875 0.570312 -1.617188 0.53125 -1.578125 C 0.488281 -1.535156 0.4375 -1.515625 0.375 -1.515625 Z M 0.375 -1.515625 "/></g></g></g><g fill="#0a152f" fill-opacity="1"><g transform="translate(126.409347, 101.507227)"><g/></g></g><g fill="#0a152f" fill-opacity="1"><g transform="translate(127.361676, 101.507227)"><g><path d="M 0.59375 -2.484375 L 0.59375 0 L 0.28125 0 L 0.28125 -2.484375 Z M 0.59375 -2.484375 "/></g></g></g><g fill="#0a152f" fill-opacity="1"><g transform="translate(128.239104, 101.507227)"><g><path d="M 1.515625 -1.28125 C 1.609375 -1.257812 1.691406 -1.21875 1.765625 -1.15625 C 1.835938 -1.101562 1.894531 -1.03125 1.9375 -0.9375 C 1.988281 -0.851562 2.015625 -0.765625 2.015625 -0.671875 C 2.015625 -0.546875 1.976562 -0.429688 1.90625 -0.328125 C 1.84375 -0.222656 1.75 -0.140625 1.625 -0.078125 C 1.507812 -0.0234375 1.367188 0 1.203125 0 L 0.28125 0 L 0.28125 -2.484375 L 1.171875 -2.484375 C 1.335938 -2.484375 1.476562 -2.453125 1.59375 -2.390625 C 1.71875 -2.335938 1.804688 -2.265625 1.859375 -2.171875 C 1.921875 -2.078125 1.953125 -1.972656 1.953125 -1.859375 C 1.953125 -1.703125 1.910156 -1.578125 1.828125 -1.484375 C 1.753906 -1.390625 1.648438 -1.320312 1.515625 -1.28125 Z M 0.59375 -1.40625 L 1.140625 -1.40625 C 1.296875 -1.40625 1.414062 -1.441406 1.5 -1.515625 C 1.582031 -1.585938 1.625 -1.6875 1.625 -1.8125 C 1.625 -1.9375 1.582031 -2.035156 1.5 -2.109375 C 1.414062 -2.179688 1.296875 -2.21875 1.140625 -2.21875 L 0.59375 -2.21875 Z M 1.171875 -0.265625 C 1.335938 -0.265625 1.460938 -0.300781 1.546875 -0.375 C 1.640625 -0.457031 1.6875 -0.566406 1.6875 -0.703125 C 1.6875 -0.835938 1.640625 -0.941406 1.546875 -1.015625 C 1.453125 -1.097656 1.320312 -1.140625 1.15625 -1.140625 L 0.59375 -1.140625 L 0.59375 -0.265625 Z M 1.171875 -0.265625 "/></g></g></g><g fill="#0a152f" fill-opacity="1"><g transform="translate(130.425534, 101.507227)"><g><path d="M 2.15625 -1.765625 C 2.082031 -1.910156 1.976562 -2.019531 1.84375 -2.09375 C 1.71875 -2.175781 1.570312 -2.21875 1.40625 -2.21875 C 1.226562 -2.21875 1.066406 -2.175781 0.921875 -2.09375 C 0.785156 -2.019531 0.675781 -1.90625 0.59375 -1.75 C 0.519531 -1.601562 0.484375 -1.4375 0.484375 -1.25 C 0.484375 -1.050781 0.519531 -0.878906 0.59375 -0.734375 C 0.675781 -0.585938 0.785156 -0.472656 0.921875 -0.390625 C 1.066406 -0.304688 1.226562 -0.265625 1.40625 -0.265625 C 1.644531 -0.265625 1.84375 -0.335938 2 -0.484375 C 2.15625 -0.628906 2.242188 -0.828125 2.265625 -1.078125 L 1.28125 -1.078125 L 1.28125 -1.34375 L 2.625 -1.34375 L 2.625 -1.09375 C 2.601562 -0.882812 2.535156 -0.695312 2.421875 -0.53125 C 2.316406 -0.363281 2.175781 -0.226562 2 -0.125 C 1.820312 -0.03125 1.625 0.015625 1.40625 0.015625 C 1.164062 0.015625 0.953125 -0.0351562 0.765625 -0.140625 C 0.578125 -0.242188 0.425781 -0.390625 0.3125 -0.578125 C 0.207031 -0.773438 0.15625 -1 0.15625 -1.25 C 0.15625 -1.488281 0.207031 -1.703125 0.3125 -1.890625 C 0.425781 -2.085938 0.578125 -2.238281 0.765625 -2.34375 C 0.953125 -2.457031 1.164062 -2.515625 1.40625 -2.515625 C 1.664062 -2.515625 1.894531 -2.445312 2.09375 -2.3125 C 2.300781 -2.1875 2.453125 -2.003906 2.546875 -1.765625 Z M 2.15625 -1.765625 "/></g></g></g><g fill="#0a152f" fill-opacity="1"><g transform="translate(133.20048, 101.507227)"><g><path d="M 0.59375 -2.21875 L 0.59375 -1.390625 L 1.5 -1.390625 L 1.5 -1.125 L 0.59375 -1.125 L 0.59375 -0.265625 L 1.609375 -0.265625 L 1.609375 0 L 0.28125 0 L 0.28125 -2.484375 L 1.609375 -2.484375 L 1.609375 -2.21875 Z M 0.59375 -2.21875 "/></g></g></g></svg>