<svg xmlns="http://www.w3.org/2000/svg" xmlns:xlink="http://www.w3.org/1999/xlink" width="200" zoomAndPan="magnify" viewBox="0 0 150 149.999998" height="200" preserveAspectRatio="xMidYMid meet" version="1.0"><defs><g/></defs><rect x="-15" width="180" fill="#ffffff" y="-15" height="179.999997" fill-opacity="1"/><rect x="-15" width="180" fill="#0a152f" y="-15" height="179.999997" fill-opacity="1"/><path stroke-linecap="butt" transform="matrix(0.75, 0, 0, 0.75, 0.00000125, 93.030539)" fill="none" stroke-linejoin="miter" d="M -0.00000166667 0.500948 L 180.088551 0.500948 " stroke="#ffffff" stroke-width="1" stroke-opacity="1" stroke-miterlimit="4"/><g fill="#ffffff" fill-opacity="1"><g transform="translate(15, 60.903356)"><g><path d="M 7.25 -6.578125 C 7.25 -5.804688 6.984375 -5.164062 6.453125 -4.65625 C 5.921875 -4.144531 5.113281 -3.890625 4.03125 -3.890625 L 2.234375 -3.890625 L 2.234375 0 L 1.03125 0 L 1.03125 -9.296875 L 4.03125 -9.296875 C 5.082031 -9.296875 5.878906 -9.039062 6.421875 -8.53125 C 6.972656 -8.03125 7.25 -7.378906 7.25 -6.578125 Z M 4.03125 -4.890625 C 4.707031 -4.890625 5.203125 -5.035156 5.515625 -5.328125 C 5.835938 -5.617188 6 -6.035156 6 -6.578125 C 6 -7.722656 5.34375 -8.296875 4.03125 -8.296875 L 2.234375 -8.296875 L 2.234375 -4.890625 Z M 4.03125 -4.890625 "/></g></g></g><g fill="#ffffff" fill-opacity="1"><g transform="translate(22.721512, 60.903356)"><g><path d="M 7.703125 -3.9375 C 7.703125 -3.707031 7.6875 -3.460938 7.65625 -3.203125 L 1.8125 -3.203125 C 1.851562 -2.484375 2.097656 -1.921875 2.546875 -1.515625 C 3.003906 -1.109375 3.550781 -0.90625 4.1875 -0.90625 C 4.71875 -0.90625 5.15625 -1.023438 5.5 -1.265625 C 5.851562 -1.515625 6.101562 -1.84375 6.25 -2.25 L 7.546875 -2.25 C 7.359375 -1.550781 6.96875 -0.976562 6.375 -0.53125 C 5.789062 -0.09375 5.0625 0.125 4.1875 0.125 C 3.5 0.125 2.878906 -0.03125 2.328125 -0.34375 C 1.785156 -0.65625 1.359375 -1.097656 1.046875 -1.671875 C 0.734375 -2.242188 0.578125 -2.910156 0.578125 -3.671875 C 0.578125 -4.421875 0.726562 -5.082031 1.03125 -5.65625 C 1.332031 -6.226562 1.753906 -6.664062 2.296875 -6.96875 C 2.847656 -7.28125 3.476562 -7.4375 4.1875 -7.4375 C 4.882812 -7.4375 5.5 -7.285156 6.03125 -6.984375 C 6.5625 -6.679688 6.972656 -6.265625 7.265625 -5.734375 C 7.554688 -5.203125 7.703125 -4.601562 7.703125 -3.9375 Z M 6.4375 -4.1875 C 6.4375 -4.65625 6.332031 -5.054688 6.125 -5.390625 C 5.925781 -5.722656 5.648438 -5.972656 5.296875 -6.140625 C 4.953125 -6.316406 4.566406 -6.40625 4.140625 -6.40625 C 3.523438 -6.40625 3 -6.207031 2.5625 -5.8125 C 2.132812 -5.425781 1.890625 -4.882812 1.828125 -4.1875 Z M 6.4375 -4.1875 "/></g></g></g><g fill="#ffffff" fill-opacity="1"><g transform="translate(30.989799, 60.903356)"><g><path d="M 3.609375 0.125 C 3.054688 0.125 2.554688 0.03125 2.109375 -0.15625 C 1.660156 -0.351562 1.304688 -0.625 1.046875 -0.96875 C 0.796875 -1.3125 0.65625 -1.703125 0.625 -2.140625 L 1.875 -2.140625 C 1.914062 -1.773438 2.085938 -1.476562 2.390625 -1.25 C 2.703125 -1.019531 3.109375 -0.90625 3.609375 -0.90625 C 4.066406 -0.90625 4.425781 -1.003906 4.6875 -1.203125 C 4.957031 -1.410156 5.09375 -1.671875 5.09375 -1.984375 C 5.09375 -2.304688 4.953125 -2.546875 4.671875 -2.703125 C 4.390625 -2.859375 3.945312 -3.007812 3.34375 -3.15625 C 2.800781 -3.300781 2.359375 -3.445312 2.015625 -3.59375 C 1.679688 -3.738281 1.390625 -3.957031 1.140625 -4.25 C 0.898438 -4.539062 0.78125 -4.921875 0.78125 -5.390625 C 0.78125 -5.765625 0.890625 -6.109375 1.109375 -6.421875 C 1.328125 -6.734375 1.640625 -6.976562 2.046875 -7.15625 C 2.460938 -7.34375 2.929688 -7.4375 3.453125 -7.4375 C 4.265625 -7.4375 4.921875 -7.226562 5.421875 -6.8125 C 5.921875 -6.40625 6.1875 -5.847656 6.21875 -5.140625 L 5 -5.140625 C 4.976562 -5.523438 4.828125 -5.832031 4.546875 -6.0625 C 4.265625 -6.289062 3.890625 -6.40625 3.421875 -6.40625 C 2.984375 -6.40625 2.632812 -6.3125 2.375 -6.125 C 2.113281 -5.9375 1.984375 -5.691406 1.984375 -5.390625 C 1.984375 -5.148438 2.0625 -4.953125 2.21875 -4.796875 C 2.375 -4.640625 2.566406 -4.515625 2.796875 -4.421875 C 3.035156 -4.328125 3.367188 -4.222656 3.796875 -4.109375 C 4.316406 -3.960938 4.738281 -3.820312 5.0625 -3.6875 C 5.394531 -3.550781 5.675781 -3.34375 5.90625 -3.0625 C 6.144531 -2.789062 6.269531 -2.429688 6.28125 -1.984375 C 6.28125 -1.585938 6.171875 -1.226562 5.953125 -0.90625 C 5.734375 -0.582031 5.421875 -0.328125 5.015625 -0.140625 C 4.609375 0.0351562 4.140625 0.125 3.609375 0.125 Z M 3.609375 0.125 "/></g></g></g><g fill="#ffffff" fill-opacity="1"><g transform="translate(37.951159, 60.903356)"><g><path d="M 0.578125 -3.6875 C 0.578125 -4.425781 0.726562 -5.078125 1.03125 -5.640625 C 1.332031 -6.210938 1.742188 -6.65625 2.265625 -6.96875 C 2.796875 -7.28125 3.394531 -7.4375 4.0625 -7.4375 C 4.6875 -7.4375 5.238281 -7.296875 5.71875 -7.015625 C 6.195312 -6.734375 6.546875 -6.390625 6.765625 -5.984375 L 6.765625 -7.3125 L 8 -7.3125 L 8 3.46875 L 6.765625 3.46875 L 6.765625 -1.34375 C 6.535156 -0.9375 6.179688 -0.585938 5.703125 -0.296875 C 5.222656 -0.015625 4.660156 0.125 4.015625 0.125 C 3.378906 0.125 2.796875 -0.0351562 2.265625 -0.359375 C 1.742188 -0.679688 1.332031 -1.128906 1.03125 -1.703125 C 0.726562 -2.285156 0.578125 -2.945312 0.578125 -3.6875 Z M 6.765625 -3.671875 C 6.765625 -4.222656 6.648438 -4.703125 6.421875 -5.109375 C 6.203125 -5.515625 5.90625 -5.828125 5.53125 -6.046875 C 5.15625 -6.265625 4.738281 -6.375 4.28125 -6.375 C 3.832031 -6.375 3.421875 -6.265625 3.046875 -6.046875 C 2.671875 -5.835938 2.367188 -5.53125 2.140625 -5.125 C 1.921875 -4.71875 1.8125 -4.238281 1.8125 -3.6875 C 1.8125 -3.125 1.921875 -2.632812 2.140625 -2.21875 C 2.367188 -1.800781 2.671875 -1.484375 3.046875 -1.265625 C 3.421875 -1.054688 3.832031 -0.953125 4.28125 -0.953125 C 4.738281 -0.953125 5.15625 -1.054688 5.53125 -1.265625 C 5.90625 -1.484375 6.203125 -1.800781 6.421875 -2.21875 C 6.648438 -2.632812 6.765625 -3.117188 6.765625 -3.671875 Z M 6.765625 -3.671875 "/></g></g></g><g fill="#ffffff" fill-opacity="1"><g transform="translate(46.966254, 60.903356)"><g><path d="M 7.515625 -7.3125 L 7.515625 0 L 6.296875 0 L 6.296875 -1.078125 C 6.066406 -0.703125 5.742188 -0.410156 5.328125 -0.203125 C 4.910156 0.00390625 4.457031 0.109375 3.96875 0.109375 C 3.394531 0.109375 2.878906 -0.00390625 2.421875 -0.234375 C 1.972656 -0.472656 1.613281 -0.828125 1.34375 -1.296875 C 1.082031 -1.773438 0.953125 -2.351562 0.953125 -3.03125 L 0.953125 -7.3125 L 2.15625 -7.3125 L 2.15625 -3.1875 C 2.15625 -2.46875 2.335938 -1.914062 2.703125 -1.53125 C 3.066406 -1.144531 3.566406 -0.953125 4.203125 -0.953125 C 4.847656 -0.953125 5.359375 -1.148438 5.734375 -1.546875 C 6.109375 -1.941406 6.296875 -2.523438 6.296875 -3.296875 L 6.296875 -7.3125 Z M 7.515625 -7.3125 "/></g></g></g><g fill="#ffffff" fill-opacity="1"><g transform="translate(55.501257, 60.903356)"><g><path d="M 1.65625 -8.5 C 1.425781 -8.5 1.226562 -8.578125 1.0625 -8.734375 C 0.90625 -8.898438 0.828125 -9.097656 0.828125 -9.328125 C 0.828125 -9.554688 0.90625 -9.75 1.0625 -9.90625 C 1.226562 -10.070312 1.425781 -10.15625 1.65625 -10.15625 C 1.875 -10.15625 2.0625 -10.070312 2.21875 -9.90625 C 2.375 -9.75 2.453125 -9.554688 2.453125 -9.328125 C 2.453125 -9.097656 2.375 -8.898438 2.21875 -8.734375 C 2.0625 -8.578125 1.875 -8.5 1.65625 -8.5 Z M 2.234375 -7.3125 L 2.234375 0 L 1.03125 0 L 1.03125 -7.3125 Z M 2.234375 -7.3125 "/></g></g></g><g fill="#ffffff" fill-opacity="1"><g transform="translate(58.7819, 60.903356)"><g><path d="M 3.609375 0.125 C 3.054688 0.125 2.554688 0.03125 2.109375 -0.15625 C 1.660156 -0.351562 1.304688 -0.625 1.046875 -0.96875 C 0.796875 -1.3125 0.65625 -1.703125 0.625 -2.140625 L 1.875 -2.140625 C 1.914062 -1.773438 2.085938 -1.476562 2.390625 -1.25 C 2.703125 -1.019531 3.109375 -0.90625 3.609375 -0.90625 C 4.066406 -0.90625 4.425781 -1.003906 4.6875 -1.203125 C 4.957031 -1.410156 5.09375 -1.671875 5.09375 -1.984375 C 5.09375 -2.304688 4.953125 -2.546875 4.671875 -2.703125 C 4.390625 -2.859375 3.945312 -3.007812 3.34375 -3.15625 C 2.800781 -3.300781 2.359375 -3.445312 2.015625 -3.59375 C 1.679688 -3.738281 1.390625 -3.957031 1.140625 -4.25 C 0.898438 -4.539062 0.78125 -4.921875 0.78125 -5.390625 C 0.78125 -5.765625 0.890625 -6.109375 1.109375 -6.421875 C 1.328125 -6.734375 1.640625 -6.976562 2.046875 -7.15625 C 2.460938 -7.34375 2.929688 -7.4375 3.453125 -7.4375 C 4.265625 -7.4375 4.921875 -7.226562 5.421875 -6.8125 C 5.921875 -6.40625 6.1875 -5.847656 6.21875 -5.140625 L 5 -5.140625 C 4.976562 -5.523438 4.828125 -5.832031 4.546875 -6.0625 C 4.265625 -6.289062 3.890625 -6.40625 3.421875 -6.40625 C 2.984375 -6.40625 2.632812 -6.3125 2.375 -6.125 C 2.113281 -5.9375 1.984375 -5.691406 1.984375 -5.390625 C 1.984375 -5.148438 2.0625 -4.953125 2.21875 -4.796875 C 2.375 -4.640625 2.566406 -4.515625 2.796875 -4.421875 C 3.035156 -4.328125 3.367188 -4.222656 3.796875 -4.109375 C 4.316406 -3.960938 4.738281 -3.820312 5.0625 -3.6875 C 5.394531 -3.550781 5.675781 -3.34375 5.90625 -3.0625 C 6.144531 -2.789062 6.269531 -2.429688 6.28125 -1.984375 C 6.28125 -1.585938 6.171875 -1.226562 5.953125 -0.90625 C 5.734375 -0.582031 5.421875 -0.328125 5.015625 -0.140625 C 4.609375 0.0351562 4.140625 0.125 3.609375 0.125 Z M 3.609375 0.125 "/></g></g></g><g fill="#ffffff" fill-opacity="1"><g transform="translate(65.743261, 60.903356)"><g><path d="M 0.578125 -3.6875 C 0.578125 -4.425781 0.726562 -5.078125 1.03125 -5.640625 C 1.332031 -6.210938 1.742188 -6.65625 2.265625 -6.96875 C 2.796875 -7.28125 3.390625 -7.4375 4.046875 -7.4375 C 4.679688 -7.4375 5.234375 -7.296875 5.703125 -7.015625 C 6.179688 -6.742188 6.535156 -6.398438 6.765625 -5.984375 L 6.765625 -7.3125 L 8 -7.3125 L 8 0 L 6.765625 0 L 6.765625 -1.359375 C 6.523438 -0.929688 6.164062 -0.578125 5.6875 -0.296875 C 5.21875 -0.015625 4.664062 0.125 4.03125 0.125 C 3.382812 0.125 2.796875 -0.0351562 2.265625 -0.359375 C 1.742188 -0.679688 1.332031 -1.128906 1.03125 -1.703125 C 0.726562 -2.285156 0.578125 -2.945312 0.578125 -3.6875 Z M 6.765625 -3.671875 C 6.765625 -4.222656 6.648438 -4.703125 6.421875 -5.109375 C 6.203125 -5.515625 5.90625 -5.828125 5.53125 -6.046875 C 5.15625 -6.265625 4.738281 -6.375 4.28125 -6.375 C 3.832031 -6.375 3.421875 -6.265625 3.046875 -6.046875 C 2.671875 -5.835938 2.367188 -5.53125 2.140625 -5.125 C 1.921875 -4.71875 1.8125 -4.238281 1.8125 -3.6875 C 1.8125 -3.125 1.921875 -2.632812 2.140625 -2.21875 C 2.367188 -1.800781 2.671875 -1.484375 3.046875 -1.265625 C 3.421875 -1.054688 3.832031 -0.953125 4.28125 -0.953125 C 4.738281 -0.953125 5.15625 -1.054688 5.53125 -1.265625 C 5.90625 -1.484375 6.203125 -1.800781 6.421875 -2.21875 C 6.648438 -2.632812 6.765625 -3.117188 6.765625 -3.671875 Z M 6.765625 -3.671875 "/></g></g></g><g fill="#ffffff" fill-opacity="1"><g transform="translate(74.758355, 60.903356)"><g/></g></g><g fill="#ffffff" fill-opacity="1"><g transform="translate(78.319046, 60.903356)"><g><path d="M 10.46875 -9.234375 L 10.46875 0 L 9.25 0 L 9.25 -6.890625 L 6.171875 0 L 5.328125 0 L 2.234375 -6.90625 L 2.234375 0 L 1.03125 0 L 1.03125 -9.234375 L 2.328125 -9.234375 L 5.75 -1.59375 L 9.171875 -9.234375 Z M 10.46875 -9.234375 "/></g></g></g><g fill="#ffffff" fill-opacity="1"><g transform="translate(89.801292, 60.903356)"><g><path d="M 7.703125 -3.9375 C 7.703125 -3.707031 7.6875 -3.460938 7.65625 -3.203125 L 1.8125 -3.203125 C 1.851562 -2.484375 2.097656 -1.921875 2.546875 -1.515625 C 3.003906 -1.109375 3.550781 -0.90625 4.1875 -0.90625 C 4.71875 -0.90625 5.15625 -1.023438 5.5 -1.265625 C 5.851562 -1.515625 6.101562 -1.84375 6.25 -2.25 L 7.546875 -2.25 C 7.359375 -1.550781 6.96875 -0.976562 6.375 -0.53125 C 5.789062 -0.09375 5.0625 0.125 4.1875 0.125 C 3.5 0.125 2.878906 -0.03125 2.328125 -0.34375 C 1.785156 -0.65625 1.359375 -1.097656 1.046875 -1.671875 C 0.734375 -2.242188 0.578125 -2.910156 0.578125 -3.671875 C 0.578125 -4.421875 0.726562 -5.082031 1.03125 -5.65625 C 1.332031 -6.226562 1.753906 -6.664062 2.296875 -6.96875 C 2.847656 -7.28125 3.476562 -7.4375 4.1875 -7.4375 C 4.882812 -7.4375 5.5 -7.285156 6.03125 -6.984375 C 6.5625 -6.679688 6.972656 -6.265625 7.265625 -5.734375 C 7.554688 -5.203125 7.703125 -4.601562 7.703125 -3.9375 Z M 6.4375 -4.1875 C 6.4375 -4.65625 6.332031 -5.054688 6.125 -5.390625 C 5.925781 -5.722656 5.648438 -5.972656 5.296875 -6.140625 C 4.953125 -6.316406 4.566406 -6.40625 4.140625 -6.40625 C 3.523438 -6.40625 3 -6.207031 2.5625 -5.8125 C 2.132812 -5.425781 1.890625 -4.882812 1.828125 -4.1875 Z M 6.4375 -4.1875 "/></g></g></g><g fill="#ffffff" fill-opacity="1"><g transform="translate(98.069579, 60.903356)"><g><path d="M 4.59375 -7.453125 C 5.476562 -7.453125 6.195312 -7.179688 6.75 -6.640625 C 7.300781 -6.097656 7.578125 -5.320312 7.578125 -4.3125 L 7.578125 0 L 6.375 0 L 6.375 -4.140625 C 6.375 -4.867188 6.191406 -5.425781 5.828125 -5.8125 C 5.460938 -6.195312 4.96875 -6.390625 4.34375 -6.390625 C 3.695312 -6.390625 3.179688 -6.1875 2.796875 -5.78125 C 2.421875 -5.382812 2.234375 -4.804688 2.234375 -4.046875 L 2.234375 0 L 1.03125 0 L 1.03125 -7.3125 L 2.234375 -7.3125 L 2.234375 -6.265625 C 2.484375 -6.640625 2.8125 -6.929688 3.21875 -7.140625 C 3.632812 -7.347656 4.09375 -7.453125 4.59375 -7.453125 Z M 4.59375 -7.453125 "/></g></g></g><g fill="#ffffff" fill-opacity="1"><g transform="translate(106.604583, 60.903356)"><g><path d="M 3.609375 0.125 C 3.054688 0.125 2.554688 0.03125 2.109375 -0.15625 C 1.660156 -0.351562 1.304688 -0.625 1.046875 -0.96875 C 0.796875 -1.3125 0.65625 -1.703125 0.625 -2.140625 L 1.875 -2.140625 C 1.914062 -1.773438 2.085938 -1.476562 2.390625 -1.25 C 2.703125 -1.019531 3.109375 -0.90625 3.609375 -0.90625 C 4.066406 -0.90625 4.425781 -1.003906 4.6875 -1.203125 C 4.957031 -1.410156 5.09375 -1.671875 5.09375 -1.984375 C 5.09375 -2.304688 4.953125 -2.546875 4.671875 -2.703125 C 4.390625 -2.859375 3.945312 -3.007812 3.34375 -3.15625 C 2.800781 -3.300781 2.359375 -3.445312 2.015625 -3.59375 C 1.679688 -3.738281 1.390625 -3.957031 1.140625 -4.25 C 0.898438 -4.539062 0.78125 -4.921875 0.78125 -5.390625 C 0.78125 -5.765625 0.890625 -6.109375 1.109375 -6.421875 C 1.328125 -6.734375 1.640625 -6.976562 2.046875 -7.15625 C 2.460938 -7.34375 2.929688 -7.4375 3.453125 -7.4375 C 4.265625 -7.4375 4.921875 -7.226562 5.421875 -6.8125 C 5.921875 -6.40625 6.1875 -5.847656 6.21875 -5.140625 L 5 -5.140625 C 4.976562 -5.523438 4.828125 -5.832031 4.546875 -6.0625 C 4.265625 -6.289062 3.890625 -6.40625 3.421875 -6.40625 C 2.984375 -6.40625 2.632812 -6.3125 2.375 -6.125 C 2.113281 -5.9375 1.984375 -5.691406 1.984375 -5.390625 C 1.984375 -5.148438 2.0625 -4.953125 2.21875 -4.796875 C 2.375 -4.640625 2.566406 -4.515625 2.796875 -4.421875 C 3.035156 -4.328125 3.367188 -4.222656 3.796875 -4.109375 C 4.316406 -3.960938 4.738281 -3.820312 5.0625 -3.6875 C 5.394531 -3.550781 5.675781 -3.34375 5.90625 -3.0625 C 6.144531 -2.789062 6.269531 -2.429688 6.28125 -1.984375 C 6.28125 -1.585938 6.171875 -1.226562 5.953125 -0.90625 C 5.734375 -0.582031 5.421875 -0.328125 5.015625 -0.140625 C 4.609375 0.0351562 4.140625 0.125 3.609375 0.125 Z M 3.609375 0.125 "/></g></g></g><g fill="#ffffff" fill-opacity="1"><g transform="translate(113.565943, 60.903356)"><g><path d="M 0.578125 -3.6875 C 0.578125 -4.425781 0.726562 -5.078125 1.03125 -5.640625 C 1.332031 -6.210938 1.742188 -6.65625 2.265625 -6.96875 C 2.796875 -7.28125 3.390625 -7.4375 4.046875 -7.4375 C 4.679688 -7.4375 5.234375 -7.296875 5.703125 -7.015625 C 6.179688 -6.742188 6.535156 -6.398438 6.765625 -5.984375 L 6.765625 -7.3125 L 8 -7.3125 L 8 0 L 6.765625 0 L 6.765625 -1.359375 C 6.523438 -0.929688 6.164062 -0.578125 5.6875 -0.296875 C 5.21875 -0.015625 4.664062 0.125 4.03125 0.125 C 3.382812 0.125 2.796875 -0.0351562 2.265625 -0.359375 C 1.742188 -0.679688 1.332031 -1.128906 1.03125 -1.703125 C 0.726562 -2.285156 0.578125 -2.945312 0.578125 -3.6875 Z M 6.765625 -3.671875 C 6.765625 -4.222656 6.648438 -4.703125 6.421875 -5.109375 C 6.203125 -5.515625 5.90625 -5.828125 5.53125 -6.046875 C 5.15625 -6.265625 4.738281 -6.375 4.28125 -6.375 C 3.832031 -6.375 3.421875 -6.265625 3.046875 -6.046875 C 2.671875 -5.835938 2.367188 -5.53125 2.140625 -5.125 C 1.921875 -4.71875 1.8125 -4.238281 1.8125 -3.6875 C 1.8125 -3.125 1.921875 -2.632812 2.140625 -2.21875 C 2.367188 -1.800781 2.671875 -1.484375 3.046875 -1.265625 C 3.421875 -1.054688 3.832031 -0.953125 4.28125 -0.953125 C 4.738281 -0.953125 5.15625 -1.054688 5.53125 -1.265625 C 5.90625 -1.484375 6.203125 -1.800781 6.421875 -2.21875 C 6.648438 -2.632812 6.765625 -3.117188 6.765625 -3.671875 Z M 6.765625 -3.671875 "/></g></g></g><g fill="#ffffff" fill-opacity="1"><g transform="translate(122.581037, 60.903356)"><g><path d="M 2.234375 -9.875 L 2.234375 0 L 1.03125 0 L 1.03125 -9.875 Z M 2.234375 -9.875 "/></g></g></g><g fill="#ffffff" fill-opacity="1"><g transform="translate(15, 76.653355)"><g><path d="M 0.578125 -3.6875 C 0.578125 -4.425781 0.726562 -5.078125 1.03125 -5.640625 C 1.332031 -6.210938 1.742188 -6.65625 2.265625 -6.96875 C 2.796875 -7.28125 3.394531 -7.4375 4.0625 -7.4375 C 4.625 -7.4375 5.148438 -7.300781 5.640625 -7.03125 C 6.128906 -6.769531 6.503906 -6.425781 6.765625 -6 L 6.765625 -9.875 L 8 -9.875 L 8 0 L 6.765625 0 L 6.765625 -1.375 C 6.523438 -0.9375 6.164062 -0.578125 5.6875 -0.296875 C 5.21875 -0.015625 4.671875 0.125 4.046875 0.125 C 3.390625 0.125 2.796875 -0.0351562 2.265625 -0.359375 C 1.742188 -0.679688 1.332031 -1.128906 1.03125 -1.703125 C 0.726562 -2.285156 0.578125 -2.945312 0.578125 -3.6875 Z M 6.765625 -3.671875 C 6.765625 -4.222656 6.648438 -4.703125 6.421875 -5.109375 C 6.203125 -5.515625 5.90625 -5.828125 5.53125 -6.046875 C 5.15625 -6.265625 4.738281 -6.375 4.28125 -6.375 C 3.832031 -6.375 3.421875 -6.265625 3.046875 -6.046875 C 2.671875 -5.835938 2.367188 -5.53125 2.140625 -5.125 C 1.921875 -4.71875 1.8125 -4.238281 1.8125 -3.6875 C 1.8125 -3.125 1.921875 -2.632812 2.140625 -2.21875 C 2.367188 -1.800781 2.671875 -1.484375 3.046875 -1.265625 C 3.421875 -1.054688 3.832031 -0.953125 4.28125 -0.953125 C 4.738281 -0.953125 5.15625 -1.054688 5.53125 -1.265625 C 5.90625 -1.484375 6.203125 -1.800781 6.421875 -2.21875 C 6.648438 -2.632812 6.765625 -3.117188 6.765625 -3.671875 Z M 6.765625 -3.671875 "/></g></g></g><g fill="#ffffff" fill-opacity="1"><g transform="translate(24.015095, 76.653355)"><g><path d="M 7.703125 -3.9375 C 7.703125 -3.707031 7.6875 -3.460938 7.65625 -3.203125 L 1.8125 -3.203125 C 1.851562 -2.484375 2.097656 -1.921875 2.546875 -1.515625 C 3.003906 -1.109375 3.550781 -0.90625 4.1875 -0.90625 C 4.71875 -0.90625 5.15625 -1.023438 5.5 -1.265625 C 5.851562 -1.515625 6.101562 -1.84375 6.25 -2.25 L 7.546875 -2.25 C 7.359375 -1.550781 6.96875 -0.976562 6.375 -0.53125 C 5.789062 -0.09375 5.0625 0.125 4.1875 0.125 C 3.5 0.125 2.878906 -0.03125 2.328125 -0.34375 C 1.785156 -0.65625 1.359375 -1.097656 1.046875 -1.671875 C 0.734375 -2.242188 0.578125 -2.910156 0.578125 -3.671875 C 0.578125 -4.421875 0.726562 -5.082031 1.03125 -5.65625 C 1.332031 -6.226562 1.753906 -6.664062 2.296875 -6.96875 C 2.847656 -7.28125 3.476562 -7.4375 4.1875 -7.4375 C 4.882812 -7.4375 5.5 -7.285156 6.03125 -6.984375 C 6.5625 -6.679688 6.972656 -6.265625 7.265625 -5.734375 C 7.554688 -5.203125 7.703125 -4.601562 7.703125 -3.9375 Z M 6.4375 -4.1875 C 6.4375 -4.65625 6.332031 -5.054688 6.125 -5.390625 C 5.925781 -5.722656 5.648438 -5.972656 5.296875 -6.140625 C 4.953125 -6.316406 4.566406 -6.40625 4.140625 -6.40625 C 3.523438 -6.40625 3 -6.207031 2.5625 -5.8125 C 2.132812 -5.425781 1.890625 -4.882812 1.828125 -4.1875 Z M 6.4375 -4.1875 "/></g></g></g><g fill="#ffffff" fill-opacity="1"><g transform="translate(32.283382, 76.653355)"><g/></g></g><g fill="#ffffff" fill-opacity="1"><g transform="translate(35.844073, 76.653355)"><g><path d="M 0.578125 -4.65625 C 0.578125 -5.5625 0.78125 -6.375 1.1875 -7.09375 C 1.59375 -7.820312 2.148438 -8.390625 2.859375 -8.796875 C 3.566406 -9.210938 4.351562 -9.421875 5.21875 -9.421875 C 6.226562 -9.421875 7.109375 -9.175781 7.859375 -8.6875 C 8.617188 -8.195312 9.175781 -7.503906 9.53125 -6.609375 L 8.078125 -6.609375 C 7.816406 -7.171875 7.441406 -7.601562 6.953125 -7.90625 C 6.472656 -8.207031 5.894531 -8.359375 5.21875 -8.359375 C 4.570312 -8.359375 3.988281 -8.207031 3.46875 -7.90625 C 2.957031 -7.601562 2.550781 -7.171875 2.25 -6.609375 C 1.957031 -6.054688 1.8125 -5.40625 1.8125 -4.65625 C 1.8125 -3.914062 1.957031 -3.265625 2.25 -2.703125 C 2.550781 -2.148438 2.957031 -1.722656 3.46875 -1.421875 C 3.988281 -1.117188 4.570312 -0.96875 5.21875 -0.96875 C 5.894531 -0.96875 6.472656 -1.117188 6.953125 -1.421875 C 7.441406 -1.722656 7.816406 -2.148438 8.078125 -2.703125 L 9.53125 -2.703125 C 9.175781 -1.816406 8.617188 -1.128906 7.859375 -0.640625 C 7.109375 -0.160156 6.226562 0.078125 5.21875 0.078125 C 4.351562 0.078125 3.566406 -0.125 2.859375 -0.53125 C 2.148438 -0.9375 1.59375 -1.5 1.1875 -2.21875 C 0.78125 -2.9375 0.578125 -3.75 0.578125 -4.65625 Z M 0.578125 -4.65625 "/></g></g></g><g fill="#ffffff" fill-opacity="1"><g transform="translate(46.139418, 76.653355)"><g><path d="M 4.21875 0.125 C 3.53125 0.125 2.90625 -0.03125 2.34375 -0.34375 C 1.789062 -0.65625 1.359375 -1.097656 1.046875 -1.671875 C 0.734375 -2.242188 0.578125 -2.910156 0.578125 -3.671875 C 0.578125 -4.421875 0.738281 -5.082031 1.0625 -5.65625 C 1.382812 -6.226562 1.828125 -6.664062 2.390625 -6.96875 C 2.953125 -7.28125 3.578125 -7.4375 4.265625 -7.4375 C 4.960938 -7.4375 5.585938 -7.28125 6.140625 -6.96875 C 6.703125 -6.664062 7.144531 -6.226562 7.46875 -5.65625 C 7.800781 -5.082031 7.96875 -4.421875 7.96875 -3.671875 C 7.96875 -2.910156 7.800781 -2.242188 7.46875 -1.671875 C 7.132812 -1.097656 6.679688 -0.65625 6.109375 -0.34375 C 5.535156 -0.03125 4.90625 0.125 4.21875 0.125 Z M 4.21875 -0.953125 C 4.65625 -0.953125 5.0625 -1.050781 5.4375 -1.25 C 5.820312 -1.457031 6.128906 -1.765625 6.359375 -2.171875 C 6.597656 -2.578125 6.71875 -3.078125 6.71875 -3.671875 C 6.71875 -4.253906 6.601562 -4.75 6.375 -5.15625 C 6.144531 -5.570312 5.84375 -5.878906 5.46875 -6.078125 C 5.09375 -6.273438 4.6875 -6.375 4.25 -6.375 C 3.8125 -6.375 3.40625 -6.273438 3.03125 -6.078125 C 2.664062 -5.878906 2.367188 -5.570312 2.140625 -5.15625 C 1.921875 -4.75 1.8125 -4.253906 1.8125 -3.671875 C 1.8125 -3.078125 1.921875 -2.570312 2.140625 -2.15625 C 2.359375 -1.75 2.648438 -1.445312 3.015625 -1.25 C 3.378906 -1.050781 3.78125 -0.953125 4.21875 -0.953125 Z M 4.21875 -0.953125 "/></g></g></g><g fill="#ffffff" fill-opacity="1"><g transform="translate(54.674421, 76.653355)"><g><path d="M 9.828125 -7.453125 C 10.390625 -7.453125 10.894531 -7.332031 11.34375 -7.09375 C 11.789062 -6.851562 12.140625 -6.5 12.390625 -6.03125 C 12.648438 -5.5625 12.78125 -4.988281 12.78125 -4.3125 L 12.78125 0 L 11.578125 0 L 11.578125 -4.140625 C 11.578125 -4.867188 11.394531 -5.425781 11.03125 -5.8125 C 10.675781 -6.195312 10.191406 -6.390625 9.578125 -6.390625 C 8.953125 -6.390625 8.453125 -6.1875 8.078125 -5.78125 C 7.703125 -5.375 7.515625 -4.789062 7.515625 -4.03125 L 7.515625 0 L 6.3125 0 L 6.3125 -4.140625 C 6.3125 -4.867188 6.128906 -5.425781 5.765625 -5.8125 C 5.410156 -6.195312 4.925781 -6.390625 4.3125 -6.390625 C 3.675781 -6.390625 3.171875 -6.1875 2.796875 -5.78125 C 2.421875 -5.375 2.234375 -4.789062 2.234375 -4.03125 L 2.234375 0 L 1.03125 0 L 1.03125 -7.3125 L 2.234375 -7.3125 L 2.234375 -6.265625 C 2.484375 -6.640625 2.804688 -6.929688 3.203125 -7.140625 C 3.609375 -7.347656 4.054688 -7.453125 4.546875 -7.453125 C 5.160156 -7.453125 5.703125 -7.3125 6.171875 -7.03125 C 6.648438 -6.757812 7.003906 -6.351562 7.234375 -5.8125 C 7.441406 -6.332031 7.78125 -6.734375 8.25 -7.015625 C 8.71875 -7.304688 9.242188 -7.453125 9.828125 -7.453125 Z M 9.828125 -7.453125 "/></g></g></g><g fill="#ffffff" fill-opacity="1"><g transform="translate(68.410443, 76.653355)"><g><path d="M 7.703125 -3.9375 C 7.703125 -3.707031 7.6875 -3.460938 7.65625 -3.203125 L 1.8125 -3.203125 C 1.851562 -2.484375 2.097656 -1.921875 2.546875 -1.515625 C 3.003906 -1.109375 3.550781 -0.90625 4.1875 -0.90625 C 4.71875 -0.90625 5.15625 -1.023438 5.5 -1.265625 C 5.851562 -1.515625 6.101562 -1.84375 6.25 -2.25 L 7.546875 -2.25 C 7.359375 -1.550781 6.96875 -0.976562 6.375 -0.53125 C 5.789062 -0.09375 5.0625 0.125 4.1875 0.125 C 3.5 0.125 2.878906 -0.03125 2.328125 -0.34375 C 1.785156 -0.65625 1.359375 -1.097656 1.046875 -1.671875 C 0.734375 -2.242188 0.578125 -2.910156 0.578125 -3.671875 C 0.578125 -4.421875 0.726562 -5.082031 1.03125 -5.65625 C 1.332031 -6.226562 1.753906 -6.664062 2.296875 -6.96875 C 2.847656 -7.28125 3.476562 -7.4375 4.1875 -7.4375 C 4.882812 -7.4375 5.5 -7.285156 6.03125 -6.984375 C 6.5625 -6.679688 6.972656 -6.265625 7.265625 -5.734375 C 7.554688 -5.203125 7.703125 -4.601562 7.703125 -3.9375 Z M 6.4375 -4.1875 C 6.4375 -4.65625 6.332031 -5.054688 6.125 -5.390625 C 5.925781 -5.722656 5.648438 -5.972656 5.296875 -6.140625 C 4.953125 -6.316406 4.566406 -6.40625 4.140625 -6.40625 C 3.523438 -6.40625 3 -6.207031 2.5625 -5.8125 C 2.132812 -5.425781 1.890625 -4.882812 1.828125 -4.1875 Z M 5.4375 -9.375 L 2.609375 -7.859375 L 2.609375 -8.765625 L 5.4375 -10.4375 Z M 5.4375 -9.375 "/></g></g></g><g fill="#ffffff" fill-opacity="1"><g transform="translate(76.67873, 76.653355)"><g><path d="M 2.234375 -6.125 C 2.453125 -6.539062 2.757812 -6.863281 3.15625 -7.09375 C 3.550781 -7.332031 4.035156 -7.453125 4.609375 -7.453125 L 4.609375 -6.1875 L 4.28125 -6.1875 C 2.914062 -6.1875 2.234375 -5.445312 2.234375 -3.96875 L 2.234375 0 L 1.03125 0 L 1.03125 -7.3125 L 2.234375 -7.3125 Z M 2.234375 -6.125 "/></g></g></g><g fill="#ffffff" fill-opacity="1"><g transform="translate(81.653042, 76.653355)"><g><path d="M 0.578125 -3.671875 C 0.578125 -4.421875 0.726562 -5.078125 1.03125 -5.640625 C 1.332031 -6.210938 1.75 -6.65625 2.28125 -6.96875 C 2.820312 -7.28125 3.441406 -7.4375 4.140625 -7.4375 C 5.035156 -7.4375 5.773438 -7.21875 6.359375 -6.78125 C 6.941406 -6.34375 7.328125 -5.738281 7.515625 -4.96875 L 6.203125 -4.96875 C 6.078125 -5.40625 5.832031 -5.753906 5.46875 -6.015625 C 5.113281 -6.273438 4.671875 -6.40625 4.140625 -6.40625 C 3.441406 -6.40625 2.878906 -6.164062 2.453125 -5.6875 C 2.023438 -5.21875 1.8125 -4.546875 1.8125 -3.671875 C 1.8125 -2.785156 2.023438 -2.101562 2.453125 -1.625 C 2.878906 -1.144531 3.441406 -0.90625 4.140625 -0.90625 C 4.671875 -0.90625 5.113281 -1.03125 5.46875 -1.28125 C 5.820312 -1.53125 6.066406 -1.882812 6.203125 -2.34375 L 7.515625 -2.34375 C 7.316406 -1.601562 6.921875 -1.003906 6.328125 -0.546875 C 5.742188 -0.0976562 5.015625 0.125 4.140625 0.125 C 3.441406 0.125 2.820312 -0.03125 2.28125 -0.34375 C 1.75 -0.65625 1.332031 -1.09375 1.03125 -1.65625 C 0.726562 -2.226562 0.578125 -2.898438 0.578125 -3.671875 Z M 0.578125 -3.671875 "/></g></g></g><g fill="#ffffff" fill-opacity="1"><g transform="translate(89.747962, 76.653355)"><g><path d="M 1.65625 -8.5 C 1.425781 -8.5 1.226562 -8.578125 1.0625 -8.734375 C 0.90625 -8.898438 0.828125 -9.097656 0.828125 -9.328125 C 0.828125 -9.554688 0.90625 -9.75 1.0625 -9.90625 C 1.226562 -10.070312 1.425781 -10.15625 1.65625 -10.15625 C 1.875 -10.15625 2.0625 -10.070312 2.21875 -9.90625 C 2.375 -9.75 2.453125 -9.554688 2.453125 -9.328125 C 2.453125 -9.097656 2.375 -8.898438 2.21875 -8.734375 C 2.0625 -8.578125 1.875 -8.5 1.65625 -8.5 Z M 2.234375 -7.3125 L 2.234375 0 L 1.03125 0 L 1.03125 -7.3125 Z M 2.234375 -7.3125 "/></g></g></g><g fill="#ffffff" fill-opacity="1"><g transform="translate(93.028606, 76.653355)"><g><path d="M 4.21875 0.125 C 3.53125 0.125 2.90625 -0.03125 2.34375 -0.34375 C 1.789062 -0.65625 1.359375 -1.097656 1.046875 -1.671875 C 0.734375 -2.242188 0.578125 -2.910156 0.578125 -3.671875 C 0.578125 -4.421875 0.738281 -5.082031 1.0625 -5.65625 C 1.382812 -6.226562 1.828125 -6.664062 2.390625 -6.96875 C 2.953125 -7.28125 3.578125 -7.4375 4.265625 -7.4375 C 4.960938 -7.4375 5.585938 -7.28125 6.140625 -6.96875 C 6.703125 -6.664062 7.144531 -6.226562 7.46875 -5.65625 C 7.800781 -5.082031 7.96875 -4.421875 7.96875 -3.671875 C 7.96875 -2.910156 7.800781 -2.242188 7.46875 -1.671875 C 7.132812 -1.097656 6.679688 -0.65625 6.109375 -0.34375 C 5.535156 -0.03125 4.90625 0.125 4.21875 0.125 Z M 4.21875 -0.953125 C 4.65625 -0.953125 5.0625 -1.050781 5.4375 -1.25 C 5.820312 -1.457031 6.128906 -1.765625 6.359375 -2.171875 C 6.597656 -2.578125 6.71875 -3.078125 6.71875 -3.671875 C 6.71875 -4.253906 6.601562 -4.75 6.375 -5.15625 C 6.144531 -5.570312 5.84375 -5.878906 5.46875 -6.078125 C 5.09375 -6.273438 4.6875 -6.375 4.25 -6.375 C 3.8125 -6.375 3.40625 -6.273438 3.03125 -6.078125 C 2.664062 -5.878906 2.367188 -5.570312 2.140625 -5.15625 C 1.921875 -4.75 1.8125 -4.253906 1.8125 -3.671875 C 1.8125 -3.078125 1.921875 -2.570312 2.140625 -2.15625 C 2.359375 -1.75 2.648438 -1.445312 3.015625 -1.25 C 3.378906 -1.050781 3.78125 -0.953125 4.21875 -0.953125 Z M 4.21875 -0.953125 "/></g></g></g><g fill="#ffffff" fill-opacity="1"><g transform="translate(56.753648, 99.907726)"><g><path d="M 0.59375 -2.484375 L 0.59375 0 L 0.28125 0 L 0.28125 -2.484375 Z M 0.59375 -2.484375 "/></g></g></g><g fill="#ffffff" fill-opacity="1"><g transform="translate(57.631076, 99.907726)"><g><path d="M 1.21875 -1.984375 C 1.457031 -1.984375 1.648438 -1.910156 1.796875 -1.765625 C 1.953125 -1.628906 2.03125 -1.425781 2.03125 -1.15625 L 2.03125 0 L 1.703125 0 L 1.703125 -1.109375 C 1.703125 -1.296875 1.648438 -1.441406 1.546875 -1.546875 C 1.453125 -1.648438 1.320312 -1.703125 1.15625 -1.703125 C 0.988281 -1.703125 0.851562 -1.648438 0.75 -1.546875 C 0.644531 -1.441406 0.59375 -1.285156 0.59375 -1.078125 L 0.59375 0 L 0.28125 0 L 0.28125 -1.953125 L 0.59375 -1.953125 L 0.59375 -1.671875 C 0.65625 -1.773438 0.742188 -1.851562 0.859375 -1.90625 C 0.972656 -1.957031 1.09375 -1.984375 1.21875 -1.984375 Z M 1.21875 -1.984375 "/></g></g></g><g fill="#ffffff" fill-opacity="1"><g transform="translate(59.913809, 99.907726)"><g><path d="M 0.96875 0.03125 C 0.8125 0.03125 0.675781 0.00390625 0.5625 -0.046875 C 0.445312 -0.0976562 0.351562 -0.164062 0.28125 -0.25 C 0.207031 -0.34375 0.171875 -0.453125 0.171875 -0.578125 L 0.5 -0.578125 C 0.507812 -0.472656 0.554688 -0.390625 0.640625 -0.328125 C 0.722656 -0.273438 0.832031 -0.25 0.96875 -0.25 C 1.082031 -0.25 1.175781 -0.273438 1.25 -0.328125 C 1.320312 -0.378906 1.359375 -0.445312 1.359375 -0.53125 C 1.359375 -0.613281 1.320312 -0.675781 1.25 -0.71875 C 1.175781 -0.757812 1.054688 -0.800781 0.890625 -0.84375 C 0.742188 -0.882812 0.625 -0.921875 0.53125 -0.953125 C 0.445312 -0.992188 0.367188 -1.050781 0.296875 -1.125 C 0.234375 -1.207031 0.203125 -1.3125 0.203125 -1.4375 C 0.203125 -1.539062 0.234375 -1.632812 0.296875 -1.71875 C 0.359375 -1.800781 0.441406 -1.863281 0.546875 -1.90625 C 0.660156 -1.957031 0.785156 -1.984375 0.921875 -1.984375 C 1.140625 -1.984375 1.3125 -1.925781 1.4375 -1.8125 C 1.570312 -1.707031 1.644531 -1.5625 1.65625 -1.375 L 1.328125 -1.375 C 1.328125 -1.476562 1.285156 -1.554688 1.203125 -1.609375 C 1.128906 -1.671875 1.03125 -1.703125 0.90625 -1.703125 C 0.789062 -1.703125 0.695312 -1.675781 0.625 -1.625 C 0.5625 -1.582031 0.53125 -1.519531 0.53125 -1.4375 C 0.53125 -1.375 0.550781 -1.320312 0.59375 -1.28125 C 0.632812 -1.238281 0.6875 -1.203125 0.75 -1.171875 C 0.8125 -1.148438 0.898438 -1.125 1.015625 -1.09375 C 1.148438 -1.0625 1.257812 -1.023438 1.34375 -0.984375 C 1.4375 -0.953125 1.515625 -0.894531 1.578125 -0.8125 C 1.640625 -0.738281 1.671875 -0.644531 1.671875 -0.53125 C 1.671875 -0.425781 1.640625 -0.328125 1.578125 -0.234375 C 1.523438 -0.148438 1.441406 -0.0820312 1.328125 -0.03125 C 1.222656 0.0078125 1.101562 0.03125 0.96875 0.03125 Z M 0.96875 0.03125 "/></g></g></g><g fill="#ffffff" fill-opacity="1"><g transform="translate(61.775662, 99.907726)"><g><path d="M 0.671875 -1.6875 L 0.671875 -0.53125 C 0.671875 -0.4375 0.691406 -0.367188 0.734375 -0.328125 C 0.773438 -0.296875 0.84375 -0.28125 0.9375 -0.28125 L 1.171875 -0.28125 L 1.171875 0 L 0.890625 0 C 0.703125 0 0.5625 -0.0390625 0.46875 -0.125 C 0.382812 -0.207031 0.34375 -0.34375 0.34375 -0.53125 L 0.34375 -1.6875 L 0.09375 -1.6875 L 0.09375 -1.953125 L 0.34375 -1.953125 L 0.34375 -2.4375 L 0.671875 -2.4375 L 0.671875 -1.953125 L 1.171875 -1.953125 L 1.171875 -1.6875 Z M 0.671875 -1.6875 "/></g></g></g><g fill="#ffffff" fill-opacity="1"><g transform="translate(63.073966, 99.907726)"><g><path d="M 0.4375 -2.265625 C 0.375 -2.265625 0.320312 -2.285156 0.28125 -2.328125 C 0.238281 -2.367188 0.21875 -2.421875 0.21875 -2.484375 C 0.21875 -2.546875 0.238281 -2.597656 0.28125 -2.640625 C 0.320312 -2.691406 0.375 -2.71875 0.4375 -2.71875 C 0.5 -2.71875 0.550781 -2.691406 0.59375 -2.640625 C 0.632812 -2.597656 0.65625 -2.546875 0.65625 -2.484375 C 0.65625 -2.421875 0.632812 -2.367188 0.59375 -2.328125 C 0.550781 -2.285156 0.5 -2.265625 0.4375 -2.265625 Z M 0.59375 -1.953125 L 0.59375 0 L 0.28125 0 L 0.28125 -1.953125 Z M 0.59375 -1.953125 "/></g></g></g><g fill="#ffffff" fill-opacity="1"><g transform="translate(63.951394, 99.907726)"><g><path d="M 0.671875 -1.6875 L 0.671875 -0.53125 C 0.671875 -0.4375 0.691406 -0.367188 0.734375 -0.328125 C 0.773438 -0.296875 0.84375 -0.28125 0.9375 -0.28125 L 1.171875 -0.28125 L 1.171875 0 L 0.890625 0 C 0.703125 0 0.5625 -0.0390625 0.46875 -0.125 C 0.382812 -0.207031 0.34375 -0.34375 0.34375 -0.53125 L 0.34375 -1.6875 L 0.09375 -1.6875 L 0.09375 -1.953125 L 0.34375 -1.953125 L 0.34375 -2.4375 L 0.671875 -2.4375 L 0.671875 -1.953125 L 1.171875 -1.953125 L 1.171875 -1.6875 Z M 0.671875 -1.6875 "/></g></g></g><g fill="#ffffff" fill-opacity="1"><g transform="translate(65.249697, 99.907726)"><g><path d="M 2 -1.953125 L 2 0 L 1.6875 0 L 1.6875 -0.28125 C 1.625 -0.1875 1.535156 -0.109375 1.421875 -0.046875 C 1.304688 0.00390625 1.1875 0.03125 1.0625 0.03125 C 0.90625 0.03125 0.765625 0 0.640625 -0.0625 C 0.523438 -0.125 0.429688 -0.21875 0.359375 -0.34375 C 0.285156 -0.46875 0.25 -0.625 0.25 -0.8125 L 0.25 -1.953125 L 0.578125 -1.953125 L 0.578125 -0.84375 C 0.578125 -0.65625 0.625 -0.507812 0.71875 -0.40625 C 0.820312 -0.300781 0.957031 -0.25 1.125 -0.25 C 1.289062 -0.25 1.425781 -0.300781 1.53125 -0.40625 C 1.632812 -0.519531 1.6875 -0.675781 1.6875 -0.875 L 1.6875 -1.953125 Z M 2 -1.953125 "/></g></g></g><g fill="#ffffff" fill-opacity="1"><g transform="translate(67.532431, 99.907726)"><g><path d="M 0.671875 -1.6875 L 0.671875 -0.53125 C 0.671875 -0.4375 0.691406 -0.367188 0.734375 -0.328125 C 0.773438 -0.296875 0.84375 -0.28125 0.9375 -0.28125 L 1.171875 -0.28125 L 1.171875 0 L 0.890625 0 C 0.703125 0 0.5625 -0.0390625 0.46875 -0.125 C 0.382812 -0.207031 0.34375 -0.34375 0.34375 -0.53125 L 0.34375 -1.6875 L 0.09375 -1.6875 L 0.09375 -1.953125 L 0.34375 -1.953125 L 0.34375 -2.4375 L 0.671875 -2.4375 L 0.671875 -1.953125 L 1.171875 -1.953125 L 1.171875 -1.6875 Z M 0.671875 -1.6875 "/></g></g></g><g fill="#ffffff" fill-opacity="1"><g transform="translate(68.830735, 99.907726)"><g><path d="M 1.125 0.03125 C 0.9375 0.03125 0.769531 -0.0078125 0.625 -0.09375 C 0.476562 -0.175781 0.363281 -0.289062 0.28125 -0.4375 C 0.195312 -0.59375 0.15625 -0.773438 0.15625 -0.984375 C 0.15625 -1.179688 0.195312 -1.351562 0.28125 -1.5 C 0.363281 -1.65625 0.476562 -1.773438 0.625 -1.859375 C 0.78125 -1.941406 0.953125 -1.984375 1.140625 -1.984375 C 1.328125 -1.984375 1.492188 -1.941406 1.640625 -1.859375 C 1.785156 -1.773438 1.898438 -1.65625 1.984375 -1.5 C 2.078125 -1.351562 2.125 -1.179688 2.125 -0.984375 C 2.125 -0.773438 2.078125 -0.59375 1.984375 -0.4375 C 1.898438 -0.289062 1.78125 -0.175781 1.625 -0.09375 C 1.476562 -0.0078125 1.3125 0.03125 1.125 0.03125 Z M 1.125 -0.25 C 1.238281 -0.25 1.347656 -0.273438 1.453125 -0.328125 C 1.554688 -0.390625 1.640625 -0.472656 1.703125 -0.578125 C 1.765625 -0.691406 1.796875 -0.828125 1.796875 -0.984375 C 1.796875 -1.140625 1.765625 -1.269531 1.703125 -1.375 C 1.640625 -1.488281 1.554688 -1.570312 1.453125 -1.625 C 1.359375 -1.675781 1.253906 -1.703125 1.140625 -1.703125 C 1.015625 -1.703125 0.898438 -1.675781 0.796875 -1.625 C 0.703125 -1.570312 0.625 -1.488281 0.5625 -1.375 C 0.507812 -1.269531 0.484375 -1.140625 0.484375 -0.984375 C 0.484375 -0.816406 0.507812 -0.675781 0.5625 -0.5625 C 0.625 -0.457031 0.703125 -0.378906 0.796875 -0.328125 C 0.898438 -0.273438 1.007812 -0.25 1.125 -0.25 Z M 1.125 -0.25 "/></g></g></g><g fill="#ffffff" fill-opacity="1"><g transform="translate(71.113469, 99.907726)"><g/></g></g><g fill="#ffffff" fill-opacity="1"><g transform="translate(72.065797, 99.907726)"><g><path d="M 1.515625 -1.28125 C 1.609375 -1.257812 1.691406 -1.21875 1.765625 -1.15625 C 1.835938 -1.101562 1.894531 -1.03125 1.9375 -0.9375 C 1.988281 -0.851562 2.015625 -0.765625 2.015625 -0.671875 C 2.015625 -0.546875 1.976562 -0.429688 1.90625 -0.328125 C 1.84375 -0.222656 1.75 -0.140625 1.625 -0.078125 C 1.507812 -0.0234375 1.367188 0 1.203125 0 L 0.28125 0 L 0.28125 -2.484375 L 1.171875 -2.484375 C 1.335938 -2.484375 1.476562 -2.453125 1.59375 -2.390625 C 1.71875 -2.335938 1.804688 -2.265625 1.859375 -2.171875 C 1.921875 -2.078125 1.953125 -1.972656 1.953125 -1.859375 C 1.953125 -1.703125 1.910156 -1.578125 1.828125 -1.484375 C 1.753906 -1.390625 1.648438 -1.320312 1.515625 -1.28125 Z M 0.59375 -1.40625 L 1.140625 -1.40625 C 1.296875 -1.40625 1.414062 -1.441406 1.5 -1.515625 C 1.582031 -1.585938 1.625 -1.6875 1.625 -1.8125 C 1.625 -1.9375 1.582031 -2.035156 1.5 -2.109375 C 1.414062 -2.179688 1.296875 -2.21875 1.140625 -2.21875 L 0.59375 -2.21875 Z M 1.171875 -0.265625 C 1.335938 -0.265625 1.460938 -0.300781 1.546875 -0.375 C 1.640625 -0.457031 1.6875 -0.566406 1.6875 -0.703125 C 1.6875 -0.835938 1.640625 -0.941406 1.546875 -1.015625 C 1.453125 -1.097656 1.320312 -1.140625 1.15625 -1.140625 L 0.59375 -1.140625 L 0.59375 -0.265625 Z M 1.171875 -0.265625 "/></g></g></g><g fill="#ffffff" fill-opacity="1"><g transform="translate(74.252228, 99.907726)"><g><path d="M 0.59375 -1.640625 C 0.65625 -1.742188 0.738281 -1.828125 0.84375 -1.890625 C 0.945312 -1.953125 1.078125 -1.984375 1.234375 -1.984375 L 1.234375 -1.65625 L 1.140625 -1.65625 C 0.773438 -1.65625 0.59375 -1.457031 0.59375 -1.0625 L 0.59375 0 L 0.28125 0 L 0.28125 -1.953125 L 0.59375 -1.953125 Z M 0.59375 -1.640625 "/></g></g></g><g fill="#ffffff" fill-opacity="1"><g transform="translate(75.582633, 99.907726)"><g><path d="M 0.15625 -0.984375 C 0.15625 -1.179688 0.191406 -1.351562 0.265625 -1.5 C 0.347656 -1.65625 0.457031 -1.773438 0.59375 -1.859375 C 0.738281 -1.941406 0.898438 -1.984375 1.078125 -1.984375 C 1.242188 -1.984375 1.390625 -1.945312 1.515625 -1.875 C 1.648438 -1.800781 1.75 -1.707031 1.8125 -1.59375 L 1.8125 -1.953125 L 2.140625 -1.953125 L 2.140625 0 L 1.8125 0 L 1.8125 -0.359375 C 1.738281 -0.242188 1.640625 -0.148438 1.515625 -0.078125 C 1.390625 -0.00390625 1.242188 0.03125 1.078125 0.03125 C 0.898438 0.03125 0.738281 -0.0078125 0.59375 -0.09375 C 0.457031 -0.175781 0.347656 -0.296875 0.265625 -0.453125 C 0.191406 -0.609375 0.15625 -0.785156 0.15625 -0.984375 Z M 1.8125 -0.984375 C 1.8125 -1.128906 1.78125 -1.253906 1.71875 -1.359375 C 1.65625 -1.472656 1.570312 -1.554688 1.46875 -1.609375 C 1.375 -1.671875 1.265625 -1.703125 1.140625 -1.703125 C 1.023438 -1.703125 0.914062 -1.671875 0.8125 -1.609375 C 0.707031 -1.554688 0.625 -1.472656 0.5625 -1.359375 C 0.507812 -1.253906 0.484375 -1.128906 0.484375 -0.984375 C 0.484375 -0.835938 0.507812 -0.707031 0.5625 -0.59375 C 0.625 -0.476562 0.707031 -0.390625 0.8125 -0.328125 C 0.914062 -0.273438 1.023438 -0.25 1.140625 -0.25 C 1.265625 -0.25 1.375 -0.273438 1.46875 -0.328125 C 1.570312 -0.390625 1.65625 -0.476562 1.71875 -0.59375 C 1.78125 -0.707031 1.8125 -0.835938 1.8125 -0.984375 Z M 1.8125 -0.984375 "/></g></g></g><g fill="#ffffff" fill-opacity="1"><g transform="translate(77.993771, 99.907726)"><g><path d="M 0.96875 0.03125 C 0.8125 0.03125 0.675781 0.00390625 0.5625 -0.046875 C 0.445312 -0.0976562 0.351562 -0.164062 0.28125 -0.25 C 0.207031 -0.34375 0.171875 -0.453125 0.171875 -0.578125 L 0.5 -0.578125 C 0.507812 -0.472656 0.554688 -0.390625 0.640625 -0.328125 C 0.722656 -0.273438 0.832031 -0.25 0.96875 -0.25 C 1.082031 -0.25 1.175781 -0.273438 1.25 -0.328125 C 1.320312 -0.378906 1.359375 -0.445312 1.359375 -0.53125 C 1.359375 -0.613281 1.320312 -0.675781 1.25 -0.71875 C 1.175781 -0.757812 1.054688 -0.800781 0.890625 -0.84375 C 0.742188 -0.882812 0.625 -0.921875 0.53125 -0.953125 C 0.445312 -0.992188 0.367188 -1.050781 0.296875 -1.125 C 0.234375 -1.207031 0.203125 -1.3125 0.203125 -1.4375 C 0.203125 -1.539062 0.234375 -1.632812 0.296875 -1.71875 C 0.359375 -1.800781 0.441406 -1.863281 0.546875 -1.90625 C 0.660156 -1.957031 0.785156 -1.984375 0.921875 -1.984375 C 1.140625 -1.984375 1.3125 -1.925781 1.4375 -1.8125 C 1.570312 -1.707031 1.644531 -1.5625 1.65625 -1.375 L 1.328125 -1.375 C 1.328125 -1.476562 1.285156 -1.554688 1.203125 -1.609375 C 1.128906 -1.671875 1.03125 -1.703125 0.90625 -1.703125 C 0.789062 -1.703125 0.695312 -1.675781 0.625 -1.625 C 0.5625 -1.582031 0.53125 -1.519531 0.53125 -1.4375 C 0.53125 -1.375 0.550781 -1.320312 0.59375 -1.28125 C 0.632812 -1.238281 0.6875 -1.203125 0.75 -1.171875 C 0.8125 -1.148438 0.898438 -1.125 1.015625 -1.09375 C 1.148438 -1.0625 1.257812 -1.023438 1.34375 -0.984375 C 1.4375 -0.953125 1.515625 -0.894531 1.578125 -0.8125 C 1.640625 -0.738281 1.671875 -0.644531 1.671875 -0.53125 C 1.671875 -0.425781 1.640625 -0.328125 1.578125 -0.234375 C 1.523438 -0.148438 1.441406 -0.0820312 1.328125 -0.03125 C 1.222656 0.0078125 1.101562 0.03125 0.96875 0.03125 Z M 0.96875 0.03125 "/></g></g></g><g fill="#ffffff" fill-opacity="1"><g transform="translate(79.855624, 99.907726)"><g><path d="M 0.4375 -2.265625 C 0.375 -2.265625 0.320312 -2.285156 0.28125 -2.328125 C 0.238281 -2.367188 0.21875 -2.421875 0.21875 -2.484375 C 0.21875 -2.546875 0.238281 -2.597656 0.28125 -2.640625 C 0.320312 -2.691406 0.375 -2.71875 0.4375 -2.71875 C 0.5 -2.71875 0.550781 -2.691406 0.59375 -2.640625 C 0.632812 -2.597656 0.65625 -2.546875 0.65625 -2.484375 C 0.65625 -2.421875 0.632812 -2.367188 0.59375 -2.328125 C 0.550781 -2.285156 0.5 -2.265625 0.4375 -2.265625 Z M 0.59375 -1.953125 L 0.59375 0 L 0.28125 0 L 0.28125 -1.953125 Z M 0.59375 -1.953125 "/></g></g></g><g fill="#ffffff" fill-opacity="1"><g transform="translate(80.733052, 99.907726)"><g><path d="M 0.59375 -2.640625 L 0.59375 0 L 0.28125 0 L 0.28125 -2.640625 Z M 0.59375 -2.640625 "/></g></g></g><g fill="#ffffff" fill-opacity="1"><g transform="translate(81.610479, 99.907726)"><g><path d="M 2.0625 -1.046875 C 2.0625 -0.984375 2.054688 -0.921875 2.046875 -0.859375 L 0.484375 -0.859375 C 0.492188 -0.660156 0.554688 -0.507812 0.671875 -0.40625 C 0.796875 -0.300781 0.945312 -0.25 1.125 -0.25 C 1.257812 -0.25 1.375 -0.28125 1.46875 -0.34375 C 1.5625 -0.40625 1.628906 -0.492188 1.671875 -0.609375 L 2.015625 -0.609375 C 1.960938 -0.421875 1.859375 -0.265625 1.703125 -0.140625 C 1.546875 -0.0234375 1.351562 0.03125 1.125 0.03125 C 0.9375 0.03125 0.769531 -0.0078125 0.625 -0.09375 C 0.476562 -0.175781 0.363281 -0.289062 0.28125 -0.4375 C 0.195312 -0.59375 0.15625 -0.773438 0.15625 -0.984375 C 0.15625 -1.179688 0.191406 -1.351562 0.265625 -1.5 C 0.347656 -1.65625 0.460938 -1.773438 0.609375 -1.859375 C 0.753906 -1.941406 0.925781 -1.984375 1.125 -1.984375 C 1.300781 -1.984375 1.460938 -1.941406 1.609375 -1.859375 C 1.753906 -1.773438 1.863281 -1.660156 1.9375 -1.515625 C 2.019531 -1.378906 2.0625 -1.222656 2.0625 -1.046875 Z M 1.71875 -1.125 C 1.71875 -1.238281 1.691406 -1.34375 1.640625 -1.4375 C 1.585938 -1.53125 1.515625 -1.597656 1.421875 -1.640625 C 1.328125 -1.679688 1.222656 -1.703125 1.109375 -1.703125 C 0.941406 -1.703125 0.800781 -1.648438 0.6875 -1.546875 C 0.570312 -1.441406 0.503906 -1.300781 0.484375 -1.125 Z M 1.71875 -1.125 "/></g></g></g><g fill="#ffffff" fill-opacity="1"><g transform="translate(83.821876, 99.907726)"><g><path d="M 0.4375 -2.265625 C 0.375 -2.265625 0.320312 -2.285156 0.28125 -2.328125 C 0.238281 -2.367188 0.21875 -2.421875 0.21875 -2.484375 C 0.21875 -2.546875 0.238281 -2.597656 0.28125 -2.640625 C 0.320312 -2.691406 0.375 -2.71875 0.4375 -2.71875 C 0.5 -2.71875 0.550781 -2.691406 0.59375 -2.640625 C 0.632812 -2.597656 0.65625 -2.546875 0.65625 -2.484375 C 0.65625 -2.421875 0.632812 -2.367188 0.59375 -2.328125 C 0.550781 -2.285156 0.5 -2.265625 0.4375 -2.265625 Z M 0.59375 -1.953125 L 0.59375 0 L 0.28125 0 L 0.28125 -1.953125 Z M 0.59375 -1.953125 "/></g></g></g><g fill="#ffffff" fill-opacity="1"><g transform="translate(84.699304, 99.907726)"><g><path d="M 0.59375 -1.640625 C 0.65625 -1.742188 0.738281 -1.828125 0.84375 -1.890625 C 0.945312 -1.953125 1.078125 -1.984375 1.234375 -1.984375 L 1.234375 -1.65625 L 1.140625 -1.65625 C 0.773438 -1.65625 0.59375 -1.457031 0.59375 -1.0625 L 0.59375 0 L 0.28125 0 L 0.28125 -1.953125 L 0.59375 -1.953125 Z M 0.59375 -1.640625 "/></g></g></g><g fill="#ffffff" fill-opacity="1"><g transform="translate(86.029709, 99.907726)"><g><path d="M 1.125 0.03125 C 0.9375 0.03125 0.769531 -0.0078125 0.625 -0.09375 C 0.476562 -0.175781 0.363281 -0.289062 0.28125 -0.4375 C 0.195312 -0.59375 0.15625 -0.773438 0.15625 -0.984375 C 0.15625 -1.179688 0.195312 -1.351562 0.28125 -1.5 C 0.363281 -1.65625 0.476562 -1.773438 0.625 -1.859375 C 0.78125 -1.941406 0.953125 -1.984375 1.140625 -1.984375 C 1.328125 -1.984375 1.492188 -1.941406 1.640625 -1.859375 C 1.785156 -1.773438 1.898438 -1.65625 1.984375 -1.5 C 2.078125 -1.351562 2.125 -1.179688 2.125 -0.984375 C 2.125 -0.773438 2.078125 -0.59375 1.984375 -0.4375 C 1.898438 -0.289062 1.78125 -0.175781 1.625 -0.09375 C 1.476562 -0.0078125 1.3125 0.03125 1.125 0.03125 Z M 1.125 -0.25 C 1.238281 -0.25 1.347656 -0.273438 1.453125 -0.328125 C 1.554688 -0.390625 1.640625 -0.472656 1.703125 -0.578125 C 1.765625 -0.691406 1.796875 -0.828125 1.796875 -0.984375 C 1.796875 -1.140625 1.765625 -1.269531 1.703125 -1.375 C 1.640625 -1.488281 1.554688 -1.570312 1.453125 -1.625 C 1.359375 -1.675781 1.253906 -1.703125 1.140625 -1.703125 C 1.015625 -1.703125 0.898438 -1.675781 0.796875 -1.625 C 0.703125 -1.570312 0.625 -1.488281 0.5625 -1.375 C 0.507812 -1.269531 0.484375 -1.140625 0.484375 -0.984375 C 0.484375 -0.816406 0.507812 -0.675781 0.5625 -0.5625 C 0.625 -0.457031 0.703125 -0.378906 0.796875 -0.328125 C 0.898438 -0.273438 1.007812 -0.25 1.125 -0.25 Z M 1.125 -0.25 "/></g></g></g><g fill="#ffffff" fill-opacity="1"><g transform="translate(88.312443, 99.907726)"><g/></g></g><g fill="#ffffff" fill-opacity="1"><g transform="translate(89.264772, 99.907726)"><g><path d="M 0.15625 -0.984375 C 0.15625 -1.179688 0.191406 -1.351562 0.265625 -1.5 C 0.347656 -1.65625 0.457031 -1.773438 0.59375 -1.859375 C 0.738281 -1.941406 0.898438 -1.984375 1.078125 -1.984375 C 1.234375 -1.984375 1.375 -1.945312 1.5 -1.875 C 1.632812 -1.8125 1.738281 -1.722656 1.8125 -1.609375 L 1.8125 -2.640625 L 2.140625 -2.640625 L 2.140625 0 L 1.8125 0 L 1.8125 -0.359375 C 1.738281 -0.242188 1.640625 -0.148438 1.515625 -0.078125 C 1.390625 -0.00390625 1.242188 0.03125 1.078125 0.03125 C 0.898438 0.03125 0.738281 -0.0078125 0.59375 -0.09375 C 0.457031 -0.175781 0.347656 -0.296875 0.265625 -0.453125 C 0.191406 -0.609375 0.15625 -0.785156 0.15625 -0.984375 Z M 1.8125 -0.984375 C 1.8125 -1.128906 1.78125 -1.253906 1.71875 -1.359375 C 1.65625 -1.472656 1.570312 -1.554688 1.46875 -1.609375 C 1.375 -1.671875 1.265625 -1.703125 1.140625 -1.703125 C 1.023438 -1.703125 0.914062 -1.671875 0.8125 -1.609375 C 0.707031 -1.554688 0.625 -1.472656 0.5625 -1.359375 C 0.507812 -1.253906 0.484375 -1.128906 0.484375 -0.984375 C 0.484375 -0.835938 0.507812 -0.707031 0.5625 -0.59375 C 0.625 -0.476562 0.707031 -0.390625 0.8125 -0.328125 C 0.914062 -0.273438 1.023438 -0.25 1.140625 -0.25 C 1.265625 -0.25 1.375 -0.273438 1.46875 -0.328125 C 1.570312 -0.390625 1.65625 -0.476562 1.71875 -0.59375 C 1.78125 -0.707031 1.8125 -0.835938 1.8125 -0.984375 Z M 1.8125 -0.984375 "/></g></g></g><g fill="#ffffff" fill-opacity="1"><g transform="translate(91.67591, 99.907726)"><g><path d="M 2.0625 -1.046875 C 2.0625 -0.984375 2.054688 -0.921875 2.046875 -0.859375 L 0.484375 -0.859375 C 0.492188 -0.660156 0.554688 -0.507812 0.671875 -0.40625 C 0.796875 -0.300781 0.945312 -0.25 1.125 -0.25 C 1.257812 -0.25 1.375 -0.28125 1.46875 -0.34375 C 1.5625 -0.40625 1.628906 -0.492188 1.671875 -0.609375 L 2.015625 -0.609375 C 1.960938 -0.421875 1.859375 -0.265625 1.703125 -0.140625 C 1.546875 -0.0234375 1.351562 0.03125 1.125 0.03125 C 0.9375 0.03125 0.769531 -0.0078125 0.625 -0.09375 C 0.476562 -0.175781 0.363281 -0.289062 0.28125 -0.4375 C 0.195312 -0.59375 0.15625 -0.773438 0.15625 -0.984375 C 0.15625 -1.179688 0.191406 -1.351562 0.265625 -1.5 C 0.347656 -1.65625 0.460938 -1.773438 0.609375 -1.859375 C 0.753906 -1.941406 0.925781 -1.984375 1.125 -1.984375 C 1.300781 -1.984375 1.460938 -1.941406 1.609375 -1.859375 C 1.753906 -1.773438 1.863281 -1.660156 1.9375 -1.515625 C 2.019531 -1.378906 2.0625 -1.222656 2.0625 -1.046875 Z M 1.71875 -1.125 C 1.71875 -1.238281 1.691406 -1.34375 1.640625 -1.4375 C 1.585938 -1.53125 1.515625 -1.597656 1.421875 -1.640625 C 1.328125 -1.679688 1.222656 -1.703125 1.109375 -1.703125 C 0.941406 -1.703125 0.800781 -1.648438 0.6875 -1.546875 C 0.570312 -1.441406 0.503906 -1.300781 0.484375 -1.125 Z M 1.71875 -1.125 "/></g></g></g><g fill="#ffffff" fill-opacity="1"><g transform="translate(93.887307, 99.907726)"><g/></g></g><g fill="#ffffff" fill-opacity="1"><g transform="translate(94.839636, 99.907726)"><g><path d="M 2.15625 -1.765625 C 2.082031 -1.910156 1.976562 -2.019531 1.84375 -2.09375 C 1.71875 -2.175781 1.570312 -2.21875 1.40625 -2.21875 C 1.226562 -2.21875 1.066406 -2.175781 0.921875 -2.09375 C 0.785156 -2.019531 0.675781 -1.90625 0.59375 -1.75 C 0.519531 -1.601562 0.484375 -1.4375 0.484375 -1.25 C 0.484375 -1.050781 0.519531 -0.878906 0.59375 -0.734375 C 0.675781 -0.585938 0.785156 -0.472656 0.921875 -0.390625 C 1.066406 -0.304688 1.226562 -0.265625 1.40625 -0.265625 C 1.644531 -0.265625 1.84375 -0.335938 2 -0.484375 C 2.15625 -0.628906 2.242188 -0.828125 2.265625 -1.078125 L 1.28125 -1.078125 L 1.28125 -1.34375 L 2.625 -1.34375 L 2.625 -1.09375 C 2.601562 -0.882812 2.535156 -0.695312 2.421875 -0.53125 C 2.316406 -0.363281 2.175781 -0.226562 2 -0.125 C 1.820312 -0.03125 1.625 0.015625 1.40625 0.015625 C 1.164062 0.015625 0.953125 -0.0351562 0.765625 -0.140625 C 0.578125 -0.242188 0.425781 -0.390625 0.3125 -0.578125 C 0.207031 -0.773438 0.15625 -1 0.15625 -1.25 C 0.15625 -1.488281 0.207031 -1.703125 0.3125 -1.890625 C 0.425781 -2.085938 0.578125 -2.238281 0.765625 -2.34375 C 0.953125 -2.457031 1.164062 -2.515625 1.40625 -2.515625 C 1.664062 -2.515625 1.894531 -2.445312 2.09375 -2.3125 C 2.300781 -2.1875 2.453125 -2.003906 2.546875 -1.765625 Z M 2.15625 -1.765625 "/></g></g></g><g fill="#ffffff" fill-opacity="1"><g transform="translate(97.614583, 99.907726)"><g><path d="M 2.0625 -1.046875 C 2.0625 -0.984375 2.054688 -0.921875 2.046875 -0.859375 L 0.484375 -0.859375 C 0.492188 -0.660156 0.554688 -0.507812 0.671875 -0.40625 C 0.796875 -0.300781 0.945312 -0.25 1.125 -0.25 C 1.257812 -0.25 1.375 -0.28125 1.46875 -0.34375 C 1.5625 -0.40625 1.628906 -0.492188 1.671875 -0.609375 L 2.015625 -0.609375 C 1.960938 -0.421875 1.859375 -0.265625 1.703125 -0.140625 C 1.546875 -0.0234375 1.351562 0.03125 1.125 0.03125 C 0.9375 0.03125 0.769531 -0.0078125 0.625 -0.09375 C 0.476562 -0.175781 0.363281 -0.289062 0.28125 -0.4375 C 0.195312 -0.59375 0.15625 -0.773438 0.15625 -0.984375 C 0.15625 -1.179688 0.191406 -1.351562 0.265625 -1.5 C 0.347656 -1.65625 0.460938 -1.773438 0.609375 -1.859375 C 0.753906 -1.941406 0.925781 -1.984375 1.125 -1.984375 C 1.300781 -1.984375 1.460938 -1.941406 1.609375 -1.859375 C 1.753906 -1.773438 1.863281 -1.660156 1.9375 -1.515625 C 2.019531 -1.378906 2.0625 -1.222656 2.0625 -1.046875 Z M 1.71875 -1.125 C 1.71875 -1.238281 1.691406 -1.34375 1.640625 -1.4375 C 1.585938 -1.53125 1.515625 -1.597656 1.421875 -1.640625 C 1.328125 -1.679688 1.222656 -1.703125 1.109375 -1.703125 C 0.941406 -1.703125 0.800781 -1.648438 0.6875 -1.546875 C 0.570312 -1.441406 0.503906 -1.300781 0.484375 -1.125 Z M 1.71875 -1.125 "/></g></g></g><g fill="#ffffff" fill-opacity="1"><g transform="translate(99.82598, 99.907726)"><g><path d="M 1.125 0.03125 C 0.9375 0.03125 0.769531 -0.0078125 0.625 -0.09375 C 0.476562 -0.175781 0.363281 -0.289062 0.28125 -0.4375 C 0.195312 -0.59375 0.15625 -0.773438 0.15625 -0.984375 C 0.15625 -1.179688 0.195312 -1.351562 0.28125 -1.5 C 0.363281 -1.65625 0.476562 -1.773438 0.625 -1.859375 C 0.78125 -1.941406 0.953125 -1.984375 1.140625 -1.984375 C 1.328125 -1.984375 1.492188 -1.941406 1.640625 -1.859375 C 1.785156 -1.773438 1.898438 -1.65625 1.984375 -1.5 C 2.078125 -1.351562 2.125 -1.179688 2.125 -0.984375 C 2.125 -0.773438 2.078125 -0.59375 1.984375 -0.4375 C 1.898438 -0.289062 1.78125 -0.175781 1.625 -0.09375 C 1.476562 -0.0078125 1.3125 0.03125 1.125 0.03125 Z M 1.125 -0.25 C 1.238281 -0.25 1.347656 -0.273438 1.453125 -0.328125 C 1.554688 -0.390625 1.640625 -0.472656 1.703125 -0.578125 C 1.765625 -0.691406 1.796875 -0.828125 1.796875 -0.984375 C 1.796875 -1.140625 1.765625 -1.269531 1.703125 -1.375 C 1.640625 -1.488281 1.554688 -1.570312 1.453125 -1.625 C 1.359375 -1.675781 1.253906 -1.703125 1.140625 -1.703125 C 1.015625 -1.703125 0.898438 -1.675781 0.796875 -1.625 C 0.703125 -1.570312 0.625 -1.488281 0.5625 -1.375 C 0.507812 -1.269531 0.484375 -1.140625 0.484375 -0.984375 C 0.484375 -0.816406 0.507812 -0.675781 0.5625 -0.5625 C 0.625 -0.457031 0.703125 -0.378906 0.796875 -0.328125 C 0.898438 -0.273438 1.007812 -0.25 1.125 -0.25 Z M 1.125 -0.25 "/></g></g></g><g fill="#ffffff" fill-opacity="1"><g transform="translate(102.108714, 99.907726)"><g><path d="M 1.078125 -1.984375 C 1.242188 -1.984375 1.390625 -1.945312 1.515625 -1.875 C 1.648438 -1.800781 1.75 -1.707031 1.8125 -1.59375 L 1.8125 -1.953125 L 2.140625 -1.953125 L 2.140625 0.046875 C 2.140625 0.222656 2.097656 0.378906 2.015625 0.515625 C 1.941406 0.660156 1.832031 0.769531 1.6875 0.84375 C 1.550781 0.925781 1.390625 0.96875 1.203125 0.96875 C 0.941406 0.96875 0.722656 0.90625 0.546875 0.78125 C 0.378906 0.65625 0.28125 0.488281 0.25 0.28125 L 0.578125 0.28125 C 0.609375 0.40625 0.679688 0.503906 0.796875 0.578125 C 0.910156 0.648438 1.046875 0.6875 1.203125 0.6875 C 1.378906 0.6875 1.523438 0.628906 1.640625 0.515625 C 1.753906 0.398438 1.8125 0.242188 1.8125 0.046875 L 1.8125 -0.359375 C 1.738281 -0.253906 1.640625 -0.160156 1.515625 -0.078125 C 1.390625 -0.00390625 1.242188 0.03125 1.078125 0.03125 C 0.898438 0.03125 0.738281 -0.0078125 0.59375 -0.09375 C 0.457031 -0.175781 0.347656 -0.296875 0.265625 -0.453125 C 0.191406 -0.609375 0.15625 -0.785156 0.15625 -0.984375 C 0.15625 -1.179688 0.191406 -1.351562 0.265625 -1.5 C 0.347656 -1.65625 0.457031 -1.773438 0.59375 -1.859375 C 0.738281 -1.941406 0.898438 -1.984375 1.078125 -1.984375 Z M 1.8125 -0.984375 C 1.8125 -1.128906 1.78125 -1.253906 1.71875 -1.359375 C 1.65625 -1.472656 1.570312 -1.554688 1.46875 -1.609375 C 1.375 -1.671875 1.265625 -1.703125 1.140625 -1.703125 C 1.023438 -1.703125 0.914062 -1.671875 0.8125 -1.609375 C 0.707031 -1.554688 0.625 -1.472656 0.5625 -1.359375 C 0.507812 -1.253906 0.484375 -1.128906 0.484375 -0.984375 C 0.484375 -0.835938 0.507812 -0.707031 0.5625 -0.59375 C 0.625 -0.476562 0.707031 -0.390625 0.8125 -0.328125 C 0.914062 -0.273438 1.023438 -0.25 1.140625 -0.25 C 1.265625 -0.25 1.375 -0.273438 1.46875 -0.328125 C 1.570312 -0.390625 1.65625 -0.476562 1.71875 -0.59375 C 1.78125 -0.707031 1.8125 -0.835938 1.8125 -0.984375 Z M 1.8125 -0.984375 "/></g></g></g><g fill="#ffffff" fill-opacity="1"><g transform="translate(104.519853, 99.907726)"><g><path d="M 0.59375 -1.640625 C 0.65625 -1.742188 0.738281 -1.828125 0.84375 -1.890625 C 0.945312 -1.953125 1.078125 -1.984375 1.234375 -1.984375 L 1.234375 -1.65625 L 1.140625 -1.65625 C 0.773438 -1.65625 0.59375 -1.457031 0.59375 -1.0625 L 0.59375 0 L 0.28125 0 L 0.28125 -1.953125 L 0.59375 -1.953125 Z M 0.59375 -1.640625 "/></g></g></g><g fill="#ffffff" fill-opacity="1"><g transform="translate(105.850257, 99.907726)"><g><path d="M 0.15625 -0.984375 C 0.15625 -1.179688 0.191406 -1.351562 0.265625 -1.5 C 0.347656 -1.65625 0.457031 -1.773438 0.59375 -1.859375 C 0.738281 -1.941406 0.898438 -1.984375 1.078125 -1.984375 C 1.242188 -1.984375 1.390625 -1.945312 1.515625 -1.875 C 1.648438 -1.800781 1.75 -1.707031 1.8125 -1.59375 L 1.8125 -1.953125 L 2.140625 -1.953125 L 2.140625 0 L 1.8125 0 L 1.8125 -0.359375 C 1.738281 -0.242188 1.640625 -0.148438 1.515625 -0.078125 C 1.390625 -0.00390625 1.242188 0.03125 1.078125 0.03125 C 0.898438 0.03125 0.738281 -0.0078125 0.59375 -0.09375 C 0.457031 -0.175781 0.347656 -0.296875 0.265625 -0.453125 C 0.191406 -0.609375 0.15625 -0.785156 0.15625 -0.984375 Z M 1.8125 -0.984375 C 1.8125 -1.128906 1.78125 -1.253906 1.71875 -1.359375 C 1.65625 -1.472656 1.570312 -1.554688 1.46875 -1.609375 C 1.375 -1.671875 1.265625 -1.703125 1.140625 -1.703125 C 1.023438 -1.703125 0.914062 -1.671875 0.8125 -1.609375 C 0.707031 -1.554688 0.625 -1.472656 0.5625 -1.359375 C 0.507812 -1.253906 0.484375 -1.128906 0.484375 -0.984375 C 0.484375 -0.835938 0.507812 -0.707031 0.5625 -0.59375 C 0.625 -0.476562 0.707031 -0.390625 0.8125 -0.328125 C 0.914062 -0.273438 1.023438 -0.25 1.140625 -0.25 C 1.265625 -0.25 1.375 -0.273438 1.46875 -0.328125 C 1.570312 -0.390625 1.65625 -0.476562 1.71875 -0.59375 C 1.78125 -0.707031 1.8125 -0.835938 1.8125 -0.984375 Z M 1.8125 -0.984375 "/></g></g></g><g fill="#ffffff" fill-opacity="1"><g transform="translate(108.261396, 99.907726)"><g><path d="M 1.0625 -1.6875 L 0.65625 -1.6875 L 0.65625 0 L 0.328125 0 L 0.328125 -1.6875 L 0.078125 -1.6875 L 0.078125 -1.953125 L 0.328125 -1.953125 L 0.328125 -2.09375 C 0.328125 -2.3125 0.382812 -2.46875 0.5 -2.5625 C 0.613281 -2.664062 0.796875 -2.71875 1.046875 -2.71875 L 1.046875 -2.453125 C 0.898438 -2.453125 0.796875 -2.421875 0.734375 -2.359375 C 0.679688 -2.304688 0.65625 -2.21875 0.65625 -2.09375 L 0.65625 -1.953125 L 1.0625 -1.953125 Z M 1.0625 -1.6875 "/></g></g></g><g fill="#ffffff" fill-opacity="1"><g transform="translate(109.434864, 99.907726)"><g><path d="M 0.4375 -2.265625 C 0.375 -2.265625 0.320312 -2.285156 0.28125 -2.328125 C 0.238281 -2.367188 0.21875 -2.421875 0.21875 -2.484375 C 0.21875 -2.546875 0.238281 -2.597656 0.28125 -2.640625 C 0.320312 -2.691406 0.375 -2.71875 0.4375 -2.71875 C 0.5 -2.71875 0.550781 -2.691406 0.59375 -2.640625 C 0.632812 -2.597656 0.65625 -2.546875 0.65625 -2.484375 C 0.65625 -2.421875 0.632812 -2.367188 0.59375 -2.328125 C 0.550781 -2.285156 0.5 -2.265625 0.4375 -2.265625 Z M 0.59375 -1.953125 L 0.59375 0 L 0.28125 0 L 0.28125 -1.953125 Z M 0.59375 -1.953125 "/></g></g></g><g fill="#ffffff" fill-opacity="1"><g transform="translate(110.312292, 99.907726)"><g><path d="M 0.15625 -0.984375 C 0.15625 -1.179688 0.191406 -1.351562 0.265625 -1.5 C 0.347656 -1.65625 0.457031 -1.773438 0.59375 -1.859375 C 0.738281 -1.941406 0.898438 -1.984375 1.078125 -1.984375 C 1.242188 -1.984375 1.390625 -1.945312 1.515625 -1.875 C 1.648438 -1.800781 1.75 -1.707031 1.8125 -1.59375 L 1.8125 -1.953125 L 2.140625 -1.953125 L 2.140625 0 L 1.8125 0 L 1.8125 -0.359375 C 1.738281 -0.242188 1.640625 -0.148438 1.515625 -0.078125 C 1.390625 -0.00390625 1.242188 0.03125 1.078125 0.03125 C 0.898438 0.03125 0.738281 -0.0078125 0.59375 -0.09375 C 0.457031 -0.175781 0.347656 -0.296875 0.265625 -0.453125 C 0.191406 -0.609375 0.15625 -0.785156 0.15625 -0.984375 Z M 1.8125 -0.984375 C 1.8125 -1.128906 1.78125 -1.253906 1.71875 -1.359375 C 1.65625 -1.472656 1.570312 -1.554688 1.46875 -1.609375 C 1.375 -1.671875 1.265625 -1.703125 1.140625 -1.703125 C 1.023438 -1.703125 0.914062 -1.671875 0.8125 -1.609375 C 0.707031 -1.554688 0.625 -1.472656 0.5625 -1.359375 C 0.507812 -1.253906 0.484375 -1.128906 0.484375 -0.984375 C 0.484375 -0.835938 0.507812 -0.707031 0.5625 -0.59375 C 0.625 -0.476562 0.707031 -0.390625 0.8125 -0.328125 C 0.914062 -0.273438 1.023438 -0.25 1.140625 -0.25 C 1.265625 -0.25 1.375 -0.273438 1.46875 -0.328125 C 1.570312 -0.390625 1.65625 -0.476562 1.71875 -0.59375 C 1.78125 -0.707031 1.8125 -0.835938 1.8125 -0.984375 Z M 1.8125 -0.984375 "/></g></g></g><g fill="#ffffff" fill-opacity="1"><g transform="translate(112.72343, 99.907726)"><g/></g></g><g fill="#ffffff" fill-opacity="1"><g transform="translate(113.675759, 99.907726)"><g><path d="M 2.0625 -1.046875 C 2.0625 -0.984375 2.054688 -0.921875 2.046875 -0.859375 L 0.484375 -0.859375 C 0.492188 -0.660156 0.554688 -0.507812 0.671875 -0.40625 C 0.796875 -0.300781 0.945312 -0.25 1.125 -0.25 C 1.257812 -0.25 1.375 -0.28125 1.46875 -0.34375 C 1.5625 -0.40625 1.628906 -0.492188 1.671875 -0.609375 L 2.015625 -0.609375 C 1.960938 -0.421875 1.859375 -0.265625 1.703125 -0.140625 C 1.546875 -0.0234375 1.351562 0.03125 1.125 0.03125 C 0.9375 0.03125 0.769531 -0.0078125 0.625 -0.09375 C 0.476562 -0.175781 0.363281 -0.289062 0.28125 -0.4375 C 0.195312 -0.59375 0.15625 -0.773438 0.15625 -0.984375 C 0.15625 -1.179688 0.191406 -1.351562 0.265625 -1.5 C 0.347656 -1.65625 0.460938 -1.773438 0.609375 -1.859375 C 0.753906 -1.941406 0.925781 -1.984375 1.125 -1.984375 C 1.300781 -1.984375 1.460938 -1.941406 1.609375 -1.859375 C 1.753906 -1.773438 1.863281 -1.660156 1.9375 -1.515625 C 2.019531 -1.378906 2.0625 -1.222656 2.0625 -1.046875 Z M 1.71875 -1.125 C 1.71875 -1.238281 1.691406 -1.34375 1.640625 -1.4375 C 1.585938 -1.53125 1.515625 -1.597656 1.421875 -1.640625 C 1.328125 -1.679688 1.222656 -1.703125 1.109375 -1.703125 C 0.941406 -1.703125 0.800781 -1.648438 0.6875 -1.546875 C 0.570312 -1.441406 0.503906 -1.300781 0.484375 -1.125 Z M 1.71875 -1.125 "/></g></g></g><g fill="#ffffff" fill-opacity="1"><g transform="translate(115.887157, 99.907726)"><g/></g></g><g fill="#ffffff" fill-opacity="1"><g transform="translate(116.839485, 99.907726)"><g><path d="M 0.59375 -2.21875 L 0.59375 -1.390625 L 1.5 -1.390625 L 1.5 -1.125 L 0.59375 -1.125 L 0.59375 -0.265625 L 1.609375 -0.265625 L 1.609375 0 L 0.28125 0 L 0.28125 -2.484375 L 1.609375 -2.484375 L 1.609375 -2.21875 Z M 0.59375 -2.21875 "/></g></g></g><g fill="#ffffff" fill-opacity="1"><g transform="translate(118.669237, 99.907726)"><g><path d="M 0.96875 0.03125 C 0.8125 0.03125 0.675781 0.00390625 0.5625 -0.046875 C 0.445312 -0.0976562 0.351562 -0.164062 0.28125 -0.25 C 0.207031 -0.34375 0.171875 -0.453125 0.171875 -0.578125 L 0.5 -0.578125 C 0.507812 -0.472656 0.554688 -0.390625 0.640625 -0.328125 C 0.722656 -0.273438 0.832031 -0.25 0.96875 -0.25 C 1.082031 -0.25 1.175781 -0.273438 1.25 -0.328125 C 1.320312 -0.378906 1.359375 -0.445312 1.359375 -0.53125 C 1.359375 -0.613281 1.320312 -0.675781 1.25 -0.71875 C 1.175781 -0.757812 1.054688 -0.800781 0.890625 -0.84375 C 0.742188 -0.882812 0.625 -0.921875 0.53125 -0.953125 C 0.445312 -0.992188 0.367188 -1.050781 0.296875 -1.125 C 0.234375 -1.207031 0.203125 -1.3125 0.203125 -1.4375 C 0.203125 -1.539062 0.234375 -1.632812 0.296875 -1.71875 C 0.359375 -1.800781 0.441406 -1.863281 0.546875 -1.90625 C 0.660156 -1.957031 0.785156 -1.984375 0.921875 -1.984375 C 1.140625 -1.984375 1.3125 -1.925781 1.4375 -1.8125 C 1.570312 -1.707031 1.644531 -1.5625 1.65625 -1.375 L 1.328125 -1.375 C 1.328125 -1.476562 1.285156 -1.554688 1.203125 -1.609375 C 1.128906 -1.671875 1.03125 -1.703125 0.90625 -1.703125 C 0.789062 -1.703125 0.695312 -1.675781 0.625 -1.625 C 0.5625 -1.582031 0.53125 -1.519531 0.53125 -1.4375 C 0.53125 -1.375 0.550781 -1.320312 0.59375 -1.28125 C 0.632812 -1.238281 0.6875 -1.203125 0.75 -1.171875 C 0.8125 -1.148438 0.898438 -1.125 1.015625 -1.09375 C 1.148438 -1.0625 1.257812 -1.023438 1.34375 -0.984375 C 1.4375 -0.953125 1.515625 -0.894531 1.578125 -0.8125 C 1.640625 -0.738281 1.671875 -0.644531 1.671875 -0.53125 C 1.671875 -0.425781 1.640625 -0.328125 1.578125 -0.234375 C 1.523438 -0.148438 1.441406 -0.0820312 1.328125 -0.03125 C 1.222656 0.0078125 1.101562 0.03125 0.96875 0.03125 Z M 0.96875 0.03125 "/></g></g></g><g fill="#ffffff" fill-opacity="1"><g transform="translate(120.53109, 99.907726)"><g><path d="M 0.671875 -1.6875 L 0.671875 -0.53125 C 0.671875 -0.4375 0.691406 -0.367188 0.734375 -0.328125 C 0.773438 -0.296875 0.84375 -0.28125 0.9375 -0.28125 L 1.171875 -0.28125 L 1.171875 0 L 0.890625 0 C 0.703125 0 0.5625 -0.0390625 0.46875 -0.125 C 0.382812 -0.207031 0.34375 -0.34375 0.34375 -0.53125 L 0.34375 -1.6875 L 0.09375 -1.6875 L 0.09375 -1.953125 L 0.34375 -1.953125 L 0.34375 -2.4375 L 0.671875 -2.4375 L 0.671875 -1.953125 L 1.171875 -1.953125 L 1.171875 -1.6875 Z M 0.671875 -1.6875 "/></g></g></g><g fill="#ffffff" fill-opacity="1"><g transform="translate(121.829394, 99.907726)"><g><path d="M 0.15625 -0.984375 C 0.15625 -1.179688 0.191406 -1.351562 0.265625 -1.5 C 0.347656 -1.65625 0.457031 -1.773438 0.59375 -1.859375 C 0.738281 -1.941406 0.898438 -1.984375 1.078125 -1.984375 C 1.242188 -1.984375 1.390625 -1.945312 1.515625 -1.875 C 1.648438 -1.800781 1.75 -1.707031 1.8125 -1.59375 L 1.8125 -1.953125 L 2.140625 -1.953125 L 2.140625 0 L 1.8125 0 L 1.8125 -0.359375 C 1.738281 -0.242188 1.640625 -0.148438 1.515625 -0.078125 C 1.390625 -0.00390625 1.242188 0.03125 1.078125 0.03125 C 0.898438 0.03125 0.738281 -0.0078125 0.59375 -0.09375 C 0.457031 -0.175781 0.347656 -0.296875 0.265625 -0.453125 C 0.191406 -0.609375 0.15625 -0.785156 0.15625 -0.984375 Z M 1.8125 -0.984375 C 1.8125 -1.128906 1.78125 -1.253906 1.71875 -1.359375 C 1.65625 -1.472656 1.570312 -1.554688 1.46875 -1.609375 C 1.375 -1.671875 1.265625 -1.703125 1.140625 -1.703125 C 1.023438 -1.703125 0.914062 -1.671875 0.8125 -1.609375 C 0.707031 -1.554688 0.625 -1.472656 0.5625 -1.359375 C 0.507812 -1.253906 0.484375 -1.128906 0.484375 -0.984375 C 0.484375 -0.835938 0.507812 -0.707031 0.5625 -0.59375 C 0.625 -0.476562 0.707031 -0.390625 0.8125 -0.328125 C 0.914062 -0.273438 1.023438 -0.25 1.140625 -0.25 C 1.265625 -0.25 1.375 -0.273438 1.46875 -0.328125 C 1.570312 -0.390625 1.65625 -0.476562 1.71875 -0.59375 C 1.78125 -0.707031 1.8125 -0.835938 1.8125 -0.984375 Z M 1.8125 -0.984375 "/></g></g></g><g fill="#ffffff" fill-opacity="1"><g transform="translate(124.240533, 99.907726)"><g><path d="M 0.671875 -1.6875 L 0.671875 -0.53125 C 0.671875 -0.4375 0.691406 -0.367188 0.734375 -0.328125 C 0.773438 -0.296875 0.84375 -0.28125 0.9375 -0.28125 L 1.171875 -0.28125 L 1.171875 0 L 0.890625 0 C 0.703125 0 0.5625 -0.0390625 0.46875 -0.125 C 0.382812 -0.207031 0.34375 -0.34375 0.34375 -0.53125 L 0.34375 -1.6875 L 0.09375 -1.6875 L 0.09375 -1.953125 L 0.34375 -1.953125 L 0.34375 -2.4375 L 0.671875 -2.4375 L 0.671875 -1.953125 L 1.171875 -1.953125 L 1.171875 -1.6875 Z M 0.671875 -1.6875 "/></g></g></g><g fill="#ffffff" fill-opacity="1"><g transform="translate(125.538836, 99.907726)"><g><path d="M 0.59375 -1.953125 L 0.59375 0 L 0.28125 0 L 0.28125 -1.953125 Z M 0.78125 -2.5 L 0.03125 -2.09375 L 0.03125 -2.34375 L 0.78125 -2.78125 Z M 0.78125 -2.5 "/></g></g></g><g fill="#ffffff" fill-opacity="1"><g transform="translate(126.416264, 99.907726)"><g><path d="M 0.96875 0.03125 C 0.8125 0.03125 0.675781 0.00390625 0.5625 -0.046875 C 0.445312 -0.0976562 0.351562 -0.164062 0.28125 -0.25 C 0.207031 -0.34375 0.171875 -0.453125 0.171875 -0.578125 L 0.5 -0.578125 C 0.507812 -0.472656 0.554688 -0.390625 0.640625 -0.328125 C 0.722656 -0.273438 0.832031 -0.25 0.96875 -0.25 C 1.082031 -0.25 1.175781 -0.273438 1.25 -0.328125 C 1.320312 -0.378906 1.359375 -0.445312 1.359375 -0.53125 C 1.359375 -0.613281 1.320312 -0.675781 1.25 -0.71875 C 1.175781 -0.757812 1.054688 -0.800781 0.890625 -0.84375 C 0.742188 -0.882812 0.625 -0.921875 0.53125 -0.953125 C 0.445312 -0.992188 0.367188 -1.050781 0.296875 -1.125 C 0.234375 -1.207031 0.203125 -1.3125 0.203125 -1.4375 C 0.203125 -1.539062 0.234375 -1.632812 0.296875 -1.71875 C 0.359375 -1.800781 0.441406 -1.863281 0.546875 -1.90625 C 0.660156 -1.957031 0.785156 -1.984375 0.921875 -1.984375 C 1.140625 -1.984375 1.3125 -1.925781 1.4375 -1.8125 C 1.570312 -1.707031 1.644531 -1.5625 1.65625 -1.375 L 1.328125 -1.375 C 1.328125 -1.476562 1.285156 -1.554688 1.203125 -1.609375 C 1.128906 -1.671875 1.03125 -1.703125 0.90625 -1.703125 C 0.789062 -1.703125 0.695312 -1.675781 0.625 -1.625 C 0.5625 -1.582031 0.53125 -1.519531 0.53125 -1.4375 C 0.53125 -1.375 0.550781 -1.320312 0.59375 -1.28125 C 0.632812 -1.238281 0.6875 -1.203125 0.75 -1.171875 C 0.8125 -1.148438 0.898438 -1.125 1.015625 -1.09375 C 1.148438 -1.0625 1.257812 -1.023438 1.34375 -0.984375 C 1.4375 -0.953125 1.515625 -0.894531 1.578125 -0.8125 C 1.640625 -0.738281 1.671875 -0.644531 1.671875 -0.53125 C 1.671875 -0.425781 1.640625 -0.328125 1.578125 -0.234375 C 1.523438 -0.148438 1.441406 -0.0820312 1.328125 -0.03125 C 1.222656 0.0078125 1.101562 0.03125 0.96875 0.03125 Z M 0.96875 0.03125 "/></g></g></g><g fill="#ffffff" fill-opacity="1"><g transform="translate(128.278117, 99.907726)"><g><path d="M 0.671875 -1.6875 L 0.671875 -0.53125 C 0.671875 -0.4375 0.691406 -0.367188 0.734375 -0.328125 C 0.773438 -0.296875 0.84375 -0.28125 0.9375 -0.28125 L 1.171875 -0.28125 L 1.171875 0 L 0.890625 0 C 0.703125 0 0.5625 -0.0390625 0.46875 -0.125 C 0.382812 -0.207031 0.34375 -0.34375 0.34375 -0.53125 L 0.34375 -1.6875 L 0.09375 -1.6875 L 0.09375 -1.953125 L 0.34375 -1.953125 L 0.34375 -2.4375 L 0.671875 -2.4375 L 0.671875 -1.953125 L 1.171875 -1.953125 L 1.171875 -1.6875 Z M 0.671875 -1.6875 "/></g></g></g><g fill="#ffffff" fill-opacity="1"><g transform="translate(129.576421, 99.907726)"><g><path d="M 0.4375 -2.265625 C 0.375 -2.265625 0.320312 -2.285156 0.28125 -2.328125 C 0.238281 -2.367188 0.21875 -2.421875 0.21875 -2.484375 C 0.21875 -2.546875 0.238281 -2.597656 0.28125 -2.640625 C 0.320312 -2.691406 0.375 -2.71875 0.4375 -2.71875 C 0.5 -2.71875 0.550781 -2.691406 0.59375 -2.640625 C 0.632812 -2.597656 0.65625 -2.546875 0.65625 -2.484375 C 0.65625 -2.421875 0.632812 -2.367188 0.59375 -2.328125 C 0.550781 -2.285156 0.5 -2.265625 0.4375 -2.265625 Z M 0.59375 -1.953125 L 0.59375 0 L 0.28125 0 L 0.28125 -1.953125 Z M 0.59375 -1.953125 "/></g></g></g><g fill="#ffffff" fill-opacity="1"><g transform="translate(130.453848, 99.907726)"><g><path d="M 0.15625 -0.984375 C 0.15625 -1.179688 0.191406 -1.351562 0.265625 -1.5 C 0.347656 -1.65625 0.460938 -1.773438 0.609375 -1.859375 C 0.753906 -1.941406 0.921875 -1.984375 1.109375 -1.984375 C 1.347656 -1.984375 1.546875 -1.925781 1.703125 -1.8125 C 1.859375 -1.695312 1.957031 -1.535156 2 -1.328125 L 1.65625 -1.328125 C 1.625 -1.441406 1.554688 -1.53125 1.453125 -1.59375 C 1.359375 -1.664062 1.242188 -1.703125 1.109375 -1.703125 C 0.921875 -1.703125 0.769531 -1.640625 0.65625 -1.515625 C 0.539062 -1.390625 0.484375 -1.210938 0.484375 -0.984375 C 0.484375 -0.742188 0.539062 -0.5625 0.65625 -0.4375 C 0.769531 -0.3125 0.921875 -0.25 1.109375 -0.25 C 1.242188 -0.25 1.359375 -0.28125 1.453125 -0.34375 C 1.554688 -0.40625 1.625 -0.5 1.65625 -0.625 L 2 -0.625 C 1.945312 -0.425781 1.84375 -0.265625 1.6875 -0.140625 C 1.53125 -0.0234375 1.335938 0.03125 1.109375 0.03125 C 0.921875 0.03125 0.753906 -0.0078125 0.609375 -0.09375 C 0.460938 -0.175781 0.347656 -0.289062 0.265625 -0.4375 C 0.191406 -0.59375 0.15625 -0.773438 0.15625 -0.984375 Z M 0.15625 -0.984375 "/></g></g></g><g fill="#ffffff" fill-opacity="1"><g transform="translate(132.61888, 99.907726)"><g><path d="M 0.15625 -0.984375 C 0.15625 -1.179688 0.191406 -1.351562 0.265625 -1.5 C 0.347656 -1.65625 0.457031 -1.773438 0.59375 -1.859375 C 0.738281 -1.941406 0.898438 -1.984375 1.078125 -1.984375 C 1.242188 -1.984375 1.390625 -1.945312 1.515625 -1.875 C 1.648438 -1.800781 1.75 -1.707031 1.8125 -1.59375 L 1.8125 -1.953125 L 2.140625 -1.953125 L 2.140625 0 L 1.8125 0 L 1.8125 -0.359375 C 1.738281 -0.242188 1.640625 -0.148438 1.515625 -0.078125 C 1.390625 -0.00390625 1.242188 0.03125 1.078125 0.03125 C 0.898438 0.03125 0.738281 -0.0078125 0.59375 -0.09375 C 0.457031 -0.175781 0.347656 -0.296875 0.265625 -0.453125 C 0.191406 -0.609375 0.15625 -0.785156 0.15625 -0.984375 Z M 1.8125 -0.984375 C 1.8125 -1.128906 1.78125 -1.253906 1.71875 -1.359375 C 1.65625 -1.472656 1.570312 -1.554688 1.46875 -1.609375 C 1.375 -1.671875 1.265625 -1.703125 1.140625 -1.703125 C 1.023438 -1.703125 0.914062 -1.671875 0.8125 -1.609375 C 0.707031 -1.554688 0.625 -1.472656 0.5625 -1.359375 C 0.507812 -1.253906 0.484375 -1.128906 0.484375 -0.984375 C 0.484375 -0.835938 0.507812 -0.707031 0.5625 -0.59375 C 0.625 -0.476562 0.707031 -0.390625 0.8125 -0.328125 C 0.914062 -0.273438 1.023438 -0.25 1.140625 -0.25 C 1.265625 -0.25 1.375 -0.273438 1.46875 -0.328125 C 1.570312 -0.390625 1.65625 -0.476562 1.71875 -0.59375 C 1.78125 -0.707031 1.8125 -0.835938 1.8125 -0.984375 Z M 1.8125 -0.984375 "/></g></g></g></svg>