<svg xmlns="http://www.w3.org/2000/svg" xmlns:xlink="http://www.w3.org/1999/xlink" width="200" zoomAndPan="magnify" viewBox="0 0 150 149.999998" height="200" preserveAspectRatio="xMidYMid meet" version="1.0"><defs><g/></defs><rect x="-15" width="180" fill="#ffffff" y="-15" height="179.999997" fill-opacity="1"/><rect x="-15" width="180" fill="#0a152f" y="-15" height="179.999997" fill-opacity="1"/><path stroke-linecap="butt" transform="matrix(0.75, 0, 0, 0.75, 0.00000125, 96.114167)" fill="none" stroke-linejoin="miter" d="M -0.00000166667 0.498819 L 180.088551 0.498819 " stroke="#ffffff" stroke-width="1" stroke-opacity="1" stroke-miterlimit="4"/><g fill="#ffffff" fill-opacity="1"><g transform="translate(15, 54.819728)"><g><path d="M 1.734375 -7.203125 L 1.734375 0 L 0.796875 0 L 0.796875 -7.203125 Z M 2.265625 -8.765625 L 0.0625 -7.59375 L 0.0625 -8.296875 L 2.265625 -9.59375 Z M 2.265625 -8.765625 "/></g></g></g><g fill="#ffffff" fill-opacity="1"><g transform="translate(17.542649, 54.819728)"><g><path d="M 3.5625 -5.765625 C 4.25 -5.765625 4.804688 -5.554688 5.234375 -5.140625 C 5.660156 -4.722656 5.875 -4.125 5.875 -3.34375 L 5.875 0 L 4.9375 0 L 4.9375 -3.203125 C 4.9375 -3.773438 4.796875 -4.207031 4.515625 -4.5 C 4.234375 -4.800781 3.847656 -4.953125 3.359375 -4.953125 C 2.859375 -4.953125 2.460938 -4.796875 2.171875 -4.484375 C 1.878906 -4.179688 1.734375 -3.734375 1.734375 -3.140625 L 1.734375 0 L 0.796875 0 L 0.796875 -5.671875 L 1.734375 -5.671875 L 1.734375 -4.859375 C 1.921875 -5.148438 2.175781 -5.375 2.5 -5.53125 C 2.820312 -5.6875 3.175781 -5.765625 3.5625 -5.765625 Z M 3.5625 -5.765625 "/></g></g></g><g fill="#ffffff" fill-opacity="1"><g transform="translate(24.157677, 54.819728)"><g><path d="M 0.4375 -2.859375 C 0.4375 -3.429688 0.550781 -3.9375 0.78125 -4.375 C 1.019531 -4.8125 1.34375 -5.148438 1.75 -5.390625 C 2.164062 -5.640625 2.628906 -5.765625 3.140625 -5.765625 C 3.585938 -5.765625 4 -5.660156 4.375 -5.453125 C 4.75 -5.253906 5.039062 -4.988281 5.25 -4.65625 L 5.25 -7.65625 L 6.203125 -7.65625 L 6.203125 0 L 5.25 0 L 5.25 -1.0625 C 5.0625 -0.726562 4.785156 -0.453125 4.421875 -0.234375 C 4.054688 -0.015625 3.628906 0.09375 3.140625 0.09375 C 2.628906 0.09375 2.164062 -0.03125 1.75 -0.28125 C 1.34375 -0.53125 1.019531 -0.878906 0.78125 -1.328125 C 0.550781 -1.773438 0.4375 -2.285156 0.4375 -2.859375 Z M 5.25 -2.84375 C 5.25 -3.269531 5.160156 -3.640625 4.984375 -3.953125 C 4.816406 -4.273438 4.582031 -4.519531 4.28125 -4.6875 C 3.988281 -4.851562 3.671875 -4.9375 3.328125 -4.9375 C 2.972656 -4.9375 2.648438 -4.851562 2.359375 -4.6875 C 2.066406 -4.53125 1.832031 -4.289062 1.65625 -3.96875 C 1.488281 -3.65625 1.40625 -3.285156 1.40625 -2.859375 C 1.40625 -2.421875 1.488281 -2.039062 1.65625 -1.71875 C 1.832031 -1.394531 2.066406 -1.148438 2.359375 -0.984375 C 2.648438 -0.816406 2.972656 -0.734375 3.328125 -0.734375 C 3.671875 -0.734375 3.988281 -0.816406 4.28125 -0.984375 C 4.582031 -1.148438 4.816406 -1.394531 4.984375 -1.71875 C 5.160156 -2.039062 5.25 -2.414062 5.25 -2.84375 Z M 5.25 -2.84375 "/></g></g></g><g fill="#ffffff" fill-opacity="1"><g transform="translate(31.144798, 54.819728)"><g><path d="M 1.28125 -6.59375 C 1.101562 -6.59375 0.953125 -6.65625 0.828125 -6.78125 C 0.703125 -6.90625 0.640625 -7.054688 0.640625 -7.234375 C 0.640625 -7.410156 0.703125 -7.5625 0.828125 -7.6875 C 0.953125 -7.8125 1.101562 -7.875 1.28125 -7.875 C 1.457031 -7.875 1.601562 -7.8125 1.71875 -7.6875 C 1.84375 -7.5625 1.90625 -7.410156 1.90625 -7.234375 C 1.90625 -7.054688 1.84375 -6.90625 1.71875 -6.78125 C 1.601562 -6.65625 1.457031 -6.59375 1.28125 -6.59375 Z M 1.734375 -5.671875 L 1.734375 0 L 0.796875 0 L 0.796875 -5.671875 Z M 1.734375 -5.671875 "/></g></g></g><g fill="#ffffff" fill-opacity="1"><g transform="translate(33.687446, 54.819728)"><g><path d="M 0.4375 -2.84375 C 0.4375 -3.425781 0.550781 -3.9375 0.78125 -4.375 C 1.019531 -4.8125 1.347656 -5.148438 1.765625 -5.390625 C 2.191406 -5.640625 2.671875 -5.765625 3.203125 -5.765625 C 3.898438 -5.765625 4.472656 -5.59375 4.921875 -5.25 C 5.378906 -4.914062 5.679688 -4.445312 5.828125 -3.84375 L 4.8125 -3.84375 C 4.71875 -4.1875 4.53125 -4.457031 4.25 -4.65625 C 3.96875 -4.863281 3.617188 -4.96875 3.203125 -4.96875 C 2.671875 -4.96875 2.238281 -4.78125 1.90625 -4.40625 C 1.570312 -4.039062 1.40625 -3.519531 1.40625 -2.84375 C 1.40625 -2.164062 1.570312 -1.640625 1.90625 -1.265625 C 2.238281 -0.890625 2.671875 -0.703125 3.203125 -0.703125 C 3.617188 -0.703125 3.960938 -0.796875 4.234375 -0.984375 C 4.515625 -1.179688 4.707031 -1.460938 4.8125 -1.828125 L 5.828125 -1.828125 C 5.671875 -1.242188 5.363281 -0.773438 4.90625 -0.421875 C 4.457031 -0.078125 3.890625 0.09375 3.203125 0.09375 C 2.671875 0.09375 2.191406 -0.0234375 1.765625 -0.265625 C 1.347656 -0.503906 1.019531 -0.84375 0.78125 -1.28125 C 0.550781 -1.726562 0.4375 -2.25 0.4375 -2.84375 Z M 0.4375 -2.84375 "/></g></g></g><g fill="#ffffff" fill-opacity="1"><g transform="translate(39.961383, 54.819728)"><g><path d="M 5.96875 -3.046875 C 5.96875 -2.867188 5.957031 -2.679688 5.9375 -2.484375 L 1.40625 -2.484375 C 1.4375 -1.921875 1.625 -1.484375 1.96875 -1.171875 C 2.320312 -0.859375 2.75 -0.703125 3.25 -0.703125 C 3.65625 -0.703125 3.992188 -0.796875 4.265625 -0.984375 C 4.535156 -1.171875 4.726562 -1.425781 4.84375 -1.75 L 5.859375 -1.75 C 5.703125 -1.207031 5.394531 -0.765625 4.9375 -0.421875 C 4.488281 -0.078125 3.925781 0.09375 3.25 0.09375 C 2.707031 0.09375 2.222656 -0.0234375 1.796875 -0.265625 C 1.378906 -0.503906 1.046875 -0.847656 0.796875 -1.296875 C 0.554688 -1.742188 0.4375 -2.257812 0.4375 -2.84375 C 0.4375 -3.425781 0.550781 -3.9375 0.78125 -4.375 C 1.019531 -4.820312 1.351562 -5.164062 1.78125 -5.40625 C 2.207031 -5.644531 2.695312 -5.765625 3.25 -5.765625 C 3.789062 -5.765625 4.265625 -5.644531 4.671875 -5.40625 C 5.085938 -5.175781 5.40625 -4.851562 5.625 -4.4375 C 5.851562 -4.03125 5.96875 -3.566406 5.96875 -3.046875 Z M 5 -3.25 C 5 -3.601562 4.914062 -3.910156 4.75 -4.171875 C 4.59375 -4.429688 4.378906 -4.628906 4.109375 -4.765625 C 3.835938 -4.898438 3.535156 -4.96875 3.203125 -4.96875 C 2.734375 -4.96875 2.328125 -4.816406 1.984375 -4.515625 C 1.648438 -4.210938 1.460938 -3.789062 1.421875 -3.25 Z M 5 -3.25 "/></g></g></g><g fill="#ffffff" fill-opacity="1"><g transform="translate(46.369696, 54.819728)"><g/></g></g><g fill="#ffffff" fill-opacity="1"><g transform="translate(49.129404, 54.819728)"><g><path d="M 0.4375 -2.859375 C 0.4375 -3.429688 0.550781 -3.9375 0.78125 -4.375 C 1.019531 -4.8125 1.34375 -5.148438 1.75 -5.390625 C 2.164062 -5.640625 2.628906 -5.765625 3.140625 -5.765625 C 3.585938 -5.765625 4 -5.660156 4.375 -5.453125 C 4.75 -5.253906 5.039062 -4.988281 5.25 -4.65625 L 5.25 -7.65625 L 6.203125 -7.65625 L 6.203125 0 L 5.25 0 L 5.25 -1.0625 C 5.0625 -0.726562 4.785156 -0.453125 4.421875 -0.234375 C 4.054688 -0.015625 3.628906 0.09375 3.140625 0.09375 C 2.628906 0.09375 2.164062 -0.03125 1.75 -0.28125 C 1.34375 -0.53125 1.019531 -0.878906 0.78125 -1.328125 C 0.550781 -1.773438 0.4375 -2.285156 0.4375 -2.859375 Z M 5.25 -2.84375 C 5.25 -3.269531 5.160156 -3.640625 4.984375 -3.953125 C 4.816406 -4.273438 4.582031 -4.519531 4.28125 -4.6875 C 3.988281 -4.851562 3.671875 -4.9375 3.328125 -4.9375 C 2.972656 -4.9375 2.648438 -4.851562 2.359375 -4.6875 C 2.066406 -4.53125 1.832031 -4.289062 1.65625 -3.96875 C 1.488281 -3.65625 1.40625 -3.285156 1.40625 -2.859375 C 1.40625 -2.421875 1.488281 -2.039062 1.65625 -1.71875 C 1.832031 -1.394531 2.066406 -1.148438 2.359375 -0.984375 C 2.648438 -0.816406 2.972656 -0.734375 3.328125 -0.734375 C 3.671875 -0.734375 3.988281 -0.816406 4.28125 -0.984375 C 4.582031 -1.148438 4.816406 -1.394531 4.984375 -1.71875 C 5.160156 -2.039062 5.25 -2.414062 5.25 -2.84375 Z M 5.25 -2.84375 "/></g></g></g><g fill="#ffffff" fill-opacity="1"><g transform="translate(56.116526, 54.819728)"><g><path d="M 5.96875 -3.046875 C 5.96875 -2.867188 5.957031 -2.679688 5.9375 -2.484375 L 1.40625 -2.484375 C 1.4375 -1.921875 1.625 -1.484375 1.96875 -1.171875 C 2.320312 -0.859375 2.75 -0.703125 3.25 -0.703125 C 3.65625 -0.703125 3.992188 -0.796875 4.265625 -0.984375 C 4.535156 -1.171875 4.726562 -1.425781 4.84375 -1.75 L 5.859375 -1.75 C 5.703125 -1.207031 5.394531 -0.765625 4.9375 -0.421875 C 4.488281 -0.078125 3.925781 0.09375 3.25 0.09375 C 2.707031 0.09375 2.222656 -0.0234375 1.796875 -0.265625 C 1.378906 -0.503906 1.046875 -0.847656 0.796875 -1.296875 C 0.554688 -1.742188 0.4375 -2.257812 0.4375 -2.84375 C 0.4375 -3.425781 0.550781 -3.9375 0.78125 -4.375 C 1.019531 -4.820312 1.351562 -5.164062 1.78125 -5.40625 C 2.207031 -5.644531 2.695312 -5.765625 3.25 -5.765625 C 3.789062 -5.765625 4.265625 -5.644531 4.671875 -5.40625 C 5.085938 -5.175781 5.40625 -4.851562 5.625 -4.4375 C 5.851562 -4.03125 5.96875 -3.566406 5.96875 -3.046875 Z M 5 -3.25 C 5 -3.601562 4.914062 -3.910156 4.75 -4.171875 C 4.59375 -4.429688 4.378906 -4.628906 4.109375 -4.765625 C 3.835938 -4.898438 3.535156 -4.96875 3.203125 -4.96875 C 2.734375 -4.96875 2.328125 -4.816406 1.984375 -4.515625 C 1.648438 -4.210938 1.460938 -3.789062 1.421875 -3.25 Z M 5 -3.25 "/></g></g></g><g fill="#ffffff" fill-opacity="1"><g transform="translate(62.524839, 54.819728)"><g/></g></g><g fill="#ffffff" fill-opacity="1"><g transform="translate(65.284547, 54.819728)"><g><path d="M 5.0625 -1.609375 L 1.90625 -1.609375 L 1.328125 0 L 0.34375 0 L 2.953125 -7.171875 L 4.03125 -7.171875 L 6.625 0 L 5.640625 0 Z M 4.796875 -2.375 L 3.484375 -6.015625 L 2.1875 -2.375 Z M 4.796875 -2.375 "/></g></g></g><g fill="#ffffff" fill-opacity="1"><g transform="translate(72.251, 54.819728)"><g><path d="M 1.9375 -4.890625 L 1.9375 -1.546875 C 1.9375 -1.273438 1.992188 -1.082031 2.109375 -0.96875 C 2.234375 -0.851562 2.441406 -0.796875 2.734375 -0.796875 L 3.421875 -0.796875 L 3.421875 0 L 2.578125 0 C 2.054688 0 1.660156 -0.117188 1.390625 -0.359375 C 1.128906 -0.597656 1 -0.992188 1 -1.546875 L 1 -4.890625 L 0.265625 -4.890625 L 0.265625 -5.671875 L 1 -5.671875 L 1 -7.09375 L 1.9375 -7.09375 L 1.9375 -5.671875 L 3.421875 -5.671875 L 3.421875 -4.890625 Z M 1.9375 -4.890625 "/></g></g></g><g fill="#ffffff" fill-opacity="1"><g transform="translate(76.013302, 54.819728)"><g><path d="M 1.28125 -6.59375 C 1.101562 -6.59375 0.953125 -6.65625 0.828125 -6.78125 C 0.703125 -6.90625 0.640625 -7.054688 0.640625 -7.234375 C 0.640625 -7.410156 0.703125 -7.5625 0.828125 -7.6875 C 0.953125 -7.8125 1.101562 -7.875 1.28125 -7.875 C 1.457031 -7.875 1.601562 -7.8125 1.71875 -7.6875 C 1.84375 -7.5625 1.90625 -7.410156 1.90625 -7.234375 C 1.90625 -7.054688 1.84375 -6.90625 1.71875 -6.78125 C 1.601562 -6.65625 1.457031 -6.59375 1.28125 -6.59375 Z M 1.734375 -5.671875 L 1.734375 0 L 0.796875 0 L 0.796875 -5.671875 Z M 1.734375 -5.671875 "/></g></g></g><g fill="#ffffff" fill-opacity="1"><g transform="translate(78.555951, 54.819728)"><g><path d="M 2.90625 -0.875 L 4.671875 -5.671875 L 5.671875 -5.671875 L 3.4375 0 L 2.34375 0 L 0.125 -5.671875 L 1.140625 -5.671875 Z M 2.90625 -0.875 "/></g></g></g><g fill="#ffffff" fill-opacity="1"><g transform="translate(84.354431, 54.819728)"><g><path d="M 1.28125 -6.59375 C 1.101562 -6.59375 0.953125 -6.65625 0.828125 -6.78125 C 0.703125 -6.90625 0.640625 -7.054688 0.640625 -7.234375 C 0.640625 -7.410156 0.703125 -7.5625 0.828125 -7.6875 C 0.953125 -7.8125 1.101562 -7.875 1.28125 -7.875 C 1.457031 -7.875 1.601562 -7.8125 1.71875 -7.6875 C 1.84375 -7.5625 1.90625 -7.410156 1.90625 -7.234375 C 1.90625 -7.054688 1.84375 -6.90625 1.71875 -6.78125 C 1.601562 -6.65625 1.457031 -6.59375 1.28125 -6.59375 Z M 1.734375 -5.671875 L 1.734375 0 L 0.796875 0 L 0.796875 -5.671875 Z M 1.734375 -5.671875 "/></g></g></g><g fill="#ffffff" fill-opacity="1"><g transform="translate(86.897079, 54.819728)"><g><path d="M 0.4375 -2.859375 C 0.4375 -3.429688 0.550781 -3.9375 0.78125 -4.375 C 1.019531 -4.8125 1.34375 -5.148438 1.75 -5.390625 C 2.164062 -5.640625 2.628906 -5.765625 3.140625 -5.765625 C 3.585938 -5.765625 4 -5.660156 4.375 -5.453125 C 4.75 -5.253906 5.039062 -4.988281 5.25 -4.65625 L 5.25 -7.65625 L 6.203125 -7.65625 L 6.203125 0 L 5.25 0 L 5.25 -1.0625 C 5.0625 -0.726562 4.785156 -0.453125 4.421875 -0.234375 C 4.054688 -0.015625 3.628906 0.09375 3.140625 0.09375 C 2.628906 0.09375 2.164062 -0.03125 1.75 -0.28125 C 1.34375 -0.53125 1.019531 -0.878906 0.78125 -1.328125 C 0.550781 -1.773438 0.4375 -2.285156 0.4375 -2.859375 Z M 5.25 -2.84375 C 5.25 -3.269531 5.160156 -3.640625 4.984375 -3.953125 C 4.816406 -4.273438 4.582031 -4.519531 4.28125 -4.6875 C 3.988281 -4.851562 3.671875 -4.9375 3.328125 -4.9375 C 2.972656 -4.9375 2.648438 -4.851562 2.359375 -4.6875 C 2.066406 -4.53125 1.832031 -4.289062 1.65625 -3.96875 C 1.488281 -3.65625 1.40625 -3.285156 1.40625 -2.859375 C 1.40625 -2.421875 1.488281 -2.039062 1.65625 -1.71875 C 1.832031 -1.394531 2.066406 -1.148438 2.359375 -0.984375 C 2.648438 -0.816406 2.972656 -0.734375 3.328125 -0.734375 C 3.671875 -0.734375 3.988281 -0.816406 4.28125 -0.984375 C 4.582031 -1.148438 4.816406 -1.394531 4.984375 -1.71875 C 5.160156 -2.039062 5.25 -2.414062 5.25 -2.84375 Z M 5.25 -2.84375 "/></g></g></g><g fill="#ffffff" fill-opacity="1"><g transform="translate(93.884201, 54.819728)"><g><path d="M 0.4375 -2.859375 C 0.4375 -3.429688 0.550781 -3.9375 0.78125 -4.375 C 1.019531 -4.8125 1.34375 -5.148438 1.75 -5.390625 C 2.164062 -5.640625 2.628906 -5.765625 3.140625 -5.765625 C 3.628906 -5.765625 4.054688 -5.65625 4.421875 -5.4375 C 4.785156 -5.226562 5.0625 -4.960938 5.25 -4.640625 L 5.25 -5.671875 L 6.203125 -5.671875 L 6.203125 0 L 5.25 0 L 5.25 -1.0625 C 5.0625 -0.726562 4.78125 -0.453125 4.40625 -0.234375 C 4.039062 -0.015625 3.613281 0.09375 3.125 0.09375 C 2.625 0.09375 2.164062 -0.03125 1.75 -0.28125 C 1.34375 -0.53125 1.019531 -0.878906 0.78125 -1.328125 C 0.550781 -1.773438 0.4375 -2.285156 0.4375 -2.859375 Z M 5.25 -2.84375 C 5.25 -3.269531 5.160156 -3.640625 4.984375 -3.953125 C 4.816406 -4.273438 4.582031 -4.519531 4.28125 -4.6875 C 3.988281 -4.851562 3.671875 -4.9375 3.328125 -4.9375 C 2.972656 -4.9375 2.648438 -4.851562 2.359375 -4.6875 C 2.066406 -4.53125 1.832031 -4.289062 1.65625 -3.96875 C 1.488281 -3.65625 1.40625 -3.285156 1.40625 -2.859375 C 1.40625 -2.421875 1.488281 -2.039062 1.65625 -1.71875 C 1.832031 -1.394531 2.066406 -1.148438 2.359375 -0.984375 C 2.648438 -0.816406 2.972656 -0.734375 3.328125 -0.734375 C 3.671875 -0.734375 3.988281 -0.816406 4.28125 -0.984375 C 4.582031 -1.148438 4.816406 -1.394531 4.984375 -1.71875 C 5.160156 -2.039062 5.25 -2.414062 5.25 -2.84375 Z M 5.25 -2.84375 "/></g></g></g><g fill="#ffffff" fill-opacity="1"><g transform="translate(100.871322, 54.819728)"><g><path d="M 0.4375 -2.859375 C 0.4375 -3.429688 0.550781 -3.9375 0.78125 -4.375 C 1.019531 -4.8125 1.34375 -5.148438 1.75 -5.390625 C 2.164062 -5.640625 2.628906 -5.765625 3.140625 -5.765625 C 3.585938 -5.765625 4 -5.660156 4.375 -5.453125 C 4.75 -5.253906 5.039062 -4.988281 5.25 -4.65625 L 5.25 -7.65625 L 6.203125 -7.65625 L 6.203125 0 L 5.25 0 L 5.25 -1.0625 C 5.0625 -0.726562 4.785156 -0.453125 4.421875 -0.234375 C 4.054688 -0.015625 3.628906 0.09375 3.140625 0.09375 C 2.628906 0.09375 2.164062 -0.03125 1.75 -0.28125 C 1.34375 -0.53125 1.019531 -0.878906 0.78125 -1.328125 C 0.550781 -1.773438 0.4375 -2.285156 0.4375 -2.859375 Z M 5.25 -2.84375 C 5.25 -3.269531 5.160156 -3.640625 4.984375 -3.953125 C 4.816406 -4.273438 4.582031 -4.519531 4.28125 -4.6875 C 3.988281 -4.851562 3.671875 -4.9375 3.328125 -4.9375 C 2.972656 -4.9375 2.648438 -4.851562 2.359375 -4.6875 C 2.066406 -4.53125 1.832031 -4.289062 1.65625 -3.96875 C 1.488281 -3.65625 1.40625 -3.285156 1.40625 -2.859375 C 1.40625 -2.421875 1.488281 -2.039062 1.65625 -1.71875 C 1.832031 -1.394531 2.066406 -1.148438 2.359375 -0.984375 C 2.648438 -0.816406 2.972656 -0.734375 3.328125 -0.734375 C 3.671875 -0.734375 3.988281 -0.816406 4.28125 -0.984375 C 4.582031 -1.148438 4.816406 -1.394531 4.984375 -1.71875 C 5.160156 -2.039062 5.25 -2.414062 5.25 -2.84375 Z M 5.25 -2.84375 "/></g></g></g><g fill="#ffffff" fill-opacity="1"><g transform="translate(107.858443, 54.819728)"><g><path d="M 5.96875 -3.046875 C 5.96875 -2.867188 5.957031 -2.679688 5.9375 -2.484375 L 1.40625 -2.484375 C 1.4375 -1.921875 1.625 -1.484375 1.96875 -1.171875 C 2.320312 -0.859375 2.75 -0.703125 3.25 -0.703125 C 3.65625 -0.703125 3.992188 -0.796875 4.265625 -0.984375 C 4.535156 -1.171875 4.726562 -1.425781 4.84375 -1.75 L 5.859375 -1.75 C 5.703125 -1.207031 5.394531 -0.765625 4.9375 -0.421875 C 4.488281 -0.078125 3.925781 0.09375 3.25 0.09375 C 2.707031 0.09375 2.222656 -0.0234375 1.796875 -0.265625 C 1.378906 -0.503906 1.046875 -0.847656 0.796875 -1.296875 C 0.554688 -1.742188 0.4375 -2.257812 0.4375 -2.84375 C 0.4375 -3.425781 0.550781 -3.9375 0.78125 -4.375 C 1.019531 -4.820312 1.351562 -5.164062 1.78125 -5.40625 C 2.207031 -5.644531 2.695312 -5.765625 3.25 -5.765625 C 3.789062 -5.765625 4.265625 -5.644531 4.671875 -5.40625 C 5.085938 -5.175781 5.40625 -4.851562 5.625 -4.4375 C 5.851562 -4.03125 5.96875 -3.566406 5.96875 -3.046875 Z M 5 -3.25 C 5 -3.601562 4.914062 -3.910156 4.75 -4.171875 C 4.59375 -4.429688 4.378906 -4.628906 4.109375 -4.765625 C 3.835938 -4.898438 3.535156 -4.96875 3.203125 -4.96875 C 2.734375 -4.96875 2.328125 -4.816406 1.984375 -4.515625 C 1.648438 -4.210938 1.460938 -3.789062 1.421875 -3.25 Z M 5 -3.25 "/></g></g></g><g fill="#ffffff" fill-opacity="1"><g transform="translate(15, 66.819728)"><g><path d="M 1.734375 -6.4375 L 1.734375 -4.03125 L 4.359375 -4.03125 L 4.359375 -3.265625 L 1.734375 -3.265625 L 1.734375 -0.78125 L 4.671875 -0.78125 L 4.671875 0 L 0.796875 0 L 0.796875 -7.21875 L 4.671875 -7.21875 L 4.671875 -6.4375 Z M 1.734375 -6.4375 "/></g></g></g><g fill="#ffffff" fill-opacity="1"><g transform="translate(20.302357, 66.819728)"><g><path d="M 0.4375 -2.84375 C 0.4375 -3.425781 0.550781 -3.9375 0.78125 -4.375 C 1.019531 -4.8125 1.347656 -5.148438 1.765625 -5.390625 C 2.191406 -5.640625 2.671875 -5.765625 3.203125 -5.765625 C 3.898438 -5.765625 4.472656 -5.59375 4.921875 -5.25 C 5.378906 -4.914062 5.679688 -4.445312 5.828125 -3.84375 L 4.8125 -3.84375 C 4.71875 -4.1875 4.53125 -4.457031 4.25 -4.65625 C 3.96875 -4.863281 3.617188 -4.96875 3.203125 -4.96875 C 2.671875 -4.96875 2.238281 -4.78125 1.90625 -4.40625 C 1.570312 -4.039062 1.40625 -3.519531 1.40625 -2.84375 C 1.40625 -2.164062 1.570312 -1.640625 1.90625 -1.265625 C 2.238281 -0.890625 2.671875 -0.703125 3.203125 -0.703125 C 3.617188 -0.703125 3.960938 -0.796875 4.234375 -0.984375 C 4.515625 -1.179688 4.707031 -1.460938 4.8125 -1.828125 L 5.828125 -1.828125 C 5.671875 -1.242188 5.363281 -0.773438 4.90625 -0.421875 C 4.457031 -0.078125 3.890625 0.09375 3.203125 0.09375 C 2.671875 0.09375 2.191406 -0.0234375 1.765625 -0.265625 C 1.347656 -0.503906 1.019531 -0.84375 0.78125 -1.28125 C 0.550781 -1.726562 0.4375 -2.25 0.4375 -2.84375 Z M 0.4375 -2.84375 "/></g></g></g><g fill="#ffffff" fill-opacity="1"><g transform="translate(26.576294, 66.819728)"><g><path d="M 3.265625 0.09375 C 2.734375 0.09375 2.25 -0.0234375 1.8125 -0.265625 C 1.382812 -0.503906 1.046875 -0.847656 0.796875 -1.296875 C 0.554688 -1.742188 0.4375 -2.257812 0.4375 -2.84375 C 0.4375 -3.425781 0.5625 -3.9375 0.8125 -4.375 C 1.070312 -4.820312 1.414062 -5.164062 1.84375 -5.40625 C 2.28125 -5.644531 2.769531 -5.765625 3.3125 -5.765625 C 3.84375 -5.765625 4.328125 -5.644531 4.765625 -5.40625 C 5.203125 -5.164062 5.546875 -4.820312 5.796875 -4.375 C 6.046875 -3.9375 6.171875 -3.425781 6.171875 -2.84375 C 6.171875 -2.257812 6.039062 -1.742188 5.78125 -1.296875 C 5.53125 -0.847656 5.179688 -0.503906 4.734375 -0.265625 C 4.296875 -0.0234375 3.804688 0.09375 3.265625 0.09375 Z M 3.265625 -0.734375 C 3.609375 -0.734375 3.925781 -0.8125 4.21875 -0.96875 C 4.519531 -1.125 4.757812 -1.359375 4.9375 -1.671875 C 5.125 -1.992188 5.21875 -2.382812 5.21875 -2.84375 C 5.21875 -3.300781 5.125 -3.6875 4.9375 -4 C 4.757812 -4.320312 4.523438 -4.554688 4.234375 -4.703125 C 3.953125 -4.859375 3.640625 -4.9375 3.296875 -4.9375 C 2.953125 -4.9375 2.632812 -4.859375 2.34375 -4.703125 C 2.0625 -4.554688 1.832031 -4.320312 1.65625 -4 C 1.488281 -3.6875 1.40625 -3.300781 1.40625 -2.84375 C 1.40625 -2.382812 1.488281 -1.992188 1.65625 -1.671875 C 1.820312 -1.359375 2.046875 -1.125 2.328125 -0.96875 C 2.617188 -0.8125 2.929688 -0.734375 3.265625 -0.734375 Z M 3.265625 -0.734375 "/></g></g></g><g fill="#ffffff" fill-opacity="1"><g transform="translate(33.191322, 66.819728)"><g><path d="M 3.5625 -5.765625 C 4.25 -5.765625 4.804688 -5.554688 5.234375 -5.140625 C 5.660156 -4.722656 5.875 -4.125 5.875 -3.34375 L 5.875 0 L 4.9375 0 L 4.9375 -3.203125 C 4.9375 -3.773438 4.796875 -4.207031 4.515625 -4.5 C 4.234375 -4.800781 3.847656 -4.953125 3.359375 -4.953125 C 2.859375 -4.953125 2.460938 -4.796875 2.171875 -4.484375 C 1.878906 -4.179688 1.734375 -3.734375 1.734375 -3.140625 L 1.734375 0 L 0.796875 0 L 0.796875 -5.671875 L 1.734375 -5.671875 L 1.734375 -4.859375 C 1.921875 -5.148438 2.175781 -5.375 2.5 -5.53125 C 2.820312 -5.6875 3.175781 -5.765625 3.5625 -5.765625 Z M 3.5625 -5.765625 "/></g></g></g><g fill="#ffffff" fill-opacity="1"><g transform="translate(39.80635, 66.819728)"><g><path d="M 3.265625 0.09375 C 2.734375 0.09375 2.25 -0.0234375 1.8125 -0.265625 C 1.382812 -0.503906 1.046875 -0.847656 0.796875 -1.296875 C 0.554688 -1.742188 0.4375 -2.257812 0.4375 -2.84375 C 0.4375 -3.425781 0.5625 -3.9375 0.8125 -4.375 C 1.070312 -4.820312 1.414062 -5.164062 1.84375 -5.40625 C 2.28125 -5.644531 2.769531 -5.765625 3.3125 -5.765625 C 3.84375 -5.765625 4.328125 -5.644531 4.765625 -5.40625 C 5.203125 -5.164062 5.546875 -4.820312 5.796875 -4.375 C 6.046875 -3.9375 6.171875 -3.425781 6.171875 -2.84375 C 6.171875 -2.257812 6.039062 -1.742188 5.78125 -1.296875 C 5.53125 -0.847656 5.179688 -0.503906 4.734375 -0.265625 C 4.296875 -0.0234375 3.804688 0.09375 3.265625 0.09375 Z M 3.265625 -0.734375 C 3.609375 -0.734375 3.925781 -0.8125 4.21875 -0.96875 C 4.519531 -1.125 4.757812 -1.359375 4.9375 -1.671875 C 5.125 -1.992188 5.21875 -2.382812 5.21875 -2.84375 C 5.21875 -3.300781 5.125 -3.6875 4.9375 -4 C 4.757812 -4.320312 4.523438 -4.554688 4.234375 -4.703125 C 3.953125 -4.859375 3.640625 -4.9375 3.296875 -4.9375 C 2.953125 -4.9375 2.632812 -4.859375 2.34375 -4.703125 C 2.0625 -4.554688 1.832031 -4.320312 1.65625 -4 C 1.488281 -3.6875 1.40625 -3.300781 1.40625 -2.84375 C 1.40625 -2.382812 1.488281 -1.992188 1.65625 -1.671875 C 1.820312 -1.359375 2.046875 -1.125 2.328125 -0.96875 C 2.617188 -0.8125 2.929688 -0.734375 3.265625 -0.734375 Z M 3.3125 -7.125 L 1.875 -6.25 L 1.875 -7 L 3.3125 -7.859375 L 4.75 -7 L 4.75 -6.25 Z M 3.3125 -7.125 "/></g></g></g><g fill="#ffffff" fill-opacity="1"><g transform="translate(46.421378, 66.819728)"><g><path d="M 7.609375 -5.765625 C 8.054688 -5.765625 8.453125 -5.671875 8.796875 -5.484375 C 9.140625 -5.304688 9.410156 -5.035156 9.609375 -4.671875 C 9.804688 -4.304688 9.90625 -3.863281 9.90625 -3.34375 L 9.90625 0 L 8.984375 0 L 8.984375 -3.203125 C 8.984375 -3.773438 8.84375 -4.207031 8.5625 -4.5 C 8.28125 -4.800781 7.898438 -4.953125 7.421875 -4.953125 C 6.929688 -4.953125 6.539062 -4.796875 6.25 -4.484375 C 5.96875 -4.171875 5.828125 -3.71875 5.828125 -3.125 L 5.828125 0 L 4.890625 0 L 4.890625 -3.203125 C 4.890625 -3.773438 4.75 -4.207031 4.46875 -4.5 C 4.195312 -4.800781 3.820312 -4.953125 3.34375 -4.953125 C 2.851562 -4.953125 2.460938 -4.796875 2.171875 -4.484375 C 1.878906 -4.171875 1.734375 -3.71875 1.734375 -3.125 L 1.734375 0 L 0.796875 0 L 0.796875 -5.671875 L 1.734375 -5.671875 L 1.734375 -4.84375 C 1.921875 -5.144531 2.171875 -5.375 2.484375 -5.53125 C 2.796875 -5.6875 3.144531 -5.765625 3.53125 -5.765625 C 4 -5.765625 4.414062 -5.65625 4.78125 -5.4375 C 5.15625 -5.226562 5.429688 -4.921875 5.609375 -4.515625 C 5.765625 -4.910156 6.023438 -5.21875 6.390625 -5.4375 C 6.753906 -5.65625 7.160156 -5.765625 7.609375 -5.765625 Z M 7.609375 -5.765625 "/></g></g></g><g fill="#ffffff" fill-opacity="1"><g transform="translate(57.067438, 66.819728)"><g><path d="M 1.28125 -6.59375 C 1.101562 -6.59375 0.953125 -6.65625 0.828125 -6.78125 C 0.703125 -6.90625 0.640625 -7.054688 0.640625 -7.234375 C 0.640625 -7.410156 0.703125 -7.5625 0.828125 -7.6875 C 0.953125 -7.8125 1.101562 -7.875 1.28125 -7.875 C 1.457031 -7.875 1.601562 -7.8125 1.71875 -7.6875 C 1.84375 -7.5625 1.90625 -7.410156 1.90625 -7.234375 C 1.90625 -7.054688 1.84375 -6.90625 1.71875 -6.78125 C 1.601562 -6.65625 1.457031 -6.59375 1.28125 -6.59375 Z M 1.734375 -5.671875 L 1.734375 0 L 0.796875 0 L 0.796875 -5.671875 Z M 1.734375 -5.671875 "/></g></g></g><g fill="#ffffff" fill-opacity="1"><g transform="translate(59.610086, 66.819728)"><g><path d="M 0.4375 -2.84375 C 0.4375 -3.425781 0.550781 -3.9375 0.78125 -4.375 C 1.019531 -4.8125 1.347656 -5.148438 1.765625 -5.390625 C 2.191406 -5.640625 2.671875 -5.765625 3.203125 -5.765625 C 3.898438 -5.765625 4.472656 -5.59375 4.921875 -5.25 C 5.378906 -4.914062 5.679688 -4.445312 5.828125 -3.84375 L 4.8125 -3.84375 C 4.71875 -4.1875 4.53125 -4.457031 4.25 -4.65625 C 3.96875 -4.863281 3.617188 -4.96875 3.203125 -4.96875 C 2.671875 -4.96875 2.238281 -4.78125 1.90625 -4.40625 C 1.570312 -4.039062 1.40625 -3.519531 1.40625 -2.84375 C 1.40625 -2.164062 1.570312 -1.640625 1.90625 -1.265625 C 2.238281 -0.890625 2.671875 -0.703125 3.203125 -0.703125 C 3.617188 -0.703125 3.960938 -0.796875 4.234375 -0.984375 C 4.515625 -1.179688 4.707031 -1.460938 4.8125 -1.828125 L 5.828125 -1.828125 C 5.671875 -1.242188 5.363281 -0.773438 4.90625 -0.421875 C 4.457031 -0.078125 3.890625 0.09375 3.203125 0.09375 C 2.671875 0.09375 2.191406 -0.0234375 1.765625 -0.265625 C 1.347656 -0.503906 1.019531 -0.84375 0.78125 -1.28125 C 0.550781 -1.726562 0.4375 -2.25 0.4375 -2.84375 Z M 0.4375 -2.84375 "/></g></g></g><g fill="#ffffff" fill-opacity="1"><g transform="translate(65.884023, 66.819728)"><g><path d="M 0.4375 -2.859375 C 0.4375 -3.429688 0.550781 -3.9375 0.78125 -4.375 C 1.019531 -4.8125 1.34375 -5.148438 1.75 -5.390625 C 2.164062 -5.640625 2.628906 -5.765625 3.140625 -5.765625 C 3.628906 -5.765625 4.054688 -5.65625 4.421875 -5.4375 C 4.785156 -5.226562 5.0625 -4.960938 5.25 -4.640625 L 5.25 -5.671875 L 6.203125 -5.671875 L 6.203125 0 L 5.25 0 L 5.25 -1.0625 C 5.0625 -0.726562 4.78125 -0.453125 4.40625 -0.234375 C 4.039062 -0.015625 3.613281 0.09375 3.125 0.09375 C 2.625 0.09375 2.164062 -0.03125 1.75 -0.28125 C 1.34375 -0.53125 1.019531 -0.878906 0.78125 -1.328125 C 0.550781 -1.773438 0.4375 -2.285156 0.4375 -2.859375 Z M 5.25 -2.84375 C 5.25 -3.269531 5.160156 -3.640625 4.984375 -3.953125 C 4.816406 -4.273438 4.582031 -4.519531 4.28125 -4.6875 C 3.988281 -4.851562 3.671875 -4.9375 3.328125 -4.9375 C 2.972656 -4.9375 2.648438 -4.851562 2.359375 -4.6875 C 2.066406 -4.53125 1.832031 -4.289062 1.65625 -3.96875 C 1.488281 -3.65625 1.40625 -3.285156 1.40625 -2.859375 C 1.40625 -2.421875 1.488281 -2.039062 1.65625 -1.71875 C 1.832031 -1.394531 2.066406 -1.148438 2.359375 -0.984375 C 2.648438 -0.816406 2.972656 -0.734375 3.328125 -0.734375 C 3.671875 -0.734375 3.988281 -0.816406 4.28125 -0.984375 C 4.582031 -1.148438 4.816406 -1.394531 4.984375 -1.71875 C 5.160156 -2.039062 5.25 -2.414062 5.25 -2.84375 Z M 5.25 -2.84375 "/></g></g></g><g fill="#ffffff" fill-opacity="1"><g transform="translate(72.871144, 66.819728)"><g/></g></g><g fill="#ffffff" fill-opacity="1"><g transform="translate(75.630852, 66.819728)"><g><path d="M 0.4375 -2.859375 C 0.4375 -3.429688 0.550781 -3.9375 0.78125 -4.375 C 1.019531 -4.8125 1.34375 -5.148438 1.75 -5.390625 C 2.164062 -5.640625 2.628906 -5.765625 3.140625 -5.765625 C 3.585938 -5.765625 4 -5.660156 4.375 -5.453125 C 4.75 -5.253906 5.039062 -4.988281 5.25 -4.65625 L 5.25 -7.65625 L 6.203125 -7.65625 L 6.203125 0 L 5.25 0 L 5.25 -1.0625 C 5.0625 -0.726562 4.785156 -0.453125 4.421875 -0.234375 C 4.054688 -0.015625 3.628906 0.09375 3.140625 0.09375 C 2.628906 0.09375 2.164062 -0.03125 1.75 -0.28125 C 1.34375 -0.53125 1.019531 -0.878906 0.78125 -1.328125 C 0.550781 -1.773438 0.4375 -2.285156 0.4375 -2.859375 Z M 5.25 -2.84375 C 5.25 -3.269531 5.160156 -3.640625 4.984375 -3.953125 C 4.816406 -4.273438 4.582031 -4.519531 4.28125 -4.6875 C 3.988281 -4.851562 3.671875 -4.9375 3.328125 -4.9375 C 2.972656 -4.9375 2.648438 -4.851562 2.359375 -4.6875 C 2.066406 -4.53125 1.832031 -4.289062 1.65625 -3.96875 C 1.488281 -3.65625 1.40625 -3.285156 1.40625 -2.859375 C 1.40625 -2.421875 1.488281 -2.039062 1.65625 -1.71875 C 1.832031 -1.394531 2.066406 -1.148438 2.359375 -0.984375 C 2.648438 -0.816406 2.972656 -0.734375 3.328125 -0.734375 C 3.671875 -0.734375 3.988281 -0.816406 4.28125 -0.984375 C 4.582031 -1.148438 4.816406 -1.394531 4.984375 -1.71875 C 5.160156 -2.039062 5.25 -2.414062 5.25 -2.84375 Z M 5.25 -2.84375 "/></g></g></g><g fill="#ffffff" fill-opacity="1"><g transform="translate(82.617973, 66.819728)"><g><path d="M 3.265625 0.09375 C 2.734375 0.09375 2.25 -0.0234375 1.8125 -0.265625 C 1.382812 -0.503906 1.046875 -0.847656 0.796875 -1.296875 C 0.554688 -1.742188 0.4375 -2.257812 0.4375 -2.84375 C 0.4375 -3.425781 0.5625 -3.9375 0.8125 -4.375 C 1.070312 -4.820312 1.414062 -5.164062 1.84375 -5.40625 C 2.28125 -5.644531 2.769531 -5.765625 3.3125 -5.765625 C 3.84375 -5.765625 4.328125 -5.644531 4.765625 -5.40625 C 5.203125 -5.164062 5.546875 -4.820312 5.796875 -4.375 C 6.046875 -3.9375 6.171875 -3.425781 6.171875 -2.84375 C 6.171875 -2.257812 6.039062 -1.742188 5.78125 -1.296875 C 5.53125 -0.847656 5.179688 -0.503906 4.734375 -0.265625 C 4.296875 -0.0234375 3.804688 0.09375 3.265625 0.09375 Z M 3.265625 -0.734375 C 3.609375 -0.734375 3.925781 -0.8125 4.21875 -0.96875 C 4.519531 -1.125 4.757812 -1.359375 4.9375 -1.671875 C 5.125 -1.992188 5.21875 -2.382812 5.21875 -2.84375 C 5.21875 -3.300781 5.125 -3.6875 4.9375 -4 C 4.757812 -4.320312 4.523438 -4.554688 4.234375 -4.703125 C 3.953125 -4.859375 3.640625 -4.9375 3.296875 -4.9375 C 2.953125 -4.9375 2.632812 -4.859375 2.34375 -4.703125 C 2.0625 -4.554688 1.832031 -4.320312 1.65625 -4 C 1.488281 -3.6875 1.40625 -3.300781 1.40625 -2.84375 C 1.40625 -2.382812 1.488281 -1.992188 1.65625 -1.671875 C 1.820312 -1.359375 2.046875 -1.125 2.328125 -0.96875 C 2.617188 -0.8125 2.929688 -0.734375 3.265625 -0.734375 Z M 3.265625 -0.734375 "/></g></g></g><g fill="#ffffff" fill-opacity="1"><g transform="translate(89.233001, 66.819728)"><g/></g></g><g fill="#ffffff" fill-opacity="1"><g transform="translate(91.99271, 66.819728)"><g><path d="M 4.40625 -3.71875 C 4.664062 -3.675781 4.90625 -3.566406 5.125 -3.390625 C 5.34375 -3.222656 5.515625 -3.007812 5.640625 -2.75 C 5.765625 -2.5 5.828125 -2.226562 5.828125 -1.9375 C 5.828125 -1.570312 5.734375 -1.238281 5.546875 -0.9375 C 5.367188 -0.644531 5.097656 -0.414062 4.734375 -0.25 C 4.378906 -0.0820312 3.960938 0 3.484375 0 L 0.796875 0 L 0.796875 -7.203125 L 3.375 -7.203125 C 3.863281 -7.203125 4.28125 -7.117188 4.625 -6.953125 C 4.976562 -6.796875 5.238281 -6.578125 5.40625 -6.296875 C 5.582031 -6.023438 5.671875 -5.71875 5.671875 -5.375 C 5.671875 -4.945312 5.550781 -4.59375 5.3125 -4.3125 C 5.082031 -4.039062 4.78125 -3.84375 4.40625 -3.71875 Z M 1.734375 -4.09375 L 3.328125 -4.09375 C 3.765625 -4.09375 4.101562 -4.195312 4.34375 -4.40625 C 4.582031 -4.613281 4.703125 -4.898438 4.703125 -5.265625 C 4.703125 -5.628906 4.582031 -5.914062 4.34375 -6.125 C 4.101562 -6.332031 3.753906 -6.4375 3.296875 -6.4375 L 1.734375 -6.4375 Z M 3.40625 -0.78125 C 3.875 -0.78125 4.238281 -0.890625 4.5 -1.109375 C 4.757812 -1.328125 4.890625 -1.632812 4.890625 -2.03125 C 4.890625 -2.425781 4.75 -2.738281 4.46875 -2.96875 C 4.195312 -3.207031 3.832031 -3.328125 3.375 -3.328125 L 1.734375 -3.328125 L 1.734375 -0.78125 Z M 3.40625 -0.78125 "/></g></g></g><g fill="#ffffff" fill-opacity="1"><g transform="translate(98.328662, 66.819728)"><g><path d="M 0.4375 -2.859375 C 0.4375 -3.429688 0.550781 -3.9375 0.78125 -4.375 C 1.019531 -4.8125 1.34375 -5.148438 1.75 -5.390625 C 2.164062 -5.640625 2.628906 -5.765625 3.140625 -5.765625 C 3.628906 -5.765625 4.054688 -5.65625 4.421875 -5.4375 C 4.785156 -5.226562 5.0625 -4.960938 5.25 -4.640625 L 5.25 -5.671875 L 6.203125 -5.671875 L 6.203125 0 L 5.25 0 L 5.25 -1.0625 C 5.0625 -0.726562 4.78125 -0.453125 4.40625 -0.234375 C 4.039062 -0.015625 3.613281 0.09375 3.125 0.09375 C 2.625 0.09375 2.164062 -0.03125 1.75 -0.28125 C 1.34375 -0.53125 1.019531 -0.878906 0.78125 -1.328125 C 0.550781 -1.773438 0.4375 -2.285156 0.4375 -2.859375 Z M 5.25 -2.84375 C 5.25 -3.269531 5.160156 -3.640625 4.984375 -3.953125 C 4.816406 -4.273438 4.582031 -4.519531 4.28125 -4.6875 C 3.988281 -4.851562 3.671875 -4.9375 3.328125 -4.9375 C 2.972656 -4.9375 2.648438 -4.851562 2.359375 -4.6875 C 2.066406 -4.53125 1.832031 -4.289062 1.65625 -3.96875 C 1.488281 -3.65625 1.40625 -3.285156 1.40625 -2.859375 C 1.40625 -2.421875 1.488281 -2.039062 1.65625 -1.71875 C 1.832031 -1.394531 2.066406 -1.148438 2.359375 -0.984375 C 2.648438 -0.816406 2.972656 -0.734375 3.328125 -0.734375 C 3.671875 -0.734375 3.988281 -0.816406 4.28125 -0.984375 C 4.582031 -1.148438 4.816406 -1.394531 4.984375 -1.71875 C 5.160156 -2.039062 5.25 -2.414062 5.25 -2.84375 Z M 5.25 -2.84375 "/></g></g></g><g fill="#ffffff" fill-opacity="1"><g transform="translate(105.315783, 66.819728)"><g><path d="M 3.5625 -5.765625 C 4.25 -5.765625 4.804688 -5.554688 5.234375 -5.140625 C 5.660156 -4.722656 5.875 -4.125 5.875 -3.34375 L 5.875 0 L 4.9375 0 L 4.9375 -3.203125 C 4.9375 -3.773438 4.796875 -4.207031 4.515625 -4.5 C 4.234375 -4.800781 3.847656 -4.953125 3.359375 -4.953125 C 2.859375 -4.953125 2.460938 -4.796875 2.171875 -4.484375 C 1.878906 -4.179688 1.734375 -3.734375 1.734375 -3.140625 L 1.734375 0 L 0.796875 0 L 0.796875 -5.671875 L 1.734375 -5.671875 L 1.734375 -4.859375 C 1.921875 -5.148438 2.175781 -5.375 2.5 -5.53125 C 2.820312 -5.6875 3.175781 -5.765625 3.5625 -5.765625 Z M 3.5625 -5.765625 "/></g></g></g><g fill="#ffffff" fill-opacity="1"><g transform="translate(111.930811, 66.819728)"><g><path d="M 0.4375 -2.84375 C 0.4375 -3.425781 0.550781 -3.9375 0.78125 -4.375 C 1.019531 -4.8125 1.347656 -5.148438 1.765625 -5.390625 C 2.191406 -5.640625 2.671875 -5.765625 3.203125 -5.765625 C 3.898438 -5.765625 4.472656 -5.59375 4.921875 -5.25 C 5.378906 -4.914062 5.679688 -4.445312 5.828125 -3.84375 L 4.8125 -3.84375 C 4.71875 -4.1875 4.53125 -4.457031 4.25 -4.65625 C 3.96875 -4.863281 3.617188 -4.96875 3.203125 -4.96875 C 2.671875 -4.96875 2.238281 -4.78125 1.90625 -4.40625 C 1.570312 -4.039062 1.40625 -3.519531 1.40625 -2.84375 C 1.40625 -2.164062 1.570312 -1.640625 1.90625 -1.265625 C 2.238281 -0.890625 2.671875 -0.703125 3.203125 -0.703125 C 3.617188 -0.703125 3.960938 -0.796875 4.234375 -0.984375 C 4.515625 -1.179688 4.707031 -1.460938 4.8125 -1.828125 L 5.828125 -1.828125 C 5.671875 -1.242188 5.363281 -0.773438 4.90625 -0.421875 C 4.457031 -0.078125 3.890625 0.09375 3.203125 0.09375 C 2.671875 0.09375 2.191406 -0.0234375 1.765625 -0.265625 C 1.347656 -0.503906 1.019531 -0.84375 0.78125 -1.28125 C 0.550781 -1.726562 0.4375 -2.25 0.4375 -2.84375 Z M 0.4375 -2.84375 "/></g></g></g><g fill="#ffffff" fill-opacity="1"><g transform="translate(118.204748, 66.819728)"><g><path d="M 3.265625 0.09375 C 2.734375 0.09375 2.25 -0.0234375 1.8125 -0.265625 C 1.382812 -0.503906 1.046875 -0.847656 0.796875 -1.296875 C 0.554688 -1.742188 0.4375 -2.257812 0.4375 -2.84375 C 0.4375 -3.425781 0.5625 -3.9375 0.8125 -4.375 C 1.070312 -4.820312 1.414062 -5.164062 1.84375 -5.40625 C 2.28125 -5.644531 2.769531 -5.765625 3.3125 -5.765625 C 3.84375 -5.765625 4.328125 -5.644531 4.765625 -5.40625 C 5.203125 -5.164062 5.546875 -4.820312 5.796875 -4.375 C 6.046875 -3.9375 6.171875 -3.425781 6.171875 -2.84375 C 6.171875 -2.257812 6.039062 -1.742188 5.78125 -1.296875 C 5.53125 -0.847656 5.179688 -0.503906 4.734375 -0.265625 C 4.296875 -0.0234375 3.804688 0.09375 3.265625 0.09375 Z M 3.265625 -0.734375 C 3.609375 -0.734375 3.925781 -0.8125 4.21875 -0.96875 C 4.519531 -1.125 4.757812 -1.359375 4.9375 -1.671875 C 5.125 -1.992188 5.21875 -2.382812 5.21875 -2.84375 C 5.21875 -3.300781 5.125 -3.6875 4.9375 -4 C 4.757812 -4.320312 4.523438 -4.554688 4.234375 -4.703125 C 3.953125 -4.859375 3.640625 -4.9375 3.296875 -4.9375 C 2.953125 -4.9375 2.632812 -4.859375 2.34375 -4.703125 C 2.0625 -4.554688 1.832031 -4.320312 1.65625 -4 C 1.488281 -3.6875 1.40625 -3.300781 1.40625 -2.84375 C 1.40625 -2.382812 1.488281 -1.992188 1.65625 -1.671875 C 1.820312 -1.359375 2.046875 -1.125 2.328125 -0.96875 C 2.617188 -0.8125 2.929688 -0.734375 3.265625 -0.734375 Z M 3.265625 -0.734375 "/></g></g></g><g fill="#ffffff" fill-opacity="1"><g transform="translate(15, 78.819727)"><g><path d="M 0.4375 -3.609375 C 0.4375 -4.316406 0.59375 -4.945312 0.90625 -5.5 C 1.226562 -6.0625 1.664062 -6.5 2.21875 -6.8125 C 2.769531 -7.132812 3.378906 -7.296875 4.046875 -7.296875 C 4.828125 -7.296875 5.507812 -7.109375 6.09375 -6.734375 C 6.6875 -6.359375 7.117188 -5.820312 7.390625 -5.125 L 6.265625 -5.125 C 6.054688 -5.550781 5.765625 -5.878906 5.390625 -6.109375 C 5.015625 -6.347656 4.566406 -6.46875 4.046875 -6.46875 C 3.546875 -6.46875 3.09375 -6.347656 2.6875 -6.109375 C 2.289062 -5.878906 1.976562 -5.550781 1.75 -5.125 C 1.519531 -4.695312 1.40625 -4.191406 1.40625 -3.609375 C 1.40625 -3.035156 1.519531 -2.53125 1.75 -2.09375 C 1.976562 -1.664062 2.289062 -1.332031 2.6875 -1.09375 C 3.09375 -0.863281 3.546875 -0.75 4.046875 -0.75 C 4.566406 -0.75 5.015625 -0.863281 5.390625 -1.09375 C 5.765625 -1.332031 6.054688 -1.664062 6.265625 -2.09375 L 7.390625 -2.09375 C 7.117188 -1.40625 6.6875 -0.875 6.09375 -0.5 C 5.507812 -0.125 4.828125 0.0625 4.046875 0.0625 C 3.378906 0.0625 2.769531 -0.09375 2.21875 -0.40625 C 1.664062 -0.71875 1.226562 -1.15625 0.90625 -1.71875 C 0.59375 -2.28125 0.4375 -2.910156 0.4375 -3.609375 Z M 0.4375 -3.609375 "/></g></g></g><g fill="#ffffff" fill-opacity="1"><g transform="translate(22.979381, 78.819727)"><g><path d="M 5.96875 -3.046875 C 5.96875 -2.867188 5.957031 -2.679688 5.9375 -2.484375 L 1.40625 -2.484375 C 1.4375 -1.921875 1.625 -1.484375 1.96875 -1.171875 C 2.320312 -0.859375 2.75 -0.703125 3.25 -0.703125 C 3.65625 -0.703125 3.992188 -0.796875 4.265625 -0.984375 C 4.535156 -1.171875 4.726562 -1.425781 4.84375 -1.75 L 5.859375 -1.75 C 5.703125 -1.207031 5.394531 -0.765625 4.9375 -0.421875 C 4.488281 -0.078125 3.925781 0.09375 3.25 0.09375 C 2.707031 0.09375 2.222656 -0.0234375 1.796875 -0.265625 C 1.378906 -0.503906 1.046875 -0.847656 0.796875 -1.296875 C 0.554688 -1.742188 0.4375 -2.257812 0.4375 -2.84375 C 0.4375 -3.425781 0.550781 -3.9375 0.78125 -4.375 C 1.019531 -4.820312 1.351562 -5.164062 1.78125 -5.40625 C 2.207031 -5.644531 2.695312 -5.765625 3.25 -5.765625 C 3.789062 -5.765625 4.265625 -5.644531 4.671875 -5.40625 C 5.085938 -5.175781 5.40625 -4.851562 5.625 -4.4375 C 5.851562 -4.03125 5.96875 -3.566406 5.96875 -3.046875 Z M 5 -3.25 C 5 -3.601562 4.914062 -3.910156 4.75 -4.171875 C 4.59375 -4.429688 4.378906 -4.628906 4.109375 -4.765625 C 3.835938 -4.898438 3.535156 -4.96875 3.203125 -4.96875 C 2.734375 -4.96875 2.328125 -4.816406 1.984375 -4.515625 C 1.648438 -4.210938 1.460938 -3.789062 1.421875 -3.25 Z M 5 -3.25 "/></g></g></g><g fill="#ffffff" fill-opacity="1"><g transform="translate(29.387695, 78.819727)"><g><path d="M 3.5625 -5.765625 C 4.25 -5.765625 4.804688 -5.554688 5.234375 -5.140625 C 5.660156 -4.722656 5.875 -4.125 5.875 -3.34375 L 5.875 0 L 4.9375 0 L 4.9375 -3.203125 C 4.9375 -3.773438 4.796875 -4.207031 4.515625 -4.5 C 4.234375 -4.800781 3.847656 -4.953125 3.359375 -4.953125 C 2.859375 -4.953125 2.460938 -4.796875 2.171875 -4.484375 C 1.878906 -4.179688 1.734375 -3.734375 1.734375 -3.140625 L 1.734375 0 L 0.796875 0 L 0.796875 -5.671875 L 1.734375 -5.671875 L 1.734375 -4.859375 C 1.921875 -5.148438 2.175781 -5.375 2.5 -5.53125 C 2.820312 -5.6875 3.175781 -5.765625 3.5625 -5.765625 Z M 3.5625 -5.765625 "/></g></g></g><g fill="#ffffff" fill-opacity="1"><g transform="translate(36.002723, 78.819727)"><g><path d="M 1.9375 -4.890625 L 1.9375 -1.546875 C 1.9375 -1.273438 1.992188 -1.082031 2.109375 -0.96875 C 2.234375 -0.851562 2.441406 -0.796875 2.734375 -0.796875 L 3.421875 -0.796875 L 3.421875 0 L 2.578125 0 C 2.054688 0 1.660156 -0.117188 1.390625 -0.359375 C 1.128906 -0.597656 1 -0.992188 1 -1.546875 L 1 -4.890625 L 0.265625 -4.890625 L 0.265625 -5.671875 L 1 -5.671875 L 1 -7.09375 L 1.9375 -7.09375 L 1.9375 -5.671875 L 3.421875 -5.671875 L 3.421875 -4.890625 Z M 1.9375 -4.890625 "/></g></g></g><g fill="#ffffff" fill-opacity="1"><g transform="translate(39.765025, 78.819727)"><g><path d="M 1.734375 -4.75 C 1.898438 -5.070312 2.132812 -5.320312 2.4375 -5.5 C 2.75 -5.675781 3.125 -5.765625 3.5625 -5.765625 L 3.5625 -4.796875 L 3.328125 -4.796875 C 2.265625 -4.796875 1.734375 -4.222656 1.734375 -3.078125 L 1.734375 0 L 0.796875 0 L 0.796875 -5.671875 L 1.734375 -5.671875 Z M 1.734375 -4.75 "/></g></g></g><g fill="#ffffff" fill-opacity="1"><g transform="translate(43.620345, 78.819727)"><g><path d="M 0.4375 -2.859375 C 0.4375 -3.429688 0.550781 -3.9375 0.78125 -4.375 C 1.019531 -4.8125 1.34375 -5.148438 1.75 -5.390625 C 2.164062 -5.640625 2.628906 -5.765625 3.140625 -5.765625 C 3.628906 -5.765625 4.054688 -5.65625 4.421875 -5.4375 C 4.785156 -5.226562 5.0625 -4.960938 5.25 -4.640625 L 5.25 -5.671875 L 6.203125 -5.671875 L 6.203125 0 L 5.25 0 L 5.25 -1.0625 C 5.0625 -0.726562 4.78125 -0.453125 4.40625 -0.234375 C 4.039062 -0.015625 3.613281 0.09375 3.125 0.09375 C 2.625 0.09375 2.164062 -0.03125 1.75 -0.28125 C 1.34375 -0.53125 1.019531 -0.878906 0.78125 -1.328125 C 0.550781 -1.773438 0.4375 -2.285156 0.4375 -2.859375 Z M 5.25 -2.84375 C 5.25 -3.269531 5.160156 -3.640625 4.984375 -3.953125 C 4.816406 -4.273438 4.582031 -4.519531 4.28125 -4.6875 C 3.988281 -4.851562 3.671875 -4.9375 3.328125 -4.9375 C 2.972656 -4.9375 2.648438 -4.851562 2.359375 -4.6875 C 2.066406 -4.53125 1.832031 -4.289062 1.65625 -3.96875 C 1.488281 -3.65625 1.40625 -3.285156 1.40625 -2.859375 C 1.40625 -2.421875 1.488281 -2.039062 1.65625 -1.71875 C 1.832031 -1.394531 2.066406 -1.148438 2.359375 -0.984375 C 2.648438 -0.816406 2.972656 -0.734375 3.328125 -0.734375 C 3.671875 -0.734375 3.988281 -0.816406 4.28125 -0.984375 C 4.582031 -1.148438 4.816406 -1.394531 4.984375 -1.71875 C 5.160156 -2.039062 5.25 -2.414062 5.25 -2.84375 Z M 5.25 -2.84375 "/></g></g></g><g fill="#ffffff" fill-opacity="1"><g transform="translate(50.607466, 78.819727)"><g><path d="M 1.734375 -7.65625 L 1.734375 0 L 0.796875 0 L 0.796875 -7.65625 Z M 1.734375 -7.65625 "/></g></g></g><g fill="#ffffff" fill-opacity="1"><g transform="translate(53.150114, 78.819727)"><g/></g></g><g fill="#ffffff" fill-opacity="1"><g transform="translate(55.909822, 78.819727)"><g><path d="M 3.21875 1.921875 C 2.550781 1.273438 2.03125 0.453125 1.65625 -0.546875 C 1.289062 -1.546875 1.109375 -2.625 1.109375 -3.78125 C 1.109375 -4.96875 1.300781 -6.078125 1.6875 -7.109375 C 2.082031 -8.140625 2.644531 -8.988281 3.375 -9.65625 L 4.359375 -9.65625 L 4.359375 -9.5625 C 3.585938 -8.84375 3.003906 -7.972656 2.609375 -6.953125 C 2.222656 -5.941406 2.03125 -4.882812 2.03125 -3.78125 C 2.03125 -2.71875 2.210938 -1.695312 2.578125 -0.71875 C 2.953125 0.25 3.492188 1.097656 4.203125 1.828125 L 4.203125 1.921875 Z M 3.21875 1.921875 "/></g></g></g><g fill="#ffffff" fill-opacity="1"><g transform="translate(60.602357, 78.819727)"><g><path d="M 1.734375 -7.203125 L 1.734375 0 L 0.796875 0 L 0.796875 -7.203125 Z M 1.734375 -7.203125 "/></g></g></g><g fill="#ffffff" fill-opacity="1"><g transform="translate(63.145006, 78.819727)"><g><path d="M 4.40625 -3.71875 C 4.664062 -3.675781 4.90625 -3.566406 5.125 -3.390625 C 5.34375 -3.222656 5.515625 -3.007812 5.640625 -2.75 C 5.765625 -2.5 5.828125 -2.226562 5.828125 -1.9375 C 5.828125 -1.570312 5.734375 -1.238281 5.546875 -0.9375 C 5.367188 -0.644531 5.097656 -0.414062 4.734375 -0.25 C 4.378906 -0.0820312 3.960938 0 3.484375 0 L 0.796875 0 L 0.796875 -7.203125 L 3.375 -7.203125 C 3.863281 -7.203125 4.28125 -7.117188 4.625 -6.953125 C 4.976562 -6.796875 5.238281 -6.578125 5.40625 -6.296875 C 5.582031 -6.023438 5.671875 -5.71875 5.671875 -5.375 C 5.671875 -4.945312 5.550781 -4.59375 5.3125 -4.3125 C 5.082031 -4.039062 4.78125 -3.84375 4.40625 -3.71875 Z M 1.734375 -4.09375 L 3.328125 -4.09375 C 3.765625 -4.09375 4.101562 -4.195312 4.34375 -4.40625 C 4.582031 -4.613281 4.703125 -4.898438 4.703125 -5.265625 C 4.703125 -5.628906 4.582031 -5.914062 4.34375 -6.125 C 4.101562 -6.332031 3.753906 -6.4375 3.296875 -6.4375 L 1.734375 -6.4375 Z M 3.40625 -0.78125 C 3.875 -0.78125 4.238281 -0.890625 4.5 -1.109375 C 4.757812 -1.328125 4.890625 -1.632812 4.890625 -2.03125 C 4.890625 -2.425781 4.75 -2.738281 4.46875 -2.96875 C 4.195312 -3.207031 3.832031 -3.328125 3.375 -3.328125 L 1.734375 -3.328125 L 1.734375 -0.78125 Z M 3.40625 -0.78125 "/></g></g></g><g fill="#ffffff" fill-opacity="1"><g transform="translate(69.480958, 78.819727)"><g><path d="M 0.4375 -3.609375 C 0.4375 -4.316406 0.59375 -4.945312 0.90625 -5.5 C 1.226562 -6.0625 1.664062 -6.5 2.21875 -6.8125 C 2.769531 -7.132812 3.378906 -7.296875 4.046875 -7.296875 C 4.828125 -7.296875 5.507812 -7.109375 6.09375 -6.734375 C 6.6875 -6.359375 7.117188 -5.820312 7.390625 -5.125 L 6.265625 -5.125 C 6.054688 -5.550781 5.765625 -5.878906 5.390625 -6.109375 C 5.015625 -6.347656 4.566406 -6.46875 4.046875 -6.46875 C 3.546875 -6.46875 3.09375 -6.347656 2.6875 -6.109375 C 2.289062 -5.878906 1.976562 -5.550781 1.75 -5.125 C 1.519531 -4.695312 1.40625 -4.191406 1.40625 -3.609375 C 1.40625 -3.035156 1.519531 -2.53125 1.75 -2.09375 C 1.976562 -1.664062 2.289062 -1.332031 2.6875 -1.09375 C 3.09375 -0.863281 3.546875 -0.75 4.046875 -0.75 C 4.566406 -0.75 5.015625 -0.863281 5.390625 -1.09375 C 5.765625 -1.332031 6.054688 -1.664062 6.265625 -2.09375 L 7.390625 -2.09375 C 7.117188 -1.40625 6.6875 -0.875 6.09375 -0.5 C 5.507812 -0.125 4.828125 0.0625 4.046875 0.0625 C 3.378906 0.0625 2.769531 -0.09375 2.21875 -0.40625 C 1.664062 -0.71875 1.226562 -1.15625 0.90625 -1.71875 C 0.59375 -2.28125 0.4375 -2.910156 0.4375 -3.609375 Z M 0.4375 -3.609375 "/></g></g></g><g fill="#ffffff" fill-opacity="1"><g transform="translate(77.460339, 78.819727)"><g><path d="M 4.71875 -4.1875 L 4.71875 -3.390625 L 0.59375 -3.390625 L 0.59375 -4.1875 Z M 4.71875 -4.1875 "/></g></g></g><g fill="#ffffff" fill-opacity="1"><g transform="translate(83.155468, 78.819727)"><g><path d="M 4.40625 -3.71875 C 4.664062 -3.675781 4.90625 -3.566406 5.125 -3.390625 C 5.34375 -3.222656 5.515625 -3.007812 5.640625 -2.75 C 5.765625 -2.5 5.828125 -2.226562 5.828125 -1.9375 C 5.828125 -1.570312 5.734375 -1.238281 5.546875 -0.9375 C 5.367188 -0.644531 5.097656 -0.414062 4.734375 -0.25 C 4.378906 -0.0820312 3.960938 0 3.484375 0 L 0.796875 0 L 0.796875 -7.203125 L 3.375 -7.203125 C 3.863281 -7.203125 4.28125 -7.117188 4.625 -6.953125 C 4.976562 -6.796875 5.238281 -6.578125 5.40625 -6.296875 C 5.582031 -6.023438 5.671875 -5.71875 5.671875 -5.375 C 5.671875 -4.945312 5.550781 -4.59375 5.3125 -4.3125 C 5.082031 -4.039062 4.78125 -3.84375 4.40625 -3.71875 Z M 1.734375 -4.09375 L 3.328125 -4.09375 C 3.765625 -4.09375 4.101562 -4.195312 4.34375 -4.40625 C 4.582031 -4.613281 4.703125 -4.898438 4.703125 -5.265625 C 4.703125 -5.628906 4.582031 -5.914062 4.34375 -6.125 C 4.101562 -6.332031 3.753906 -6.4375 3.296875 -6.4375 L 1.734375 -6.4375 Z M 3.40625 -0.78125 C 3.875 -0.78125 4.238281 -0.890625 4.5 -1.109375 C 4.757812 -1.328125 4.890625 -1.632812 4.890625 -2.03125 C 4.890625 -2.425781 4.75 -2.738281 4.46875 -2.96875 C 4.195312 -3.207031 3.832031 -3.328125 3.375 -3.328125 L 1.734375 -3.328125 L 1.734375 -0.78125 Z M 3.40625 -0.78125 "/></g></g></g><g fill="#ffffff" fill-opacity="1"><g transform="translate(89.491421, 78.819727)"><g><path d="M 1.734375 -4.75 C 1.898438 -5.070312 2.132812 -5.320312 2.4375 -5.5 C 2.75 -5.675781 3.125 -5.765625 3.5625 -5.765625 L 3.5625 -4.796875 L 3.328125 -4.796875 C 2.265625 -4.796875 1.734375 -4.222656 1.734375 -3.078125 L 1.734375 0 L 0.796875 0 L 0.796875 -5.671875 L 1.734375 -5.671875 Z M 1.734375 -4.75 "/></g></g></g><g fill="#ffffff" fill-opacity="1"><g transform="translate(93.34674, 78.819727)"><g><path d="M 0.5 1.921875 L 0.5 1.828125 C 1.207031 1.097656 1.742188 0.25 2.109375 -0.71875 C 2.484375 -1.695312 2.671875 -2.71875 2.671875 -3.78125 C 2.671875 -4.882812 2.472656 -5.941406 2.078125 -6.953125 C 1.691406 -7.972656 1.113281 -8.84375 0.34375 -9.5625 L 0.34375 -9.65625 L 1.328125 -9.65625 C 2.046875 -8.988281 2.597656 -8.140625 2.984375 -7.109375 C 3.378906 -6.078125 3.578125 -4.96875 3.578125 -3.78125 C 3.578125 -2.625 3.390625 -1.546875 3.015625 -0.546875 C 2.648438 0.453125 2.140625 1.273438 1.484375 1.921875 Z M 0.5 1.921875 "/></g></g></g><g fill="#ffffff" fill-opacity="1"><g transform="translate(93.44284, 102.991347)"><g><path d="M 1.515625 -1.28125 C 1.609375 -1.257812 1.691406 -1.21875 1.765625 -1.15625 C 1.835938 -1.101562 1.894531 -1.03125 1.9375 -0.9375 C 1.988281 -0.851562 2.015625 -0.765625 2.015625 -0.671875 C 2.015625 -0.546875 1.976562 -0.429688 1.90625 -0.328125 C 1.84375 -0.222656 1.75 -0.140625 1.625 -0.078125 C 1.507812 -0.0234375 1.367188 0 1.203125 0 L 0.28125 0 L 0.28125 -2.484375 L 1.171875 -2.484375 C 1.335938 -2.484375 1.476562 -2.453125 1.59375 -2.390625 C 1.71875 -2.335938 1.804688 -2.265625 1.859375 -2.171875 C 1.921875 -2.078125 1.953125 -1.972656 1.953125 -1.859375 C 1.953125 -1.703125 1.910156 -1.578125 1.828125 -1.484375 C 1.753906 -1.390625 1.648438 -1.320312 1.515625 -1.28125 Z M 0.59375 -1.40625 L 1.140625 -1.40625 C 1.296875 -1.40625 1.414062 -1.441406 1.5 -1.515625 C 1.582031 -1.585938 1.625 -1.6875 1.625 -1.8125 C 1.625 -1.9375 1.582031 -2.035156 1.5 -2.109375 C 1.414062 -2.179688 1.296875 -2.21875 1.140625 -2.21875 L 0.59375 -2.21875 Z M 1.171875 -0.265625 C 1.335938 -0.265625 1.460938 -0.300781 1.546875 -0.375 C 1.640625 -0.457031 1.6875 -0.566406 1.6875 -0.703125 C 1.6875 -0.835938 1.640625 -0.941406 1.546875 -1.015625 C 1.453125 -1.097656 1.320312 -1.140625 1.15625 -1.140625 L 0.59375 -1.140625 L 0.59375 -0.265625 Z M 1.171875 -0.265625 "/></g></g></g><g fill="#ffffff" fill-opacity="1"><g transform="translate(95.62927, 102.991347)"><g><path d="M 0.15625 -0.984375 C 0.15625 -1.179688 0.191406 -1.351562 0.265625 -1.5 C 0.347656 -1.65625 0.457031 -1.773438 0.59375 -1.859375 C 0.738281 -1.941406 0.898438 -1.984375 1.078125 -1.984375 C 1.242188 -1.984375 1.390625 -1.945312 1.515625 -1.875 C 1.648438 -1.800781 1.75 -1.707031 1.8125 -1.59375 L 1.8125 -1.953125 L 2.140625 -1.953125 L 2.140625 0 L 1.8125 0 L 1.8125 -0.359375 C 1.738281 -0.242188 1.640625 -0.148438 1.515625 -0.078125 C 1.390625 -0.00390625 1.242188 0.03125 1.078125 0.03125 C 0.898438 0.03125 0.738281 -0.0078125 0.59375 -0.09375 C 0.457031 -0.175781 0.347656 -0.296875 0.265625 -0.453125 C 0.191406 -0.609375 0.15625 -0.785156 0.15625 -0.984375 Z M 1.8125 -0.984375 C 1.8125 -1.128906 1.78125 -1.253906 1.71875 -1.359375 C 1.65625 -1.472656 1.570312 -1.554688 1.46875 -1.609375 C 1.375 -1.671875 1.265625 -1.703125 1.140625 -1.703125 C 1.023438 -1.703125 0.914062 -1.671875 0.8125 -1.609375 C 0.707031 -1.554688 0.625 -1.472656 0.5625 -1.359375 C 0.507812 -1.253906 0.484375 -1.128906 0.484375 -0.984375 C 0.484375 -0.835938 0.507812 -0.707031 0.5625 -0.59375 C 0.625 -0.476562 0.707031 -0.390625 0.8125 -0.328125 C 0.914062 -0.273438 1.023438 -0.25 1.140625 -0.25 C 1.265625 -0.25 1.375 -0.273438 1.46875 -0.328125 C 1.570312 -0.390625 1.65625 -0.476562 1.71875 -0.59375 C 1.78125 -0.707031 1.8125 -0.835938 1.8125 -0.984375 Z M 1.8125 -0.984375 "/></g></g></g><g fill="#ffffff" fill-opacity="1"><g transform="translate(98.040409, 102.991347)"><g><path d="M 1.21875 -1.984375 C 1.457031 -1.984375 1.648438 -1.910156 1.796875 -1.765625 C 1.953125 -1.628906 2.03125 -1.425781 2.03125 -1.15625 L 2.03125 0 L 1.703125 0 L 1.703125 -1.109375 C 1.703125 -1.296875 1.648438 -1.441406 1.546875 -1.546875 C 1.453125 -1.648438 1.320312 -1.703125 1.15625 -1.703125 C 0.988281 -1.703125 0.851562 -1.648438 0.75 -1.546875 C 0.644531 -1.441406 0.59375 -1.285156 0.59375 -1.078125 L 0.59375 0 L 0.28125 0 L 0.28125 -1.953125 L 0.59375 -1.953125 L 0.59375 -1.671875 C 0.65625 -1.773438 0.742188 -1.851562 0.859375 -1.90625 C 0.972656 -1.957031 1.09375 -1.984375 1.21875 -1.984375 Z M 1.21875 -1.984375 "/></g></g></g><g fill="#ffffff" fill-opacity="1"><g transform="translate(100.323142, 102.991347)"><g><path d="M 0.15625 -0.984375 C 0.15625 -1.179688 0.191406 -1.351562 0.265625 -1.5 C 0.347656 -1.65625 0.460938 -1.773438 0.609375 -1.859375 C 0.753906 -1.941406 0.921875 -1.984375 1.109375 -1.984375 C 1.347656 -1.984375 1.546875 -1.925781 1.703125 -1.8125 C 1.859375 -1.695312 1.957031 -1.535156 2 -1.328125 L 1.65625 -1.328125 C 1.625 -1.441406 1.554688 -1.53125 1.453125 -1.59375 C 1.359375 -1.664062 1.242188 -1.703125 1.109375 -1.703125 C 0.921875 -1.703125 0.769531 -1.640625 0.65625 -1.515625 C 0.539062 -1.390625 0.484375 -1.210938 0.484375 -0.984375 C 0.484375 -0.742188 0.539062 -0.5625 0.65625 -0.4375 C 0.769531 -0.3125 0.921875 -0.25 1.109375 -0.25 C 1.242188 -0.25 1.359375 -0.28125 1.453125 -0.34375 C 1.554688 -0.40625 1.625 -0.5 1.65625 -0.625 L 2 -0.625 C 1.945312 -0.425781 1.84375 -0.265625 1.6875 -0.140625 C 1.53125 -0.0234375 1.335938 0.03125 1.109375 0.03125 C 0.921875 0.03125 0.753906 -0.0078125 0.609375 -0.09375 C 0.460938 -0.175781 0.347656 -0.289062 0.265625 -0.4375 C 0.191406 -0.59375 0.15625 -0.773438 0.15625 -0.984375 Z M 0.15625 -0.984375 "/></g></g></g><g fill="#ffffff" fill-opacity="1"><g transform="translate(102.488175, 102.991347)"><g><path d="M 1.125 0.03125 C 0.9375 0.03125 0.769531 -0.0078125 0.625 -0.09375 C 0.476562 -0.175781 0.363281 -0.289062 0.28125 -0.4375 C 0.195312 -0.59375 0.15625 -0.773438 0.15625 -0.984375 C 0.15625 -1.179688 0.195312 -1.351562 0.28125 -1.5 C 0.363281 -1.65625 0.476562 -1.773438 0.625 -1.859375 C 0.78125 -1.941406 0.953125 -1.984375 1.140625 -1.984375 C 1.328125 -1.984375 1.492188 -1.941406 1.640625 -1.859375 C 1.785156 -1.773438 1.898438 -1.65625 1.984375 -1.5 C 2.078125 -1.351562 2.125 -1.179688 2.125 -0.984375 C 2.125 -0.773438 2.078125 -0.59375 1.984375 -0.4375 C 1.898438 -0.289062 1.78125 -0.175781 1.625 -0.09375 C 1.476562 -0.0078125 1.3125 0.03125 1.125 0.03125 Z M 1.125 -0.25 C 1.238281 -0.25 1.347656 -0.273438 1.453125 -0.328125 C 1.554688 -0.390625 1.640625 -0.472656 1.703125 -0.578125 C 1.765625 -0.691406 1.796875 -0.828125 1.796875 -0.984375 C 1.796875 -1.140625 1.765625 -1.269531 1.703125 -1.375 C 1.640625 -1.488281 1.554688 -1.570312 1.453125 -1.625 C 1.359375 -1.675781 1.253906 -1.703125 1.140625 -1.703125 C 1.015625 -1.703125 0.898438 -1.675781 0.796875 -1.625 C 0.703125 -1.570312 0.625 -1.488281 0.5625 -1.375 C 0.507812 -1.269531 0.484375 -1.140625 0.484375 -0.984375 C 0.484375 -0.816406 0.507812 -0.675781 0.5625 -0.5625 C 0.625 -0.457031 0.703125 -0.378906 0.796875 -0.328125 C 0.898438 -0.273438 1.007812 -0.25 1.125 -0.25 Z M 1.125 -0.25 "/></g></g></g><g fill="#ffffff" fill-opacity="1"><g transform="translate(104.770908, 102.991347)"><g/></g></g><g fill="#ffffff" fill-opacity="1"><g transform="translate(105.723237, 102.991347)"><g><path d="M 0.15625 -1.25 C 0.15625 -1.488281 0.207031 -1.703125 0.3125 -1.890625 C 0.425781 -2.085938 0.578125 -2.238281 0.765625 -2.34375 C 0.953125 -2.457031 1.160156 -2.515625 1.390625 -2.515625 C 1.660156 -2.515625 1.894531 -2.445312 2.09375 -2.3125 C 2.300781 -2.1875 2.453125 -2.003906 2.546875 -1.765625 L 2.15625 -1.765625 C 2.082031 -1.910156 1.976562 -2.023438 1.84375 -2.109375 C 1.71875 -2.191406 1.566406 -2.234375 1.390625 -2.234375 C 1.222656 -2.234375 1.066406 -2.191406 0.921875 -2.109375 C 0.785156 -2.023438 0.675781 -1.910156 0.59375 -1.765625 C 0.519531 -1.617188 0.484375 -1.445312 0.484375 -1.25 C 0.484375 -1.050781 0.519531 -0.875 0.59375 -0.71875 C 0.675781 -0.570312 0.785156 -0.457031 0.921875 -0.375 C 1.066406 -0.300781 1.222656 -0.265625 1.390625 -0.265625 C 1.566406 -0.265625 1.71875 -0.300781 1.84375 -0.375 C 1.976562 -0.457031 2.082031 -0.570312 2.15625 -0.71875 L 2.546875 -0.71875 C 2.453125 -0.476562 2.300781 -0.296875 2.09375 -0.171875 C 1.894531 -0.046875 1.660156 0.015625 1.390625 0.015625 C 1.160156 0.015625 0.953125 -0.0351562 0.765625 -0.140625 C 0.578125 -0.242188 0.425781 -0.390625 0.3125 -0.578125 C 0.207031 -0.773438 0.15625 -1 0.15625 -1.25 Z M 0.15625 -1.25 "/></g></g></g><g fill="#ffffff" fill-opacity="1"><g transform="translate(108.476786, 102.991347)"><g><path d="M 2.0625 -1.046875 C 2.0625 -0.984375 2.054688 -0.921875 2.046875 -0.859375 L 0.484375 -0.859375 C 0.492188 -0.660156 0.554688 -0.507812 0.671875 -0.40625 C 0.796875 -0.300781 0.945312 -0.25 1.125 -0.25 C 1.257812 -0.25 1.375 -0.28125 1.46875 -0.34375 C 1.5625 -0.40625 1.628906 -0.492188 1.671875 -0.609375 L 2.015625 -0.609375 C 1.960938 -0.421875 1.859375 -0.265625 1.703125 -0.140625 C 1.546875 -0.0234375 1.351562 0.03125 1.125 0.03125 C 0.9375 0.03125 0.769531 -0.0078125 0.625 -0.09375 C 0.476562 -0.175781 0.363281 -0.289062 0.28125 -0.4375 C 0.195312 -0.59375 0.15625 -0.773438 0.15625 -0.984375 C 0.15625 -1.179688 0.191406 -1.351562 0.265625 -1.5 C 0.347656 -1.65625 0.460938 -1.773438 0.609375 -1.859375 C 0.753906 -1.941406 0.925781 -1.984375 1.125 -1.984375 C 1.300781 -1.984375 1.460938 -1.941406 1.609375 -1.859375 C 1.753906 -1.773438 1.863281 -1.660156 1.9375 -1.515625 C 2.019531 -1.378906 2.0625 -1.222656 2.0625 -1.046875 Z M 1.71875 -1.125 C 1.71875 -1.238281 1.691406 -1.34375 1.640625 -1.4375 C 1.585938 -1.53125 1.515625 -1.597656 1.421875 -1.640625 C 1.328125 -1.679688 1.222656 -1.703125 1.109375 -1.703125 C 0.941406 -1.703125 0.800781 -1.648438 0.6875 -1.546875 C 0.570312 -1.441406 0.503906 -1.300781 0.484375 -1.125 Z M 1.71875 -1.125 "/></g></g></g><g fill="#ffffff" fill-opacity="1"><g transform="translate(110.688183, 102.991347)"><g><path d="M 1.21875 -1.984375 C 1.457031 -1.984375 1.648438 -1.910156 1.796875 -1.765625 C 1.953125 -1.628906 2.03125 -1.425781 2.03125 -1.15625 L 2.03125 0 L 1.703125 0 L 1.703125 -1.109375 C 1.703125 -1.296875 1.648438 -1.441406 1.546875 -1.546875 C 1.453125 -1.648438 1.320312 -1.703125 1.15625 -1.703125 C 0.988281 -1.703125 0.851562 -1.648438 0.75 -1.546875 C 0.644531 -1.441406 0.59375 -1.285156 0.59375 -1.078125 L 0.59375 0 L 0.28125 0 L 0.28125 -1.953125 L 0.59375 -1.953125 L 0.59375 -1.671875 C 0.65625 -1.773438 0.742188 -1.851562 0.859375 -1.90625 C 0.972656 -1.957031 1.09375 -1.984375 1.21875 -1.984375 Z M 1.21875 -1.984375 "/></g></g></g><g fill="#ffffff" fill-opacity="1"><g transform="translate(112.970917, 102.991347)"><g><path d="M 0.671875 -1.6875 L 0.671875 -0.53125 C 0.671875 -0.4375 0.691406 -0.367188 0.734375 -0.328125 C 0.773438 -0.296875 0.84375 -0.28125 0.9375 -0.28125 L 1.171875 -0.28125 L 1.171875 0 L 0.890625 0 C 0.703125 0 0.5625 -0.0390625 0.46875 -0.125 C 0.382812 -0.207031 0.34375 -0.34375 0.34375 -0.53125 L 0.34375 -1.6875 L 0.09375 -1.6875 L 0.09375 -1.953125 L 0.34375 -1.953125 L 0.34375 -2.4375 L 0.671875 -2.4375 L 0.671875 -1.953125 L 1.171875 -1.953125 L 1.171875 -1.6875 Z M 0.671875 -1.6875 "/></g></g></g><g fill="#ffffff" fill-opacity="1"><g transform="translate(114.269221, 102.991347)"><g><path d="M 0.59375 -1.640625 C 0.65625 -1.742188 0.738281 -1.828125 0.84375 -1.890625 C 0.945312 -1.953125 1.078125 -1.984375 1.234375 -1.984375 L 1.234375 -1.65625 L 1.140625 -1.65625 C 0.773438 -1.65625 0.59375 -1.457031 0.59375 -1.0625 L 0.59375 0 L 0.28125 0 L 0.28125 -1.953125 L 0.59375 -1.953125 Z M 0.59375 -1.640625 "/></g></g></g><g fill="#ffffff" fill-opacity="1"><g transform="translate(115.599626, 102.991347)"><g><path d="M 0.15625 -0.984375 C 0.15625 -1.179688 0.191406 -1.351562 0.265625 -1.5 C 0.347656 -1.65625 0.457031 -1.773438 0.59375 -1.859375 C 0.738281 -1.941406 0.898438 -1.984375 1.078125 -1.984375 C 1.242188 -1.984375 1.390625 -1.945312 1.515625 -1.875 C 1.648438 -1.800781 1.75 -1.707031 1.8125 -1.59375 L 1.8125 -1.953125 L 2.140625 -1.953125 L 2.140625 0 L 1.8125 0 L 1.8125 -0.359375 C 1.738281 -0.242188 1.640625 -0.148438 1.515625 -0.078125 C 1.390625 -0.00390625 1.242188 0.03125 1.078125 0.03125 C 0.898438 0.03125 0.738281 -0.0078125 0.59375 -0.09375 C 0.457031 -0.175781 0.347656 -0.296875 0.265625 -0.453125 C 0.191406 -0.609375 0.15625 -0.785156 0.15625 -0.984375 Z M 1.8125 -0.984375 C 1.8125 -1.128906 1.78125 -1.253906 1.71875 -1.359375 C 1.65625 -1.472656 1.570312 -1.554688 1.46875 -1.609375 C 1.375 -1.671875 1.265625 -1.703125 1.140625 -1.703125 C 1.023438 -1.703125 0.914062 -1.671875 0.8125 -1.609375 C 0.707031 -1.554688 0.625 -1.472656 0.5625 -1.359375 C 0.507812 -1.253906 0.484375 -1.128906 0.484375 -0.984375 C 0.484375 -0.835938 0.507812 -0.707031 0.5625 -0.59375 C 0.625 -0.476562 0.707031 -0.390625 0.8125 -0.328125 C 0.914062 -0.273438 1.023438 -0.25 1.140625 -0.25 C 1.265625 -0.25 1.375 -0.273438 1.46875 -0.328125 C 1.570312 -0.390625 1.65625 -0.476562 1.71875 -0.59375 C 1.78125 -0.707031 1.8125 -0.835938 1.8125 -0.984375 Z M 1.8125 -0.984375 "/></g></g></g><g fill="#ffffff" fill-opacity="1"><g transform="translate(118.010764, 102.991347)"><g><path d="M 0.59375 -2.640625 L 0.59375 0 L 0.28125 0 L 0.28125 -2.640625 Z M 0.59375 -2.640625 "/></g></g></g><g fill="#ffffff" fill-opacity="1"><g transform="translate(118.888192, 102.991347)"><g/></g></g><g fill="#ffffff" fill-opacity="1"><g transform="translate(119.840521, 102.991347)"><g><path d="M 0.15625 -0.984375 C 0.15625 -1.179688 0.191406 -1.351562 0.265625 -1.5 C 0.347656 -1.65625 0.457031 -1.773438 0.59375 -1.859375 C 0.738281 -1.941406 0.898438 -1.984375 1.078125 -1.984375 C 1.234375 -1.984375 1.375 -1.945312 1.5 -1.875 C 1.632812 -1.8125 1.738281 -1.722656 1.8125 -1.609375 L 1.8125 -2.640625 L 2.140625 -2.640625 L 2.140625 0 L 1.8125 0 L 1.8125 -0.359375 C 1.738281 -0.242188 1.640625 -0.148438 1.515625 -0.078125 C 1.390625 -0.00390625 1.242188 0.03125 1.078125 0.03125 C 0.898438 0.03125 0.738281 -0.0078125 0.59375 -0.09375 C 0.457031 -0.175781 0.347656 -0.296875 0.265625 -0.453125 C 0.191406 -0.609375 0.15625 -0.785156 0.15625 -0.984375 Z M 1.8125 -0.984375 C 1.8125 -1.128906 1.78125 -1.253906 1.71875 -1.359375 C 1.65625 -1.472656 1.570312 -1.554688 1.46875 -1.609375 C 1.375 -1.671875 1.265625 -1.703125 1.140625 -1.703125 C 1.023438 -1.703125 0.914062 -1.671875 0.8125 -1.609375 C 0.707031 -1.554688 0.625 -1.472656 0.5625 -1.359375 C 0.507812 -1.253906 0.484375 -1.128906 0.484375 -0.984375 C 0.484375 -0.835938 0.507812 -0.707031 0.5625 -0.59375 C 0.625 -0.476562 0.707031 -0.390625 0.8125 -0.328125 C 0.914062 -0.273438 1.023438 -0.25 1.140625 -0.25 C 1.265625 -0.25 1.375 -0.273438 1.46875 -0.328125 C 1.570312 -0.390625 1.65625 -0.476562 1.71875 -0.59375 C 1.78125 -0.707031 1.8125 -0.835938 1.8125 -0.984375 Z M 1.8125 -0.984375 "/></g></g></g><g fill="#ffffff" fill-opacity="1"><g transform="translate(122.251659, 102.991347)"><g><path d="M 1.125 0.03125 C 0.9375 0.03125 0.769531 -0.0078125 0.625 -0.09375 C 0.476562 -0.175781 0.363281 -0.289062 0.28125 -0.4375 C 0.195312 -0.59375 0.15625 -0.773438 0.15625 -0.984375 C 0.15625 -1.179688 0.195312 -1.351562 0.28125 -1.5 C 0.363281 -1.65625 0.476562 -1.773438 0.625 -1.859375 C 0.78125 -1.941406 0.953125 -1.984375 1.140625 -1.984375 C 1.328125 -1.984375 1.492188 -1.941406 1.640625 -1.859375 C 1.785156 -1.773438 1.898438 -1.65625 1.984375 -1.5 C 2.078125 -1.351562 2.125 -1.179688 2.125 -0.984375 C 2.125 -0.773438 2.078125 -0.59375 1.984375 -0.4375 C 1.898438 -0.289062 1.78125 -0.175781 1.625 -0.09375 C 1.476562 -0.0078125 1.3125 0.03125 1.125 0.03125 Z M 1.125 -0.25 C 1.238281 -0.25 1.347656 -0.273438 1.453125 -0.328125 C 1.554688 -0.390625 1.640625 -0.472656 1.703125 -0.578125 C 1.765625 -0.691406 1.796875 -0.828125 1.796875 -0.984375 C 1.796875 -1.140625 1.765625 -1.269531 1.703125 -1.375 C 1.640625 -1.488281 1.554688 -1.570312 1.453125 -1.625 C 1.359375 -1.675781 1.253906 -1.703125 1.140625 -1.703125 C 1.015625 -1.703125 0.898438 -1.675781 0.796875 -1.625 C 0.703125 -1.570312 0.625 -1.488281 0.5625 -1.375 C 0.507812 -1.269531 0.484375 -1.140625 0.484375 -0.984375 C 0.484375 -0.816406 0.507812 -0.675781 0.5625 -0.5625 C 0.625 -0.457031 0.703125 -0.378906 0.796875 -0.328125 C 0.898438 -0.273438 1.007812 -0.25 1.125 -0.25 Z M 1.125 -0.25 "/></g></g></g><g fill="#ffffff" fill-opacity="1"><g transform="translate(124.534393, 102.991347)"><g/></g></g><g fill="#ffffff" fill-opacity="1"><g transform="translate(125.486722, 102.991347)"><g><path d="M 1.515625 -1.28125 C 1.609375 -1.257812 1.691406 -1.21875 1.765625 -1.15625 C 1.835938 -1.101562 1.894531 -1.03125 1.9375 -0.9375 C 1.988281 -0.851562 2.015625 -0.765625 2.015625 -0.671875 C 2.015625 -0.546875 1.976562 -0.429688 1.90625 -0.328125 C 1.84375 -0.222656 1.75 -0.140625 1.625 -0.078125 C 1.507812 -0.0234375 1.367188 0 1.203125 0 L 0.28125 0 L 0.28125 -2.484375 L 1.171875 -2.484375 C 1.335938 -2.484375 1.476562 -2.453125 1.59375 -2.390625 C 1.71875 -2.335938 1.804688 -2.265625 1.859375 -2.171875 C 1.921875 -2.078125 1.953125 -1.972656 1.953125 -1.859375 C 1.953125 -1.703125 1.910156 -1.578125 1.828125 -1.484375 C 1.753906 -1.390625 1.648438 -1.320312 1.515625 -1.28125 Z M 0.59375 -1.40625 L 1.140625 -1.40625 C 1.296875 -1.40625 1.414062 -1.441406 1.5 -1.515625 C 1.582031 -1.585938 1.625 -1.6875 1.625 -1.8125 C 1.625 -1.9375 1.582031 -2.035156 1.5 -2.109375 C 1.414062 -2.179688 1.296875 -2.21875 1.140625 -2.21875 L 0.59375 -2.21875 Z M 1.171875 -0.265625 C 1.335938 -0.265625 1.460938 -0.300781 1.546875 -0.375 C 1.640625 -0.457031 1.6875 -0.566406 1.6875 -0.703125 C 1.6875 -0.835938 1.640625 -0.941406 1.546875 -1.015625 C 1.453125 -1.097656 1.320312 -1.140625 1.15625 -1.140625 L 0.59375 -1.140625 L 0.59375 -0.265625 Z M 1.171875 -0.265625 "/></g></g></g><g fill="#ffffff" fill-opacity="1"><g transform="translate(127.673152, 102.991347)"><g><path d="M 0.59375 -1.640625 C 0.65625 -1.742188 0.738281 -1.828125 0.84375 -1.890625 C 0.945312 -1.953125 1.078125 -1.984375 1.234375 -1.984375 L 1.234375 -1.65625 L 1.140625 -1.65625 C 0.773438 -1.65625 0.59375 -1.457031 0.59375 -1.0625 L 0.59375 0 L 0.28125 0 L 0.28125 -1.953125 L 0.59375 -1.953125 Z M 0.59375 -1.640625 "/></g></g></g><g fill="#ffffff" fill-opacity="1"><g transform="translate(129.003557, 102.991347)"><g><path d="M 0.15625 -0.984375 C 0.15625 -1.179688 0.191406 -1.351562 0.265625 -1.5 C 0.347656 -1.65625 0.457031 -1.773438 0.59375 -1.859375 C 0.738281 -1.941406 0.898438 -1.984375 1.078125 -1.984375 C 1.242188 -1.984375 1.390625 -1.945312 1.515625 -1.875 C 1.648438 -1.800781 1.75 -1.707031 1.8125 -1.59375 L 1.8125 -1.953125 L 2.140625 -1.953125 L 2.140625 0 L 1.8125 0 L 1.8125 -0.359375 C 1.738281 -0.242188 1.640625 -0.148438 1.515625 -0.078125 C 1.390625 -0.00390625 1.242188 0.03125 1.078125 0.03125 C 0.898438 0.03125 0.738281 -0.0078125 0.59375 -0.09375 C 0.457031 -0.175781 0.347656 -0.296875 0.265625 -0.453125 C 0.191406 -0.609375 0.15625 -0.785156 0.15625 -0.984375 Z M 1.8125 -0.984375 C 1.8125 -1.128906 1.78125 -1.253906 1.71875 -1.359375 C 1.65625 -1.472656 1.570312 -1.554688 1.46875 -1.609375 C 1.375 -1.671875 1.265625 -1.703125 1.140625 -1.703125 C 1.023438 -1.703125 0.914062 -1.671875 0.8125 -1.609375 C 0.707031 -1.554688 0.625 -1.472656 0.5625 -1.359375 C 0.507812 -1.253906 0.484375 -1.128906 0.484375 -0.984375 C 0.484375 -0.835938 0.507812 -0.707031 0.5625 -0.59375 C 0.625 -0.476562 0.707031 -0.390625 0.8125 -0.328125 C 0.914062 -0.273438 1.023438 -0.25 1.140625 -0.25 C 1.265625 -0.25 1.375 -0.273438 1.46875 -0.328125 C 1.570312 -0.390625 1.65625 -0.476562 1.71875 -0.59375 C 1.78125 -0.707031 1.8125 -0.835938 1.8125 -0.984375 Z M 1.8125 -0.984375 "/></g></g></g><g fill="#ffffff" fill-opacity="1"><g transform="translate(131.414696, 102.991347)"><g><path d="M 0.96875 0.03125 C 0.8125 0.03125 0.675781 0.00390625 0.5625 -0.046875 C 0.445312 -0.0976562 0.351562 -0.164062 0.28125 -0.25 C 0.207031 -0.34375 0.171875 -0.453125 0.171875 -0.578125 L 0.5 -0.578125 C 0.507812 -0.472656 0.554688 -0.390625 0.640625 -0.328125 C 0.722656 -0.273438 0.832031 -0.25 0.96875 -0.25 C 1.082031 -0.25 1.175781 -0.273438 1.25 -0.328125 C 1.320312 -0.378906 1.359375 -0.445312 1.359375 -0.53125 C 1.359375 -0.613281 1.320312 -0.675781 1.25 -0.71875 C 1.175781 -0.757812 1.054688 -0.800781 0.890625 -0.84375 C 0.742188 -0.882812 0.625 -0.921875 0.53125 -0.953125 C 0.445312 -0.992188 0.367188 -1.050781 0.296875 -1.125 C 0.234375 -1.207031 0.203125 -1.3125 0.203125 -1.4375 C 0.203125 -1.539062 0.234375 -1.632812 0.296875 -1.71875 C 0.359375 -1.800781 0.441406 -1.863281 0.546875 -1.90625 C 0.660156 -1.957031 0.785156 -1.984375 0.921875 -1.984375 C 1.140625 -1.984375 1.3125 -1.925781 1.4375 -1.8125 C 1.570312 -1.707031 1.644531 -1.5625 1.65625 -1.375 L 1.328125 -1.375 C 1.328125 -1.476562 1.285156 -1.554688 1.203125 -1.609375 C 1.128906 -1.671875 1.03125 -1.703125 0.90625 -1.703125 C 0.789062 -1.703125 0.695312 -1.675781 0.625 -1.625 C 0.5625 -1.582031 0.53125 -1.519531 0.53125 -1.4375 C 0.53125 -1.375 0.550781 -1.320312 0.59375 -1.28125 C 0.632812 -1.238281 0.6875 -1.203125 0.75 -1.171875 C 0.8125 -1.148438 0.898438 -1.125 1.015625 -1.09375 C 1.148438 -1.0625 1.257812 -1.023438 1.34375 -0.984375 C 1.4375 -0.953125 1.515625 -0.894531 1.578125 -0.8125 C 1.640625 -0.738281 1.671875 -0.644531 1.671875 -0.53125 C 1.671875 -0.425781 1.640625 -0.328125 1.578125 -0.234375 C 1.523438 -0.148438 1.441406 -0.0820312 1.328125 -0.03125 C 1.222656 0.0078125 1.101562 0.03125 0.96875 0.03125 Z M 0.96875 0.03125 "/></g></g></g><g fill="#ffffff" fill-opacity="1"><g transform="translate(133.276549, 102.991347)"><g><path d="M 0.4375 -2.265625 C 0.375 -2.265625 0.320312 -2.285156 0.28125 -2.328125 C 0.238281 -2.367188 0.21875 -2.421875 0.21875 -2.484375 C 0.21875 -2.546875 0.238281 -2.597656 0.28125 -2.640625 C 0.320312 -2.691406 0.375 -2.71875 0.4375 -2.71875 C 0.5 -2.71875 0.550781 -2.691406 0.59375 -2.640625 C 0.632812 -2.597656 0.65625 -2.546875 0.65625 -2.484375 C 0.65625 -2.421875 0.632812 -2.367188 0.59375 -2.328125 C 0.550781 -2.285156 0.5 -2.265625 0.4375 -2.265625 Z M 0.59375 -1.953125 L 0.59375 0 L 0.28125 0 L 0.28125 -1.953125 Z M 0.59375 -1.953125 "/></g></g></g><g fill="#ffffff" fill-opacity="1"><g transform="translate(134.153976, 102.991347)"><g><path d="M 0.59375 -2.640625 L 0.59375 0 L 0.28125 0 L 0.28125 -2.640625 Z M 0.59375 -2.640625 "/></g></g></g></svg>