<svg xmlns="http://www.w3.org/2000/svg" xmlns:xlink="http://www.w3.org/1999/xlink" width="720" zoomAndPan="magnify" viewBox="0 0 540 225" height="300" preserveAspectRatio="xMidYMid meet" version="1.0"><defs><g/><clipPath id="c36c1e4ec5"><path d="M 70.894531 51.828125 L 192.242188 51.828125 L 192.242188 173.171875 L 70.894531 173.171875 Z M 70.894531 51.828125 " clip-rule="nonzero"/></clipPath></defs><g clip-path="url(#c36c1e4ec5)"><path fill="#0a152f" d="M 70.894531 51.828125 L 192.242188 51.828125 L 192.242188 173.171875 L 70.894531 173.171875 Z M 70.894531 51.828125 " fill-opacity="1" fill-rule="nonzero"/></g><g fill="#0a152f" fill-opacity="1"><g transform="translate(210.444908, 92.048018)"><g><path d="M 20.890625 -18.4375 L 20.890625 0 L 18.46875 0 L 18.46875 -13.75 L 12.328125 0 L 10.625 0 L 4.46875 -13.765625 L 4.46875 0 L 2.046875 0 L 2.046875 -18.4375 L 4.65625 -18.4375 L 11.484375 -3.203125 L 18.296875 -18.4375 Z M 20.890625 -18.4375 "/></g></g></g><g fill="#0a152f" fill-opacity="1"><g transform="translate(237.376519, 92.048018)"><g><path d="M 10.46875 0.1875 C 8.75 0.1875 7.175781 -0.210938 5.75 -1.015625 C 4.332031 -1.828125 3.207031 -2.957031 2.375 -4.40625 C 1.550781 -5.851562 1.140625 -7.484375 1.140625 -9.296875 C 1.140625 -11.109375 1.550781 -12.738281 2.375 -14.1875 C 3.207031 -15.632812 4.332031 -16.757812 5.75 -17.5625 C 7.175781 -18.375 8.75 -18.78125 10.46875 -18.78125 C 12.207031 -18.78125 13.785156 -18.375 15.203125 -17.5625 C 16.628906 -16.757812 17.75 -15.640625 18.5625 -14.203125 C 19.382812 -12.765625 19.796875 -11.128906 19.796875 -9.296875 C 19.796875 -7.460938 19.382812 -5.828125 18.5625 -4.390625 C 17.75 -2.953125 16.628906 -1.828125 15.203125 -1.015625 C 13.785156 -0.210938 12.207031 0.1875 10.46875 0.1875 Z M 10.46875 -1.921875 C 11.769531 -1.921875 12.9375 -2.222656 13.96875 -2.828125 C 15.007812 -3.429688 15.828125 -4.289062 16.421875 -5.40625 C 17.015625 -6.53125 17.3125 -7.828125 17.3125 -9.296875 C 17.3125 -10.785156 17.015625 -12.082031 16.421875 -13.1875 C 15.828125 -14.300781 15.015625 -15.160156 13.984375 -15.765625 C 12.953125 -16.367188 11.78125 -16.671875 10.46875 -16.671875 C 9.15625 -16.671875 7.984375 -16.367188 6.953125 -15.765625 C 5.921875 -15.160156 5.109375 -14.300781 4.515625 -13.1875 C 3.921875 -12.082031 3.625 -10.785156 3.625 -9.296875 C 3.625 -7.828125 3.921875 -6.53125 4.515625 -5.40625 C 5.109375 -4.289062 5.925781 -3.429688 6.96875 -2.828125 C 8.007812 -2.222656 9.175781 -1.921875 10.46875 -1.921875 Z M 10.46875 -1.921875 "/></g></g></g><g fill="#0a152f" fill-opacity="1"><g transform="translate(262.310358, 92.048018)"><g><path d="M 11.828125 0 L 7.40625 -7.59375 L 4.46875 -7.59375 L 4.46875 0 L 2.046875 0 L 2.046875 -18.5625 L 8.046875 -18.5625 C 9.453125 -18.5625 10.632812 -18.320312 11.59375 -17.84375 C 12.5625 -17.363281 13.285156 -16.710938 13.765625 -15.890625 C 14.253906 -15.078125 14.5 -14.148438 14.5 -13.109375 C 14.5 -11.828125 14.128906 -10.695312 13.390625 -9.71875 C 12.648438 -8.75 11.539062 -8.101562 10.0625 -7.78125 L 14.734375 0 Z M 4.46875 -9.53125 L 8.046875 -9.53125 C 9.359375 -9.53125 10.34375 -9.851562 11 -10.5 C 11.65625 -11.15625 11.984375 -12.023438 11.984375 -13.109375 C 11.984375 -14.210938 11.660156 -15.066406 11.015625 -15.671875 C 10.367188 -16.273438 9.378906 -16.578125 8.046875 -16.578125 L 4.46875 -16.578125 Z M 4.46875 -9.53125 "/></g></g></g><g fill="#0a152f" fill-opacity="1"><g transform="translate(282.502803, 92.048018)"><g><path d="M 13.03125 -4.125 L 4.921875 -4.125 L 3.4375 0 L 0.875 0 L 7.59375 -18.46875 L 10.390625 -18.46875 L 17.078125 0 L 14.515625 0 Z M 12.328125 -6.09375 L 8.984375 -15.484375 L 5.625 -6.09375 Z M 12.328125 -6.09375 "/></g></g></g><g fill="#0a152f" fill-opacity="1"><g transform="translate(304.453297, 92.048018)"><g><path d="M 4.46875 -16.59375 L 4.46875 -10.390625 L 11.25 -10.390625 L 11.25 -8.390625 L 4.46875 -8.390625 L 4.46875 -2 L 12.046875 -2 L 12.046875 0 L 2.046875 0 L 2.046875 -18.59375 L 12.046875 -18.59375 L 12.046875 -16.59375 Z M 4.46875 -16.59375 "/></g></g></g><g fill="#0a152f" fill-opacity="1"><g transform="translate(322.11523, 92.048018)"><g><path d="M 7.9375 0.1875 C 6.707031 0.1875 5.609375 -0.03125 4.640625 -0.46875 C 3.679688 -0.90625 2.925781 -1.507812 2.375 -2.28125 C 1.820312 -3.050781 1.535156 -3.941406 1.515625 -4.953125 L 4.109375 -4.953125 C 4.191406 -4.085938 4.546875 -3.351562 5.171875 -2.75 C 5.804688 -2.15625 6.726562 -1.859375 7.9375 -1.859375 C 9.09375 -1.859375 10.003906 -2.144531 10.671875 -2.71875 C 11.335938 -3.300781 11.671875 -4.046875 11.671875 -4.953125 C 11.671875 -5.660156 11.472656 -6.238281 11.078125 -6.6875 C 10.691406 -7.132812 10.203125 -7.472656 9.609375 -7.703125 C 9.023438 -7.929688 8.238281 -8.175781 7.25 -8.4375 C 6.019531 -8.757812 5.035156 -9.082031 4.296875 -9.40625 C 3.566406 -9.726562 2.9375 -10.226562 2.40625 -10.90625 C 1.882812 -11.59375 1.625 -12.515625 1.625 -13.671875 C 1.625 -14.679688 1.878906 -15.578125 2.390625 -16.359375 C 2.910156 -17.140625 3.632812 -17.742188 4.5625 -18.171875 C 5.5 -18.597656 6.570312 -18.8125 7.78125 -18.8125 C 9.519531 -18.8125 10.941406 -18.375 12.046875 -17.5 C 13.160156 -16.632812 13.789062 -15.484375 13.9375 -14.046875 L 11.265625 -14.046875 C 11.179688 -14.753906 10.8125 -15.378906 10.15625 -15.921875 C 9.5 -16.460938 8.628906 -16.734375 7.546875 -16.734375 C 6.523438 -16.734375 5.695312 -16.46875 5.0625 -15.9375 C 4.425781 -15.414062 4.109375 -14.6875 4.109375 -13.75 C 4.109375 -13.070312 4.296875 -12.519531 4.671875 -12.09375 C 5.054688 -11.664062 5.523438 -11.34375 6.078125 -11.125 C 6.640625 -10.90625 7.425781 -10.648438 8.4375 -10.359375 C 9.664062 -10.023438 10.648438 -9.691406 11.390625 -9.359375 C 12.140625 -9.035156 12.78125 -8.53125 13.3125 -7.84375 C 13.851562 -7.15625 14.125 -6.226562 14.125 -5.0625 C 14.125 -4.15625 13.882812 -3.300781 13.40625 -2.5 C 12.925781 -1.707031 12.210938 -1.0625 11.265625 -0.5625 C 10.328125 -0.0625 9.21875 0.1875 7.9375 0.1875 Z M 7.9375 0.1875 "/></g></g></g><g fill="#0a152f" fill-opacity="1"><g transform="translate(341.748288, 92.048018)"><g/></g></g><g fill="#0a152f" fill-opacity="1"><g transform="translate(352.857499, 92.048018)"><g><path d="M 16.296875 0 L 13.875 -2.453125 C 12.96875 -1.503906 12 -0.804688 10.96875 -0.359375 C 9.945312 0.0859375 8.785156 0.3125 7.484375 0.3125 C 6.203125 0.3125 5.066406 0.0820312 4.078125 -0.375 C 3.097656 -0.832031 2.335938 -1.488281 1.796875 -2.34375 C 1.253906 -3.195312 0.984375 -4.191406 0.984375 -5.328125 C 0.984375 -6.617188 1.351562 -7.757812 2.09375 -8.75 C 2.832031 -9.738281 3.921875 -10.515625 5.359375 -11.078125 C 4.785156 -11.753906 4.375 -12.375 4.125 -12.9375 C 3.875 -13.507812 3.75 -14.132812 3.75 -14.8125 C 3.75 -15.59375 3.945312 -16.296875 4.34375 -16.921875 C 4.75 -17.554688 5.320312 -18.050781 6.0625 -18.40625 C 6.8125 -18.757812 7.675781 -18.9375 8.65625 -18.9375 C 9.613281 -18.9375 10.445312 -18.75 11.15625 -18.375 C 11.875 -18.007812 12.410156 -17.492188 12.765625 -16.828125 C 13.117188 -16.160156 13.273438 -15.414062 13.234375 -14.59375 L 10.8125 -14.59375 C 10.832031 -15.320312 10.628906 -15.894531 10.203125 -16.3125 C 9.773438 -16.726562 9.222656 -16.9375 8.546875 -16.9375 C 7.835938 -16.9375 7.265625 -16.738281 6.828125 -16.34375 C 6.398438 -15.945312 6.1875 -15.4375 6.1875 -14.8125 C 6.1875 -14.28125 6.332031 -13.765625 6.625 -13.265625 C 6.914062 -12.765625 7.40625 -12.148438 8.09375 -11.421875 L 13.640625 -5.859375 L 14.125 -6.609375 L 15.9375 -9.640625 L 18.546875 -9.640625 L 16.359375 -5.859375 C 16.054688 -5.328125 15.703125 -4.769531 15.296875 -4.1875 L 19.46875 0 Z M 7.484375 -1.765625 C 8.441406 -1.765625 9.304688 -1.945312 10.078125 -2.3125 C 10.859375 -2.6875 11.59375 -3.265625 12.28125 -4.046875 L 6.8125 -9.53125 C 4.539062 -8.664062 3.40625 -7.289062 3.40625 -5.40625 C 3.40625 -4.363281 3.78125 -3.492188 4.53125 -2.796875 C 5.289062 -2.109375 6.273438 -1.765625 7.484375 -1.765625 Z M 7.484375 -1.765625 "/></g></g></g><g fill="#0a152f" fill-opacity="1"><g transform="translate(210.444908, 124.025058)"><g><path d="M 7.9375 0.1875 C 6.707031 0.1875 5.609375 -0.03125 4.640625 -0.46875 C 3.679688 -0.90625 2.925781 -1.507812 2.375 -2.28125 C 1.820312 -3.050781 1.535156 -3.941406 1.515625 -4.953125 L 4.109375 -4.953125 C 4.191406 -4.085938 4.546875 -3.351562 5.171875 -2.75 C 5.804688 -2.15625 6.726562 -1.859375 7.9375 -1.859375 C 9.09375 -1.859375 10.003906 -2.144531 10.671875 -2.71875 C 11.335938 -3.300781 11.671875 -4.046875 11.671875 -4.953125 C 11.671875 -5.660156 11.472656 -6.238281 11.078125 -6.6875 C 10.691406 -7.132812 10.203125 -7.472656 9.609375 -7.703125 C 9.023438 -7.929688 8.238281 -8.175781 7.25 -8.4375 C 6.019531 -8.757812 5.035156 -9.082031 4.296875 -9.40625 C 3.566406 -9.726562 2.9375 -10.226562 2.40625 -10.90625 C 1.882812 -11.59375 1.625 -12.515625 1.625 -13.671875 C 1.625 -14.679688 1.878906 -15.578125 2.390625 -16.359375 C 2.910156 -17.140625 3.632812 -17.742188 4.5625 -18.171875 C 5.5 -18.597656 6.570312 -18.8125 7.78125 -18.8125 C 9.519531 -18.8125 10.941406 -18.375 12.046875 -17.5 C 13.160156 -16.632812 13.789062 -15.484375 13.9375 -14.046875 L 11.265625 -14.046875 C 11.179688 -14.753906 10.8125 -15.378906 10.15625 -15.921875 C 9.5 -16.460938 8.628906 -16.734375 7.546875 -16.734375 C 6.523438 -16.734375 5.695312 -16.46875 5.0625 -15.9375 C 4.425781 -15.414062 4.109375 -14.6875 4.109375 -13.75 C 4.109375 -13.070312 4.296875 -12.519531 4.671875 -12.09375 C 5.054688 -11.664062 5.523438 -11.34375 6.078125 -11.125 C 6.640625 -10.90625 7.425781 -10.648438 8.4375 -10.359375 C 9.664062 -10.023438 10.648438 -9.691406 11.390625 -9.359375 C 12.140625 -9.035156 12.78125 -8.53125 13.3125 -7.84375 C 13.851562 -7.15625 14.125 -6.226562 14.125 -5.0625 C 14.125 -4.15625 13.882812 -3.300781 13.40625 -2.5 C 12.925781 -1.707031 12.210938 -1.0625 11.265625 -0.5625 C 10.328125 -0.0625 9.21875 0.1875 7.9375 0.1875 Z M 7.9375 0.1875 "/></g></g></g><g fill="#0a152f" fill-opacity="1"><g transform="translate(230.077972, 124.025058)"><g><path d="M 4.46875 -18.5625 L 4.46875 0 L 2.046875 0 L 2.046875 -18.5625 Z M 4.46875 -18.5625 "/></g></g></g><g fill="#0a152f" fill-opacity="1"><g transform="translate(240.627821, 124.025058)"><g><path d="M 16.9375 3.515625 L 13.234375 -0.1875 C 12.328125 0.0625 11.40625 0.1875 10.46875 0.1875 C 8.75 0.1875 7.175781 -0.210938 5.75 -1.015625 C 4.332031 -1.828125 3.207031 -2.957031 2.375 -4.40625 C 1.550781 -5.851562 1.140625 -7.484375 1.140625 -9.296875 C 1.140625 -11.109375 1.550781 -12.738281 2.375 -14.1875 C 3.207031 -15.632812 4.332031 -16.757812 5.75 -17.5625 C 7.175781 -18.375 8.75 -18.78125 10.46875 -18.78125 C 12.207031 -18.78125 13.785156 -18.375 15.203125 -17.5625 C 16.628906 -16.757812 17.75 -15.640625 18.5625 -14.203125 C 19.382812 -12.765625 19.796875 -11.128906 19.796875 -9.296875 C 19.796875 -7.523438 19.40625 -5.925781 18.625 -4.5 C 17.84375 -3.082031 16.765625 -1.960938 15.390625 -1.140625 L 20.09375 3.515625 Z M 3.625 -9.296875 C 3.625 -7.828125 3.921875 -6.53125 4.515625 -5.40625 C 5.109375 -4.289062 5.925781 -3.429688 6.96875 -2.828125 C 8.007812 -2.222656 9.175781 -1.921875 10.46875 -1.921875 C 11.769531 -1.921875 12.9375 -2.222656 13.96875 -2.828125 C 15.007812 -3.429688 15.828125 -4.289062 16.421875 -5.40625 C 17.015625 -6.53125 17.3125 -7.828125 17.3125 -9.296875 C 17.3125 -10.785156 17.015625 -12.082031 16.421875 -13.1875 C 15.828125 -14.300781 15.015625 -15.160156 13.984375 -15.765625 C 12.953125 -16.367188 11.78125 -16.671875 10.46875 -16.671875 C 9.15625 -16.671875 7.984375 -16.367188 6.953125 -15.765625 C 5.921875 -15.160156 5.109375 -14.300781 4.515625 -13.1875 C 3.921875 -12.082031 3.625 -10.785156 3.625 -9.296875 Z M 3.625 -9.296875 "/></g></g></g><g fill="#0a152f" fill-opacity="1"><g transform="translate(265.614934, 124.025058)"><g><path d="M 4.421875 -18.5625 L 4.421875 -6.8125 C 4.421875 -5.164062 4.820312 -3.941406 5.625 -3.140625 C 6.4375 -2.335938 7.5625 -1.9375 9 -1.9375 C 10.425781 -1.9375 11.539062 -2.335938 12.34375 -3.140625 C 13.15625 -3.941406 13.5625 -5.164062 13.5625 -6.8125 L 13.5625 -18.5625 L 15.984375 -18.5625 L 15.984375 -6.84375 C 15.984375 -5.300781 15.671875 -4 15.046875 -2.9375 C 14.429688 -1.882812 13.59375 -1.097656 12.53125 -0.578125 C 11.476562 -0.0664062 10.296875 0.1875 8.984375 0.1875 C 7.660156 0.1875 6.472656 -0.0664062 5.421875 -0.578125 C 4.367188 -1.097656 3.535156 -1.882812 2.921875 -2.9375 C 2.304688 -4 2 -5.300781 2 -6.84375 L 2 -18.5625 Z M 4.421875 -18.5625 "/></g></g></g><g fill="#0a152f" fill-opacity="1"><g transform="translate(287.592066, 124.025058)"><g><path d="M 4.46875 -16.59375 L 4.46875 -10.390625 L 11.25 -10.390625 L 11.25 -8.390625 L 4.46875 -8.390625 L 4.46875 -2 L 12.046875 -2 L 12.046875 0 L 2.046875 0 L 2.046875 -18.59375 L 12.046875 -18.59375 L 12.046875 -16.59375 Z M 4.46875 -16.59375 "/></g></g></g><g fill="#0a152f" fill-opacity="1"><g transform="translate(305.253998, 124.025058)"><g><path d="M 4.46875 -18.5625 L 4.46875 0 L 2.046875 0 L 2.046875 -18.5625 Z M 4.46875 -18.5625 "/></g></g></g><g fill="#0a152f" fill-opacity="1"><g transform="translate(315.803849, 124.025058)"><g><path d="M 11.828125 0 L 7.40625 -7.59375 L 4.46875 -7.59375 L 4.46875 0 L 2.046875 0 L 2.046875 -18.5625 L 8.046875 -18.5625 C 9.453125 -18.5625 10.632812 -18.320312 11.59375 -17.84375 C 12.5625 -17.363281 13.285156 -16.710938 13.765625 -15.890625 C 14.253906 -15.078125 14.5 -14.148438 14.5 -13.109375 C 14.5 -11.828125 14.128906 -10.695312 13.390625 -9.71875 C 12.648438 -8.75 11.539062 -8.101562 10.0625 -7.78125 L 14.734375 0 Z M 4.46875 -9.53125 L 8.046875 -9.53125 C 9.359375 -9.53125 10.34375 -9.851562 11 -10.5 C 11.65625 -11.15625 11.984375 -12.023438 11.984375 -13.109375 C 11.984375 -14.210938 11.660156 -15.066406 11.015625 -15.671875 C 10.367188 -16.273438 9.378906 -16.578125 8.046875 -16.578125 L 4.46875 -16.578125 Z M 4.46875 -9.53125 "/></g></g></g><g fill="#0a152f" fill-opacity="1"><g transform="translate(335.996298, 124.025058)"><g><path d="M 13.03125 -4.125 L 4.921875 -4.125 L 3.4375 0 L 0.875 0 L 7.59375 -18.46875 L 10.390625 -18.46875 L 17.078125 0 L 14.515625 0 Z M 12.328125 -6.09375 L 8.984375 -15.484375 L 5.625 -6.09375 Z M 12.328125 -6.09375 "/></g></g></g><path stroke-linecap="butt" transform="matrix(0.75, 0, 0, 0.75, 210.443883, 134.891445)" fill="none" stroke-linejoin="miter" d="M 0.00190569 1.498906 L 345.944628 1.498906 " stroke="#0a152f" stroke-width="3" stroke-opacity="1" stroke-miterlimit="4"/><g fill="#0a152f" fill-opacity="1"><g transform="translate(210.444908, 161.398203)"><g><path d="M 7.140625 0.171875 C 6.035156 0.171875 5.046875 -0.0195312 4.171875 -0.40625 C 3.304688 -0.800781 2.625 -1.347656 2.125 -2.046875 C 1.632812 -2.742188 1.378906 -3.546875 1.359375 -4.453125 L 3.6875 -4.453125 C 3.769531 -3.671875 4.09375 -3.007812 4.65625 -2.46875 C 5.226562 -1.9375 6.054688 -1.671875 7.140625 -1.671875 C 8.179688 -1.671875 9 -1.929688 9.59375 -2.453125 C 10.195312 -2.972656 10.5 -3.640625 10.5 -4.453125 C 10.5 -5.097656 10.320312 -5.617188 9.96875 -6.015625 C 9.613281 -6.410156 9.171875 -6.710938 8.640625 -6.921875 C 8.117188 -7.128906 7.410156 -7.351562 6.515625 -7.59375 C 5.410156 -7.882812 4.523438 -8.171875 3.859375 -8.453125 C 3.203125 -8.742188 2.640625 -9.195312 2.171875 -9.8125 C 1.703125 -10.425781 1.46875 -11.253906 1.46875 -12.296875 C 1.46875 -13.203125 1.695312 -14.003906 2.15625 -14.703125 C 2.625 -15.410156 3.273438 -15.957031 4.109375 -16.34375 C 4.953125 -16.726562 5.914062 -16.921875 7 -16.921875 C 8.5625 -16.921875 9.84375 -16.53125 10.84375 -15.75 C 11.84375 -14.96875 12.40625 -13.925781 12.53125 -12.625 L 10.140625 -12.625 C 10.054688 -13.269531 9.71875 -13.832031 9.125 -14.3125 C 8.539062 -14.800781 7.757812 -15.046875 6.78125 -15.046875 C 5.875 -15.046875 5.128906 -14.8125 4.546875 -14.34375 C 3.972656 -13.875 3.6875 -13.21875 3.6875 -12.375 C 3.6875 -11.757812 3.859375 -11.257812 4.203125 -10.875 C 4.546875 -10.5 4.96875 -10.207031 5.46875 -10 C 5.976562 -9.800781 6.6875 -9.578125 7.59375 -9.328125 C 8.695312 -9.023438 9.582031 -8.722656 10.25 -8.421875 C 10.925781 -8.128906 11.503906 -7.675781 11.984375 -7.0625 C 12.460938 -6.445312 12.703125 -5.609375 12.703125 -4.546875 C 12.703125 -3.734375 12.484375 -2.96875 12.046875 -2.25 C 11.617188 -1.53125 10.984375 -0.945312 10.140625 -0.5 C 9.296875 -0.0507812 8.296875 0.171875 7.140625 0.171875 Z M 7.140625 0.171875 "/></g></g></g><g fill="#0a152f" fill-opacity="1"><g transform="translate(224.513664, 161.398203)"><g><path d="M 2.546875 0.140625 C 2.128906 0.140625 1.773438 0 1.484375 -0.28125 C 1.191406 -0.570312 1.046875 -0.925781 1.046875 -1.34375 C 1.046875 -1.757812 1.191406 -2.109375 1.484375 -2.390625 C 1.773438 -2.679688 2.128906 -2.828125 2.546875 -2.828125 C 2.941406 -2.828125 3.28125 -2.679688 3.5625 -2.390625 C 3.84375 -2.109375 3.984375 -1.757812 3.984375 -1.34375 C 3.984375 -0.925781 3.84375 -0.570312 3.5625 -0.28125 C 3.28125 0 2.941406 0.140625 2.546875 0.140625 Z M 2.546875 0.140625 "/></g></g></g><g fill="#0a152f" fill-opacity="1"><g transform="translate(229.546778, 161.398203)"><g><path d="M 4.03125 -14.9375 L 4.03125 -9.34375 L 10.109375 -9.34375 L 10.109375 -7.546875 L 4.03125 -7.546875 L 4.03125 -1.796875 L 10.828125 -1.796875 L 10.828125 0 L 1.84375 0 L 1.84375 -16.734375 L 10.828125 -16.734375 L 10.828125 -14.9375 Z M 4.03125 -14.9375 "/></g></g></g><g fill="#0a152f" fill-opacity="1"><g transform="translate(241.841965, 161.398203)"><g><path d="M 2.546875 0.140625 C 2.128906 0.140625 1.773438 0 1.484375 -0.28125 C 1.191406 -0.570312 1.046875 -0.925781 1.046875 -1.34375 C 1.046875 -1.757812 1.191406 -2.109375 1.484375 -2.390625 C 1.773438 -2.679688 2.128906 -2.828125 2.546875 -2.828125 C 2.941406 -2.828125 3.28125 -2.679688 3.5625 -2.390625 C 3.84375 -2.109375 3.984375 -1.757812 3.984375 -1.34375 C 3.984375 -0.925781 3.84375 -0.570312 3.5625 -0.28125 C 3.28125 0 2.941406 0.140625 2.546875 0.140625 Z M 2.546875 0.140625 "/></g></g></g><path stroke-linecap="butt" transform="matrix(0.53033, 0.53033, -0.53033, 0.53033, 71.688367, 51.035581)" fill="none" stroke-linejoin="miter" d="M 0.00246565 1.499336 L 228.810444 1.499336 " stroke="#ffffff" stroke-width="3" stroke-opacity="1" stroke-miterlimit="4"/><path stroke-linecap="butt" transform="matrix(0.75, 0, 0, 0.75, 70.820431, 133.031138)" fill="none" stroke-linejoin="miter" d="M -0.000157532 1.500149 L 161.895683 1.500149 " stroke="#ffffff" stroke-width="3" stroke-opacity="1" stroke-miterlimit="4"/></svg>